%TF.GenerationSoftware,KiCad,Pcbnew,10.0.3*%
%TF.CreationDate,2026-06-11T12:05:04+01:00*%
%TF.ProjectId,6 Integrated Air Quality & Environmental Monitor,3620496e-7465-4677-9261-746564204169,rev?*%
%TF.SameCoordinates,Original*%
%TF.FileFunction,Legend,Top*%
%TF.FilePolarity,Positive*%
%FSLAX46Y46*%
G04 Gerber Fmt 4.6, Leading zero omitted, Abs format (unit mm)*
G04 Created by KiCad (PCBNEW 10.0.3) date 2026-06-11 12:05:04*
%MOMM*%
%LPD*%
G01*
G04 APERTURE LIST*
%ADD10C,0.150000*%
%ADD11C,0.100000*%
%ADD12C,0.120000*%
G04 APERTURE END LIST*
D10*
X269632390Y-90791792D02*
X269594295Y-90867982D01*
X269594295Y-90867982D02*
X269594295Y-90982268D01*
X269594295Y-90982268D02*
X269632390Y-91096554D01*
X269632390Y-91096554D02*
X269708580Y-91172744D01*
X269708580Y-91172744D02*
X269784771Y-91210839D01*
X269784771Y-91210839D02*
X269937152Y-91248935D01*
X269937152Y-91248935D02*
X270051438Y-91248935D01*
X270051438Y-91248935D02*
X270203819Y-91210839D01*
X270203819Y-91210839D02*
X270280009Y-91172744D01*
X270280009Y-91172744D02*
X270356200Y-91096554D01*
X270356200Y-91096554D02*
X270394295Y-90982268D01*
X270394295Y-90982268D02*
X270394295Y-90906077D01*
X270394295Y-90906077D02*
X270356200Y-90791792D01*
X270356200Y-90791792D02*
X270318104Y-90753696D01*
X270318104Y-90753696D02*
X270051438Y-90753696D01*
X270051438Y-90753696D02*
X270051438Y-90906077D01*
X270394295Y-90410839D02*
X269594295Y-90410839D01*
X269594295Y-90410839D02*
X270394295Y-89953696D01*
X270394295Y-89953696D02*
X269594295Y-89953696D01*
X270394295Y-89572744D02*
X269594295Y-89572744D01*
X269594295Y-89572744D02*
X269594295Y-89382268D01*
X269594295Y-89382268D02*
X269632390Y-89267982D01*
X269632390Y-89267982D02*
X269708580Y-89191792D01*
X269708580Y-89191792D02*
X269784771Y-89153697D01*
X269784771Y-89153697D02*
X269937152Y-89115601D01*
X269937152Y-89115601D02*
X270051438Y-89115601D01*
X270051438Y-89115601D02*
X270203819Y-89153697D01*
X270203819Y-89153697D02*
X270280009Y-89191792D01*
X270280009Y-89191792D02*
X270356200Y-89267982D01*
X270356200Y-89267982D02*
X270394295Y-89382268D01*
X270394295Y-89382268D02*
X270394295Y-89572744D01*
X269594295Y-92829887D02*
X269594295Y-93210839D01*
X269594295Y-93210839D02*
X269975247Y-93248935D01*
X269975247Y-93248935D02*
X269937152Y-93210839D01*
X269937152Y-93210839D02*
X269899057Y-93134649D01*
X269899057Y-93134649D02*
X269899057Y-92944173D01*
X269899057Y-92944173D02*
X269937152Y-92867982D01*
X269937152Y-92867982D02*
X269975247Y-92829887D01*
X269975247Y-92829887D02*
X270051438Y-92791792D01*
X270051438Y-92791792D02*
X270241914Y-92791792D01*
X270241914Y-92791792D02*
X270318104Y-92829887D01*
X270318104Y-92829887D02*
X270356200Y-92867982D01*
X270356200Y-92867982D02*
X270394295Y-92944173D01*
X270394295Y-92944173D02*
X270394295Y-93134649D01*
X270394295Y-93134649D02*
X270356200Y-93210839D01*
X270356200Y-93210839D02*
X270318104Y-93248935D01*
X269594295Y-92563220D02*
X270394295Y-92296553D01*
X270394295Y-92296553D02*
X269594295Y-92029887D01*
X270165723Y-87248935D02*
X270165723Y-86867982D01*
X270394295Y-87325125D02*
X269594295Y-87058458D01*
X269594295Y-87058458D02*
X270394295Y-86791792D01*
X228684921Y-94556381D02*
X228303968Y-94556381D01*
X228761111Y-94327809D02*
X228494444Y-95127809D01*
X228494444Y-95127809D02*
X228227778Y-94327809D01*
X226146825Y-94327809D02*
X226146825Y-95127809D01*
X226146825Y-95127809D02*
X225956349Y-95127809D01*
X225956349Y-95127809D02*
X225842063Y-95089714D01*
X225842063Y-95089714D02*
X225765873Y-95013524D01*
X225765873Y-95013524D02*
X225727778Y-94937333D01*
X225727778Y-94937333D02*
X225689682Y-94784952D01*
X225689682Y-94784952D02*
X225689682Y-94670666D01*
X225689682Y-94670666D02*
X225727778Y-94518285D01*
X225727778Y-94518285D02*
X225765873Y-94442095D01*
X225765873Y-94442095D02*
X225842063Y-94365905D01*
X225842063Y-94365905D02*
X225956349Y-94327809D01*
X225956349Y-94327809D02*
X226146825Y-94327809D01*
X220765873Y-95127809D02*
X221146825Y-95127809D01*
X221146825Y-95127809D02*
X221184921Y-94746857D01*
X221184921Y-94746857D02*
X221146825Y-94784952D01*
X221146825Y-94784952D02*
X221070635Y-94823047D01*
X221070635Y-94823047D02*
X220880159Y-94823047D01*
X220880159Y-94823047D02*
X220803968Y-94784952D01*
X220803968Y-94784952D02*
X220765873Y-94746857D01*
X220765873Y-94746857D02*
X220727778Y-94670666D01*
X220727778Y-94670666D02*
X220727778Y-94480190D01*
X220727778Y-94480190D02*
X220765873Y-94404000D01*
X220765873Y-94404000D02*
X220803968Y-94365905D01*
X220803968Y-94365905D02*
X220880159Y-94327809D01*
X220880159Y-94327809D02*
X221070635Y-94327809D01*
X221070635Y-94327809D02*
X221146825Y-94365905D01*
X221146825Y-94365905D02*
X221184921Y-94404000D01*
X220499206Y-95127809D02*
X220232539Y-94327809D01*
X220232539Y-94327809D02*
X219965873Y-95127809D01*
X223727778Y-95089714D02*
X223803968Y-95127809D01*
X223803968Y-95127809D02*
X223918254Y-95127809D01*
X223918254Y-95127809D02*
X224032540Y-95089714D01*
X224032540Y-95089714D02*
X224108730Y-95013524D01*
X224108730Y-95013524D02*
X224146825Y-94937333D01*
X224146825Y-94937333D02*
X224184921Y-94784952D01*
X224184921Y-94784952D02*
X224184921Y-94670666D01*
X224184921Y-94670666D02*
X224146825Y-94518285D01*
X224146825Y-94518285D02*
X224108730Y-94442095D01*
X224108730Y-94442095D02*
X224032540Y-94365905D01*
X224032540Y-94365905D02*
X223918254Y-94327809D01*
X223918254Y-94327809D02*
X223842063Y-94327809D01*
X223842063Y-94327809D02*
X223727778Y-94365905D01*
X223727778Y-94365905D02*
X223689682Y-94404000D01*
X223689682Y-94404000D02*
X223689682Y-94670666D01*
X223689682Y-94670666D02*
X223842063Y-94670666D01*
X223346825Y-94327809D02*
X223346825Y-95127809D01*
X223346825Y-95127809D02*
X222889682Y-94327809D01*
X222889682Y-94327809D02*
X222889682Y-95127809D01*
X222508730Y-94327809D02*
X222508730Y-95127809D01*
X222508730Y-95127809D02*
X222318254Y-95127809D01*
X222318254Y-95127809D02*
X222203968Y-95089714D01*
X222203968Y-95089714D02*
X222127778Y-95013524D01*
X222127778Y-95013524D02*
X222089683Y-94937333D01*
X222089683Y-94937333D02*
X222051587Y-94784952D01*
X222051587Y-94784952D02*
X222051587Y-94670666D01*
X222051587Y-94670666D02*
X222089683Y-94518285D01*
X222089683Y-94518285D02*
X222127778Y-94442095D01*
X222127778Y-94442095D02*
X222203968Y-94365905D01*
X222203968Y-94365905D02*
X222318254Y-94327809D01*
X222318254Y-94327809D02*
X222508730Y-94327809D01*
X262748935Y-93459675D02*
X262367982Y-93459675D01*
X262825125Y-93231103D02*
X262558458Y-94031103D01*
X262558458Y-94031103D02*
X262291792Y-93231103D01*
X260210839Y-93231103D02*
X260210839Y-94031103D01*
X260210839Y-94031103D02*
X260020363Y-94031103D01*
X260020363Y-94031103D02*
X259906077Y-93993008D01*
X259906077Y-93993008D02*
X259829887Y-93916818D01*
X259829887Y-93916818D02*
X259791792Y-93840627D01*
X259791792Y-93840627D02*
X259753696Y-93688246D01*
X259753696Y-93688246D02*
X259753696Y-93573960D01*
X259753696Y-93573960D02*
X259791792Y-93421579D01*
X259791792Y-93421579D02*
X259829887Y-93345389D01*
X259829887Y-93345389D02*
X259906077Y-93269199D01*
X259906077Y-93269199D02*
X260020363Y-93231103D01*
X260020363Y-93231103D02*
X260210839Y-93231103D01*
X254829887Y-94031103D02*
X255210839Y-94031103D01*
X255210839Y-94031103D02*
X255248935Y-93650151D01*
X255248935Y-93650151D02*
X255210839Y-93688246D01*
X255210839Y-93688246D02*
X255134649Y-93726341D01*
X255134649Y-93726341D02*
X254944173Y-93726341D01*
X254944173Y-93726341D02*
X254867982Y-93688246D01*
X254867982Y-93688246D02*
X254829887Y-93650151D01*
X254829887Y-93650151D02*
X254791792Y-93573960D01*
X254791792Y-93573960D02*
X254791792Y-93383484D01*
X254791792Y-93383484D02*
X254829887Y-93307294D01*
X254829887Y-93307294D02*
X254867982Y-93269199D01*
X254867982Y-93269199D02*
X254944173Y-93231103D01*
X254944173Y-93231103D02*
X255134649Y-93231103D01*
X255134649Y-93231103D02*
X255210839Y-93269199D01*
X255210839Y-93269199D02*
X255248935Y-93307294D01*
X254563220Y-94031103D02*
X254296553Y-93231103D01*
X254296553Y-93231103D02*
X254029887Y-94031103D01*
X257791792Y-93993008D02*
X257867982Y-94031103D01*
X257867982Y-94031103D02*
X257982268Y-94031103D01*
X257982268Y-94031103D02*
X258096554Y-93993008D01*
X258096554Y-93993008D02*
X258172744Y-93916818D01*
X258172744Y-93916818D02*
X258210839Y-93840627D01*
X258210839Y-93840627D02*
X258248935Y-93688246D01*
X258248935Y-93688246D02*
X258248935Y-93573960D01*
X258248935Y-93573960D02*
X258210839Y-93421579D01*
X258210839Y-93421579D02*
X258172744Y-93345389D01*
X258172744Y-93345389D02*
X258096554Y-93269199D01*
X258096554Y-93269199D02*
X257982268Y-93231103D01*
X257982268Y-93231103D02*
X257906077Y-93231103D01*
X257906077Y-93231103D02*
X257791792Y-93269199D01*
X257791792Y-93269199D02*
X257753696Y-93307294D01*
X257753696Y-93307294D02*
X257753696Y-93573960D01*
X257753696Y-93573960D02*
X257906077Y-93573960D01*
X257410839Y-93231103D02*
X257410839Y-94031103D01*
X257410839Y-94031103D02*
X256953696Y-93231103D01*
X256953696Y-93231103D02*
X256953696Y-94031103D01*
X256572744Y-93231103D02*
X256572744Y-94031103D01*
X256572744Y-94031103D02*
X256382268Y-94031103D01*
X256382268Y-94031103D02*
X256267982Y-93993008D01*
X256267982Y-93993008D02*
X256191792Y-93916818D01*
X256191792Y-93916818D02*
X256153697Y-93840627D01*
X256153697Y-93840627D02*
X256115601Y-93688246D01*
X256115601Y-93688246D02*
X256115601Y-93573960D01*
X256115601Y-93573960D02*
X256153697Y-93421579D01*
X256153697Y-93421579D02*
X256191792Y-93345389D01*
X256191792Y-93345389D02*
X256267982Y-93269199D01*
X256267982Y-93269199D02*
X256382268Y-93231103D01*
X256382268Y-93231103D02*
X256572744Y-93231103D01*
X267584276Y-68751064D02*
X267584276Y-69132017D01*
X267355704Y-68674874D02*
X268155704Y-68941541D01*
X268155704Y-68941541D02*
X267355704Y-69208207D01*
X267355704Y-71289160D02*
X268155704Y-71289160D01*
X268155704Y-71289160D02*
X268155704Y-71479636D01*
X268155704Y-71479636D02*
X268117609Y-71593922D01*
X268117609Y-71593922D02*
X268041419Y-71670112D01*
X268041419Y-71670112D02*
X267965228Y-71708207D01*
X267965228Y-71708207D02*
X267812847Y-71746303D01*
X267812847Y-71746303D02*
X267698561Y-71746303D01*
X267698561Y-71746303D02*
X267546180Y-71708207D01*
X267546180Y-71708207D02*
X267469990Y-71670112D01*
X267469990Y-71670112D02*
X267393800Y-71593922D01*
X267393800Y-71593922D02*
X267355704Y-71479636D01*
X267355704Y-71479636D02*
X267355704Y-71289160D01*
X268155704Y-76670112D02*
X268155704Y-76289160D01*
X268155704Y-76289160D02*
X267774752Y-76251064D01*
X267774752Y-76251064D02*
X267812847Y-76289160D01*
X267812847Y-76289160D02*
X267850942Y-76365350D01*
X267850942Y-76365350D02*
X267850942Y-76555826D01*
X267850942Y-76555826D02*
X267812847Y-76632017D01*
X267812847Y-76632017D02*
X267774752Y-76670112D01*
X267774752Y-76670112D02*
X267698561Y-76708207D01*
X267698561Y-76708207D02*
X267508085Y-76708207D01*
X267508085Y-76708207D02*
X267431895Y-76670112D01*
X267431895Y-76670112D02*
X267393800Y-76632017D01*
X267393800Y-76632017D02*
X267355704Y-76555826D01*
X267355704Y-76555826D02*
X267355704Y-76365350D01*
X267355704Y-76365350D02*
X267393800Y-76289160D01*
X267393800Y-76289160D02*
X267431895Y-76251064D01*
X268155704Y-76936779D02*
X267355704Y-77203446D01*
X267355704Y-77203446D02*
X268155704Y-77470112D01*
X268117609Y-73708207D02*
X268155704Y-73632017D01*
X268155704Y-73632017D02*
X268155704Y-73517731D01*
X268155704Y-73517731D02*
X268117609Y-73403445D01*
X268117609Y-73403445D02*
X268041419Y-73327255D01*
X268041419Y-73327255D02*
X267965228Y-73289160D01*
X267965228Y-73289160D02*
X267812847Y-73251064D01*
X267812847Y-73251064D02*
X267698561Y-73251064D01*
X267698561Y-73251064D02*
X267546180Y-73289160D01*
X267546180Y-73289160D02*
X267469990Y-73327255D01*
X267469990Y-73327255D02*
X267393800Y-73403445D01*
X267393800Y-73403445D02*
X267355704Y-73517731D01*
X267355704Y-73517731D02*
X267355704Y-73593922D01*
X267355704Y-73593922D02*
X267393800Y-73708207D01*
X267393800Y-73708207D02*
X267431895Y-73746303D01*
X267431895Y-73746303D02*
X267698561Y-73746303D01*
X267698561Y-73746303D02*
X267698561Y-73593922D01*
X267355704Y-74089160D02*
X268155704Y-74089160D01*
X268155704Y-74089160D02*
X267355704Y-74546303D01*
X267355704Y-74546303D02*
X268155704Y-74546303D01*
X267355704Y-74927255D02*
X268155704Y-74927255D01*
X268155704Y-74927255D02*
X268155704Y-75117731D01*
X268155704Y-75117731D02*
X268117609Y-75232017D01*
X268117609Y-75232017D02*
X268041419Y-75308207D01*
X268041419Y-75308207D02*
X267965228Y-75346302D01*
X267965228Y-75346302D02*
X267812847Y-75384398D01*
X267812847Y-75384398D02*
X267698561Y-75384398D01*
X267698561Y-75384398D02*
X267546180Y-75346302D01*
X267546180Y-75346302D02*
X267469990Y-75308207D01*
X267469990Y-75308207D02*
X267393800Y-75232017D01*
X267393800Y-75232017D02*
X267355704Y-75117731D01*
X267355704Y-75117731D02*
X267355704Y-74927255D01*
X236207947Y-79120312D02*
X236207947Y-78739359D01*
X236436519Y-79196502D02*
X235636519Y-78929835D01*
X235636519Y-78929835D02*
X236436519Y-78663169D01*
X236436519Y-76582216D02*
X235636519Y-76582216D01*
X235636519Y-76582216D02*
X235636519Y-76391740D01*
X235636519Y-76391740D02*
X235674614Y-76277454D01*
X235674614Y-76277454D02*
X235750804Y-76201264D01*
X235750804Y-76201264D02*
X235826995Y-76163169D01*
X235826995Y-76163169D02*
X235979376Y-76125073D01*
X235979376Y-76125073D02*
X236093662Y-76125073D01*
X236093662Y-76125073D02*
X236246043Y-76163169D01*
X236246043Y-76163169D02*
X236322233Y-76201264D01*
X236322233Y-76201264D02*
X236398424Y-76277454D01*
X236398424Y-76277454D02*
X236436519Y-76391740D01*
X236436519Y-76391740D02*
X236436519Y-76582216D01*
X235636519Y-71201264D02*
X235636519Y-71582216D01*
X235636519Y-71582216D02*
X236017471Y-71620312D01*
X236017471Y-71620312D02*
X235979376Y-71582216D01*
X235979376Y-71582216D02*
X235941281Y-71506026D01*
X235941281Y-71506026D02*
X235941281Y-71315550D01*
X235941281Y-71315550D02*
X235979376Y-71239359D01*
X235979376Y-71239359D02*
X236017471Y-71201264D01*
X236017471Y-71201264D02*
X236093662Y-71163169D01*
X236093662Y-71163169D02*
X236284138Y-71163169D01*
X236284138Y-71163169D02*
X236360328Y-71201264D01*
X236360328Y-71201264D02*
X236398424Y-71239359D01*
X236398424Y-71239359D02*
X236436519Y-71315550D01*
X236436519Y-71315550D02*
X236436519Y-71506026D01*
X236436519Y-71506026D02*
X236398424Y-71582216D01*
X236398424Y-71582216D02*
X236360328Y-71620312D01*
X235636519Y-70934597D02*
X236436519Y-70667930D01*
X236436519Y-70667930D02*
X235636519Y-70401264D01*
X235674614Y-74163169D02*
X235636519Y-74239359D01*
X235636519Y-74239359D02*
X235636519Y-74353645D01*
X235636519Y-74353645D02*
X235674614Y-74467931D01*
X235674614Y-74467931D02*
X235750804Y-74544121D01*
X235750804Y-74544121D02*
X235826995Y-74582216D01*
X235826995Y-74582216D02*
X235979376Y-74620312D01*
X235979376Y-74620312D02*
X236093662Y-74620312D01*
X236093662Y-74620312D02*
X236246043Y-74582216D01*
X236246043Y-74582216D02*
X236322233Y-74544121D01*
X236322233Y-74544121D02*
X236398424Y-74467931D01*
X236398424Y-74467931D02*
X236436519Y-74353645D01*
X236436519Y-74353645D02*
X236436519Y-74277454D01*
X236436519Y-74277454D02*
X236398424Y-74163169D01*
X236398424Y-74163169D02*
X236360328Y-74125073D01*
X236360328Y-74125073D02*
X236093662Y-74125073D01*
X236093662Y-74125073D02*
X236093662Y-74277454D01*
X236436519Y-73782216D02*
X235636519Y-73782216D01*
X235636519Y-73782216D02*
X236436519Y-73325073D01*
X236436519Y-73325073D02*
X235636519Y-73325073D01*
X236436519Y-72944121D02*
X235636519Y-72944121D01*
X235636519Y-72944121D02*
X235636519Y-72753645D01*
X235636519Y-72753645D02*
X235674614Y-72639359D01*
X235674614Y-72639359D02*
X235750804Y-72563169D01*
X235750804Y-72563169D02*
X235826995Y-72525074D01*
X235826995Y-72525074D02*
X235979376Y-72486978D01*
X235979376Y-72486978D02*
X236093662Y-72486978D01*
X236093662Y-72486978D02*
X236246043Y-72525074D01*
X236246043Y-72525074D02*
X236322233Y-72563169D01*
X236322233Y-72563169D02*
X236398424Y-72639359D01*
X236398424Y-72639359D02*
X236436519Y-72753645D01*
X236436519Y-72753645D02*
X236436519Y-72944121D01*
X191437650Y-66998935D02*
X191437650Y-66617982D01*
X191666222Y-67075125D02*
X190866222Y-66808458D01*
X190866222Y-66808458D02*
X191666222Y-66541792D01*
X191666222Y-64460839D02*
X190866222Y-64460839D01*
X190866222Y-64460839D02*
X190866222Y-64270363D01*
X190866222Y-64270363D02*
X190904317Y-64156077D01*
X190904317Y-64156077D02*
X190980507Y-64079887D01*
X190980507Y-64079887D02*
X191056698Y-64041792D01*
X191056698Y-64041792D02*
X191209079Y-64003696D01*
X191209079Y-64003696D02*
X191323365Y-64003696D01*
X191323365Y-64003696D02*
X191475746Y-64041792D01*
X191475746Y-64041792D02*
X191551936Y-64079887D01*
X191551936Y-64079887D02*
X191628127Y-64156077D01*
X191628127Y-64156077D02*
X191666222Y-64270363D01*
X191666222Y-64270363D02*
X191666222Y-64460839D01*
X190866222Y-59079887D02*
X190866222Y-59460839D01*
X190866222Y-59460839D02*
X191247174Y-59498935D01*
X191247174Y-59498935D02*
X191209079Y-59460839D01*
X191209079Y-59460839D02*
X191170984Y-59384649D01*
X191170984Y-59384649D02*
X191170984Y-59194173D01*
X191170984Y-59194173D02*
X191209079Y-59117982D01*
X191209079Y-59117982D02*
X191247174Y-59079887D01*
X191247174Y-59079887D02*
X191323365Y-59041792D01*
X191323365Y-59041792D02*
X191513841Y-59041792D01*
X191513841Y-59041792D02*
X191590031Y-59079887D01*
X191590031Y-59079887D02*
X191628127Y-59117982D01*
X191628127Y-59117982D02*
X191666222Y-59194173D01*
X191666222Y-59194173D02*
X191666222Y-59384649D01*
X191666222Y-59384649D02*
X191628127Y-59460839D01*
X191628127Y-59460839D02*
X191590031Y-59498935D01*
X190866222Y-58813220D02*
X191666222Y-58546553D01*
X191666222Y-58546553D02*
X190866222Y-58279887D01*
X190904317Y-62041792D02*
X190866222Y-62117982D01*
X190866222Y-62117982D02*
X190866222Y-62232268D01*
X190866222Y-62232268D02*
X190904317Y-62346554D01*
X190904317Y-62346554D02*
X190980507Y-62422744D01*
X190980507Y-62422744D02*
X191056698Y-62460839D01*
X191056698Y-62460839D02*
X191209079Y-62498935D01*
X191209079Y-62498935D02*
X191323365Y-62498935D01*
X191323365Y-62498935D02*
X191475746Y-62460839D01*
X191475746Y-62460839D02*
X191551936Y-62422744D01*
X191551936Y-62422744D02*
X191628127Y-62346554D01*
X191628127Y-62346554D02*
X191666222Y-62232268D01*
X191666222Y-62232268D02*
X191666222Y-62156077D01*
X191666222Y-62156077D02*
X191628127Y-62041792D01*
X191628127Y-62041792D02*
X191590031Y-62003696D01*
X191590031Y-62003696D02*
X191323365Y-62003696D01*
X191323365Y-62003696D02*
X191323365Y-62156077D01*
X191666222Y-61660839D02*
X190866222Y-61660839D01*
X190866222Y-61660839D02*
X191666222Y-61203696D01*
X191666222Y-61203696D02*
X190866222Y-61203696D01*
X191666222Y-60822744D02*
X190866222Y-60822744D01*
X190866222Y-60822744D02*
X190866222Y-60632268D01*
X190866222Y-60632268D02*
X190904317Y-60517982D01*
X190904317Y-60517982D02*
X190980507Y-60441792D01*
X190980507Y-60441792D02*
X191056698Y-60403697D01*
X191056698Y-60403697D02*
X191209079Y-60365601D01*
X191209079Y-60365601D02*
X191323365Y-60365601D01*
X191323365Y-60365601D02*
X191475746Y-60403697D01*
X191475746Y-60403697D02*
X191551936Y-60441792D01*
X191551936Y-60441792D02*
X191628127Y-60517982D01*
X191628127Y-60517982D02*
X191666222Y-60632268D01*
X191666222Y-60632268D02*
X191666222Y-60822744D01*
X166445298Y-88873043D02*
X166445298Y-88492090D01*
X166673870Y-88949233D02*
X165873870Y-88682566D01*
X165873870Y-88682566D02*
X166673870Y-88415900D01*
X166673870Y-86334947D02*
X165873870Y-86334947D01*
X165873870Y-86334947D02*
X165873870Y-86144471D01*
X165873870Y-86144471D02*
X165911965Y-86030185D01*
X165911965Y-86030185D02*
X165988155Y-85953995D01*
X165988155Y-85953995D02*
X166064346Y-85915900D01*
X166064346Y-85915900D02*
X166216727Y-85877804D01*
X166216727Y-85877804D02*
X166331013Y-85877804D01*
X166331013Y-85877804D02*
X166483394Y-85915900D01*
X166483394Y-85915900D02*
X166559584Y-85953995D01*
X166559584Y-85953995D02*
X166635775Y-86030185D01*
X166635775Y-86030185D02*
X166673870Y-86144471D01*
X166673870Y-86144471D02*
X166673870Y-86334947D01*
X165873870Y-80953995D02*
X165873870Y-81334947D01*
X165873870Y-81334947D02*
X166254822Y-81373043D01*
X166254822Y-81373043D02*
X166216727Y-81334947D01*
X166216727Y-81334947D02*
X166178632Y-81258757D01*
X166178632Y-81258757D02*
X166178632Y-81068281D01*
X166178632Y-81068281D02*
X166216727Y-80992090D01*
X166216727Y-80992090D02*
X166254822Y-80953995D01*
X166254822Y-80953995D02*
X166331013Y-80915900D01*
X166331013Y-80915900D02*
X166521489Y-80915900D01*
X166521489Y-80915900D02*
X166597679Y-80953995D01*
X166597679Y-80953995D02*
X166635775Y-80992090D01*
X166635775Y-80992090D02*
X166673870Y-81068281D01*
X166673870Y-81068281D02*
X166673870Y-81258757D01*
X166673870Y-81258757D02*
X166635775Y-81334947D01*
X166635775Y-81334947D02*
X166597679Y-81373043D01*
X165873870Y-80687328D02*
X166673870Y-80420661D01*
X166673870Y-80420661D02*
X165873870Y-80153995D01*
X165911965Y-83915900D02*
X165873870Y-83992090D01*
X165873870Y-83992090D02*
X165873870Y-84106376D01*
X165873870Y-84106376D02*
X165911965Y-84220662D01*
X165911965Y-84220662D02*
X165988155Y-84296852D01*
X165988155Y-84296852D02*
X166064346Y-84334947D01*
X166064346Y-84334947D02*
X166216727Y-84373043D01*
X166216727Y-84373043D02*
X166331013Y-84373043D01*
X166331013Y-84373043D02*
X166483394Y-84334947D01*
X166483394Y-84334947D02*
X166559584Y-84296852D01*
X166559584Y-84296852D02*
X166635775Y-84220662D01*
X166635775Y-84220662D02*
X166673870Y-84106376D01*
X166673870Y-84106376D02*
X166673870Y-84030185D01*
X166673870Y-84030185D02*
X166635775Y-83915900D01*
X166635775Y-83915900D02*
X166597679Y-83877804D01*
X166597679Y-83877804D02*
X166331013Y-83877804D01*
X166331013Y-83877804D02*
X166331013Y-84030185D01*
X166673870Y-83534947D02*
X165873870Y-83534947D01*
X165873870Y-83534947D02*
X166673870Y-83077804D01*
X166673870Y-83077804D02*
X165873870Y-83077804D01*
X166673870Y-82696852D02*
X165873870Y-82696852D01*
X165873870Y-82696852D02*
X165873870Y-82506376D01*
X165873870Y-82506376D02*
X165911965Y-82392090D01*
X165911965Y-82392090D02*
X165988155Y-82315900D01*
X165988155Y-82315900D02*
X166064346Y-82277805D01*
X166064346Y-82277805D02*
X166216727Y-82239709D01*
X166216727Y-82239709D02*
X166331013Y-82239709D01*
X166331013Y-82239709D02*
X166483394Y-82277805D01*
X166483394Y-82277805D02*
X166559584Y-82315900D01*
X166559584Y-82315900D02*
X166635775Y-82392090D01*
X166635775Y-82392090D02*
X166673870Y-82506376D01*
X166673870Y-82506376D02*
X166673870Y-82696852D01*
X137567971Y-80750425D02*
X137567971Y-81131377D01*
X137567971Y-81131377D02*
X137948923Y-81169473D01*
X137948923Y-81169473D02*
X137910828Y-81131377D01*
X137910828Y-81131377D02*
X137872733Y-81055187D01*
X137872733Y-81055187D02*
X137872733Y-80864711D01*
X137872733Y-80864711D02*
X137910828Y-80788520D01*
X137910828Y-80788520D02*
X137948923Y-80750425D01*
X137948923Y-80750425D02*
X138025114Y-80712330D01*
X138025114Y-80712330D02*
X138215590Y-80712330D01*
X138215590Y-80712330D02*
X138291780Y-80750425D01*
X138291780Y-80750425D02*
X138329876Y-80788520D01*
X138329876Y-80788520D02*
X138367971Y-80864711D01*
X138367971Y-80864711D02*
X138367971Y-81055187D01*
X138367971Y-81055187D02*
X138329876Y-81131377D01*
X138329876Y-81131377D02*
X138291780Y-81169473D01*
X137567971Y-80483758D02*
X138367971Y-80217091D01*
X138367971Y-80217091D02*
X137567971Y-79950425D01*
X137606066Y-83712330D02*
X137567971Y-83788520D01*
X137567971Y-83788520D02*
X137567971Y-83902806D01*
X137567971Y-83902806D02*
X137606066Y-84017092D01*
X137606066Y-84017092D02*
X137682256Y-84093282D01*
X137682256Y-84093282D02*
X137758447Y-84131377D01*
X137758447Y-84131377D02*
X137910828Y-84169473D01*
X137910828Y-84169473D02*
X138025114Y-84169473D01*
X138025114Y-84169473D02*
X138177495Y-84131377D01*
X138177495Y-84131377D02*
X138253685Y-84093282D01*
X138253685Y-84093282D02*
X138329876Y-84017092D01*
X138329876Y-84017092D02*
X138367971Y-83902806D01*
X138367971Y-83902806D02*
X138367971Y-83826615D01*
X138367971Y-83826615D02*
X138329876Y-83712330D01*
X138329876Y-83712330D02*
X138291780Y-83674234D01*
X138291780Y-83674234D02*
X138025114Y-83674234D01*
X138025114Y-83674234D02*
X138025114Y-83826615D01*
X138367971Y-83331377D02*
X137567971Y-83331377D01*
X137567971Y-83331377D02*
X138367971Y-82874234D01*
X138367971Y-82874234D02*
X137567971Y-82874234D01*
X138367971Y-82493282D02*
X137567971Y-82493282D01*
X137567971Y-82493282D02*
X137567971Y-82302806D01*
X137567971Y-82302806D02*
X137606066Y-82188520D01*
X137606066Y-82188520D02*
X137682256Y-82112330D01*
X137682256Y-82112330D02*
X137758447Y-82074235D01*
X137758447Y-82074235D02*
X137910828Y-82036139D01*
X137910828Y-82036139D02*
X138025114Y-82036139D01*
X138025114Y-82036139D02*
X138177495Y-82074235D01*
X138177495Y-82074235D02*
X138253685Y-82112330D01*
X138253685Y-82112330D02*
X138329876Y-82188520D01*
X138329876Y-82188520D02*
X138367971Y-82302806D01*
X138367971Y-82302806D02*
X138367971Y-82493282D01*
X138367971Y-86131377D02*
X137567971Y-86131377D01*
X137567971Y-86131377D02*
X137567971Y-85940901D01*
X137567971Y-85940901D02*
X137606066Y-85826615D01*
X137606066Y-85826615D02*
X137682256Y-85750425D01*
X137682256Y-85750425D02*
X137758447Y-85712330D01*
X137758447Y-85712330D02*
X137910828Y-85674234D01*
X137910828Y-85674234D02*
X138025114Y-85674234D01*
X138025114Y-85674234D02*
X138177495Y-85712330D01*
X138177495Y-85712330D02*
X138253685Y-85750425D01*
X138253685Y-85750425D02*
X138329876Y-85826615D01*
X138329876Y-85826615D02*
X138367971Y-85940901D01*
X138367971Y-85940901D02*
X138367971Y-86131377D01*
X138139399Y-88669473D02*
X138139399Y-88288520D01*
X138367971Y-88745663D02*
X137567971Y-88478996D01*
X137567971Y-88478996D02*
X138367971Y-88212330D01*
X155165723Y-66498935D02*
X155165723Y-66117982D01*
X155394295Y-66575125D02*
X154594295Y-66308458D01*
X154594295Y-66308458D02*
X155394295Y-66041792D01*
X155394295Y-63960839D02*
X154594295Y-63960839D01*
X154594295Y-63960839D02*
X154594295Y-63770363D01*
X154594295Y-63770363D02*
X154632390Y-63656077D01*
X154632390Y-63656077D02*
X154708580Y-63579887D01*
X154708580Y-63579887D02*
X154784771Y-63541792D01*
X154784771Y-63541792D02*
X154937152Y-63503696D01*
X154937152Y-63503696D02*
X155051438Y-63503696D01*
X155051438Y-63503696D02*
X155203819Y-63541792D01*
X155203819Y-63541792D02*
X155280009Y-63579887D01*
X155280009Y-63579887D02*
X155356200Y-63656077D01*
X155356200Y-63656077D02*
X155394295Y-63770363D01*
X155394295Y-63770363D02*
X155394295Y-63960839D01*
X154632390Y-61541792D02*
X154594295Y-61617982D01*
X154594295Y-61617982D02*
X154594295Y-61732268D01*
X154594295Y-61732268D02*
X154632390Y-61846554D01*
X154632390Y-61846554D02*
X154708580Y-61922744D01*
X154708580Y-61922744D02*
X154784771Y-61960839D01*
X154784771Y-61960839D02*
X154937152Y-61998935D01*
X154937152Y-61998935D02*
X155051438Y-61998935D01*
X155051438Y-61998935D02*
X155203819Y-61960839D01*
X155203819Y-61960839D02*
X155280009Y-61922744D01*
X155280009Y-61922744D02*
X155356200Y-61846554D01*
X155356200Y-61846554D02*
X155394295Y-61732268D01*
X155394295Y-61732268D02*
X155394295Y-61656077D01*
X155394295Y-61656077D02*
X155356200Y-61541792D01*
X155356200Y-61541792D02*
X155318104Y-61503696D01*
X155318104Y-61503696D02*
X155051438Y-61503696D01*
X155051438Y-61503696D02*
X155051438Y-61656077D01*
X155394295Y-61160839D02*
X154594295Y-61160839D01*
X154594295Y-61160839D02*
X155394295Y-60703696D01*
X155394295Y-60703696D02*
X154594295Y-60703696D01*
X155394295Y-60322744D02*
X154594295Y-60322744D01*
X154594295Y-60322744D02*
X154594295Y-60132268D01*
X154594295Y-60132268D02*
X154632390Y-60017982D01*
X154632390Y-60017982D02*
X154708580Y-59941792D01*
X154708580Y-59941792D02*
X154784771Y-59903697D01*
X154784771Y-59903697D02*
X154937152Y-59865601D01*
X154937152Y-59865601D02*
X155051438Y-59865601D01*
X155051438Y-59865601D02*
X155203819Y-59903697D01*
X155203819Y-59903697D02*
X155280009Y-59941792D01*
X155280009Y-59941792D02*
X155356200Y-60017982D01*
X155356200Y-60017982D02*
X155394295Y-60132268D01*
X155394295Y-60132268D02*
X155394295Y-60322744D01*
X154594295Y-58579887D02*
X154594295Y-58960839D01*
X154594295Y-58960839D02*
X154975247Y-58998935D01*
X154975247Y-58998935D02*
X154937152Y-58960839D01*
X154937152Y-58960839D02*
X154899057Y-58884649D01*
X154899057Y-58884649D02*
X154899057Y-58694173D01*
X154899057Y-58694173D02*
X154937152Y-58617982D01*
X154937152Y-58617982D02*
X154975247Y-58579887D01*
X154975247Y-58579887D02*
X155051438Y-58541792D01*
X155051438Y-58541792D02*
X155241914Y-58541792D01*
X155241914Y-58541792D02*
X155318104Y-58579887D01*
X155318104Y-58579887D02*
X155356200Y-58617982D01*
X155356200Y-58617982D02*
X155394295Y-58694173D01*
X155394295Y-58694173D02*
X155394295Y-58884649D01*
X155394295Y-58884649D02*
X155356200Y-58960839D01*
X155356200Y-58960839D02*
X155318104Y-58998935D01*
X154594295Y-58313220D02*
X155394295Y-58046553D01*
X155394295Y-58046553D02*
X154594295Y-57779887D01*
X108670112Y-52594295D02*
X108289160Y-52594295D01*
X108289160Y-52594295D02*
X108251064Y-52975247D01*
X108251064Y-52975247D02*
X108289160Y-52937152D01*
X108289160Y-52937152D02*
X108365350Y-52899057D01*
X108365350Y-52899057D02*
X108555826Y-52899057D01*
X108555826Y-52899057D02*
X108632017Y-52937152D01*
X108632017Y-52937152D02*
X108670112Y-52975247D01*
X108670112Y-52975247D02*
X108708207Y-53051438D01*
X108708207Y-53051438D02*
X108708207Y-53241914D01*
X108708207Y-53241914D02*
X108670112Y-53318104D01*
X108670112Y-53318104D02*
X108632017Y-53356200D01*
X108632017Y-53356200D02*
X108555826Y-53394295D01*
X108555826Y-53394295D02*
X108365350Y-53394295D01*
X108365350Y-53394295D02*
X108289160Y-53356200D01*
X108289160Y-53356200D02*
X108251064Y-53318104D01*
X108936779Y-52594295D02*
X109203446Y-53394295D01*
X109203446Y-53394295D02*
X109470112Y-52594295D01*
X105789160Y-53394295D02*
X105789160Y-52594295D01*
X105789160Y-52594295D02*
X105979636Y-52594295D01*
X105979636Y-52594295D02*
X106093922Y-52632390D01*
X106093922Y-52632390D02*
X106170112Y-52708580D01*
X106170112Y-52708580D02*
X106208207Y-52784771D01*
X106208207Y-52784771D02*
X106246303Y-52937152D01*
X106246303Y-52937152D02*
X106246303Y-53051438D01*
X106246303Y-53051438D02*
X106208207Y-53203819D01*
X106208207Y-53203819D02*
X106170112Y-53280009D01*
X106170112Y-53280009D02*
X106093922Y-53356200D01*
X106093922Y-53356200D02*
X105979636Y-53394295D01*
X105979636Y-53394295D02*
X105789160Y-53394295D01*
X106551064Y-52670485D02*
X106589160Y-52632390D01*
X106589160Y-52632390D02*
X106665350Y-52594295D01*
X106665350Y-52594295D02*
X106855826Y-52594295D01*
X106855826Y-52594295D02*
X106932017Y-52632390D01*
X106932017Y-52632390D02*
X106970112Y-52670485D01*
X106970112Y-52670485D02*
X107008207Y-52746676D01*
X107008207Y-52746676D02*
X107008207Y-52822866D01*
X107008207Y-52822866D02*
X106970112Y-52937152D01*
X106970112Y-52937152D02*
X106512969Y-53394295D01*
X106512969Y-53394295D02*
X107008207Y-53394295D01*
X103208207Y-52632390D02*
X103132017Y-52594295D01*
X103132017Y-52594295D02*
X103017731Y-52594295D01*
X103017731Y-52594295D02*
X102903445Y-52632390D01*
X102903445Y-52632390D02*
X102827255Y-52708580D01*
X102827255Y-52708580D02*
X102789160Y-52784771D01*
X102789160Y-52784771D02*
X102751064Y-52937152D01*
X102751064Y-52937152D02*
X102751064Y-53051438D01*
X102751064Y-53051438D02*
X102789160Y-53203819D01*
X102789160Y-53203819D02*
X102827255Y-53280009D01*
X102827255Y-53280009D02*
X102903445Y-53356200D01*
X102903445Y-53356200D02*
X103017731Y-53394295D01*
X103017731Y-53394295D02*
X103093922Y-53394295D01*
X103093922Y-53394295D02*
X103208207Y-53356200D01*
X103208207Y-53356200D02*
X103246303Y-53318104D01*
X103246303Y-53318104D02*
X103246303Y-53051438D01*
X103246303Y-53051438D02*
X103093922Y-53051438D01*
X103589160Y-53394295D02*
X103589160Y-52594295D01*
X103589160Y-52594295D02*
X104046303Y-53394295D01*
X104046303Y-53394295D02*
X104046303Y-52594295D01*
X104427255Y-53394295D02*
X104427255Y-52594295D01*
X104427255Y-52594295D02*
X104617731Y-52594295D01*
X104617731Y-52594295D02*
X104732017Y-52632390D01*
X104732017Y-52632390D02*
X104808207Y-52708580D01*
X104808207Y-52708580D02*
X104846302Y-52784771D01*
X104846302Y-52784771D02*
X104884398Y-52937152D01*
X104884398Y-52937152D02*
X104884398Y-53051438D01*
X104884398Y-53051438D02*
X104846302Y-53203819D01*
X104846302Y-53203819D02*
X104808207Y-53280009D01*
X104808207Y-53280009D02*
X104732017Y-53356200D01*
X104732017Y-53356200D02*
X104617731Y-53394295D01*
X104617731Y-53394295D02*
X104427255Y-53394295D01*
X204920112Y-52094295D02*
X204539160Y-52094295D01*
X204539160Y-52094295D02*
X204501064Y-52475247D01*
X204501064Y-52475247D02*
X204539160Y-52437152D01*
X204539160Y-52437152D02*
X204615350Y-52399057D01*
X204615350Y-52399057D02*
X204805826Y-52399057D01*
X204805826Y-52399057D02*
X204882017Y-52437152D01*
X204882017Y-52437152D02*
X204920112Y-52475247D01*
X204920112Y-52475247D02*
X204958207Y-52551438D01*
X204958207Y-52551438D02*
X204958207Y-52741914D01*
X204958207Y-52741914D02*
X204920112Y-52818104D01*
X204920112Y-52818104D02*
X204882017Y-52856200D01*
X204882017Y-52856200D02*
X204805826Y-52894295D01*
X204805826Y-52894295D02*
X204615350Y-52894295D01*
X204615350Y-52894295D02*
X204539160Y-52856200D01*
X204539160Y-52856200D02*
X204501064Y-52818104D01*
X205186779Y-52094295D02*
X205453446Y-52894295D01*
X205453446Y-52894295D02*
X205720112Y-52094295D01*
X207039160Y-52894295D02*
X207039160Y-52094295D01*
X207039160Y-52094295D02*
X207229636Y-52094295D01*
X207229636Y-52094295D02*
X207343922Y-52132390D01*
X207343922Y-52132390D02*
X207420112Y-52208580D01*
X207420112Y-52208580D02*
X207458207Y-52284771D01*
X207458207Y-52284771D02*
X207496303Y-52437152D01*
X207496303Y-52437152D02*
X207496303Y-52551438D01*
X207496303Y-52551438D02*
X207458207Y-52703819D01*
X207458207Y-52703819D02*
X207420112Y-52780009D01*
X207420112Y-52780009D02*
X207343922Y-52856200D01*
X207343922Y-52856200D02*
X207229636Y-52894295D01*
X207229636Y-52894295D02*
X207039160Y-52894295D01*
X208182017Y-52360961D02*
X208182017Y-52894295D01*
X207991541Y-52056200D02*
X207801064Y-52627628D01*
X207801064Y-52627628D02*
X208296303Y-52627628D01*
X222420112Y-52094295D02*
X222039160Y-52094295D01*
X222039160Y-52094295D02*
X222001064Y-52475247D01*
X222001064Y-52475247D02*
X222039160Y-52437152D01*
X222039160Y-52437152D02*
X222115350Y-52399057D01*
X222115350Y-52399057D02*
X222305826Y-52399057D01*
X222305826Y-52399057D02*
X222382017Y-52437152D01*
X222382017Y-52437152D02*
X222420112Y-52475247D01*
X222420112Y-52475247D02*
X222458207Y-52551438D01*
X222458207Y-52551438D02*
X222458207Y-52741914D01*
X222458207Y-52741914D02*
X222420112Y-52818104D01*
X222420112Y-52818104D02*
X222382017Y-52856200D01*
X222382017Y-52856200D02*
X222305826Y-52894295D01*
X222305826Y-52894295D02*
X222115350Y-52894295D01*
X222115350Y-52894295D02*
X222039160Y-52856200D01*
X222039160Y-52856200D02*
X222001064Y-52818104D01*
X222686779Y-52094295D02*
X222953446Y-52894295D01*
X222953446Y-52894295D02*
X223220112Y-52094295D01*
X229001064Y-52856200D02*
X229115350Y-52894295D01*
X229115350Y-52894295D02*
X229305826Y-52894295D01*
X229305826Y-52894295D02*
X229382017Y-52856200D01*
X229382017Y-52856200D02*
X229420112Y-52818104D01*
X229420112Y-52818104D02*
X229458207Y-52741914D01*
X229458207Y-52741914D02*
X229458207Y-52665723D01*
X229458207Y-52665723D02*
X229420112Y-52589533D01*
X229420112Y-52589533D02*
X229382017Y-52551438D01*
X229382017Y-52551438D02*
X229305826Y-52513342D01*
X229305826Y-52513342D02*
X229153445Y-52475247D01*
X229153445Y-52475247D02*
X229077255Y-52437152D01*
X229077255Y-52437152D02*
X229039160Y-52399057D01*
X229039160Y-52399057D02*
X229001064Y-52322866D01*
X229001064Y-52322866D02*
X229001064Y-52246676D01*
X229001064Y-52246676D02*
X229039160Y-52170485D01*
X229039160Y-52170485D02*
X229077255Y-52132390D01*
X229077255Y-52132390D02*
X229153445Y-52094295D01*
X229153445Y-52094295D02*
X229343922Y-52094295D01*
X229343922Y-52094295D02*
X229458207Y-52132390D01*
X229801065Y-52894295D02*
X229801065Y-52094295D01*
X229801065Y-52094295D02*
X229991541Y-52094295D01*
X229991541Y-52094295D02*
X230105827Y-52132390D01*
X230105827Y-52132390D02*
X230182017Y-52208580D01*
X230182017Y-52208580D02*
X230220112Y-52284771D01*
X230220112Y-52284771D02*
X230258208Y-52437152D01*
X230258208Y-52437152D02*
X230258208Y-52551438D01*
X230258208Y-52551438D02*
X230220112Y-52703819D01*
X230220112Y-52703819D02*
X230182017Y-52780009D01*
X230182017Y-52780009D02*
X230105827Y-52856200D01*
X230105827Y-52856200D02*
X229991541Y-52894295D01*
X229991541Y-52894295D02*
X229801065Y-52894295D01*
X230562969Y-52665723D02*
X230943922Y-52665723D01*
X230486779Y-52894295D02*
X230753446Y-52094295D01*
X230753446Y-52094295D02*
X231020112Y-52894295D01*
X226501064Y-52856200D02*
X226615350Y-52894295D01*
X226615350Y-52894295D02*
X226805826Y-52894295D01*
X226805826Y-52894295D02*
X226882017Y-52856200D01*
X226882017Y-52856200D02*
X226920112Y-52818104D01*
X226920112Y-52818104D02*
X226958207Y-52741914D01*
X226958207Y-52741914D02*
X226958207Y-52665723D01*
X226958207Y-52665723D02*
X226920112Y-52589533D01*
X226920112Y-52589533D02*
X226882017Y-52551438D01*
X226882017Y-52551438D02*
X226805826Y-52513342D01*
X226805826Y-52513342D02*
X226653445Y-52475247D01*
X226653445Y-52475247D02*
X226577255Y-52437152D01*
X226577255Y-52437152D02*
X226539160Y-52399057D01*
X226539160Y-52399057D02*
X226501064Y-52322866D01*
X226501064Y-52322866D02*
X226501064Y-52246676D01*
X226501064Y-52246676D02*
X226539160Y-52170485D01*
X226539160Y-52170485D02*
X226577255Y-52132390D01*
X226577255Y-52132390D02*
X226653445Y-52094295D01*
X226653445Y-52094295D02*
X226843922Y-52094295D01*
X226843922Y-52094295D02*
X226958207Y-52132390D01*
X227758208Y-52818104D02*
X227720112Y-52856200D01*
X227720112Y-52856200D02*
X227605827Y-52894295D01*
X227605827Y-52894295D02*
X227529636Y-52894295D01*
X227529636Y-52894295D02*
X227415350Y-52856200D01*
X227415350Y-52856200D02*
X227339160Y-52780009D01*
X227339160Y-52780009D02*
X227301065Y-52703819D01*
X227301065Y-52703819D02*
X227262969Y-52551438D01*
X227262969Y-52551438D02*
X227262969Y-52437152D01*
X227262969Y-52437152D02*
X227301065Y-52284771D01*
X227301065Y-52284771D02*
X227339160Y-52208580D01*
X227339160Y-52208580D02*
X227415350Y-52132390D01*
X227415350Y-52132390D02*
X227529636Y-52094295D01*
X227529636Y-52094295D02*
X227605827Y-52094295D01*
X227605827Y-52094295D02*
X227720112Y-52132390D01*
X227720112Y-52132390D02*
X227758208Y-52170485D01*
X228482017Y-52894295D02*
X228101065Y-52894295D01*
X228101065Y-52894295D02*
X228101065Y-52094295D01*
X209458207Y-52132390D02*
X209382017Y-52094295D01*
X209382017Y-52094295D02*
X209267731Y-52094295D01*
X209267731Y-52094295D02*
X209153445Y-52132390D01*
X209153445Y-52132390D02*
X209077255Y-52208580D01*
X209077255Y-52208580D02*
X209039160Y-52284771D01*
X209039160Y-52284771D02*
X209001064Y-52437152D01*
X209001064Y-52437152D02*
X209001064Y-52551438D01*
X209001064Y-52551438D02*
X209039160Y-52703819D01*
X209039160Y-52703819D02*
X209077255Y-52780009D01*
X209077255Y-52780009D02*
X209153445Y-52856200D01*
X209153445Y-52856200D02*
X209267731Y-52894295D01*
X209267731Y-52894295D02*
X209343922Y-52894295D01*
X209343922Y-52894295D02*
X209458207Y-52856200D01*
X209458207Y-52856200D02*
X209496303Y-52818104D01*
X209496303Y-52818104D02*
X209496303Y-52551438D01*
X209496303Y-52551438D02*
X209343922Y-52551438D01*
X209839160Y-52894295D02*
X209839160Y-52094295D01*
X209839160Y-52094295D02*
X210296303Y-52894295D01*
X210296303Y-52894295D02*
X210296303Y-52094295D01*
X210677255Y-52894295D02*
X210677255Y-52094295D01*
X210677255Y-52094295D02*
X210867731Y-52094295D01*
X210867731Y-52094295D02*
X210982017Y-52132390D01*
X210982017Y-52132390D02*
X211058207Y-52208580D01*
X211058207Y-52208580D02*
X211096302Y-52284771D01*
X211096302Y-52284771D02*
X211134398Y-52437152D01*
X211134398Y-52437152D02*
X211134398Y-52551438D01*
X211134398Y-52551438D02*
X211096302Y-52703819D01*
X211096302Y-52703819D02*
X211058207Y-52780009D01*
X211058207Y-52780009D02*
X210982017Y-52856200D01*
X210982017Y-52856200D02*
X210867731Y-52894295D01*
X210867731Y-52894295D02*
X210677255Y-52894295D01*
X224458207Y-52132390D02*
X224382017Y-52094295D01*
X224382017Y-52094295D02*
X224267731Y-52094295D01*
X224267731Y-52094295D02*
X224153445Y-52132390D01*
X224153445Y-52132390D02*
X224077255Y-52208580D01*
X224077255Y-52208580D02*
X224039160Y-52284771D01*
X224039160Y-52284771D02*
X224001064Y-52437152D01*
X224001064Y-52437152D02*
X224001064Y-52551438D01*
X224001064Y-52551438D02*
X224039160Y-52703819D01*
X224039160Y-52703819D02*
X224077255Y-52780009D01*
X224077255Y-52780009D02*
X224153445Y-52856200D01*
X224153445Y-52856200D02*
X224267731Y-52894295D01*
X224267731Y-52894295D02*
X224343922Y-52894295D01*
X224343922Y-52894295D02*
X224458207Y-52856200D01*
X224458207Y-52856200D02*
X224496303Y-52818104D01*
X224496303Y-52818104D02*
X224496303Y-52551438D01*
X224496303Y-52551438D02*
X224343922Y-52551438D01*
X224839160Y-52894295D02*
X224839160Y-52094295D01*
X224839160Y-52094295D02*
X225296303Y-52894295D01*
X225296303Y-52894295D02*
X225296303Y-52094295D01*
X225677255Y-52894295D02*
X225677255Y-52094295D01*
X225677255Y-52094295D02*
X225867731Y-52094295D01*
X225867731Y-52094295D02*
X225982017Y-52132390D01*
X225982017Y-52132390D02*
X226058207Y-52208580D01*
X226058207Y-52208580D02*
X226096302Y-52284771D01*
X226096302Y-52284771D02*
X226134398Y-52437152D01*
X226134398Y-52437152D02*
X226134398Y-52551438D01*
X226134398Y-52551438D02*
X226096302Y-52703819D01*
X226096302Y-52703819D02*
X226058207Y-52780009D01*
X226058207Y-52780009D02*
X225982017Y-52856200D01*
X225982017Y-52856200D02*
X225867731Y-52894295D01*
X225867731Y-52894295D02*
X225677255Y-52894295D01*
X276203152Y-55258458D02*
X276869819Y-55020363D01*
X276869819Y-55020363D02*
X276203152Y-54782268D01*
X275869819Y-54115601D02*
X276584104Y-54115601D01*
X276584104Y-54115601D02*
X276726961Y-54163220D01*
X276726961Y-54163220D02*
X276822200Y-54258458D01*
X276822200Y-54258458D02*
X276869819Y-54401315D01*
X276869819Y-54401315D02*
X276869819Y-54496553D01*
X276203152Y-53210839D02*
X276869819Y-53210839D01*
X276203152Y-53639410D02*
X276726961Y-53639410D01*
X276726961Y-53639410D02*
X276822200Y-53591791D01*
X276822200Y-53591791D02*
X276869819Y-53496553D01*
X276869819Y-53496553D02*
X276869819Y-53353696D01*
X276869819Y-53353696D02*
X276822200Y-53258458D01*
X276822200Y-53258458D02*
X276774580Y-53210839D01*
X276203152Y-52734648D02*
X276869819Y-52734648D01*
X276298390Y-52734648D02*
X276250771Y-52687029D01*
X276250771Y-52687029D02*
X276203152Y-52591791D01*
X276203152Y-52591791D02*
X276203152Y-52448934D01*
X276203152Y-52448934D02*
X276250771Y-52353696D01*
X276250771Y-52353696D02*
X276346009Y-52306077D01*
X276346009Y-52306077D02*
X276869819Y-52306077D01*
X276822200Y-51448934D02*
X276869819Y-51544172D01*
X276869819Y-51544172D02*
X276869819Y-51734648D01*
X276869819Y-51734648D02*
X276822200Y-51829886D01*
X276822200Y-51829886D02*
X276726961Y-51877505D01*
X276726961Y-51877505D02*
X276346009Y-51877505D01*
X276346009Y-51877505D02*
X276250771Y-51829886D01*
X276250771Y-51829886D02*
X276203152Y-51734648D01*
X276203152Y-51734648D02*
X276203152Y-51544172D01*
X276203152Y-51544172D02*
X276250771Y-51448934D01*
X276250771Y-51448934D02*
X276346009Y-51401315D01*
X276346009Y-51401315D02*
X276441247Y-51401315D01*
X276441247Y-51401315D02*
X276536485Y-51877505D01*
X275965057Y-51020362D02*
X275917438Y-50972743D01*
X275917438Y-50972743D02*
X275869819Y-50877505D01*
X275869819Y-50877505D02*
X275869819Y-50639410D01*
X275869819Y-50639410D02*
X275917438Y-50544172D01*
X275917438Y-50544172D02*
X275965057Y-50496553D01*
X275965057Y-50496553D02*
X276060295Y-50448934D01*
X276060295Y-50448934D02*
X276155533Y-50448934D01*
X276155533Y-50448934D02*
X276298390Y-50496553D01*
X276298390Y-50496553D02*
X276869819Y-51067981D01*
X276869819Y-51067981D02*
X276869819Y-50448934D01*
X275869819Y-49829886D02*
X275869819Y-49734648D01*
X275869819Y-49734648D02*
X275917438Y-49639410D01*
X275917438Y-49639410D02*
X275965057Y-49591791D01*
X275965057Y-49591791D02*
X276060295Y-49544172D01*
X276060295Y-49544172D02*
X276250771Y-49496553D01*
X276250771Y-49496553D02*
X276488866Y-49496553D01*
X276488866Y-49496553D02*
X276679342Y-49544172D01*
X276679342Y-49544172D02*
X276774580Y-49591791D01*
X276774580Y-49591791D02*
X276822200Y-49639410D01*
X276822200Y-49639410D02*
X276869819Y-49734648D01*
X276869819Y-49734648D02*
X276869819Y-49829886D01*
X276869819Y-49829886D02*
X276822200Y-49925124D01*
X276822200Y-49925124D02*
X276774580Y-49972743D01*
X276774580Y-49972743D02*
X276679342Y-50020362D01*
X276679342Y-50020362D02*
X276488866Y-50067981D01*
X276488866Y-50067981D02*
X276250771Y-50067981D01*
X276250771Y-50067981D02*
X276060295Y-50020362D01*
X276060295Y-50020362D02*
X275965057Y-49972743D01*
X275965057Y-49972743D02*
X275917438Y-49925124D01*
X275917438Y-49925124D02*
X275869819Y-49829886D01*
X275965057Y-49115600D02*
X275917438Y-49067981D01*
X275917438Y-49067981D02*
X275869819Y-48972743D01*
X275869819Y-48972743D02*
X275869819Y-48734648D01*
X275869819Y-48734648D02*
X275917438Y-48639410D01*
X275917438Y-48639410D02*
X275965057Y-48591791D01*
X275965057Y-48591791D02*
X276060295Y-48544172D01*
X276060295Y-48544172D02*
X276155533Y-48544172D01*
X276155533Y-48544172D02*
X276298390Y-48591791D01*
X276298390Y-48591791D02*
X276869819Y-49163219D01*
X276869819Y-49163219D02*
X276869819Y-48544172D01*
X275869819Y-47687029D02*
X275869819Y-47877505D01*
X275869819Y-47877505D02*
X275917438Y-47972743D01*
X275917438Y-47972743D02*
X275965057Y-48020362D01*
X275965057Y-48020362D02*
X276107914Y-48115600D01*
X276107914Y-48115600D02*
X276298390Y-48163219D01*
X276298390Y-48163219D02*
X276679342Y-48163219D01*
X276679342Y-48163219D02*
X276774580Y-48115600D01*
X276774580Y-48115600D02*
X276822200Y-48067981D01*
X276822200Y-48067981D02*
X276869819Y-47972743D01*
X276869819Y-47972743D02*
X276869819Y-47782267D01*
X276869819Y-47782267D02*
X276822200Y-47687029D01*
X276822200Y-47687029D02*
X276774580Y-47639410D01*
X276774580Y-47639410D02*
X276679342Y-47591791D01*
X276679342Y-47591791D02*
X276441247Y-47591791D01*
X276441247Y-47591791D02*
X276346009Y-47639410D01*
X276346009Y-47639410D02*
X276298390Y-47687029D01*
X276298390Y-47687029D02*
X276250771Y-47782267D01*
X276250771Y-47782267D02*
X276250771Y-47972743D01*
X276250771Y-47972743D02*
X276298390Y-48067981D01*
X276298390Y-48067981D02*
X276346009Y-48115600D01*
X276346009Y-48115600D02*
X276441247Y-48163219D01*
X202808993Y-83541792D02*
X202770898Y-83617982D01*
X202770898Y-83617982D02*
X202770898Y-83732268D01*
X202770898Y-83732268D02*
X202808993Y-83846554D01*
X202808993Y-83846554D02*
X202885183Y-83922744D01*
X202885183Y-83922744D02*
X202961374Y-83960839D01*
X202961374Y-83960839D02*
X203113755Y-83998935D01*
X203113755Y-83998935D02*
X203228041Y-83998935D01*
X203228041Y-83998935D02*
X203380422Y-83960839D01*
X203380422Y-83960839D02*
X203456612Y-83922744D01*
X203456612Y-83922744D02*
X203532803Y-83846554D01*
X203532803Y-83846554D02*
X203570898Y-83732268D01*
X203570898Y-83732268D02*
X203570898Y-83656077D01*
X203570898Y-83656077D02*
X203532803Y-83541792D01*
X203532803Y-83541792D02*
X203494707Y-83503696D01*
X203494707Y-83503696D02*
X203228041Y-83503696D01*
X203228041Y-83503696D02*
X203228041Y-83656077D01*
X203570898Y-83160839D02*
X202770898Y-83160839D01*
X202770898Y-83160839D02*
X203570898Y-82703696D01*
X203570898Y-82703696D02*
X202770898Y-82703696D01*
X203570898Y-82322744D02*
X202770898Y-82322744D01*
X202770898Y-82322744D02*
X202770898Y-82132268D01*
X202770898Y-82132268D02*
X202808993Y-82017982D01*
X202808993Y-82017982D02*
X202885183Y-81941792D01*
X202885183Y-81941792D02*
X202961374Y-81903697D01*
X202961374Y-81903697D02*
X203113755Y-81865601D01*
X203113755Y-81865601D02*
X203228041Y-81865601D01*
X203228041Y-81865601D02*
X203380422Y-81903697D01*
X203380422Y-81903697D02*
X203456612Y-81941792D01*
X203456612Y-81941792D02*
X203532803Y-82017982D01*
X203532803Y-82017982D02*
X203570898Y-82132268D01*
X203570898Y-82132268D02*
X203570898Y-82322744D01*
X202770898Y-80579887D02*
X202770898Y-80960839D01*
X202770898Y-80960839D02*
X203151850Y-80998935D01*
X203151850Y-80998935D02*
X203113755Y-80960839D01*
X203113755Y-80960839D02*
X203075660Y-80884649D01*
X203075660Y-80884649D02*
X203075660Y-80694173D01*
X203075660Y-80694173D02*
X203113755Y-80617982D01*
X203113755Y-80617982D02*
X203151850Y-80579887D01*
X203151850Y-80579887D02*
X203228041Y-80541792D01*
X203228041Y-80541792D02*
X203418517Y-80541792D01*
X203418517Y-80541792D02*
X203494707Y-80579887D01*
X203494707Y-80579887D02*
X203532803Y-80617982D01*
X203532803Y-80617982D02*
X203570898Y-80694173D01*
X203570898Y-80694173D02*
X203570898Y-80884649D01*
X203570898Y-80884649D02*
X203532803Y-80960839D01*
X203532803Y-80960839D02*
X203494707Y-80998935D01*
X202770898Y-80313220D02*
X203570898Y-80046553D01*
X203570898Y-80046553D02*
X202770898Y-79779887D01*
X203570898Y-85960839D02*
X202770898Y-85960839D01*
X202770898Y-85960839D02*
X202770898Y-85770363D01*
X202770898Y-85770363D02*
X202808993Y-85656077D01*
X202808993Y-85656077D02*
X202885183Y-85579887D01*
X202885183Y-85579887D02*
X202961374Y-85541792D01*
X202961374Y-85541792D02*
X203113755Y-85503696D01*
X203113755Y-85503696D02*
X203228041Y-85503696D01*
X203228041Y-85503696D02*
X203380422Y-85541792D01*
X203380422Y-85541792D02*
X203456612Y-85579887D01*
X203456612Y-85579887D02*
X203532803Y-85656077D01*
X203532803Y-85656077D02*
X203570898Y-85770363D01*
X203570898Y-85770363D02*
X203570898Y-85960839D01*
X203342326Y-88498935D02*
X203342326Y-88117982D01*
X203570898Y-88575125D02*
X202770898Y-88308458D01*
X202770898Y-88308458D02*
X203570898Y-88041792D01*
X199336464Y-95601723D02*
X199717417Y-95601723D01*
X199260274Y-95830295D02*
X199526941Y-95030295D01*
X199526941Y-95030295D02*
X199793607Y-95830295D01*
X200098369Y-95830295D02*
X200250750Y-95830295D01*
X200250750Y-95830295D02*
X200326940Y-95792200D01*
X200326940Y-95792200D02*
X200365036Y-95754104D01*
X200365036Y-95754104D02*
X200441226Y-95639819D01*
X200441226Y-95639819D02*
X200479321Y-95487438D01*
X200479321Y-95487438D02*
X200479321Y-95182676D01*
X200479321Y-95182676D02*
X200441226Y-95106485D01*
X200441226Y-95106485D02*
X200403131Y-95068390D01*
X200403131Y-95068390D02*
X200326940Y-95030295D01*
X200326940Y-95030295D02*
X200174559Y-95030295D01*
X200174559Y-95030295D02*
X200098369Y-95068390D01*
X200098369Y-95068390D02*
X200060274Y-95106485D01*
X200060274Y-95106485D02*
X200022178Y-95182676D01*
X200022178Y-95182676D02*
X200022178Y-95373152D01*
X200022178Y-95373152D02*
X200060274Y-95449342D01*
X200060274Y-95449342D02*
X200098369Y-95487438D01*
X200098369Y-95487438D02*
X200174559Y-95525533D01*
X200174559Y-95525533D02*
X200326940Y-95525533D01*
X200326940Y-95525533D02*
X200403131Y-95487438D01*
X200403131Y-95487438D02*
X200441226Y-95449342D01*
X200441226Y-95449342D02*
X200479321Y-95373152D01*
X202164369Y-95652495D02*
X202583417Y-95119161D01*
X202164369Y-95119161D02*
X202583417Y-95652495D01*
X204441807Y-95195390D02*
X204365617Y-95157295D01*
X204365617Y-95157295D02*
X204251331Y-95157295D01*
X204251331Y-95157295D02*
X204137045Y-95195390D01*
X204137045Y-95195390D02*
X204060855Y-95271580D01*
X204060855Y-95271580D02*
X204022760Y-95347771D01*
X204022760Y-95347771D02*
X203984664Y-95500152D01*
X203984664Y-95500152D02*
X203984664Y-95614438D01*
X203984664Y-95614438D02*
X204022760Y-95766819D01*
X204022760Y-95766819D02*
X204060855Y-95843009D01*
X204060855Y-95843009D02*
X204137045Y-95919200D01*
X204137045Y-95919200D02*
X204251331Y-95957295D01*
X204251331Y-95957295D02*
X204327522Y-95957295D01*
X204327522Y-95957295D02*
X204441807Y-95919200D01*
X204441807Y-95919200D02*
X204479903Y-95881104D01*
X204479903Y-95881104D02*
X204479903Y-95614438D01*
X204479903Y-95614438D02*
X204327522Y-95614438D01*
X204822760Y-95957295D02*
X204822760Y-95157295D01*
X204822760Y-95157295D02*
X205279903Y-95957295D01*
X205279903Y-95957295D02*
X205279903Y-95157295D01*
X205660855Y-95957295D02*
X205660855Y-95157295D01*
X205660855Y-95157295D02*
X205851331Y-95157295D01*
X205851331Y-95157295D02*
X205965617Y-95195390D01*
X205965617Y-95195390D02*
X206041807Y-95271580D01*
X206041807Y-95271580D02*
X206079902Y-95347771D01*
X206079902Y-95347771D02*
X206117998Y-95500152D01*
X206117998Y-95500152D02*
X206117998Y-95614438D01*
X206117998Y-95614438D02*
X206079902Y-95766819D01*
X206079902Y-95766819D02*
X206041807Y-95843009D01*
X206041807Y-95843009D02*
X205965617Y-95919200D01*
X205965617Y-95919200D02*
X205851331Y-95957295D01*
X205851331Y-95957295D02*
X205660855Y-95957295D01*
X207519912Y-95157295D02*
X207138960Y-95157295D01*
X207138960Y-95157295D02*
X207100864Y-95538247D01*
X207100864Y-95538247D02*
X207138960Y-95500152D01*
X207138960Y-95500152D02*
X207215150Y-95462057D01*
X207215150Y-95462057D02*
X207405626Y-95462057D01*
X207405626Y-95462057D02*
X207481817Y-95500152D01*
X207481817Y-95500152D02*
X207519912Y-95538247D01*
X207519912Y-95538247D02*
X207558007Y-95614438D01*
X207558007Y-95614438D02*
X207558007Y-95804914D01*
X207558007Y-95804914D02*
X207519912Y-95881104D01*
X207519912Y-95881104D02*
X207481817Y-95919200D01*
X207481817Y-95919200D02*
X207405626Y-95957295D01*
X207405626Y-95957295D02*
X207215150Y-95957295D01*
X207215150Y-95957295D02*
X207138960Y-95919200D01*
X207138960Y-95919200D02*
X207100864Y-95881104D01*
X207786579Y-95157295D02*
X208053246Y-95957295D01*
X208053246Y-95957295D02*
X208319912Y-95157295D01*
X270394295Y-95210839D02*
X269594295Y-95210839D01*
X269594295Y-95210839D02*
X269594295Y-95020363D01*
X269594295Y-95020363D02*
X269632390Y-94906077D01*
X269632390Y-94906077D02*
X269708580Y-94829887D01*
X269708580Y-94829887D02*
X269784771Y-94791792D01*
X269784771Y-94791792D02*
X269937152Y-94753696D01*
X269937152Y-94753696D02*
X270051438Y-94753696D01*
X270051438Y-94753696D02*
X270203819Y-94791792D01*
X270203819Y-94791792D02*
X270280009Y-94829887D01*
X270280009Y-94829887D02*
X270356200Y-94906077D01*
X270356200Y-94906077D02*
X270394295Y-95020363D01*
X270394295Y-95020363D02*
X270394295Y-95210839D01*
D11*
X145274666Y-73525832D02*
X145274666Y-74240117D01*
X145274666Y-74240117D02*
X145227047Y-74382974D01*
X145227047Y-74382974D02*
X145131809Y-74478213D01*
X145131809Y-74478213D02*
X144988952Y-74525832D01*
X144988952Y-74525832D02*
X144893714Y-74525832D01*
X146274666Y-74525832D02*
X145703238Y-74525832D01*
X145988952Y-74525832D02*
X145988952Y-73525832D01*
X145988952Y-73525832D02*
X145893714Y-73668689D01*
X145893714Y-73668689D02*
X145798476Y-73763927D01*
X145798476Y-73763927D02*
X145703238Y-73811546D01*
X147179428Y-73525832D02*
X146703238Y-73525832D01*
X146703238Y-73525832D02*
X146655619Y-74002022D01*
X146655619Y-74002022D02*
X146703238Y-73954403D01*
X146703238Y-73954403D02*
X146798476Y-73906784D01*
X146798476Y-73906784D02*
X147036571Y-73906784D01*
X147036571Y-73906784D02*
X147131809Y-73954403D01*
X147131809Y-73954403D02*
X147179428Y-74002022D01*
X147179428Y-74002022D02*
X147227047Y-74097260D01*
X147227047Y-74097260D02*
X147227047Y-74335355D01*
X147227047Y-74335355D02*
X147179428Y-74430593D01*
X147179428Y-74430593D02*
X147131809Y-74478213D01*
X147131809Y-74478213D02*
X147036571Y-74525832D01*
X147036571Y-74525832D02*
X146798476Y-74525832D01*
X146798476Y-74525832D02*
X146703238Y-74478213D01*
X146703238Y-74478213D02*
X146655619Y-74430593D01*
D10*
X160865618Y-85833332D02*
X159865618Y-85833332D01*
X159865618Y-85833332D02*
X160579903Y-85499999D01*
X160579903Y-85499999D02*
X159865618Y-85166666D01*
X159865618Y-85166666D02*
X160865618Y-85166666D01*
X160960856Y-84023809D02*
X160913237Y-84119047D01*
X160913237Y-84119047D02*
X160817999Y-84214285D01*
X160817999Y-84214285D02*
X160675141Y-84357142D01*
X160675141Y-84357142D02*
X160627522Y-84452380D01*
X160627522Y-84452380D02*
X160627522Y-84547618D01*
X160865618Y-84499999D02*
X160817999Y-84595237D01*
X160817999Y-84595237D02*
X160722760Y-84690475D01*
X160722760Y-84690475D02*
X160532284Y-84738094D01*
X160532284Y-84738094D02*
X160198951Y-84738094D01*
X160198951Y-84738094D02*
X160008475Y-84690475D01*
X160008475Y-84690475D02*
X159913237Y-84595237D01*
X159913237Y-84595237D02*
X159865618Y-84499999D01*
X159865618Y-84499999D02*
X159865618Y-84309523D01*
X159865618Y-84309523D02*
X159913237Y-84214285D01*
X159913237Y-84214285D02*
X160008475Y-84119047D01*
X160008475Y-84119047D02*
X160198951Y-84071428D01*
X160198951Y-84071428D02*
X160532284Y-84071428D01*
X160532284Y-84071428D02*
X160722760Y-84119047D01*
X160722760Y-84119047D02*
X160817999Y-84214285D01*
X160817999Y-84214285D02*
X160865618Y-84309523D01*
X160865618Y-84309523D02*
X160865618Y-84499999D01*
X159865618Y-83214285D02*
X159865618Y-83404761D01*
X159865618Y-83404761D02*
X159913237Y-83499999D01*
X159913237Y-83499999D02*
X159960856Y-83547618D01*
X159960856Y-83547618D02*
X160103713Y-83642856D01*
X160103713Y-83642856D02*
X160294189Y-83690475D01*
X160294189Y-83690475D02*
X160675141Y-83690475D01*
X160675141Y-83690475D02*
X160770379Y-83642856D01*
X160770379Y-83642856D02*
X160817999Y-83595237D01*
X160817999Y-83595237D02*
X160865618Y-83499999D01*
X160865618Y-83499999D02*
X160865618Y-83309523D01*
X160865618Y-83309523D02*
X160817999Y-83214285D01*
X160817999Y-83214285D02*
X160770379Y-83166666D01*
X160770379Y-83166666D02*
X160675141Y-83119047D01*
X160675141Y-83119047D02*
X160437046Y-83119047D01*
X160437046Y-83119047D02*
X160341808Y-83166666D01*
X160341808Y-83166666D02*
X160294189Y-83214285D01*
X160294189Y-83214285D02*
X160246570Y-83309523D01*
X160246570Y-83309523D02*
X160246570Y-83499999D01*
X160246570Y-83499999D02*
X160294189Y-83595237D01*
X160294189Y-83595237D02*
X160341808Y-83642856D01*
X160341808Y-83642856D02*
X160437046Y-83690475D01*
X127666666Y-100704819D02*
X127666666Y-101419104D01*
X127666666Y-101419104D02*
X127619047Y-101561961D01*
X127619047Y-101561961D02*
X127523809Y-101657200D01*
X127523809Y-101657200D02*
X127380952Y-101704819D01*
X127380952Y-101704819D02*
X127285714Y-101704819D01*
X128666666Y-101704819D02*
X128095238Y-101704819D01*
X128380952Y-101704819D02*
X128380952Y-100704819D01*
X128380952Y-100704819D02*
X128285714Y-100847676D01*
X128285714Y-100847676D02*
X128190476Y-100942914D01*
X128190476Y-100942914D02*
X128095238Y-100990533D01*
X209429219Y-98701323D02*
X210143504Y-98701323D01*
X210143504Y-98701323D02*
X210286361Y-98748942D01*
X210286361Y-98748942D02*
X210381600Y-98844180D01*
X210381600Y-98844180D02*
X210429219Y-98987037D01*
X210429219Y-98987037D02*
X210429219Y-99082275D01*
X210429219Y-97701323D02*
X210429219Y-98272751D01*
X210429219Y-97987037D02*
X209429219Y-97987037D01*
X209429219Y-97987037D02*
X209572076Y-98082275D01*
X209572076Y-98082275D02*
X209667314Y-98177513D01*
X209667314Y-98177513D02*
X209714933Y-98272751D01*
X210429219Y-97225132D02*
X210429219Y-97034656D01*
X210429219Y-97034656D02*
X210381600Y-96939418D01*
X210381600Y-96939418D02*
X210333980Y-96891799D01*
X210333980Y-96891799D02*
X210191123Y-96796561D01*
X210191123Y-96796561D02*
X210000647Y-96748942D01*
X210000647Y-96748942D02*
X209619695Y-96748942D01*
X209619695Y-96748942D02*
X209524457Y-96796561D01*
X209524457Y-96796561D02*
X209476838Y-96844180D01*
X209476838Y-96844180D02*
X209429219Y-96939418D01*
X209429219Y-96939418D02*
X209429219Y-97129894D01*
X209429219Y-97129894D02*
X209476838Y-97225132D01*
X209476838Y-97225132D02*
X209524457Y-97272751D01*
X209524457Y-97272751D02*
X209619695Y-97320370D01*
X209619695Y-97320370D02*
X209857790Y-97320370D01*
X209857790Y-97320370D02*
X209953028Y-97272751D01*
X209953028Y-97272751D02*
X210000647Y-97225132D01*
X210000647Y-97225132D02*
X210048266Y-97129894D01*
X210048266Y-97129894D02*
X210048266Y-96939418D01*
X210048266Y-96939418D02*
X210000647Y-96844180D01*
X210000647Y-96844180D02*
X209953028Y-96796561D01*
X209953028Y-96796561D02*
X209857790Y-96748942D01*
X198049219Y-99677513D02*
X197049219Y-99677513D01*
X197049219Y-99677513D02*
X197763504Y-99344180D01*
X197763504Y-99344180D02*
X197049219Y-99010847D01*
X197049219Y-99010847D02*
X198049219Y-99010847D01*
X198144457Y-97867990D02*
X198096838Y-97963228D01*
X198096838Y-97963228D02*
X198001600Y-98058466D01*
X198001600Y-98058466D02*
X197858742Y-98201323D01*
X197858742Y-98201323D02*
X197811123Y-98296561D01*
X197811123Y-98296561D02*
X197811123Y-98391799D01*
X198049219Y-98344180D02*
X198001600Y-98439418D01*
X198001600Y-98439418D02*
X197906361Y-98534656D01*
X197906361Y-98534656D02*
X197715885Y-98582275D01*
X197715885Y-98582275D02*
X197382552Y-98582275D01*
X197382552Y-98582275D02*
X197192076Y-98534656D01*
X197192076Y-98534656D02*
X197096838Y-98439418D01*
X197096838Y-98439418D02*
X197049219Y-98344180D01*
X197049219Y-98344180D02*
X197049219Y-98153704D01*
X197049219Y-98153704D02*
X197096838Y-98058466D01*
X197096838Y-98058466D02*
X197192076Y-97963228D01*
X197192076Y-97963228D02*
X197382552Y-97915609D01*
X197382552Y-97915609D02*
X197715885Y-97915609D01*
X197715885Y-97915609D02*
X197906361Y-97963228D01*
X197906361Y-97963228D02*
X198001600Y-98058466D01*
X198001600Y-98058466D02*
X198049219Y-98153704D01*
X198049219Y-98153704D02*
X198049219Y-98344180D01*
X198049219Y-96963228D02*
X198049219Y-97534656D01*
X198049219Y-97248942D02*
X197049219Y-97248942D01*
X197049219Y-97248942D02*
X197192076Y-97344180D01*
X197192076Y-97344180D02*
X197287314Y-97439418D01*
X197287314Y-97439418D02*
X197334933Y-97534656D01*
X197049219Y-96629894D02*
X197049219Y-96010847D01*
X197049219Y-96010847D02*
X197430171Y-96344180D01*
X197430171Y-96344180D02*
X197430171Y-96201323D01*
X197430171Y-96201323D02*
X197477790Y-96106085D01*
X197477790Y-96106085D02*
X197525409Y-96058466D01*
X197525409Y-96058466D02*
X197620647Y-96010847D01*
X197620647Y-96010847D02*
X197858742Y-96010847D01*
X197858742Y-96010847D02*
X197953980Y-96058466D01*
X197953980Y-96058466D02*
X198001600Y-96106085D01*
X198001600Y-96106085D02*
X198049219Y-96201323D01*
X198049219Y-96201323D02*
X198049219Y-96487037D01*
X198049219Y-96487037D02*
X198001600Y-96582275D01*
X198001600Y-96582275D02*
X197953980Y-96629894D01*
X198049219Y-95534656D02*
X198049219Y-95344180D01*
X198049219Y-95344180D02*
X198001600Y-95248942D01*
X198001600Y-95248942D02*
X197953980Y-95201323D01*
X197953980Y-95201323D02*
X197811123Y-95106085D01*
X197811123Y-95106085D02*
X197620647Y-95058466D01*
X197620647Y-95058466D02*
X197239695Y-95058466D01*
X197239695Y-95058466D02*
X197144457Y-95106085D01*
X197144457Y-95106085D02*
X197096838Y-95153704D01*
X197096838Y-95153704D02*
X197049219Y-95248942D01*
X197049219Y-95248942D02*
X197049219Y-95439418D01*
X197049219Y-95439418D02*
X197096838Y-95534656D01*
X197096838Y-95534656D02*
X197144457Y-95582275D01*
X197144457Y-95582275D02*
X197239695Y-95629894D01*
X197239695Y-95629894D02*
X197477790Y-95629894D01*
X197477790Y-95629894D02*
X197573028Y-95582275D01*
X197573028Y-95582275D02*
X197620647Y-95534656D01*
X197620647Y-95534656D02*
X197668266Y-95439418D01*
X197668266Y-95439418D02*
X197668266Y-95248942D01*
X197668266Y-95248942D02*
X197620647Y-95153704D01*
X197620647Y-95153704D02*
X197573028Y-95106085D01*
X197573028Y-95106085D02*
X197477790Y-95058466D01*
X167916666Y-44954819D02*
X167916666Y-45669104D01*
X167916666Y-45669104D02*
X167869047Y-45811961D01*
X167869047Y-45811961D02*
X167773809Y-45907200D01*
X167773809Y-45907200D02*
X167630952Y-45954819D01*
X167630952Y-45954819D02*
X167535714Y-45954819D01*
X168821428Y-44954819D02*
X168630952Y-44954819D01*
X168630952Y-44954819D02*
X168535714Y-45002438D01*
X168535714Y-45002438D02*
X168488095Y-45050057D01*
X168488095Y-45050057D02*
X168392857Y-45192914D01*
X168392857Y-45192914D02*
X168345238Y-45383390D01*
X168345238Y-45383390D02*
X168345238Y-45764342D01*
X168345238Y-45764342D02*
X168392857Y-45859580D01*
X168392857Y-45859580D02*
X168440476Y-45907200D01*
X168440476Y-45907200D02*
X168535714Y-45954819D01*
X168535714Y-45954819D02*
X168726190Y-45954819D01*
X168726190Y-45954819D02*
X168821428Y-45907200D01*
X168821428Y-45907200D02*
X168869047Y-45859580D01*
X168869047Y-45859580D02*
X168916666Y-45764342D01*
X168916666Y-45764342D02*
X168916666Y-45526247D01*
X168916666Y-45526247D02*
X168869047Y-45431009D01*
X168869047Y-45431009D02*
X168821428Y-45383390D01*
X168821428Y-45383390D02*
X168726190Y-45335771D01*
X168726190Y-45335771D02*
X168535714Y-45335771D01*
X168535714Y-45335771D02*
X168440476Y-45383390D01*
X168440476Y-45383390D02*
X168392857Y-45431009D01*
X168392857Y-45431009D02*
X168345238Y-45526247D01*
X145166666Y-45204819D02*
X145166666Y-45919104D01*
X145166666Y-45919104D02*
X145119047Y-46061961D01*
X145119047Y-46061961D02*
X145023809Y-46157200D01*
X145023809Y-46157200D02*
X144880952Y-46204819D01*
X144880952Y-46204819D02*
X144785714Y-46204819D01*
X146071428Y-45538152D02*
X146071428Y-46204819D01*
X145833333Y-45157200D02*
X145595238Y-45871485D01*
X145595238Y-45871485D02*
X146214285Y-45871485D01*
D11*
X134095666Y-51252907D02*
X134095666Y-51967192D01*
X134095666Y-51967192D02*
X134048047Y-52110049D01*
X134048047Y-52110049D02*
X133952809Y-52205288D01*
X133952809Y-52205288D02*
X133809952Y-52252907D01*
X133809952Y-52252907D02*
X133714714Y-52252907D01*
X135095666Y-52252907D02*
X134524238Y-52252907D01*
X134809952Y-52252907D02*
X134809952Y-51252907D01*
X134809952Y-51252907D02*
X134714714Y-51395764D01*
X134714714Y-51395764D02*
X134619476Y-51491002D01*
X134619476Y-51491002D02*
X134524238Y-51538621D01*
X135714714Y-51252907D02*
X135809952Y-51252907D01*
X135809952Y-51252907D02*
X135905190Y-51300526D01*
X135905190Y-51300526D02*
X135952809Y-51348145D01*
X135952809Y-51348145D02*
X136000428Y-51443383D01*
X136000428Y-51443383D02*
X136048047Y-51633859D01*
X136048047Y-51633859D02*
X136048047Y-51871954D01*
X136048047Y-51871954D02*
X136000428Y-52062430D01*
X136000428Y-52062430D02*
X135952809Y-52157668D01*
X135952809Y-52157668D02*
X135905190Y-52205288D01*
X135905190Y-52205288D02*
X135809952Y-52252907D01*
X135809952Y-52252907D02*
X135714714Y-52252907D01*
X135714714Y-52252907D02*
X135619476Y-52205288D01*
X135619476Y-52205288D02*
X135571857Y-52157668D01*
X135571857Y-52157668D02*
X135524238Y-52062430D01*
X135524238Y-52062430D02*
X135476619Y-51871954D01*
X135476619Y-51871954D02*
X135476619Y-51633859D01*
X135476619Y-51633859D02*
X135524238Y-51443383D01*
X135524238Y-51443383D02*
X135571857Y-51348145D01*
X135571857Y-51348145D02*
X135619476Y-51300526D01*
X135619476Y-51300526D02*
X135714714Y-51252907D01*
D10*
X149652282Y-63833332D02*
X148652282Y-63833332D01*
X148652282Y-63833332D02*
X149366567Y-63499999D01*
X149366567Y-63499999D02*
X148652282Y-63166666D01*
X148652282Y-63166666D02*
X149652282Y-63166666D01*
X149747520Y-62023809D02*
X149699901Y-62119047D01*
X149699901Y-62119047D02*
X149604663Y-62214285D01*
X149604663Y-62214285D02*
X149461805Y-62357142D01*
X149461805Y-62357142D02*
X149414186Y-62452380D01*
X149414186Y-62452380D02*
X149414186Y-62547618D01*
X149652282Y-62499999D02*
X149604663Y-62595237D01*
X149604663Y-62595237D02*
X149509424Y-62690475D01*
X149509424Y-62690475D02*
X149318948Y-62738094D01*
X149318948Y-62738094D02*
X148985615Y-62738094D01*
X148985615Y-62738094D02*
X148795139Y-62690475D01*
X148795139Y-62690475D02*
X148699901Y-62595237D01*
X148699901Y-62595237D02*
X148652282Y-62499999D01*
X148652282Y-62499999D02*
X148652282Y-62309523D01*
X148652282Y-62309523D02*
X148699901Y-62214285D01*
X148699901Y-62214285D02*
X148795139Y-62119047D01*
X148795139Y-62119047D02*
X148985615Y-62071428D01*
X148985615Y-62071428D02*
X149318948Y-62071428D01*
X149318948Y-62071428D02*
X149509424Y-62119047D01*
X149509424Y-62119047D02*
X149604663Y-62214285D01*
X149604663Y-62214285D02*
X149652282Y-62309523D01*
X149652282Y-62309523D02*
X149652282Y-62499999D01*
X148747520Y-61690475D02*
X148699901Y-61642856D01*
X148699901Y-61642856D02*
X148652282Y-61547618D01*
X148652282Y-61547618D02*
X148652282Y-61309523D01*
X148652282Y-61309523D02*
X148699901Y-61214285D01*
X148699901Y-61214285D02*
X148747520Y-61166666D01*
X148747520Y-61166666D02*
X148842758Y-61119047D01*
X148842758Y-61119047D02*
X148937996Y-61119047D01*
X148937996Y-61119047D02*
X149080853Y-61166666D01*
X149080853Y-61166666D02*
X149652282Y-61738094D01*
X149652282Y-61738094D02*
X149652282Y-61119047D01*
D11*
X116942066Y-73208507D02*
X116942066Y-73922792D01*
X116942066Y-73922792D02*
X116894447Y-74065649D01*
X116894447Y-74065649D02*
X116799209Y-74160888D01*
X116799209Y-74160888D02*
X116656352Y-74208507D01*
X116656352Y-74208507D02*
X116561114Y-74208507D01*
X117942066Y-74208507D02*
X117370638Y-74208507D01*
X117656352Y-74208507D02*
X117656352Y-73208507D01*
X117656352Y-73208507D02*
X117561114Y-73351364D01*
X117561114Y-73351364D02*
X117465876Y-73446602D01*
X117465876Y-73446602D02*
X117370638Y-73494221D01*
X118323019Y-73303745D02*
X118370638Y-73256126D01*
X118370638Y-73256126D02*
X118465876Y-73208507D01*
X118465876Y-73208507D02*
X118703971Y-73208507D01*
X118703971Y-73208507D02*
X118799209Y-73256126D01*
X118799209Y-73256126D02*
X118846828Y-73303745D01*
X118846828Y-73303745D02*
X118894447Y-73398983D01*
X118894447Y-73398983D02*
X118894447Y-73494221D01*
X118894447Y-73494221D02*
X118846828Y-73637078D01*
X118846828Y-73637078D02*
X118275400Y-74208507D01*
X118275400Y-74208507D02*
X118894447Y-74208507D01*
D10*
X132654103Y-86785713D02*
X131654103Y-86785713D01*
X131654103Y-86785713D02*
X132368388Y-86452380D01*
X132368388Y-86452380D02*
X131654103Y-86119047D01*
X131654103Y-86119047D02*
X132654103Y-86119047D01*
X132749341Y-84976190D02*
X132701722Y-85071428D01*
X132701722Y-85071428D02*
X132606484Y-85166666D01*
X132606484Y-85166666D02*
X132463626Y-85309523D01*
X132463626Y-85309523D02*
X132416007Y-85404761D01*
X132416007Y-85404761D02*
X132416007Y-85499999D01*
X132654103Y-85452380D02*
X132606484Y-85547618D01*
X132606484Y-85547618D02*
X132511245Y-85642856D01*
X132511245Y-85642856D02*
X132320769Y-85690475D01*
X132320769Y-85690475D02*
X131987436Y-85690475D01*
X131987436Y-85690475D02*
X131796960Y-85642856D01*
X131796960Y-85642856D02*
X131701722Y-85547618D01*
X131701722Y-85547618D02*
X131654103Y-85452380D01*
X131654103Y-85452380D02*
X131654103Y-85261904D01*
X131654103Y-85261904D02*
X131701722Y-85166666D01*
X131701722Y-85166666D02*
X131796960Y-85071428D01*
X131796960Y-85071428D02*
X131987436Y-85023809D01*
X131987436Y-85023809D02*
X132320769Y-85023809D01*
X132320769Y-85023809D02*
X132511245Y-85071428D01*
X132511245Y-85071428D02*
X132606484Y-85166666D01*
X132606484Y-85166666D02*
X132654103Y-85261904D01*
X132654103Y-85261904D02*
X132654103Y-85452380D01*
X132654103Y-84071428D02*
X132654103Y-84642856D01*
X132654103Y-84357142D02*
X131654103Y-84357142D01*
X131654103Y-84357142D02*
X131796960Y-84452380D01*
X131796960Y-84452380D02*
X131892198Y-84547618D01*
X131892198Y-84547618D02*
X131939817Y-84642856D01*
X131654103Y-83738094D02*
X131654103Y-83119047D01*
X131654103Y-83119047D02*
X132035055Y-83452380D01*
X132035055Y-83452380D02*
X132035055Y-83309523D01*
X132035055Y-83309523D02*
X132082674Y-83214285D01*
X132082674Y-83214285D02*
X132130293Y-83166666D01*
X132130293Y-83166666D02*
X132225531Y-83119047D01*
X132225531Y-83119047D02*
X132463626Y-83119047D01*
X132463626Y-83119047D02*
X132558864Y-83166666D01*
X132558864Y-83166666D02*
X132606484Y-83214285D01*
X132606484Y-83214285D02*
X132654103Y-83309523D01*
X132654103Y-83309523D02*
X132654103Y-83595237D01*
X132654103Y-83595237D02*
X132606484Y-83690475D01*
X132606484Y-83690475D02*
X132558864Y-83738094D01*
X131654103Y-82214285D02*
X131654103Y-82690475D01*
X131654103Y-82690475D02*
X132130293Y-82738094D01*
X132130293Y-82738094D02*
X132082674Y-82690475D01*
X132082674Y-82690475D02*
X132035055Y-82595237D01*
X132035055Y-82595237D02*
X132035055Y-82357142D01*
X132035055Y-82357142D02*
X132082674Y-82261904D01*
X132082674Y-82261904D02*
X132130293Y-82214285D01*
X132130293Y-82214285D02*
X132225531Y-82166666D01*
X132225531Y-82166666D02*
X132463626Y-82166666D01*
X132463626Y-82166666D02*
X132558864Y-82214285D01*
X132558864Y-82214285D02*
X132606484Y-82261904D01*
X132606484Y-82261904D02*
X132654103Y-82357142D01*
X132654103Y-82357142D02*
X132654103Y-82595237D01*
X132654103Y-82595237D02*
X132606484Y-82690475D01*
X132606484Y-82690475D02*
X132558864Y-82738094D01*
X272012076Y-83934019D02*
X272012076Y-84648304D01*
X272012076Y-84648304D02*
X271964457Y-84791161D01*
X271964457Y-84791161D02*
X271869219Y-84886400D01*
X271869219Y-84886400D02*
X271726362Y-84934019D01*
X271726362Y-84934019D02*
X271631124Y-84934019D01*
X272440648Y-84029257D02*
X272488267Y-83981638D01*
X272488267Y-83981638D02*
X272583505Y-83934019D01*
X272583505Y-83934019D02*
X272821600Y-83934019D01*
X272821600Y-83934019D02*
X272916838Y-83981638D01*
X272916838Y-83981638D02*
X272964457Y-84029257D01*
X272964457Y-84029257D02*
X273012076Y-84124495D01*
X273012076Y-84124495D02*
X273012076Y-84219733D01*
X273012076Y-84219733D02*
X272964457Y-84362590D01*
X272964457Y-84362590D02*
X272393029Y-84934019D01*
X272393029Y-84934019D02*
X273012076Y-84934019D01*
X273631124Y-83934019D02*
X273726362Y-83934019D01*
X273726362Y-83934019D02*
X273821600Y-83981638D01*
X273821600Y-83981638D02*
X273869219Y-84029257D01*
X273869219Y-84029257D02*
X273916838Y-84124495D01*
X273916838Y-84124495D02*
X273964457Y-84314971D01*
X273964457Y-84314971D02*
X273964457Y-84553066D01*
X273964457Y-84553066D02*
X273916838Y-84743542D01*
X273916838Y-84743542D02*
X273869219Y-84838780D01*
X273869219Y-84838780D02*
X273821600Y-84886400D01*
X273821600Y-84886400D02*
X273726362Y-84934019D01*
X273726362Y-84934019D02*
X273631124Y-84934019D01*
X273631124Y-84934019D02*
X273535886Y-84886400D01*
X273535886Y-84886400D02*
X273488267Y-84838780D01*
X273488267Y-84838780D02*
X273440648Y-84743542D01*
X273440648Y-84743542D02*
X273393029Y-84553066D01*
X273393029Y-84553066D02*
X273393029Y-84314971D01*
X273393029Y-84314971D02*
X273440648Y-84124495D01*
X273440648Y-84124495D02*
X273488267Y-84029257D01*
X273488267Y-84029257D02*
X273535886Y-83981638D01*
X273535886Y-83981638D02*
X273631124Y-83934019D01*
X270702552Y-98094019D02*
X270702552Y-97094019D01*
X271273980Y-98094019D02*
X270845409Y-97522590D01*
X271273980Y-97094019D02*
X270702552Y-97665447D01*
X271893028Y-97617828D02*
X271893028Y-98094019D01*
X271559695Y-97094019D02*
X271893028Y-97617828D01*
X271893028Y-97617828D02*
X272226361Y-97094019D01*
X272750171Y-97094019D02*
X272845409Y-97094019D01*
X272845409Y-97094019D02*
X272940647Y-97141638D01*
X272940647Y-97141638D02*
X272988266Y-97189257D01*
X272988266Y-97189257D02*
X273035885Y-97284495D01*
X273035885Y-97284495D02*
X273083504Y-97474971D01*
X273083504Y-97474971D02*
X273083504Y-97713066D01*
X273083504Y-97713066D02*
X273035885Y-97903542D01*
X273035885Y-97903542D02*
X272988266Y-97998780D01*
X272988266Y-97998780D02*
X272940647Y-98046400D01*
X272940647Y-98046400D02*
X272845409Y-98094019D01*
X272845409Y-98094019D02*
X272750171Y-98094019D01*
X272750171Y-98094019D02*
X272654933Y-98046400D01*
X272654933Y-98046400D02*
X272607314Y-97998780D01*
X272607314Y-97998780D02*
X272559695Y-97903542D01*
X272559695Y-97903542D02*
X272512076Y-97713066D01*
X272512076Y-97713066D02*
X272512076Y-97474971D01*
X272512076Y-97474971D02*
X272559695Y-97284495D01*
X272559695Y-97284495D02*
X272607314Y-97189257D01*
X272607314Y-97189257D02*
X272654933Y-97141638D01*
X272654933Y-97141638D02*
X272750171Y-97094019D01*
X273464457Y-97189257D02*
X273512076Y-97141638D01*
X273512076Y-97141638D02*
X273607314Y-97094019D01*
X273607314Y-97094019D02*
X273845409Y-97094019D01*
X273845409Y-97094019D02*
X273940647Y-97141638D01*
X273940647Y-97141638D02*
X273988266Y-97189257D01*
X273988266Y-97189257D02*
X274035885Y-97284495D01*
X274035885Y-97284495D02*
X274035885Y-97379733D01*
X274035885Y-97379733D02*
X273988266Y-97522590D01*
X273988266Y-97522590D02*
X273416838Y-98094019D01*
X273416838Y-98094019D02*
X274035885Y-98094019D01*
X274607314Y-97522590D02*
X274512076Y-97474971D01*
X274512076Y-97474971D02*
X274464457Y-97427352D01*
X274464457Y-97427352D02*
X274416838Y-97332114D01*
X274416838Y-97332114D02*
X274416838Y-97284495D01*
X274416838Y-97284495D02*
X274464457Y-97189257D01*
X274464457Y-97189257D02*
X274512076Y-97141638D01*
X274512076Y-97141638D02*
X274607314Y-97094019D01*
X274607314Y-97094019D02*
X274797790Y-97094019D01*
X274797790Y-97094019D02*
X274893028Y-97141638D01*
X274893028Y-97141638D02*
X274940647Y-97189257D01*
X274940647Y-97189257D02*
X274988266Y-97284495D01*
X274988266Y-97284495D02*
X274988266Y-97332114D01*
X274988266Y-97332114D02*
X274940647Y-97427352D01*
X274940647Y-97427352D02*
X274893028Y-97474971D01*
X274893028Y-97474971D02*
X274797790Y-97522590D01*
X274797790Y-97522590D02*
X274607314Y-97522590D01*
X274607314Y-97522590D02*
X274512076Y-97570209D01*
X274512076Y-97570209D02*
X274464457Y-97617828D01*
X274464457Y-97617828D02*
X274416838Y-97713066D01*
X274416838Y-97713066D02*
X274416838Y-97903542D01*
X274416838Y-97903542D02*
X274464457Y-97998780D01*
X274464457Y-97998780D02*
X274512076Y-98046400D01*
X274512076Y-98046400D02*
X274607314Y-98094019D01*
X274607314Y-98094019D02*
X274797790Y-98094019D01*
X274797790Y-98094019D02*
X274893028Y-98046400D01*
X274893028Y-98046400D02*
X274940647Y-97998780D01*
X274940647Y-97998780D02*
X274988266Y-97903542D01*
X274988266Y-97903542D02*
X274988266Y-97713066D01*
X274988266Y-97713066D02*
X274940647Y-97617828D01*
X274940647Y-97617828D02*
X274893028Y-97570209D01*
X274893028Y-97570209D02*
X274797790Y-97522590D01*
X217604819Y-98309523D02*
X218319104Y-98309523D01*
X218319104Y-98309523D02*
X218461961Y-98357142D01*
X218461961Y-98357142D02*
X218557200Y-98452380D01*
X218557200Y-98452380D02*
X218604819Y-98595237D01*
X218604819Y-98595237D02*
X218604819Y-98690475D01*
X218604819Y-97309523D02*
X218604819Y-97880951D01*
X218604819Y-97595237D02*
X217604819Y-97595237D01*
X217604819Y-97595237D02*
X217747676Y-97690475D01*
X217747676Y-97690475D02*
X217842914Y-97785713D01*
X217842914Y-97785713D02*
X217890533Y-97880951D01*
X217938152Y-96452380D02*
X218604819Y-96452380D01*
X217557200Y-96690475D02*
X218271485Y-96928570D01*
X218271485Y-96928570D02*
X218271485Y-96309523D01*
X231764819Y-98833332D02*
X230764819Y-98833332D01*
X230764819Y-98833332D02*
X231479104Y-98499999D01*
X231479104Y-98499999D02*
X230764819Y-98166666D01*
X230764819Y-98166666D02*
X231764819Y-98166666D01*
X231860057Y-97023809D02*
X231812438Y-97119047D01*
X231812438Y-97119047D02*
X231717200Y-97214285D01*
X231717200Y-97214285D02*
X231574342Y-97357142D01*
X231574342Y-97357142D02*
X231526723Y-97452380D01*
X231526723Y-97452380D02*
X231526723Y-97547618D01*
X231764819Y-97499999D02*
X231717200Y-97595237D01*
X231717200Y-97595237D02*
X231621961Y-97690475D01*
X231621961Y-97690475D02*
X231431485Y-97738094D01*
X231431485Y-97738094D02*
X231098152Y-97738094D01*
X231098152Y-97738094D02*
X230907676Y-97690475D01*
X230907676Y-97690475D02*
X230812438Y-97595237D01*
X230812438Y-97595237D02*
X230764819Y-97499999D01*
X230764819Y-97499999D02*
X230764819Y-97309523D01*
X230764819Y-97309523D02*
X230812438Y-97214285D01*
X230812438Y-97214285D02*
X230907676Y-97119047D01*
X230907676Y-97119047D02*
X231098152Y-97071428D01*
X231098152Y-97071428D02*
X231431485Y-97071428D01*
X231431485Y-97071428D02*
X231621961Y-97119047D01*
X231621961Y-97119047D02*
X231717200Y-97214285D01*
X231717200Y-97214285D02*
X231764819Y-97309523D01*
X231764819Y-97309523D02*
X231764819Y-97499999D01*
X230764819Y-96166666D02*
X230764819Y-96642856D01*
X230764819Y-96642856D02*
X231241009Y-96690475D01*
X231241009Y-96690475D02*
X231193390Y-96642856D01*
X231193390Y-96642856D02*
X231145771Y-96547618D01*
X231145771Y-96547618D02*
X231145771Y-96309523D01*
X231145771Y-96309523D02*
X231193390Y-96214285D01*
X231193390Y-96214285D02*
X231241009Y-96166666D01*
X231241009Y-96166666D02*
X231336247Y-96119047D01*
X231336247Y-96119047D02*
X231574342Y-96119047D01*
X231574342Y-96119047D02*
X231669580Y-96166666D01*
X231669580Y-96166666D02*
X231717200Y-96214285D01*
X231717200Y-96214285D02*
X231764819Y-96309523D01*
X231764819Y-96309523D02*
X231764819Y-96547618D01*
X231764819Y-96547618D02*
X231717200Y-96642856D01*
X231717200Y-96642856D02*
X231669580Y-96690475D01*
X201561419Y-50396933D02*
X202275704Y-50396933D01*
X202275704Y-50396933D02*
X202418561Y-50444552D01*
X202418561Y-50444552D02*
X202513800Y-50539790D01*
X202513800Y-50539790D02*
X202561419Y-50682647D01*
X202561419Y-50682647D02*
X202561419Y-50777885D01*
X201989990Y-49777885D02*
X201942371Y-49873123D01*
X201942371Y-49873123D02*
X201894752Y-49920742D01*
X201894752Y-49920742D02*
X201799514Y-49968361D01*
X201799514Y-49968361D02*
X201751895Y-49968361D01*
X201751895Y-49968361D02*
X201656657Y-49920742D01*
X201656657Y-49920742D02*
X201609038Y-49873123D01*
X201609038Y-49873123D02*
X201561419Y-49777885D01*
X201561419Y-49777885D02*
X201561419Y-49587409D01*
X201561419Y-49587409D02*
X201609038Y-49492171D01*
X201609038Y-49492171D02*
X201656657Y-49444552D01*
X201656657Y-49444552D02*
X201751895Y-49396933D01*
X201751895Y-49396933D02*
X201799514Y-49396933D01*
X201799514Y-49396933D02*
X201894752Y-49444552D01*
X201894752Y-49444552D02*
X201942371Y-49492171D01*
X201942371Y-49492171D02*
X201989990Y-49587409D01*
X201989990Y-49587409D02*
X201989990Y-49777885D01*
X201989990Y-49777885D02*
X202037609Y-49873123D01*
X202037609Y-49873123D02*
X202085228Y-49920742D01*
X202085228Y-49920742D02*
X202180466Y-49968361D01*
X202180466Y-49968361D02*
X202370942Y-49968361D01*
X202370942Y-49968361D02*
X202466180Y-49920742D01*
X202466180Y-49920742D02*
X202513800Y-49873123D01*
X202513800Y-49873123D02*
X202561419Y-49777885D01*
X202561419Y-49777885D02*
X202561419Y-49587409D01*
X202561419Y-49587409D02*
X202513800Y-49492171D01*
X202513800Y-49492171D02*
X202466180Y-49444552D01*
X202466180Y-49444552D02*
X202370942Y-49396933D01*
X202370942Y-49396933D02*
X202180466Y-49396933D01*
X202180466Y-49396933D02*
X202085228Y-49444552D01*
X202085228Y-49444552D02*
X202037609Y-49492171D01*
X202037609Y-49492171D02*
X201989990Y-49587409D01*
X213181419Y-52182647D02*
X212181419Y-52182647D01*
X212181419Y-52182647D02*
X212181419Y-51944552D01*
X212181419Y-51944552D02*
X212229038Y-51801695D01*
X212229038Y-51801695D02*
X212324276Y-51706457D01*
X212324276Y-51706457D02*
X212419514Y-51658838D01*
X212419514Y-51658838D02*
X212609990Y-51611219D01*
X212609990Y-51611219D02*
X212752847Y-51611219D01*
X212752847Y-51611219D02*
X212943323Y-51658838D01*
X212943323Y-51658838D02*
X213038561Y-51706457D01*
X213038561Y-51706457D02*
X213133800Y-51801695D01*
X213133800Y-51801695D02*
X213181419Y-51944552D01*
X213181419Y-51944552D02*
X213181419Y-52182647D01*
X213181419Y-51182647D02*
X212181419Y-51182647D01*
X212657609Y-51182647D02*
X212657609Y-50611219D01*
X213181419Y-50611219D02*
X212181419Y-50611219D01*
X212181419Y-50277885D02*
X212181419Y-49706457D01*
X213181419Y-49992171D02*
X212181419Y-49992171D01*
X213181419Y-48849314D02*
X213181419Y-49420742D01*
X213181419Y-49135028D02*
X212181419Y-49135028D01*
X212181419Y-49135028D02*
X212324276Y-49230266D01*
X212324276Y-49230266D02*
X212419514Y-49325504D01*
X212419514Y-49325504D02*
X212467133Y-49420742D01*
X213181419Y-47896933D02*
X213181419Y-48468361D01*
X213181419Y-48182647D02*
X212181419Y-48182647D01*
X212181419Y-48182647D02*
X212324276Y-48277885D01*
X212324276Y-48277885D02*
X212419514Y-48373123D01*
X212419514Y-48373123D02*
X212467133Y-48468361D01*
X269690476Y-78844819D02*
X269690476Y-79559104D01*
X269690476Y-79559104D02*
X269642857Y-79701961D01*
X269642857Y-79701961D02*
X269547619Y-79797200D01*
X269547619Y-79797200D02*
X269404762Y-79844819D01*
X269404762Y-79844819D02*
X269309524Y-79844819D01*
X270690476Y-79844819D02*
X270119048Y-79844819D01*
X270404762Y-79844819D02*
X270404762Y-78844819D01*
X270404762Y-78844819D02*
X270309524Y-78987676D01*
X270309524Y-78987676D02*
X270214286Y-79082914D01*
X270214286Y-79082914D02*
X270119048Y-79130533D01*
X271261905Y-79273390D02*
X271166667Y-79225771D01*
X271166667Y-79225771D02*
X271119048Y-79178152D01*
X271119048Y-79178152D02*
X271071429Y-79082914D01*
X271071429Y-79082914D02*
X271071429Y-79035295D01*
X271071429Y-79035295D02*
X271119048Y-78940057D01*
X271119048Y-78940057D02*
X271166667Y-78892438D01*
X271166667Y-78892438D02*
X271261905Y-78844819D01*
X271261905Y-78844819D02*
X271452381Y-78844819D01*
X271452381Y-78844819D02*
X271547619Y-78892438D01*
X271547619Y-78892438D02*
X271595238Y-78940057D01*
X271595238Y-78940057D02*
X271642857Y-79035295D01*
X271642857Y-79035295D02*
X271642857Y-79082914D01*
X271642857Y-79082914D02*
X271595238Y-79178152D01*
X271595238Y-79178152D02*
X271547619Y-79225771D01*
X271547619Y-79225771D02*
X271452381Y-79273390D01*
X271452381Y-79273390D02*
X271261905Y-79273390D01*
X271261905Y-79273390D02*
X271166667Y-79321009D01*
X271166667Y-79321009D02*
X271119048Y-79368628D01*
X271119048Y-79368628D02*
X271071429Y-79463866D01*
X271071429Y-79463866D02*
X271071429Y-79654342D01*
X271071429Y-79654342D02*
X271119048Y-79749580D01*
X271119048Y-79749580D02*
X271166667Y-79797200D01*
X271166667Y-79797200D02*
X271261905Y-79844819D01*
X271261905Y-79844819D02*
X271452381Y-79844819D01*
X271452381Y-79844819D02*
X271547619Y-79797200D01*
X271547619Y-79797200D02*
X271595238Y-79749580D01*
X271595238Y-79749580D02*
X271642857Y-79654342D01*
X271642857Y-79654342D02*
X271642857Y-79463866D01*
X271642857Y-79463866D02*
X271595238Y-79368628D01*
X271595238Y-79368628D02*
X271547619Y-79321009D01*
X271547619Y-79321009D02*
X271452381Y-79273390D01*
X269166667Y-66684819D02*
X269166667Y-65684819D01*
X269166667Y-65684819D02*
X269500000Y-66399104D01*
X269500000Y-66399104D02*
X269833333Y-65684819D01*
X269833333Y-65684819D02*
X269833333Y-66684819D01*
X270976190Y-66780057D02*
X270880952Y-66732438D01*
X270880952Y-66732438D02*
X270785714Y-66637200D01*
X270785714Y-66637200D02*
X270642857Y-66494342D01*
X270642857Y-66494342D02*
X270547619Y-66446723D01*
X270547619Y-66446723D02*
X270452381Y-66446723D01*
X270500000Y-66684819D02*
X270404762Y-66637200D01*
X270404762Y-66637200D02*
X270309524Y-66541961D01*
X270309524Y-66541961D02*
X270261905Y-66351485D01*
X270261905Y-66351485D02*
X270261905Y-66018152D01*
X270261905Y-66018152D02*
X270309524Y-65827676D01*
X270309524Y-65827676D02*
X270404762Y-65732438D01*
X270404762Y-65732438D02*
X270500000Y-65684819D01*
X270500000Y-65684819D02*
X270690476Y-65684819D01*
X270690476Y-65684819D02*
X270785714Y-65732438D01*
X270785714Y-65732438D02*
X270880952Y-65827676D01*
X270880952Y-65827676D02*
X270928571Y-66018152D01*
X270928571Y-66018152D02*
X270928571Y-66351485D01*
X270928571Y-66351485D02*
X270880952Y-66541961D01*
X270880952Y-66541961D02*
X270785714Y-66637200D01*
X270785714Y-66637200D02*
X270690476Y-66684819D01*
X270690476Y-66684819D02*
X270500000Y-66684819D01*
X271404762Y-66684819D02*
X271595238Y-66684819D01*
X271595238Y-66684819D02*
X271690476Y-66637200D01*
X271690476Y-66637200D02*
X271738095Y-66589580D01*
X271738095Y-66589580D02*
X271833333Y-66446723D01*
X271833333Y-66446723D02*
X271880952Y-66256247D01*
X271880952Y-66256247D02*
X271880952Y-65875295D01*
X271880952Y-65875295D02*
X271833333Y-65780057D01*
X271833333Y-65780057D02*
X271785714Y-65732438D01*
X271785714Y-65732438D02*
X271690476Y-65684819D01*
X271690476Y-65684819D02*
X271500000Y-65684819D01*
X271500000Y-65684819D02*
X271404762Y-65732438D01*
X271404762Y-65732438D02*
X271357143Y-65780057D01*
X271357143Y-65780057D02*
X271309524Y-65875295D01*
X271309524Y-65875295D02*
X271309524Y-66113390D01*
X271309524Y-66113390D02*
X271357143Y-66208628D01*
X271357143Y-66208628D02*
X271404762Y-66256247D01*
X271404762Y-66256247D02*
X271500000Y-66303866D01*
X271500000Y-66303866D02*
X271690476Y-66303866D01*
X271690476Y-66303866D02*
X271785714Y-66256247D01*
X271785714Y-66256247D02*
X271833333Y-66208628D01*
X271833333Y-66208628D02*
X271880952Y-66113390D01*
X150416666Y-100454819D02*
X150416666Y-101169104D01*
X150416666Y-101169104D02*
X150369047Y-101311961D01*
X150369047Y-101311961D02*
X150273809Y-101407200D01*
X150273809Y-101407200D02*
X150130952Y-101454819D01*
X150130952Y-101454819D02*
X150035714Y-101454819D01*
X150797619Y-100454819D02*
X151416666Y-100454819D01*
X151416666Y-100454819D02*
X151083333Y-100835771D01*
X151083333Y-100835771D02*
X151226190Y-100835771D01*
X151226190Y-100835771D02*
X151321428Y-100883390D01*
X151321428Y-100883390D02*
X151369047Y-100931009D01*
X151369047Y-100931009D02*
X151416666Y-101026247D01*
X151416666Y-101026247D02*
X151416666Y-101264342D01*
X151416666Y-101264342D02*
X151369047Y-101359580D01*
X151369047Y-101359580D02*
X151321428Y-101407200D01*
X151321428Y-101407200D02*
X151226190Y-101454819D01*
X151226190Y-101454819D02*
X150940476Y-101454819D01*
X150940476Y-101454819D02*
X150845238Y-101407200D01*
X150845238Y-101407200D02*
X150797619Y-101359580D01*
D11*
X215020066Y-63876707D02*
X215020066Y-64590992D01*
X215020066Y-64590992D02*
X214972447Y-64733849D01*
X214972447Y-64733849D02*
X214877209Y-64829088D01*
X214877209Y-64829088D02*
X214734352Y-64876707D01*
X214734352Y-64876707D02*
X214639114Y-64876707D01*
X216020066Y-64876707D02*
X215448638Y-64876707D01*
X215734352Y-64876707D02*
X215734352Y-63876707D01*
X215734352Y-63876707D02*
X215639114Y-64019564D01*
X215639114Y-64019564D02*
X215543876Y-64114802D01*
X215543876Y-64114802D02*
X215448638Y-64162421D01*
X216353400Y-63876707D02*
X217020066Y-63876707D01*
X217020066Y-63876707D02*
X216591495Y-64876707D01*
D10*
X230650597Y-76480730D02*
X229650597Y-76480730D01*
X229650597Y-76480730D02*
X230364882Y-76147397D01*
X230364882Y-76147397D02*
X229650597Y-75814064D01*
X229650597Y-75814064D02*
X230650597Y-75814064D01*
X230745835Y-74671207D02*
X230698216Y-74766445D01*
X230698216Y-74766445D02*
X230602978Y-74861683D01*
X230602978Y-74861683D02*
X230460120Y-75004540D01*
X230460120Y-75004540D02*
X230412501Y-75099778D01*
X230412501Y-75099778D02*
X230412501Y-75195016D01*
X230650597Y-75147397D02*
X230602978Y-75242635D01*
X230602978Y-75242635D02*
X230507739Y-75337873D01*
X230507739Y-75337873D02*
X230317263Y-75385492D01*
X230317263Y-75385492D02*
X229983930Y-75385492D01*
X229983930Y-75385492D02*
X229793454Y-75337873D01*
X229793454Y-75337873D02*
X229698216Y-75242635D01*
X229698216Y-75242635D02*
X229650597Y-75147397D01*
X229650597Y-75147397D02*
X229650597Y-74956921D01*
X229650597Y-74956921D02*
X229698216Y-74861683D01*
X229698216Y-74861683D02*
X229793454Y-74766445D01*
X229793454Y-74766445D02*
X229983930Y-74718826D01*
X229983930Y-74718826D02*
X230317263Y-74718826D01*
X230317263Y-74718826D02*
X230507739Y-74766445D01*
X230507739Y-74766445D02*
X230602978Y-74861683D01*
X230602978Y-74861683D02*
X230650597Y-74956921D01*
X230650597Y-74956921D02*
X230650597Y-75147397D01*
X230079168Y-74147397D02*
X230031549Y-74242635D01*
X230031549Y-74242635D02*
X229983930Y-74290254D01*
X229983930Y-74290254D02*
X229888692Y-74337873D01*
X229888692Y-74337873D02*
X229841073Y-74337873D01*
X229841073Y-74337873D02*
X229745835Y-74290254D01*
X229745835Y-74290254D02*
X229698216Y-74242635D01*
X229698216Y-74242635D02*
X229650597Y-74147397D01*
X229650597Y-74147397D02*
X229650597Y-73956921D01*
X229650597Y-73956921D02*
X229698216Y-73861683D01*
X229698216Y-73861683D02*
X229745835Y-73814064D01*
X229745835Y-73814064D02*
X229841073Y-73766445D01*
X229841073Y-73766445D02*
X229888692Y-73766445D01*
X229888692Y-73766445D02*
X229983930Y-73814064D01*
X229983930Y-73814064D02*
X230031549Y-73861683D01*
X230031549Y-73861683D02*
X230079168Y-73956921D01*
X230079168Y-73956921D02*
X230079168Y-74147397D01*
X230079168Y-74147397D02*
X230126787Y-74242635D01*
X230126787Y-74242635D02*
X230174406Y-74290254D01*
X230174406Y-74290254D02*
X230269644Y-74337873D01*
X230269644Y-74337873D02*
X230460120Y-74337873D01*
X230460120Y-74337873D02*
X230555358Y-74290254D01*
X230555358Y-74290254D02*
X230602978Y-74242635D01*
X230602978Y-74242635D02*
X230650597Y-74147397D01*
X230650597Y-74147397D02*
X230650597Y-73956921D01*
X230650597Y-73956921D02*
X230602978Y-73861683D01*
X230602978Y-73861683D02*
X230555358Y-73814064D01*
X230555358Y-73814064D02*
X230460120Y-73766445D01*
X230460120Y-73766445D02*
X230269644Y-73766445D01*
X230269644Y-73766445D02*
X230174406Y-73814064D01*
X230174406Y-73814064D02*
X230126787Y-73861683D01*
X230126787Y-73861683D02*
X230079168Y-73956921D01*
X111038619Y-51083333D02*
X111752904Y-51083333D01*
X111752904Y-51083333D02*
X111895761Y-51130952D01*
X111895761Y-51130952D02*
X111991000Y-51226190D01*
X111991000Y-51226190D02*
X112038619Y-51369047D01*
X112038619Y-51369047D02*
X112038619Y-51464285D01*
X112038619Y-50559523D02*
X112038619Y-50369047D01*
X112038619Y-50369047D02*
X111991000Y-50273809D01*
X111991000Y-50273809D02*
X111943380Y-50226190D01*
X111943380Y-50226190D02*
X111800523Y-50130952D01*
X111800523Y-50130952D02*
X111610047Y-50083333D01*
X111610047Y-50083333D02*
X111229095Y-50083333D01*
X111229095Y-50083333D02*
X111133857Y-50130952D01*
X111133857Y-50130952D02*
X111086238Y-50178571D01*
X111086238Y-50178571D02*
X111038619Y-50273809D01*
X111038619Y-50273809D02*
X111038619Y-50464285D01*
X111038619Y-50464285D02*
X111086238Y-50559523D01*
X111086238Y-50559523D02*
X111133857Y-50607142D01*
X111133857Y-50607142D02*
X111229095Y-50654761D01*
X111229095Y-50654761D02*
X111467190Y-50654761D01*
X111467190Y-50654761D02*
X111562428Y-50607142D01*
X111562428Y-50607142D02*
X111610047Y-50559523D01*
X111610047Y-50559523D02*
X111657666Y-50464285D01*
X111657666Y-50464285D02*
X111657666Y-50273809D01*
X111657666Y-50273809D02*
X111610047Y-50178571D01*
X111610047Y-50178571D02*
X111562428Y-50130952D01*
X111562428Y-50130952D02*
X111467190Y-50083333D01*
X101418619Y-52869047D02*
X100418619Y-52869047D01*
X100418619Y-52869047D02*
X100418619Y-52630952D01*
X100418619Y-52630952D02*
X100466238Y-52488095D01*
X100466238Y-52488095D02*
X100561476Y-52392857D01*
X100561476Y-52392857D02*
X100656714Y-52345238D01*
X100656714Y-52345238D02*
X100847190Y-52297619D01*
X100847190Y-52297619D02*
X100990047Y-52297619D01*
X100990047Y-52297619D02*
X101180523Y-52345238D01*
X101180523Y-52345238D02*
X101275761Y-52392857D01*
X101275761Y-52392857D02*
X101371000Y-52488095D01*
X101371000Y-52488095D02*
X101418619Y-52630952D01*
X101418619Y-52630952D02*
X101418619Y-52869047D01*
X101418619Y-51869047D02*
X100418619Y-51869047D01*
X100894809Y-51869047D02*
X100894809Y-51297619D01*
X101418619Y-51297619D02*
X100418619Y-51297619D01*
X100418619Y-50964285D02*
X100418619Y-50392857D01*
X101418619Y-50678571D02*
X100418619Y-50678571D01*
X101418619Y-49535714D02*
X101418619Y-50107142D01*
X101418619Y-49821428D02*
X100418619Y-49821428D01*
X100418619Y-49821428D02*
X100561476Y-49916666D01*
X100561476Y-49916666D02*
X100656714Y-50011904D01*
X100656714Y-50011904D02*
X100704333Y-50107142D01*
X101418619Y-48583333D02*
X101418619Y-49154761D01*
X101418619Y-48869047D02*
X100418619Y-48869047D01*
X100418619Y-48869047D02*
X100561476Y-48964285D01*
X100561476Y-48964285D02*
X100656714Y-49059523D01*
X100656714Y-49059523D02*
X100704333Y-49154761D01*
X232196619Y-50796923D02*
X232910904Y-50796923D01*
X232910904Y-50796923D02*
X233053761Y-50844542D01*
X233053761Y-50844542D02*
X233149000Y-50939780D01*
X233149000Y-50939780D02*
X233196619Y-51082637D01*
X233196619Y-51082637D02*
X233196619Y-51177875D01*
X232291857Y-50368351D02*
X232244238Y-50320732D01*
X232244238Y-50320732D02*
X232196619Y-50225494D01*
X232196619Y-50225494D02*
X232196619Y-49987399D01*
X232196619Y-49987399D02*
X232244238Y-49892161D01*
X232244238Y-49892161D02*
X232291857Y-49844542D01*
X232291857Y-49844542D02*
X232387095Y-49796923D01*
X232387095Y-49796923D02*
X232482333Y-49796923D01*
X232482333Y-49796923D02*
X232625190Y-49844542D01*
X232625190Y-49844542D02*
X233196619Y-50415970D01*
X233196619Y-50415970D02*
X233196619Y-49796923D01*
X233196619Y-48844542D02*
X233196619Y-49415970D01*
X233196619Y-49130256D02*
X232196619Y-49130256D01*
X232196619Y-49130256D02*
X232339476Y-49225494D01*
X232339476Y-49225494D02*
X232434714Y-49320732D01*
X232434714Y-49320732D02*
X232482333Y-49415970D01*
X219512809Y-52415971D02*
X219560428Y-52273114D01*
X219560428Y-52273114D02*
X219608047Y-52225495D01*
X219608047Y-52225495D02*
X219703285Y-52177876D01*
X219703285Y-52177876D02*
X219846142Y-52177876D01*
X219846142Y-52177876D02*
X219941380Y-52225495D01*
X219941380Y-52225495D02*
X219989000Y-52273114D01*
X219989000Y-52273114D02*
X220036619Y-52368352D01*
X220036619Y-52368352D02*
X220036619Y-52749304D01*
X220036619Y-52749304D02*
X219036619Y-52749304D01*
X219036619Y-52749304D02*
X219036619Y-52415971D01*
X219036619Y-52415971D02*
X219084238Y-52320733D01*
X219084238Y-52320733D02*
X219131857Y-52273114D01*
X219131857Y-52273114D02*
X219227095Y-52225495D01*
X219227095Y-52225495D02*
X219322333Y-52225495D01*
X219322333Y-52225495D02*
X219417571Y-52273114D01*
X219417571Y-52273114D02*
X219465190Y-52320733D01*
X219465190Y-52320733D02*
X219512809Y-52415971D01*
X219512809Y-52415971D02*
X219512809Y-52749304D01*
X220036619Y-51749304D02*
X219036619Y-51749304D01*
X219036619Y-51749304D02*
X219750904Y-51415971D01*
X219750904Y-51415971D02*
X219036619Y-51082638D01*
X219036619Y-51082638D02*
X220036619Y-51082638D01*
X220036619Y-50606447D02*
X219036619Y-50606447D01*
X219036619Y-50606447D02*
X219036619Y-50225495D01*
X219036619Y-50225495D02*
X219084238Y-50130257D01*
X219084238Y-50130257D02*
X219131857Y-50082638D01*
X219131857Y-50082638D02*
X219227095Y-50035019D01*
X219227095Y-50035019D02*
X219369952Y-50035019D01*
X219369952Y-50035019D02*
X219465190Y-50082638D01*
X219465190Y-50082638D02*
X219512809Y-50130257D01*
X219512809Y-50130257D02*
X219560428Y-50225495D01*
X219560428Y-50225495D02*
X219560428Y-50606447D01*
X220036619Y-49082638D02*
X220036619Y-49654066D01*
X220036619Y-49368352D02*
X219036619Y-49368352D01*
X219036619Y-49368352D02*
X219179476Y-49463590D01*
X219179476Y-49463590D02*
X219274714Y-49558828D01*
X219274714Y-49558828D02*
X219322333Y-49654066D01*
X219465190Y-48511209D02*
X219417571Y-48606447D01*
X219417571Y-48606447D02*
X219369952Y-48654066D01*
X219369952Y-48654066D02*
X219274714Y-48701685D01*
X219274714Y-48701685D02*
X219227095Y-48701685D01*
X219227095Y-48701685D02*
X219131857Y-48654066D01*
X219131857Y-48654066D02*
X219084238Y-48606447D01*
X219084238Y-48606447D02*
X219036619Y-48511209D01*
X219036619Y-48511209D02*
X219036619Y-48320733D01*
X219036619Y-48320733D02*
X219084238Y-48225495D01*
X219084238Y-48225495D02*
X219131857Y-48177876D01*
X219131857Y-48177876D02*
X219227095Y-48130257D01*
X219227095Y-48130257D02*
X219274714Y-48130257D01*
X219274714Y-48130257D02*
X219369952Y-48177876D01*
X219369952Y-48177876D02*
X219417571Y-48225495D01*
X219417571Y-48225495D02*
X219465190Y-48320733D01*
X219465190Y-48320733D02*
X219465190Y-48511209D01*
X219465190Y-48511209D02*
X219512809Y-48606447D01*
X219512809Y-48606447D02*
X219560428Y-48654066D01*
X219560428Y-48654066D02*
X219655666Y-48701685D01*
X219655666Y-48701685D02*
X219846142Y-48701685D01*
X219846142Y-48701685D02*
X219941380Y-48654066D01*
X219941380Y-48654066D02*
X219989000Y-48606447D01*
X219989000Y-48606447D02*
X220036619Y-48511209D01*
X220036619Y-48511209D02*
X220036619Y-48320733D01*
X220036619Y-48320733D02*
X219989000Y-48225495D01*
X219989000Y-48225495D02*
X219941380Y-48177876D01*
X219941380Y-48177876D02*
X219846142Y-48130257D01*
X219846142Y-48130257D02*
X219655666Y-48130257D01*
X219655666Y-48130257D02*
X219560428Y-48177876D01*
X219560428Y-48177876D02*
X219512809Y-48225495D01*
X219512809Y-48225495D02*
X219465190Y-48320733D01*
X219036619Y-47511209D02*
X219036619Y-47415971D01*
X219036619Y-47415971D02*
X219084238Y-47320733D01*
X219084238Y-47320733D02*
X219131857Y-47273114D01*
X219131857Y-47273114D02*
X219227095Y-47225495D01*
X219227095Y-47225495D02*
X219417571Y-47177876D01*
X219417571Y-47177876D02*
X219655666Y-47177876D01*
X219655666Y-47177876D02*
X219846142Y-47225495D01*
X219846142Y-47225495D02*
X219941380Y-47273114D01*
X219941380Y-47273114D02*
X219989000Y-47320733D01*
X219989000Y-47320733D02*
X220036619Y-47415971D01*
X220036619Y-47415971D02*
X220036619Y-47511209D01*
X220036619Y-47511209D02*
X219989000Y-47606447D01*
X219989000Y-47606447D02*
X219941380Y-47654066D01*
X219941380Y-47654066D02*
X219846142Y-47701685D01*
X219846142Y-47701685D02*
X219655666Y-47749304D01*
X219655666Y-47749304D02*
X219417571Y-47749304D01*
X219417571Y-47749304D02*
X219227095Y-47701685D01*
X219227095Y-47701685D02*
X219131857Y-47654066D01*
X219131857Y-47654066D02*
X219084238Y-47606447D01*
X219084238Y-47606447D02*
X219036619Y-47511209D01*
D11*
X182274666Y-73065832D02*
X182274666Y-73780117D01*
X182274666Y-73780117D02*
X182227047Y-73922974D01*
X182227047Y-73922974D02*
X182131809Y-74018213D01*
X182131809Y-74018213D02*
X181988952Y-74065832D01*
X181988952Y-74065832D02*
X181893714Y-74065832D01*
X183274666Y-74065832D02*
X182703238Y-74065832D01*
X182988952Y-74065832D02*
X182988952Y-73065832D01*
X182988952Y-73065832D02*
X182893714Y-73208689D01*
X182893714Y-73208689D02*
X182798476Y-73303927D01*
X182798476Y-73303927D02*
X182703238Y-73351546D01*
X184131809Y-73065832D02*
X183941333Y-73065832D01*
X183941333Y-73065832D02*
X183846095Y-73113451D01*
X183846095Y-73113451D02*
X183798476Y-73161070D01*
X183798476Y-73161070D02*
X183703238Y-73303927D01*
X183703238Y-73303927D02*
X183655619Y-73494403D01*
X183655619Y-73494403D02*
X183655619Y-73875355D01*
X183655619Y-73875355D02*
X183703238Y-73970593D01*
X183703238Y-73970593D02*
X183750857Y-74018213D01*
X183750857Y-74018213D02*
X183846095Y-74065832D01*
X183846095Y-74065832D02*
X184036571Y-74065832D01*
X184036571Y-74065832D02*
X184131809Y-74018213D01*
X184131809Y-74018213D02*
X184179428Y-73970593D01*
X184179428Y-73970593D02*
X184227047Y-73875355D01*
X184227047Y-73875355D02*
X184227047Y-73637260D01*
X184227047Y-73637260D02*
X184179428Y-73542022D01*
X184179428Y-73542022D02*
X184131809Y-73494403D01*
X184131809Y-73494403D02*
X184036571Y-73446784D01*
X184036571Y-73446784D02*
X183846095Y-73446784D01*
X183846095Y-73446784D02*
X183750857Y-73494403D01*
X183750857Y-73494403D02*
X183703238Y-73542022D01*
X183703238Y-73542022D02*
X183655619Y-73637260D01*
D10*
X197573880Y-85583332D02*
X196573880Y-85583332D01*
X196573880Y-85583332D02*
X197288165Y-85249999D01*
X197288165Y-85249999D02*
X196573880Y-84916666D01*
X196573880Y-84916666D02*
X197573880Y-84916666D01*
X197669118Y-83773809D02*
X197621499Y-83869047D01*
X197621499Y-83869047D02*
X197526261Y-83964285D01*
X197526261Y-83964285D02*
X197383403Y-84107142D01*
X197383403Y-84107142D02*
X197335784Y-84202380D01*
X197335784Y-84202380D02*
X197335784Y-84297618D01*
X197573880Y-84249999D02*
X197526261Y-84345237D01*
X197526261Y-84345237D02*
X197431022Y-84440475D01*
X197431022Y-84440475D02*
X197240546Y-84488094D01*
X197240546Y-84488094D02*
X196907213Y-84488094D01*
X196907213Y-84488094D02*
X196716737Y-84440475D01*
X196716737Y-84440475D02*
X196621499Y-84345237D01*
X196621499Y-84345237D02*
X196573880Y-84249999D01*
X196573880Y-84249999D02*
X196573880Y-84059523D01*
X196573880Y-84059523D02*
X196621499Y-83964285D01*
X196621499Y-83964285D02*
X196716737Y-83869047D01*
X196716737Y-83869047D02*
X196907213Y-83821428D01*
X196907213Y-83821428D02*
X197240546Y-83821428D01*
X197240546Y-83821428D02*
X197431022Y-83869047D01*
X197431022Y-83869047D02*
X197526261Y-83964285D01*
X197526261Y-83964285D02*
X197573880Y-84059523D01*
X197573880Y-84059523D02*
X197573880Y-84249999D01*
X196573880Y-83488094D02*
X196573880Y-82821428D01*
X196573880Y-82821428D02*
X197573880Y-83249999D01*
X118416666Y-45204819D02*
X118416666Y-45919104D01*
X118416666Y-45919104D02*
X118369047Y-46061961D01*
X118369047Y-46061961D02*
X118273809Y-46157200D01*
X118273809Y-46157200D02*
X118130952Y-46204819D01*
X118130952Y-46204819D02*
X118035714Y-46204819D01*
X118845238Y-45300057D02*
X118892857Y-45252438D01*
X118892857Y-45252438D02*
X118988095Y-45204819D01*
X118988095Y-45204819D02*
X119226190Y-45204819D01*
X119226190Y-45204819D02*
X119321428Y-45252438D01*
X119321428Y-45252438D02*
X119369047Y-45300057D01*
X119369047Y-45300057D02*
X119416666Y-45395295D01*
X119416666Y-45395295D02*
X119416666Y-45490533D01*
X119416666Y-45490533D02*
X119369047Y-45633390D01*
X119369047Y-45633390D02*
X118797619Y-46204819D01*
X118797619Y-46204819D02*
X119416666Y-46204819D01*
X251374819Y-97309523D02*
X252089104Y-97309523D01*
X252089104Y-97309523D02*
X252231961Y-97357142D01*
X252231961Y-97357142D02*
X252327200Y-97452380D01*
X252327200Y-97452380D02*
X252374819Y-97595237D01*
X252374819Y-97595237D02*
X252374819Y-97690475D01*
X252374819Y-96309523D02*
X252374819Y-96880951D01*
X252374819Y-96595237D02*
X251374819Y-96595237D01*
X251374819Y-96595237D02*
X251517676Y-96690475D01*
X251517676Y-96690475D02*
X251612914Y-96785713D01*
X251612914Y-96785713D02*
X251660533Y-96880951D01*
X251374819Y-95976189D02*
X251374819Y-95357142D01*
X251374819Y-95357142D02*
X251755771Y-95690475D01*
X251755771Y-95690475D02*
X251755771Y-95547618D01*
X251755771Y-95547618D02*
X251803390Y-95452380D01*
X251803390Y-95452380D02*
X251851009Y-95404761D01*
X251851009Y-95404761D02*
X251946247Y-95357142D01*
X251946247Y-95357142D02*
X252184342Y-95357142D01*
X252184342Y-95357142D02*
X252279580Y-95404761D01*
X252279580Y-95404761D02*
X252327200Y-95452380D01*
X252327200Y-95452380D02*
X252374819Y-95547618D01*
X252374819Y-95547618D02*
X252374819Y-95833332D01*
X252374819Y-95833332D02*
X252327200Y-95928570D01*
X252327200Y-95928570D02*
X252279580Y-95976189D01*
X265534819Y-97833332D02*
X264534819Y-97833332D01*
X264534819Y-97833332D02*
X265249104Y-97499999D01*
X265249104Y-97499999D02*
X264534819Y-97166666D01*
X264534819Y-97166666D02*
X265534819Y-97166666D01*
X265630057Y-96023809D02*
X265582438Y-96119047D01*
X265582438Y-96119047D02*
X265487200Y-96214285D01*
X265487200Y-96214285D02*
X265344342Y-96357142D01*
X265344342Y-96357142D02*
X265296723Y-96452380D01*
X265296723Y-96452380D02*
X265296723Y-96547618D01*
X265534819Y-96499999D02*
X265487200Y-96595237D01*
X265487200Y-96595237D02*
X265391961Y-96690475D01*
X265391961Y-96690475D02*
X265201485Y-96738094D01*
X265201485Y-96738094D02*
X264868152Y-96738094D01*
X264868152Y-96738094D02*
X264677676Y-96690475D01*
X264677676Y-96690475D02*
X264582438Y-96595237D01*
X264582438Y-96595237D02*
X264534819Y-96499999D01*
X264534819Y-96499999D02*
X264534819Y-96309523D01*
X264534819Y-96309523D02*
X264582438Y-96214285D01*
X264582438Y-96214285D02*
X264677676Y-96119047D01*
X264677676Y-96119047D02*
X264868152Y-96071428D01*
X264868152Y-96071428D02*
X265201485Y-96071428D01*
X265201485Y-96071428D02*
X265391961Y-96119047D01*
X265391961Y-96119047D02*
X265487200Y-96214285D01*
X265487200Y-96214285D02*
X265534819Y-96309523D01*
X265534819Y-96309523D02*
X265534819Y-96499999D01*
X264868152Y-95214285D02*
X265534819Y-95214285D01*
X264487200Y-95452380D02*
X265201485Y-95690475D01*
X265201485Y-95690475D02*
X265201485Y-95071428D01*
X257680066Y-57335619D02*
X257680066Y-58049904D01*
X257680066Y-58049904D02*
X257632447Y-58192761D01*
X257632447Y-58192761D02*
X257537209Y-58288000D01*
X257537209Y-58288000D02*
X257394352Y-58335619D01*
X257394352Y-58335619D02*
X257299114Y-58335619D01*
X258061019Y-57335619D02*
X258727685Y-57335619D01*
X258727685Y-57335619D02*
X258299114Y-58335619D01*
D11*
X170316066Y-51633907D02*
X170316066Y-52348192D01*
X170316066Y-52348192D02*
X170268447Y-52491049D01*
X170268447Y-52491049D02*
X170173209Y-52586288D01*
X170173209Y-52586288D02*
X170030352Y-52633907D01*
X170030352Y-52633907D02*
X169935114Y-52633907D01*
X171316066Y-52633907D02*
X170744638Y-52633907D01*
X171030352Y-52633907D02*
X171030352Y-51633907D01*
X171030352Y-51633907D02*
X170935114Y-51776764D01*
X170935114Y-51776764D02*
X170839876Y-51872002D01*
X170839876Y-51872002D02*
X170744638Y-51919621D01*
X172268447Y-52633907D02*
X171697019Y-52633907D01*
X171982733Y-52633907D02*
X171982733Y-51633907D01*
X171982733Y-51633907D02*
X171887495Y-51776764D01*
X171887495Y-51776764D02*
X171792257Y-51872002D01*
X171792257Y-51872002D02*
X171697019Y-51919621D01*
D10*
X186029691Y-64083332D02*
X185029691Y-64083332D01*
X185029691Y-64083332D02*
X185743976Y-63749999D01*
X185743976Y-63749999D02*
X185029691Y-63416666D01*
X185029691Y-63416666D02*
X186029691Y-63416666D01*
X186124929Y-62273809D02*
X186077310Y-62369047D01*
X186077310Y-62369047D02*
X185982072Y-62464285D01*
X185982072Y-62464285D02*
X185839214Y-62607142D01*
X185839214Y-62607142D02*
X185791595Y-62702380D01*
X185791595Y-62702380D02*
X185791595Y-62797618D01*
X186029691Y-62749999D02*
X185982072Y-62845237D01*
X185982072Y-62845237D02*
X185886833Y-62940475D01*
X185886833Y-62940475D02*
X185696357Y-62988094D01*
X185696357Y-62988094D02*
X185363024Y-62988094D01*
X185363024Y-62988094D02*
X185172548Y-62940475D01*
X185172548Y-62940475D02*
X185077310Y-62845237D01*
X185077310Y-62845237D02*
X185029691Y-62749999D01*
X185029691Y-62749999D02*
X185029691Y-62559523D01*
X185029691Y-62559523D02*
X185077310Y-62464285D01*
X185077310Y-62464285D02*
X185172548Y-62369047D01*
X185172548Y-62369047D02*
X185363024Y-62321428D01*
X185363024Y-62321428D02*
X185696357Y-62321428D01*
X185696357Y-62321428D02*
X185886833Y-62369047D01*
X185886833Y-62369047D02*
X185982072Y-62464285D01*
X185982072Y-62464285D02*
X186029691Y-62559523D01*
X186029691Y-62559523D02*
X186029691Y-62749999D01*
X185029691Y-61988094D02*
X185029691Y-61369047D01*
X185029691Y-61369047D02*
X185410643Y-61702380D01*
X185410643Y-61702380D02*
X185410643Y-61559523D01*
X185410643Y-61559523D02*
X185458262Y-61464285D01*
X185458262Y-61464285D02*
X185505881Y-61416666D01*
X185505881Y-61416666D02*
X185601119Y-61369047D01*
X185601119Y-61369047D02*
X185839214Y-61369047D01*
X185839214Y-61369047D02*
X185934452Y-61416666D01*
X185934452Y-61416666D02*
X185982072Y-61464285D01*
X185982072Y-61464285D02*
X186029691Y-61559523D01*
X186029691Y-61559523D02*
X186029691Y-61845237D01*
X186029691Y-61845237D02*
X185982072Y-61940475D01*
X185982072Y-61940475D02*
X185934452Y-61988094D01*
X173416666Y-100204819D02*
X173416666Y-100919104D01*
X173416666Y-100919104D02*
X173369047Y-101061961D01*
X173369047Y-101061961D02*
X173273809Y-101157200D01*
X173273809Y-101157200D02*
X173130952Y-101204819D01*
X173130952Y-101204819D02*
X173035714Y-101204819D01*
X174369047Y-100204819D02*
X173892857Y-100204819D01*
X173892857Y-100204819D02*
X173845238Y-100681009D01*
X173845238Y-100681009D02*
X173892857Y-100633390D01*
X173892857Y-100633390D02*
X173988095Y-100585771D01*
X173988095Y-100585771D02*
X174226190Y-100585771D01*
X174226190Y-100585771D02*
X174321428Y-100633390D01*
X174321428Y-100633390D02*
X174369047Y-100681009D01*
X174369047Y-100681009D02*
X174416666Y-100776247D01*
X174416666Y-100776247D02*
X174416666Y-101014342D01*
X174416666Y-101014342D02*
X174369047Y-101109580D01*
X174369047Y-101109580D02*
X174321428Y-101157200D01*
X174321428Y-101157200D02*
X174226190Y-101204819D01*
X174226190Y-101204819D02*
X173988095Y-101204819D01*
X173988095Y-101204819D02*
X173892857Y-101157200D01*
X173892857Y-101157200D02*
X173845238Y-101109580D01*
%TO.C,J15*%
D11*
X144529911Y-75156643D02*
X170874207Y-75156643D01*
X170874207Y-94523324D01*
X144529911Y-94523324D01*
X144529911Y-75156643D01*
D12*
X164830000Y-82230000D02*
X164830000Y-89910000D01*
X164830000Y-79630000D02*
X164830000Y-80960000D01*
X163500000Y-79630000D02*
X164830000Y-79630000D01*
X162170000Y-89910000D02*
X164830000Y-89910000D01*
X162170000Y-82230000D02*
X164830000Y-82230000D01*
X162170000Y-82230000D02*
X162170000Y-89910000D01*
%TO.C,J1*%
X126610000Y-96130000D02*
X127940000Y-96130000D01*
X126610000Y-97460000D02*
X126610000Y-96130000D01*
X129210000Y-96130000D02*
X147050000Y-96130000D01*
X129210000Y-98790000D02*
X129210000Y-96130000D01*
X129210000Y-98790000D02*
X147050000Y-98790000D01*
X147050000Y-98790000D02*
X147050000Y-96130000D01*
%TO.C,J19*%
X198594400Y-96511800D02*
X198594400Y-99271800D01*
X206324400Y-96511800D02*
X198594400Y-96511800D01*
X206324400Y-96511800D02*
X206324400Y-99271800D01*
X206324400Y-99271800D02*
X198594400Y-99271800D01*
X207594400Y-96511800D02*
X208974400Y-96511800D01*
X208974400Y-96511800D02*
X208974400Y-97891800D01*
%TO.C,J6*%
X167250000Y-47870000D02*
X168580000Y-47870000D01*
X167250000Y-49200000D02*
X167250000Y-47870000D01*
X169850000Y-47870000D02*
X187690000Y-47870000D01*
X169850000Y-50530000D02*
X169850000Y-47870000D01*
X169850000Y-50530000D02*
X187690000Y-50530000D01*
X187690000Y-50530000D02*
X187690000Y-47870000D01*
%TO.C,J4*%
X144390000Y-47870000D02*
X145720000Y-47870000D01*
X144390000Y-49200000D02*
X144390000Y-47870000D01*
X146990000Y-47870000D02*
X164830000Y-47870000D01*
X146990000Y-50530000D02*
X146990000Y-47870000D01*
X146990000Y-50530000D02*
X164830000Y-50530000D01*
X164830000Y-50530000D02*
X164830000Y-47870000D01*
%TO.C,J10*%
X150991000Y-59957075D02*
X150991000Y-67637075D01*
X150991000Y-59957075D02*
X153651000Y-59957075D01*
X150991000Y-67637075D02*
X153651000Y-67637075D01*
X152321000Y-57357075D02*
X153651000Y-57357075D01*
X153651000Y-57357075D02*
X153651000Y-58687075D01*
X153651000Y-59957075D02*
X153651000Y-67637075D01*
D11*
X133350911Y-52883718D02*
X159695207Y-52883718D01*
X159695207Y-72250399D01*
X133350911Y-72250399D01*
X133350911Y-52883718D01*
%TO.C,J12*%
D12*
X133837400Y-81912675D02*
X133837400Y-89592675D01*
X133837400Y-81912675D02*
X136497400Y-81912675D01*
X133837400Y-89592675D02*
X136497400Y-89592675D01*
X135167400Y-79312675D02*
X136497400Y-79312675D01*
X136497400Y-79312675D02*
X136497400Y-80642675D01*
X136497400Y-81912675D02*
X136497400Y-89592675D01*
D11*
X116197311Y-74839318D02*
X142541607Y-74839318D01*
X142541607Y-94205999D01*
X116197311Y-94205999D01*
X116197311Y-74839318D01*
%TO.C,J20*%
D12*
X271491600Y-88519200D02*
X271491600Y-96199200D01*
X271491600Y-88519200D02*
X274151600Y-88519200D01*
X271491600Y-96199200D02*
X274151600Y-96199200D01*
X272821600Y-85919200D02*
X274151600Y-85919200D01*
X274151600Y-85919200D02*
X274151600Y-87249200D01*
X274151600Y-88519200D02*
X274151600Y-96199200D01*
%TO.C,J14*%
X219590000Y-96170000D02*
X220920000Y-96170000D01*
X219590000Y-97500000D02*
X219590000Y-96170000D01*
X222190000Y-96170000D02*
X229870000Y-96170000D01*
X222190000Y-98830000D02*
X222190000Y-96170000D01*
X222190000Y-98830000D02*
X229870000Y-98830000D01*
X229870000Y-98830000D02*
X229870000Y-96170000D01*
%TO.C,J8*%
X203546600Y-48733600D02*
X204876600Y-48733600D01*
X203546600Y-50063600D02*
X203546600Y-48733600D01*
X206146600Y-48733600D02*
X211286600Y-48733600D01*
X206146600Y-51393600D02*
X206146600Y-48733600D01*
X206146600Y-51393600D02*
X211286600Y-51393600D01*
X211286600Y-51393600D02*
X211286600Y-48733600D01*
%TO.C,J18*%
X269170000Y-75350000D02*
X269170000Y-67670000D01*
X269170000Y-77950000D02*
X269170000Y-76620000D01*
X270500000Y-77950000D02*
X269170000Y-77950000D01*
X271830000Y-67670000D02*
X269170000Y-67670000D01*
X271830000Y-75350000D02*
X269170000Y-75350000D01*
X271830000Y-75350000D02*
X271830000Y-67670000D01*
%TO.C,J3*%
X149470000Y-96130000D02*
X150800000Y-96130000D01*
X149470000Y-97460000D02*
X149470000Y-96130000D01*
X152070000Y-96130000D02*
X169910000Y-96130000D01*
X152070000Y-98790000D02*
X152070000Y-96130000D01*
X152070000Y-98790000D02*
X169910000Y-98790000D01*
X169910000Y-98790000D02*
X169910000Y-96130000D01*
%TO.C,J17*%
D11*
X214275311Y-65507518D02*
X240619607Y-65507518D01*
X240619607Y-84874199D01*
X214275311Y-84874199D01*
X214275311Y-65507518D01*
D12*
X234575400Y-72580875D02*
X234575400Y-80260875D01*
X234575400Y-69980875D02*
X234575400Y-71310875D01*
X233245400Y-69980875D02*
X234575400Y-69980875D01*
X231915400Y-80260875D02*
X234575400Y-80260875D01*
X231915400Y-72580875D02*
X234575400Y-72580875D01*
X231915400Y-72580875D02*
X231915400Y-80260875D01*
%TO.C,J9*%
X102403800Y-49420000D02*
X102403800Y-52080000D01*
X107543800Y-49420000D02*
X102403800Y-49420000D01*
X107543800Y-49420000D02*
X107543800Y-52080000D01*
X107543800Y-52080000D02*
X102403800Y-52080000D01*
X110143800Y-50750000D02*
X110143800Y-52080000D01*
X110143800Y-52080000D02*
X108813800Y-52080000D01*
%TO.C,J21*%
X221021800Y-48657400D02*
X221021800Y-51317400D01*
X228701800Y-48657400D02*
X221021800Y-48657400D01*
X228701800Y-48657400D02*
X228701800Y-51317400D01*
X228701800Y-51317400D02*
X221021800Y-51317400D01*
X231301800Y-49987400D02*
X231301800Y-51317400D01*
X231301800Y-51317400D02*
X229971800Y-51317400D01*
%TO.C,J16*%
X199170000Y-81770000D02*
X199170000Y-89450000D01*
X199170000Y-81770000D02*
X201830000Y-81770000D01*
X199170000Y-89450000D02*
X201830000Y-89450000D01*
X200500000Y-79170000D02*
X201830000Y-79170000D01*
X201830000Y-79170000D02*
X201830000Y-80500000D01*
X201830000Y-81770000D02*
X201830000Y-89450000D01*
D11*
X181529911Y-74696643D02*
X207874207Y-74696643D01*
X207874207Y-94063324D01*
X181529911Y-94063324D01*
X181529911Y-74696643D01*
%TO.C,J2*%
D12*
X117466000Y-47870000D02*
X118796000Y-47870000D01*
X117466000Y-49200000D02*
X117466000Y-47870000D01*
X120066000Y-47870000D02*
X142986000Y-47870000D01*
X120066000Y-50530000D02*
X120066000Y-47870000D01*
X120066000Y-50530000D02*
X142986000Y-50530000D01*
X142986000Y-50530000D02*
X142986000Y-47870000D01*
%TO.C,J13*%
X253360000Y-95170000D02*
X254690000Y-95170000D01*
X253360000Y-96500000D02*
X253360000Y-95170000D01*
X255960000Y-95170000D02*
X263640000Y-95170000D01*
X255960000Y-97830000D02*
X255960000Y-95170000D01*
X255960000Y-97830000D02*
X263640000Y-97830000D01*
X263640000Y-97830000D02*
X263640000Y-95170000D01*
%TO.C,J7*%
X254088400Y-49340800D02*
X259618400Y-49340800D01*
X254088400Y-56880800D02*
X254088400Y-49340800D01*
X260218400Y-49340800D02*
X261938400Y-49340800D01*
X261938400Y-49340800D02*
X261938400Y-56880800D01*
X261938400Y-56880800D02*
X254088400Y-56880800D01*
X259918400Y-49340800D02*
X259478400Y-48730800D01*
X260358400Y-48730800D01*
X259918400Y-49340800D01*
G36*
X259918400Y-49340800D02*
G01*
X259478400Y-48730800D01*
X260358400Y-48730800D01*
X259918400Y-49340800D01*
G37*
%TO.C,J11*%
X187211400Y-60338075D02*
X187211400Y-68018075D01*
X187211400Y-60338075D02*
X189871400Y-60338075D01*
X187211400Y-68018075D02*
X189871400Y-68018075D01*
X188541400Y-57738075D02*
X189871400Y-57738075D01*
X189871400Y-57738075D02*
X189871400Y-59068075D01*
X189871400Y-60338075D02*
X189871400Y-68018075D01*
D11*
X169571311Y-53264718D02*
X195915607Y-53264718D01*
X195915607Y-72631399D01*
X169571311Y-72631399D01*
X169571311Y-53264718D01*
%TO.C,J5*%
D12*
X172330000Y-96130000D02*
X173660000Y-96130000D01*
X172330000Y-97460000D02*
X172330000Y-96130000D01*
X174930000Y-96130000D02*
X192770000Y-96130000D01*
X174930000Y-98790000D02*
X174930000Y-96130000D01*
X174930000Y-98790000D02*
X192770000Y-98790000D01*
X192770000Y-98790000D02*
X192770000Y-96130000D01*
%TD*%
M02*
