%TF.GenerationSoftware,KiCad,Pcbnew,10.0.3*%
%TF.CreationDate,2026-06-11T12:05:04+01:00*%
%TF.ProjectId,6 Integrated Air Quality & Environmental Monitor,3620496e-7465-4677-9261-746564204169,rev?*%
%TF.SameCoordinates,Original*%
%TF.FileFunction,Copper,L1,Top*%
%TF.FilePolarity,Positive*%
%FSLAX46Y46*%
G04 Gerber Fmt 4.6, Leading zero omitted, Abs format (unit mm)*
G04 Created by KiCad (PCBNEW 10.0.3) date 2026-06-11 12:05:04*
%MOMM*%
%LPD*%
G01*
G04 APERTURE LIST*
G04 Aperture macros list*
%AMRoundRect*
0 Rectangle with rounded corners*
0 $1 Rounding radius*
0 $2 $3 $4 $5 $6 $7 $8 $9 X,Y pos of 4 corners*
0 Add a 4 corners polygon primitive as box body*
4,1,4,$2,$3,$4,$5,$6,$7,$8,$9,$2,$3,0*
0 Add four circle primitives for the rounded corners*
1,1,$1+$1,$2,$3*
1,1,$1+$1,$4,$5*
1,1,$1+$1,$6,$7*
1,1,$1+$1,$8,$9*
0 Add four rect primitives between the rounded corners*
20,1,$1+$1,$2,$3,$4,$5,0*
20,1,$1+$1,$4,$5,$6,$7,0*
20,1,$1+$1,$6,$7,$8,$9,0*
20,1,$1+$1,$8,$9,$2,$3,0*%
G04 Aperture macros list end*
%TA.AperFunction,ComponentPad*%
%ADD10C,1.700000*%
%TD*%
%TA.AperFunction,ComponentPad*%
%ADD11R,1.700000X1.700000*%
%TD*%
%TA.AperFunction,ComponentPad*%
%ADD12RoundRect,0.250000X0.750000X0.750000X-0.750000X0.750000X-0.750000X-0.750000X0.750000X-0.750000X0*%
%TD*%
%TA.AperFunction,ComponentPad*%
%ADD13C,2.000000*%
%TD*%
%TA.AperFunction,Conductor*%
%ADD14C,1.500000*%
%TD*%
%TA.AperFunction,Conductor*%
%ADD15C,0.600000*%
%TD*%
%TA.AperFunction,Conductor*%
%ADD16C,0.200000*%
%TD*%
%TA.AperFunction,Conductor*%
%ADD17C,0.250000*%
%TD*%
G04 APERTURE END LIST*
D10*
%TO.P,J15,4,Pin_4_4*%
%TO.N,/A5*%
X163500000Y-88580000D03*
%TO.P,J15,3,Pin_3_3*%
%TO.N,unconnected-(J15-Pin_3-Pad3)*%
X163500000Y-86040000D03*
%TO.P,J15,2,Pin_2_2*%
%TO.N,GND*%
X163500000Y-83500000D03*
D11*
%TO.P,J15,1,Pin_1_1*%
%TO.N,+5V*%
X163500000Y-80960000D03*
%TD*%
%TO.P,J1,1,Pin_1_1*%
%TO.N,unconnected-(J1-Pin_1-Pad1)*%
X127940000Y-97460000D03*
D10*
%TO.P,J1,2,Pin_2_2*%
%TO.N,unconnected-(J1-Pin_2-Pad2)*%
X130480000Y-97460000D03*
%TO.P,J1,3,Pin_3_3*%
%TO.N,unconnected-(J1-Pin_3-Pad3)*%
X133020000Y-97460000D03*
%TO.P,J1,4,Pin_4_4*%
%TO.N,unconnected-(J1-Pin_4-Pad4)*%
X135560000Y-97460000D03*
%TO.P,J1,5,Pin_5_5*%
%TO.N,unconnected-(J1-Pin_5-Pad5)*%
X138100000Y-97460000D03*
%TO.P,J1,6,Pin_6_6*%
%TO.N,GND*%
X140640000Y-97460000D03*
%TO.P,J1,7,Pin_7_7*%
X143180000Y-97460000D03*
%TO.P,J1,8,Pin_8_8*%
%TO.N,unconnected-(J1-Pin_8-Pad8)*%
X145720000Y-97460000D03*
%TD*%
D11*
%TO.P,J19,1,Pin_1_1*%
%TO.N,+5V*%
X207594400Y-97891800D03*
D10*
%TO.P,J19,2,Pin_2_2*%
%TO.N,GND*%
X205054400Y-97891800D03*
%TO.P,J19,3,Pin_3_3*%
%TO.N,unconnected-(J19-Pin_3-Pad3)*%
X202514400Y-97891800D03*
%TO.P,J19,4,Pin_4_4*%
%TO.N,/A9*%
X199974400Y-97891800D03*
%TD*%
D11*
%TO.P,J6,1,Pin_1_1*%
%TO.N,unconnected-(J6-Pin_1-Pad1)*%
X168580000Y-49200000D03*
D10*
%TO.P,J6,2,Pin_2_2*%
%TO.N,unconnected-(J6-Pin_2-Pad2)*%
X171120000Y-49200000D03*
%TO.P,J6,3,Pin_3_3*%
%TO.N,unconnected-(J6-Pin_3-Pad3)*%
X173660000Y-49200000D03*
%TO.P,J6,4,Pin_4_4*%
%TO.N,unconnected-(J6-Pin_4-Pad4)*%
X176200000Y-49200000D03*
%TO.P,J6,5,Pin_5_5*%
%TO.N,unconnected-(J6-Pin_5-Pad5)*%
X178740000Y-49200000D03*
%TO.P,J6,6,Pin_6_6*%
%TO.N,unconnected-(J6-Pin_6-Pad6)*%
X181280000Y-49200000D03*
%TO.P,J6,7,Pin_7_7*%
%TO.N,/SDA{slash}20*%
X183820000Y-49200000D03*
%TO.P,J6,8,Pin_8_8*%
%TO.N,/SCL{slash}21*%
X186360000Y-49200000D03*
%TD*%
D11*
%TO.P,J4,1,Pin_1_1*%
%TO.N,unconnected-(J4-Pin_1-Pad1)*%
X145720000Y-49200000D03*
D10*
%TO.P,J4,2,Pin_2_2*%
%TO.N,/D2*%
X148260000Y-49200000D03*
%TO.P,J4,3,Pin_3_3*%
%TO.N,unconnected-(J4-Pin_3-Pad3)*%
X150800000Y-49200000D03*
%TO.P,J4,4,Pin_4_4*%
%TO.N,/D4*%
X153340000Y-49200000D03*
%TO.P,J4,5,Pin_5_5*%
%TO.N,unconnected-(J4-Pin_5-Pad5)*%
X155880000Y-49200000D03*
%TO.P,J4,6,Pin_6_6*%
%TO.N,unconnected-(J4-Pin_6-Pad6)*%
X158420000Y-49200000D03*
%TO.P,J4,7,Pin_7_7*%
%TO.N,unconnected-(J4-Pin_7-Pad7)*%
X160960000Y-49200000D03*
%TO.P,J4,8,Pin_8_8*%
%TO.N,unconnected-(J4-Pin_8-Pad8)*%
X163500000Y-49200000D03*
%TD*%
D11*
%TO.P,J10,1,Pin_1_1*%
%TO.N,+5V*%
X152321000Y-58687075D03*
D10*
%TO.P,J10,2,Pin_2_2*%
%TO.N,GND*%
X152321000Y-61227075D03*
%TO.P,J10,3,Pin_3_3*%
%TO.N,unconnected-(J10-Pin_3-Pad3)*%
X152321000Y-63767075D03*
%TO.P,J10,4,Pin_4_4*%
%TO.N,/A0*%
X152321000Y-66307075D03*
%TD*%
D11*
%TO.P,J12,1,Pin_1_1*%
%TO.N,+5V*%
X135167400Y-80642675D03*
D10*
%TO.P,J12,2,Pin_2_2*%
%TO.N,GND*%
X135167400Y-83182675D03*
%TO.P,J12,3,Pin_3_3*%
%TO.N,unconnected-(J12-Pin_3-Pad3)*%
X135167400Y-85722675D03*
%TO.P,J12,4,Pin_4_4*%
%TO.N,/A2*%
X135167400Y-88262675D03*
%TD*%
D11*
%TO.P,J20,1,Pin_1_1*%
%TO.N,/A11*%
X272821600Y-87249200D03*
D10*
%TO.P,J20,2,Pin_2_2*%
%TO.N,GND*%
X272821600Y-89789200D03*
%TO.P,J20,3,Pin_3_3*%
%TO.N,+5V*%
X272821600Y-92329200D03*
%TO.P,J20,4,Pin_4_4*%
%TO.N,unconnected-(J20-Pin_4-Pad4)*%
X272821600Y-94869200D03*
%TD*%
D11*
%TO.P,J14,1,Pin_1_1*%
%TO.N,+5V*%
X220920000Y-97500000D03*
D10*
%TO.P,J14,2,Pin_2_2*%
%TO.N,GND*%
X223460000Y-97500000D03*
%TO.P,J14,3,Pin_3_3*%
%TO.N,unconnected-(J14-Pin_3-Pad3)*%
X226000000Y-97500000D03*
%TO.P,J14,4,Pin_4_4*%
%TO.N,/A4*%
X228540000Y-97500000D03*
%TD*%
D11*
%TO.P,J8,1,Pin_1_1*%
%TO.N,+5V*%
X204876600Y-50063600D03*
D10*
%TO.P,J8,2,Pin_2_2*%
%TO.N,/D4*%
X207416600Y-50063600D03*
%TO.P,J8,3,Pin_3_3*%
%TO.N,GND*%
X209956600Y-50063600D03*
%TD*%
D11*
%TO.P,J18,1,Pin_1_1*%
%TO.N,+5V*%
X270500000Y-76620000D03*
D10*
%TO.P,J18,2,Pin_2_2*%
%TO.N,GND*%
X270500000Y-74080000D03*
%TO.P,J18,3,Pin_3_3*%
%TO.N,unconnected-(J18-Pin_3-Pad3)*%
X270500000Y-71540000D03*
%TO.P,J18,4,Pin_4_4*%
%TO.N,/A8*%
X270500000Y-69000000D03*
%TD*%
D11*
%TO.P,J3,1,Pin_1_1*%
%TO.N,/A0*%
X150800000Y-97460000D03*
D10*
%TO.P,J3,2,Pin_2_2*%
%TO.N,/A1*%
X153340000Y-97460000D03*
%TO.P,J3,3,Pin_3_3*%
%TO.N,/A2*%
X155880000Y-97460000D03*
%TO.P,J3,4,Pin_4_4*%
%TO.N,/A3*%
X158420000Y-97460000D03*
%TO.P,J3,5,Pin_5_5*%
%TO.N,/A4*%
X160960000Y-97460000D03*
%TO.P,J3,6,Pin_6_6*%
%TO.N,/A5*%
X163500000Y-97460000D03*
%TO.P,J3,7,Pin_7_7*%
%TO.N,/A6*%
X166040000Y-97460000D03*
%TO.P,J3,8,Pin_8_8*%
%TO.N,/A7*%
X168580000Y-97460000D03*
%TD*%
%TO.P,J17,4,Pin_4_4*%
%TO.N,/A7*%
X233245400Y-78930875D03*
%TO.P,J17,3,Pin_3_3*%
%TO.N,unconnected-(J17-Pin_3-Pad3)*%
X233245400Y-76390875D03*
%TO.P,J17,2,Pin_2_2*%
%TO.N,GND*%
X233245400Y-73850875D03*
D11*
%TO.P,J17,1,Pin_1_1*%
%TO.N,+5V*%
X233245400Y-71310875D03*
%TD*%
%TO.P,J9,1,Pin_1_1*%
%TO.N,+5V*%
X108813800Y-50750000D03*
D10*
%TO.P,J9,2,Pin_2_2*%
%TO.N,/D2*%
X106273800Y-50750000D03*
%TO.P,J9,3,Pin_3_3*%
%TO.N,GND*%
X103733800Y-50750000D03*
%TD*%
D11*
%TO.P,J21,1,Pin_1_1*%
%TO.N,/SDA{slash}20*%
X229971800Y-49987400D03*
D10*
%TO.P,J21,2,Pin_2_2*%
%TO.N,/SCL{slash}21*%
X227431800Y-49987400D03*
%TO.P,J21,3,Pin_3_3*%
%TO.N,GND*%
X224891800Y-49987400D03*
%TO.P,J21,4,Pin_4_4*%
%TO.N,+5V*%
X222351800Y-49987400D03*
%TD*%
D11*
%TO.P,J16,1,Pin_1_1*%
%TO.N,+5V*%
X200500000Y-80500000D03*
D10*
%TO.P,J16,2,Pin_2_2*%
%TO.N,GND*%
X200500000Y-83040000D03*
%TO.P,J16,3,Pin_3_3*%
%TO.N,unconnected-(J16-Pin_3-Pad3)*%
X200500000Y-85580000D03*
%TO.P,J16,4,Pin_4_4*%
%TO.N,/A6*%
X200500000Y-88120000D03*
%TD*%
D11*
%TO.P,J2,1,Pin_1_1*%
%TO.N,unconnected-(J2-Pin_1-Pad1)*%
X118796000Y-49200000D03*
D10*
%TO.P,J2,2,Pin_2_2*%
%TO.N,unconnected-(J2-Pin_2-Pad2)*%
X121336000Y-49200000D03*
%TO.P,J2,3,Pin_3_3*%
%TO.N,unconnected-(J2-Pin_3-Pad3)*%
X123876000Y-49200000D03*
%TO.P,J2,4,Pin_4_4*%
%TO.N,unconnected-(J2-Pin_4-Pad4)*%
X126416000Y-49200000D03*
%TO.P,J2,5,Pin_5_5*%
%TO.N,unconnected-(J2-Pin_5-Pad5)*%
X128956000Y-49200000D03*
%TO.P,J2,6,Pin_6_6*%
%TO.N,unconnected-(J2-Pin_6-Pad6)*%
X131496000Y-49200000D03*
%TO.P,J2,7,Pin_7_7*%
%TO.N,unconnected-(J2-Pin_7-Pad7)*%
X134036000Y-49200000D03*
%TO.P,J2,8,Pin_8_8*%
%TO.N,unconnected-(J2-Pin_8-Pad8)*%
X136576000Y-49200000D03*
%TO.P,J2,9,Pin_9_9*%
%TO.N,unconnected-(J2-Pin_9-Pad9)*%
X139116000Y-49200000D03*
%TO.P,J2,10,Pin_10_10*%
%TO.N,unconnected-(J2-Pin_10-Pad10)*%
X141656000Y-49200000D03*
%TD*%
D11*
%TO.P,J13,1,Pin_1_1*%
%TO.N,+5V*%
X254690000Y-96500000D03*
D10*
%TO.P,J13,2,Pin_2_2*%
%TO.N,GND*%
X257230000Y-96500000D03*
%TO.P,J13,3,Pin_3_3*%
%TO.N,unconnected-(J13-Pin_3-Pad3)*%
X259770000Y-96500000D03*
%TO.P,J13,4,Pin_4_4*%
%TO.N,/A3*%
X262310000Y-96500000D03*
%TD*%
D12*
%TO.P,J7,1,Pin_1_1*%
%TO.N,+5V*%
X259918400Y-53060800D03*
D13*
%TO.P,J7,2,Pin_2_2*%
%TO.N,GND*%
X256108400Y-53060800D03*
%TD*%
D11*
%TO.P,J11,1,Pin_1_1*%
%TO.N,+5V*%
X188541400Y-59068075D03*
D10*
%TO.P,J11,2,Pin_2_2*%
%TO.N,GND*%
X188541400Y-61608075D03*
%TO.P,J11,3,Pin_3_3*%
%TO.N,unconnected-(J11-Pin_3-Pad3)*%
X188541400Y-64148075D03*
%TO.P,J11,4,Pin_4_4*%
%TO.N,/A1*%
X188541400Y-66688075D03*
%TD*%
D11*
%TO.P,J5,1,Pin_1_1*%
%TO.N,/A8*%
X173660000Y-97460000D03*
D10*
%TO.P,J5,2,Pin_2_2*%
%TO.N,/A9*%
X176200000Y-97460000D03*
%TO.P,J5,3,Pin_3_3*%
%TO.N,unconnected-(J5-Pin_3-Pad3)*%
X178740000Y-97460000D03*
%TO.P,J5,4,Pin_4_4*%
%TO.N,/A11*%
X181280000Y-97460000D03*
%TO.P,J5,5,Pin_5_5*%
%TO.N,unconnected-(J5-Pin_5-Pad5)*%
X183820000Y-97460000D03*
%TO.P,J5,6,Pin_6_6*%
%TO.N,unconnected-(J5-Pin_6-Pad6)*%
X186360000Y-97460000D03*
%TO.P,J5,7,Pin_7_7*%
%TO.N,unconnected-(J5-Pin_7-Pad7)*%
X188900000Y-97460000D03*
%TO.P,J5,8,Pin_8_8*%
%TO.N,unconnected-(J5-Pin_8-Pad8)*%
X191440000Y-97460000D03*
%TD*%
%TO.N,+5V*%
D14*
X275818800Y-70000000D02*
X275818800Y-97681200D01*
X267500000Y-97000000D02*
X264000000Y-93500000D01*
X275500000Y-98000000D02*
X267500000Y-98000000D01*
X275818800Y-97681200D02*
X275500000Y-98000000D01*
X267500000Y-98000000D02*
X267500000Y-97000000D01*
X264000000Y-93500000D02*
X216736000Y-93500000D01*
X206208900Y-72708900D02*
X205410000Y-73507800D01*
X205410000Y-73507800D02*
X158470800Y-73507800D01*
X275818800Y-63318800D02*
X275818800Y-70000000D01*
D15*
X169500000Y-73507800D02*
X170027800Y-73507800D01*
D14*
X212699800Y-66218000D02*
X210208900Y-68708900D01*
D15*
X204876600Y-50063600D02*
X204876600Y-55626200D01*
X204876600Y-55626200D02*
X210208900Y-60958500D01*
X210208900Y-60958500D02*
X210208900Y-68708900D01*
D14*
X213512600Y-65405200D02*
X212699800Y-66218000D01*
D15*
X212699800Y-59639400D02*
X212699800Y-66218000D01*
D14*
X226000000Y-65405200D02*
X222072400Y-65405200D01*
X226000000Y-65405200D02*
X213512600Y-65405200D01*
X210208900Y-68708900D02*
X206208900Y-72708900D01*
D15*
X207352600Y-71352600D02*
X207500000Y-71500000D01*
X207352600Y-68852600D02*
X207352600Y-71352600D01*
D14*
X259918400Y-59081600D02*
X271581600Y-59081600D01*
X271581600Y-59081600D02*
X275818800Y-63318800D01*
X275818800Y-70000000D02*
X275818800Y-71450400D01*
X259918400Y-53060800D02*
X259918400Y-59081600D01*
X259918400Y-59081600D02*
X253594800Y-65405200D01*
X253594800Y-65405200D02*
X226000000Y-65405200D01*
D15*
X108813800Y-50750000D02*
X112063800Y-54000000D01*
X112063800Y-54000000D02*
X192500000Y-54000000D01*
X192500000Y-54000000D02*
X207352600Y-68852600D01*
X270738800Y-76530400D02*
X275818800Y-71450400D01*
X275818800Y-95326400D02*
X275818800Y-96113800D01*
X222351800Y-49987400D02*
X212699800Y-59639400D01*
X233223000Y-71348800D02*
X228016000Y-71348800D01*
X163500000Y-76007800D02*
X163500000Y-80960000D01*
X151335925Y-80642675D02*
X158470800Y-73507800D01*
X166000000Y-73507800D02*
X163500000Y-76007800D01*
X155191675Y-58671675D02*
X170027800Y-73507800D01*
X135167400Y-80642675D02*
X151335925Y-80642675D01*
X228016000Y-71348800D02*
X222072400Y-65405200D01*
X220777000Y-97282200D02*
X220777000Y-95936000D01*
X200431600Y-80569000D02*
X200431600Y-78486200D01*
X254711400Y-95097800D02*
X256057600Y-93751600D01*
X152312400Y-58671675D02*
X155191675Y-58671675D01*
X270738800Y-76835200D02*
X270738800Y-76530400D01*
X216484400Y-93751600D02*
X212344200Y-97891800D01*
X189636600Y-58852000D02*
X204292400Y-73507800D01*
X200431600Y-78486200D02*
X205410000Y-73507800D01*
X220777000Y-95936000D02*
X222961400Y-93751600D01*
X212344200Y-97891800D02*
X207594400Y-97891800D01*
X272821600Y-92329200D02*
X275818800Y-95326400D01*
X254711400Y-96774200D02*
X254711400Y-95097800D01*
X188493600Y-58852000D02*
X189636600Y-58852000D01*
%TO.N,/A9*%
D16*
X177481800Y-98741800D02*
X176200000Y-97460000D01*
X199124400Y-98741800D02*
X177481800Y-98741800D01*
X199974400Y-97891800D02*
X199124400Y-98741800D01*
%TO.N,/SDA{slash}20*%
X229971800Y-49987400D02*
X226984400Y-47000000D01*
X226984400Y-47000000D02*
X186020000Y-47000000D01*
X186020000Y-47000000D02*
X183820000Y-49200000D01*
%TO.N,/SCL{slash}21*%
X188160000Y-47400000D02*
X186360000Y-49200000D01*
X224844400Y-47400000D02*
X188160000Y-47400000D01*
X227431800Y-49987400D02*
X224844400Y-47400000D01*
%TO.N,/D2*%
D17*
X116500000Y-51750000D02*
X145710000Y-51750000D01*
X145710000Y-51750000D02*
X148260000Y-49200000D01*
X112750000Y-48000000D02*
X116500000Y-51750000D01*
X106273800Y-50750000D02*
X109023800Y-48000000D01*
X109023800Y-48000000D02*
X112750000Y-48000000D01*
%TO.N,/D4*%
D16*
X207416600Y-50063600D02*
X205353000Y-48000000D01*
X193750000Y-48000000D02*
X190000000Y-51750000D01*
X155890000Y-51750000D02*
X153340000Y-49200000D01*
X190000000Y-51750000D02*
X155890000Y-51750000D01*
X205353000Y-48000000D02*
X193750000Y-48000000D01*
%TO.N,/A0*%
X152312400Y-66291675D02*
X147585475Y-71018600D01*
X121920200Y-98806200D02*
X148336200Y-98806200D01*
X147585475Y-71018600D02*
X130327600Y-71018600D01*
X148336200Y-98806200D02*
X149682400Y-97460000D01*
X130327600Y-71018600D02*
X116281400Y-85064800D01*
X116281400Y-85064800D02*
X116281400Y-93167400D01*
X149682400Y-97460000D02*
X150800000Y-97460000D01*
X116281400Y-93167400D02*
X121920200Y-98806200D01*
%TO.N,/A2*%
X142053325Y-95148600D02*
X153568600Y-95148600D01*
X153568600Y-95148600D02*
X155880000Y-97460000D01*
X135167400Y-88262675D02*
X142053325Y-95148600D01*
%TO.N,/A11*%
X181280000Y-97460000D02*
X187839600Y-90900400D01*
X254317600Y-87249200D02*
X272821600Y-87249200D01*
X250666400Y-90900400D02*
X254317600Y-87249200D01*
X187839600Y-90900400D02*
X250666400Y-90900400D01*
%TO.N,/A4*%
X228397000Y-97282200D02*
X226517400Y-99161800D01*
X162661800Y-99161800D02*
X160960000Y-97460000D01*
X226517400Y-99161800D02*
X162661800Y-99161800D01*
%TO.N,/A8*%
X261239200Y-78714800D02*
X270738800Y-69215200D01*
X173660000Y-97460000D02*
X180619600Y-90500400D01*
X238176000Y-78714800D02*
X261239200Y-78714800D01*
X226390400Y-90500400D02*
X238176000Y-78714800D01*
X180619600Y-90500400D02*
X226390400Y-90500400D01*
%TO.N,/A1*%
X121754515Y-99206200D02*
X151593800Y-99206200D01*
X143738800Y-56972400D02*
X115881400Y-84829800D01*
X178994000Y-56972400D02*
X143738800Y-56972400D01*
X115881400Y-84829800D02*
X115881400Y-93333086D01*
X115881400Y-93333086D02*
X121754515Y-99206200D01*
X151593800Y-99206200D02*
X153340000Y-97460000D01*
X188493600Y-66472000D02*
X178994000Y-56972400D01*
%TO.N,/A3*%
X160655200Y-99695200D02*
X158420000Y-97460000D01*
X262331400Y-96774200D02*
X259410400Y-99695200D01*
X259410400Y-99695200D02*
X160655200Y-99695200D01*
%TO.N,/A5*%
X163437600Y-88745275D02*
X163437600Y-97397600D01*
X163437600Y-97397600D02*
X163500000Y-97460000D01*
%TO.N,/A6*%
X175311000Y-88189000D02*
X200431600Y-88189000D01*
X166040000Y-97460000D02*
X175311000Y-88189000D01*
%TO.N,/A7*%
X211455200Y-82499400D02*
X229692400Y-82499400D01*
X198602800Y-89890800D02*
X204063800Y-89890800D01*
X176911200Y-89128800D02*
X197840800Y-89128800D01*
X197840800Y-89128800D02*
X198602800Y-89890800D01*
X204063800Y-89890800D02*
X211455200Y-82499400D01*
X168580000Y-97460000D02*
X176911200Y-89128800D01*
X229692400Y-82499400D02*
X233223000Y-78968800D01*
%TD*%
M02*
