M48
; DRILL file KiCad 10.0.3 date 2026-06-11T12:05:08
; FORMAT={-:-/ absolute / metric / decimal}
; #@! TF.CreationDate,2026-06-11T12:05:08+01:00
; #@! TF.GenerationSoftware,Kicad,Pcbnew,10.0.3
; #@! TF.FileFunction,Plated,1,2,PTH
FMAT,2
METRIC
; #@! TA.AperFunction,Plated,PTH,ComponentDrill
T1C1.000
; #@! TA.AperFunction,Plated,PTH,ComponentDrill
T2C1.100
%
G90
G05
T1
X103.734Y-50.75
X106.274Y-50.75
X108.814Y-50.75
X118.796Y-49.2
X121.336Y-49.2
X123.876Y-49.2
X126.416Y-49.2
X127.94Y-97.46
X128.956Y-49.2
X130.48Y-97.46
X131.496Y-49.2
X133.02Y-97.46
X134.036Y-49.2
X135.167Y-80.643
X135.167Y-83.183
X135.167Y-85.723
X135.167Y-88.263
X135.56Y-97.46
X136.576Y-49.2
X138.1Y-97.46
X139.116Y-49.2
X140.64Y-97.46
X141.656Y-49.2
X143.18Y-97.46
X145.72Y-49.2
X145.72Y-97.46
X148.26Y-49.2
X150.8Y-49.2
X150.8Y-97.46
X152.321Y-58.687
X152.321Y-61.227
X152.321Y-63.767
X152.321Y-66.307
X153.34Y-49.2
X153.34Y-97.46
X155.88Y-49.2
X155.88Y-97.46
X158.42Y-49.2
X158.42Y-97.46
X160.96Y-49.2
X160.96Y-97.46
X163.5Y-49.2
X163.5Y-80.96
X163.5Y-83.5
X163.5Y-86.04
X163.5Y-88.58
X163.5Y-97.46
X166.04Y-97.46
X168.58Y-49.2
X168.58Y-97.46
X171.12Y-49.2
X173.66Y-49.2
X173.66Y-97.46
X176.2Y-49.2
X176.2Y-97.46
X178.74Y-49.2
X178.74Y-97.46
X181.28Y-49.2
X181.28Y-97.46
X183.82Y-49.2
X183.82Y-97.46
X186.36Y-49.2
X186.36Y-97.46
X188.541Y-59.068
X188.541Y-61.608
X188.541Y-64.148
X188.541Y-66.688
X188.9Y-97.46
X191.44Y-97.46
X199.974Y-97.892
X200.5Y-80.5
X200.5Y-83.04
X200.5Y-85.58
X200.5Y-88.12
X202.514Y-97.892
X204.877Y-50.064
X205.054Y-97.892
X207.417Y-50.064
X207.594Y-97.892
X209.957Y-50.064
X220.92Y-97.5
X222.352Y-49.987
X223.46Y-97.5
X224.892Y-49.987
X226.0Y-97.5
X227.432Y-49.987
X228.54Y-97.5
X229.972Y-49.987
X233.245Y-71.311
X233.245Y-73.851
X233.245Y-76.391
X233.245Y-78.931
X254.69Y-96.5
X257.23Y-96.5
X259.77Y-96.5
X262.31Y-96.5
X270.5Y-69.0
X270.5Y-71.54
X270.5Y-74.08
X270.5Y-76.62
X272.822Y-87.249
X272.822Y-89.789
X272.822Y-92.329
X272.822Y-94.869
T2
X256.108Y-53.061
X259.918Y-53.061
M30
