%TF.GenerationSoftware,KiCad,Pcbnew,10.0.3*%
%TF.CreationDate,2026-06-11T12:05:04+01:00*%
%TF.ProjectId,6 Integrated Air Quality & Environmental Monitor,3620496e-7465-4677-9261-746564204169,rev?*%
%TF.SameCoordinates,Original*%
%TF.FileFunction,Soldermask,Top*%
%TF.FilePolarity,Negative*%
%FSLAX46Y46*%
G04 Gerber Fmt 4.6, Leading zero omitted, Abs format (unit mm)*
G04 Created by KiCad (PCBNEW 10.0.3) date 2026-06-11 12:05:04*
%MOMM*%
%LPD*%
G01*
G04 APERTURE LIST*
G04 Aperture macros list*
%AMRoundRect*
0 Rectangle with rounded corners*
0 $1 Rounding radius*
0 $2 $3 $4 $5 $6 $7 $8 $9 X,Y pos of 4 corners*
0 Add a 4 corners polygon primitive as box body*
4,1,4,$2,$3,$4,$5,$6,$7,$8,$9,$2,$3,0*
0 Add four circle primitives for the rounded corners*
1,1,$1+$1,$2,$3*
1,1,$1+$1,$4,$5*
1,1,$1+$1,$6,$7*
1,1,$1+$1,$8,$9*
0 Add four rect primitives between the rounded corners*
20,1,$1+$1,$2,$3,$4,$5,0*
20,1,$1+$1,$4,$5,$6,$7,0*
20,1,$1+$1,$6,$7,$8,$9,0*
20,1,$1+$1,$8,$9,$2,$3,0*%
G04 Aperture macros list end*
%ADD10C,1.700000*%
%ADD11R,1.700000X1.700000*%
%ADD12RoundRect,0.250000X0.750000X0.750000X-0.750000X0.750000X-0.750000X-0.750000X0.750000X-0.750000X0*%
%ADD13C,2.000000*%
G04 APERTURE END LIST*
D10*
%TO.C,J15*%
X163500000Y-88580000D03*
X163500000Y-86040000D03*
X163500000Y-83500000D03*
D11*
X163500000Y-80960000D03*
%TD*%
%TO.C,J1*%
X127940000Y-97460000D03*
D10*
X130480000Y-97460000D03*
X133020000Y-97460000D03*
X135560000Y-97460000D03*
X138100000Y-97460000D03*
X140640000Y-97460000D03*
X143180000Y-97460000D03*
X145720000Y-97460000D03*
%TD*%
D11*
%TO.C,J19*%
X207594400Y-97891800D03*
D10*
X205054400Y-97891800D03*
X202514400Y-97891800D03*
X199974400Y-97891800D03*
%TD*%
D11*
%TO.C,J6*%
X168580000Y-49200000D03*
D10*
X171120000Y-49200000D03*
X173660000Y-49200000D03*
X176200000Y-49200000D03*
X178740000Y-49200000D03*
X181280000Y-49200000D03*
X183820000Y-49200000D03*
X186360000Y-49200000D03*
%TD*%
D11*
%TO.C,J4*%
X145720000Y-49200000D03*
D10*
X148260000Y-49200000D03*
X150800000Y-49200000D03*
X153340000Y-49200000D03*
X155880000Y-49200000D03*
X158420000Y-49200000D03*
X160960000Y-49200000D03*
X163500000Y-49200000D03*
%TD*%
D11*
%TO.C,J10*%
X152321000Y-58687075D03*
D10*
X152321000Y-61227075D03*
X152321000Y-63767075D03*
X152321000Y-66307075D03*
%TD*%
D11*
%TO.C,J12*%
X135167400Y-80642675D03*
D10*
X135167400Y-83182675D03*
X135167400Y-85722675D03*
X135167400Y-88262675D03*
%TD*%
D11*
%TO.C,J20*%
X272821600Y-87249200D03*
D10*
X272821600Y-89789200D03*
X272821600Y-92329200D03*
X272821600Y-94869200D03*
%TD*%
D11*
%TO.C,J14*%
X220920000Y-97500000D03*
D10*
X223460000Y-97500000D03*
X226000000Y-97500000D03*
X228540000Y-97500000D03*
%TD*%
D11*
%TO.C,J8*%
X204876600Y-50063600D03*
D10*
X207416600Y-50063600D03*
X209956600Y-50063600D03*
%TD*%
D11*
%TO.C,J18*%
X270500000Y-76620000D03*
D10*
X270500000Y-74080000D03*
X270500000Y-71540000D03*
X270500000Y-69000000D03*
%TD*%
D11*
%TO.C,J3*%
X150800000Y-97460000D03*
D10*
X153340000Y-97460000D03*
X155880000Y-97460000D03*
X158420000Y-97460000D03*
X160960000Y-97460000D03*
X163500000Y-97460000D03*
X166040000Y-97460000D03*
X168580000Y-97460000D03*
%TD*%
%TO.C,J17*%
X233245400Y-78930875D03*
X233245400Y-76390875D03*
X233245400Y-73850875D03*
D11*
X233245400Y-71310875D03*
%TD*%
%TO.C,J9*%
X108813800Y-50750000D03*
D10*
X106273800Y-50750000D03*
X103733800Y-50750000D03*
%TD*%
D11*
%TO.C,J21*%
X229971800Y-49987400D03*
D10*
X227431800Y-49987400D03*
X224891800Y-49987400D03*
X222351800Y-49987400D03*
%TD*%
D11*
%TO.C,J16*%
X200500000Y-80500000D03*
D10*
X200500000Y-83040000D03*
X200500000Y-85580000D03*
X200500000Y-88120000D03*
%TD*%
D11*
%TO.C,J2*%
X118796000Y-49200000D03*
D10*
X121336000Y-49200000D03*
X123876000Y-49200000D03*
X126416000Y-49200000D03*
X128956000Y-49200000D03*
X131496000Y-49200000D03*
X134036000Y-49200000D03*
X136576000Y-49200000D03*
X139116000Y-49200000D03*
X141656000Y-49200000D03*
%TD*%
D11*
%TO.C,J13*%
X254690000Y-96500000D03*
D10*
X257230000Y-96500000D03*
X259770000Y-96500000D03*
X262310000Y-96500000D03*
%TD*%
D12*
%TO.C,J7*%
X259918400Y-53060800D03*
D13*
X256108400Y-53060800D03*
%TD*%
D11*
%TO.C,J11*%
X188541400Y-59068075D03*
D10*
X188541400Y-61608075D03*
X188541400Y-64148075D03*
X188541400Y-66688075D03*
%TD*%
D11*
%TO.C,J5*%
X173660000Y-97460000D03*
D10*
X176200000Y-97460000D03*
X178740000Y-97460000D03*
X181280000Y-97460000D03*
X183820000Y-97460000D03*
X186360000Y-97460000D03*
X188900000Y-97460000D03*
X191440000Y-97460000D03*
%TD*%
M02*
