%TF.GenerationSoftware,KiCad,Pcbnew,10.0.3*%
%TF.CreationDate,2026-06-11T12:05:04+01:00*%
%TF.ProjectId,6 Integrated Air Quality & Environmental Monitor,3620496e-7465-4677-9261-746564204169,rev?*%
%TF.SameCoordinates,Original*%
%TF.FileFunction,Copper,L2,Bot*%
%TF.FilePolarity,Positive*%
%FSLAX46Y46*%
G04 Gerber Fmt 4.6, Leading zero omitted, Abs format (unit mm)*
G04 Created by KiCad (PCBNEW 10.0.3) date 2026-06-11 12:05:04*
%MOMM*%
%LPD*%
G01*
G04 APERTURE LIST*
G04 Aperture macros list*
%AMRoundRect*
0 Rectangle with rounded corners*
0 $1 Rounding radius*
0 $2 $3 $4 $5 $6 $7 $8 $9 X,Y pos of 4 corners*
0 Add a 4 corners polygon primitive as box body*
4,1,4,$2,$3,$4,$5,$6,$7,$8,$9,$2,$3,0*
0 Add four circle primitives for the rounded corners*
1,1,$1+$1,$2,$3*
1,1,$1+$1,$4,$5*
1,1,$1+$1,$6,$7*
1,1,$1+$1,$8,$9*
0 Add four rect primitives between the rounded corners*
20,1,$1+$1,$2,$3,$4,$5,0*
20,1,$1+$1,$4,$5,$6,$7,0*
20,1,$1+$1,$6,$7,$8,$9,0*
20,1,$1+$1,$8,$9,$2,$3,0*%
G04 Aperture macros list end*
%TA.AperFunction,ComponentPad*%
%ADD10C,1.700000*%
%TD*%
%TA.AperFunction,ComponentPad*%
%ADD11R,1.700000X1.700000*%
%TD*%
%TA.AperFunction,ComponentPad*%
%ADD12RoundRect,0.250000X0.750000X0.750000X-0.750000X0.750000X-0.750000X-0.750000X0.750000X-0.750000X0*%
%TD*%
%TA.AperFunction,ComponentPad*%
%ADD13C,2.000000*%
%TD*%
G04 APERTURE END LIST*
D10*
%TO.P,J15,4,Pin_4_4*%
%TO.N,/A5*%
X163500000Y-88580000D03*
%TO.P,J15,3,Pin_3_3*%
%TO.N,unconnected-(J15-Pin_3-Pad3)*%
X163500000Y-86040000D03*
%TO.P,J15,2,Pin_2_2*%
%TO.N,GND*%
X163500000Y-83500000D03*
D11*
%TO.P,J15,1,Pin_1_1*%
%TO.N,+5V*%
X163500000Y-80960000D03*
%TD*%
%TO.P,J1,1,Pin_1_1*%
%TO.N,unconnected-(J1-Pin_1-Pad1)*%
X127940000Y-97460000D03*
D10*
%TO.P,J1,2,Pin_2_2*%
%TO.N,unconnected-(J1-Pin_2-Pad2)*%
X130480000Y-97460000D03*
%TO.P,J1,3,Pin_3_3*%
%TO.N,unconnected-(J1-Pin_3-Pad3)*%
X133020000Y-97460000D03*
%TO.P,J1,4,Pin_4_4*%
%TO.N,unconnected-(J1-Pin_4-Pad4)*%
X135560000Y-97460000D03*
%TO.P,J1,5,Pin_5_5*%
%TO.N,unconnected-(J1-Pin_5-Pad5)*%
X138100000Y-97460000D03*
%TO.P,J1,6,Pin_6_6*%
%TO.N,GND*%
X140640000Y-97460000D03*
%TO.P,J1,7,Pin_7_7*%
X143180000Y-97460000D03*
%TO.P,J1,8,Pin_8_8*%
%TO.N,unconnected-(J1-Pin_8-Pad8)*%
X145720000Y-97460000D03*
%TD*%
D11*
%TO.P,J19,1,Pin_1_1*%
%TO.N,+5V*%
X207594400Y-97891800D03*
D10*
%TO.P,J19,2,Pin_2_2*%
%TO.N,GND*%
X205054400Y-97891800D03*
%TO.P,J19,3,Pin_3_3*%
%TO.N,unconnected-(J19-Pin_3-Pad3)*%
X202514400Y-97891800D03*
%TO.P,J19,4,Pin_4_4*%
%TO.N,/A9*%
X199974400Y-97891800D03*
%TD*%
D11*
%TO.P,J6,1,Pin_1_1*%
%TO.N,unconnected-(J6-Pin_1-Pad1)*%
X168580000Y-49200000D03*
D10*
%TO.P,J6,2,Pin_2_2*%
%TO.N,unconnected-(J6-Pin_2-Pad2)*%
X171120000Y-49200000D03*
%TO.P,J6,3,Pin_3_3*%
%TO.N,unconnected-(J6-Pin_3-Pad3)*%
X173660000Y-49200000D03*
%TO.P,J6,4,Pin_4_4*%
%TO.N,unconnected-(J6-Pin_4-Pad4)*%
X176200000Y-49200000D03*
%TO.P,J6,5,Pin_5_5*%
%TO.N,unconnected-(J6-Pin_5-Pad5)*%
X178740000Y-49200000D03*
%TO.P,J6,6,Pin_6_6*%
%TO.N,unconnected-(J6-Pin_6-Pad6)*%
X181280000Y-49200000D03*
%TO.P,J6,7,Pin_7_7*%
%TO.N,/SDA{slash}20*%
X183820000Y-49200000D03*
%TO.P,J6,8,Pin_8_8*%
%TO.N,/SCL{slash}21*%
X186360000Y-49200000D03*
%TD*%
D11*
%TO.P,J4,1,Pin_1_1*%
%TO.N,unconnected-(J4-Pin_1-Pad1)*%
X145720000Y-49200000D03*
D10*
%TO.P,J4,2,Pin_2_2*%
%TO.N,/D2*%
X148260000Y-49200000D03*
%TO.P,J4,3,Pin_3_3*%
%TO.N,unconnected-(J4-Pin_3-Pad3)*%
X150800000Y-49200000D03*
%TO.P,J4,4,Pin_4_4*%
%TO.N,/D4*%
X153340000Y-49200000D03*
%TO.P,J4,5,Pin_5_5*%
%TO.N,unconnected-(J4-Pin_5-Pad5)*%
X155880000Y-49200000D03*
%TO.P,J4,6,Pin_6_6*%
%TO.N,unconnected-(J4-Pin_6-Pad6)*%
X158420000Y-49200000D03*
%TO.P,J4,7,Pin_7_7*%
%TO.N,unconnected-(J4-Pin_7-Pad7)*%
X160960000Y-49200000D03*
%TO.P,J4,8,Pin_8_8*%
%TO.N,unconnected-(J4-Pin_8-Pad8)*%
X163500000Y-49200000D03*
%TD*%
D11*
%TO.P,J10,1,Pin_1_1*%
%TO.N,+5V*%
X152321000Y-58687075D03*
D10*
%TO.P,J10,2,Pin_2_2*%
%TO.N,GND*%
X152321000Y-61227075D03*
%TO.P,J10,3,Pin_3_3*%
%TO.N,unconnected-(J10-Pin_3-Pad3)*%
X152321000Y-63767075D03*
%TO.P,J10,4,Pin_4_4*%
%TO.N,/A0*%
X152321000Y-66307075D03*
%TD*%
D11*
%TO.P,J12,1,Pin_1_1*%
%TO.N,+5V*%
X135167400Y-80642675D03*
D10*
%TO.P,J12,2,Pin_2_2*%
%TO.N,GND*%
X135167400Y-83182675D03*
%TO.P,J12,3,Pin_3_3*%
%TO.N,unconnected-(J12-Pin_3-Pad3)*%
X135167400Y-85722675D03*
%TO.P,J12,4,Pin_4_4*%
%TO.N,/A2*%
X135167400Y-88262675D03*
%TD*%
D11*
%TO.P,J20,1,Pin_1_1*%
%TO.N,/A11*%
X272821600Y-87249200D03*
D10*
%TO.P,J20,2,Pin_2_2*%
%TO.N,GND*%
X272821600Y-89789200D03*
%TO.P,J20,3,Pin_3_3*%
%TO.N,+5V*%
X272821600Y-92329200D03*
%TO.P,J20,4,Pin_4_4*%
%TO.N,unconnected-(J20-Pin_4-Pad4)*%
X272821600Y-94869200D03*
%TD*%
D11*
%TO.P,J14,1,Pin_1_1*%
%TO.N,+5V*%
X220920000Y-97500000D03*
D10*
%TO.P,J14,2,Pin_2_2*%
%TO.N,GND*%
X223460000Y-97500000D03*
%TO.P,J14,3,Pin_3_3*%
%TO.N,unconnected-(J14-Pin_3-Pad3)*%
X226000000Y-97500000D03*
%TO.P,J14,4,Pin_4_4*%
%TO.N,/A4*%
X228540000Y-97500000D03*
%TD*%
D11*
%TO.P,J8,1,Pin_1_1*%
%TO.N,+5V*%
X204876600Y-50063600D03*
D10*
%TO.P,J8,2,Pin_2_2*%
%TO.N,/D4*%
X207416600Y-50063600D03*
%TO.P,J8,3,Pin_3_3*%
%TO.N,GND*%
X209956600Y-50063600D03*
%TD*%
D11*
%TO.P,J18,1,Pin_1_1*%
%TO.N,+5V*%
X270500000Y-76620000D03*
D10*
%TO.P,J18,2,Pin_2_2*%
%TO.N,GND*%
X270500000Y-74080000D03*
%TO.P,J18,3,Pin_3_3*%
%TO.N,unconnected-(J18-Pin_3-Pad3)*%
X270500000Y-71540000D03*
%TO.P,J18,4,Pin_4_4*%
%TO.N,/A8*%
X270500000Y-69000000D03*
%TD*%
D11*
%TO.P,J3,1,Pin_1_1*%
%TO.N,/A0*%
X150800000Y-97460000D03*
D10*
%TO.P,J3,2,Pin_2_2*%
%TO.N,/A1*%
X153340000Y-97460000D03*
%TO.P,J3,3,Pin_3_3*%
%TO.N,/A2*%
X155880000Y-97460000D03*
%TO.P,J3,4,Pin_4_4*%
%TO.N,/A3*%
X158420000Y-97460000D03*
%TO.P,J3,5,Pin_5_5*%
%TO.N,/A4*%
X160960000Y-97460000D03*
%TO.P,J3,6,Pin_6_6*%
%TO.N,/A5*%
X163500000Y-97460000D03*
%TO.P,J3,7,Pin_7_7*%
%TO.N,/A6*%
X166040000Y-97460000D03*
%TO.P,J3,8,Pin_8_8*%
%TO.N,/A7*%
X168580000Y-97460000D03*
%TD*%
%TO.P,J17,4,Pin_4_4*%
%TO.N,/A7*%
X233245400Y-78930875D03*
%TO.P,J17,3,Pin_3_3*%
%TO.N,unconnected-(J17-Pin_3-Pad3)*%
X233245400Y-76390875D03*
%TO.P,J17,2,Pin_2_2*%
%TO.N,GND*%
X233245400Y-73850875D03*
D11*
%TO.P,J17,1,Pin_1_1*%
%TO.N,+5V*%
X233245400Y-71310875D03*
%TD*%
%TO.P,J9,1,Pin_1_1*%
%TO.N,+5V*%
X108813800Y-50750000D03*
D10*
%TO.P,J9,2,Pin_2_2*%
%TO.N,/D2*%
X106273800Y-50750000D03*
%TO.P,J9,3,Pin_3_3*%
%TO.N,GND*%
X103733800Y-50750000D03*
%TD*%
D11*
%TO.P,J21,1,Pin_1_1*%
%TO.N,/SDA{slash}20*%
X229971800Y-49987400D03*
D10*
%TO.P,J21,2,Pin_2_2*%
%TO.N,/SCL{slash}21*%
X227431800Y-49987400D03*
%TO.P,J21,3,Pin_3_3*%
%TO.N,GND*%
X224891800Y-49987400D03*
%TO.P,J21,4,Pin_4_4*%
%TO.N,+5V*%
X222351800Y-49987400D03*
%TD*%
D11*
%TO.P,J16,1,Pin_1_1*%
%TO.N,+5V*%
X200500000Y-80500000D03*
D10*
%TO.P,J16,2,Pin_2_2*%
%TO.N,GND*%
X200500000Y-83040000D03*
%TO.P,J16,3,Pin_3_3*%
%TO.N,unconnected-(J16-Pin_3-Pad3)*%
X200500000Y-85580000D03*
%TO.P,J16,4,Pin_4_4*%
%TO.N,/A6*%
X200500000Y-88120000D03*
%TD*%
D11*
%TO.P,J2,1,Pin_1_1*%
%TO.N,unconnected-(J2-Pin_1-Pad1)*%
X118796000Y-49200000D03*
D10*
%TO.P,J2,2,Pin_2_2*%
%TO.N,unconnected-(J2-Pin_2-Pad2)*%
X121336000Y-49200000D03*
%TO.P,J2,3,Pin_3_3*%
%TO.N,unconnected-(J2-Pin_3-Pad3)*%
X123876000Y-49200000D03*
%TO.P,J2,4,Pin_4_4*%
%TO.N,unconnected-(J2-Pin_4-Pad4)*%
X126416000Y-49200000D03*
%TO.P,J2,5,Pin_5_5*%
%TO.N,unconnected-(J2-Pin_5-Pad5)*%
X128956000Y-49200000D03*
%TO.P,J2,6,Pin_6_6*%
%TO.N,unconnected-(J2-Pin_6-Pad6)*%
X131496000Y-49200000D03*
%TO.P,J2,7,Pin_7_7*%
%TO.N,unconnected-(J2-Pin_7-Pad7)*%
X134036000Y-49200000D03*
%TO.P,J2,8,Pin_8_8*%
%TO.N,unconnected-(J2-Pin_8-Pad8)*%
X136576000Y-49200000D03*
%TO.P,J2,9,Pin_9_9*%
%TO.N,unconnected-(J2-Pin_9-Pad9)*%
X139116000Y-49200000D03*
%TO.P,J2,10,Pin_10_10*%
%TO.N,unconnected-(J2-Pin_10-Pad10)*%
X141656000Y-49200000D03*
%TD*%
D11*
%TO.P,J13,1,Pin_1_1*%
%TO.N,+5V*%
X254690000Y-96500000D03*
D10*
%TO.P,J13,2,Pin_2_2*%
%TO.N,GND*%
X257230000Y-96500000D03*
%TO.P,J13,3,Pin_3_3*%
%TO.N,unconnected-(J13-Pin_3-Pad3)*%
X259770000Y-96500000D03*
%TO.P,J13,4,Pin_4_4*%
%TO.N,/A3*%
X262310000Y-96500000D03*
%TD*%
D12*
%TO.P,J7,1,Pin_1_1*%
%TO.N,+5V*%
X259918400Y-53060800D03*
D13*
%TO.P,J7,2,Pin_2_2*%
%TO.N,GND*%
X256108400Y-53060800D03*
%TD*%
D11*
%TO.P,J11,1,Pin_1_1*%
%TO.N,+5V*%
X188541400Y-59068075D03*
D10*
%TO.P,J11,2,Pin_2_2*%
%TO.N,GND*%
X188541400Y-61608075D03*
%TO.P,J11,3,Pin_3_3*%
%TO.N,unconnected-(J11-Pin_3-Pad3)*%
X188541400Y-64148075D03*
%TO.P,J11,4,Pin_4_4*%
%TO.N,/A1*%
X188541400Y-66688075D03*
%TD*%
D11*
%TO.P,J5,1,Pin_1_1*%
%TO.N,/A8*%
X173660000Y-97460000D03*
D10*
%TO.P,J5,2,Pin_2_2*%
%TO.N,/A9*%
X176200000Y-97460000D03*
%TO.P,J5,3,Pin_3_3*%
%TO.N,unconnected-(J5-Pin_3-Pad3)*%
X178740000Y-97460000D03*
%TO.P,J5,4,Pin_4_4*%
%TO.N,/A11*%
X181280000Y-97460000D03*
%TO.P,J5,5,Pin_5_5*%
%TO.N,unconnected-(J5-Pin_5-Pad5)*%
X183820000Y-97460000D03*
%TO.P,J5,6,Pin_6_6*%
%TO.N,unconnected-(J5-Pin_6-Pad6)*%
X186360000Y-97460000D03*
%TO.P,J5,7,Pin_7_7*%
%TO.N,unconnected-(J5-Pin_7-Pad7)*%
X188900000Y-97460000D03*
%TO.P,J5,8,Pin_8_8*%
%TO.N,unconnected-(J5-Pin_8-Pad8)*%
X191440000Y-97460000D03*
%TD*%
%TA.AperFunction,Conductor*%
%TO.N,GND*%
G36*
X277819939Y-46755185D02*
G01*
X277865694Y-46807989D01*
X277876900Y-46859500D01*
X277876900Y-99775162D01*
X277857215Y-99842201D01*
X277804411Y-99887956D01*
X277752940Y-99899162D01*
X198298638Y-99924500D01*
X100768093Y-99924500D01*
X100755939Y-99923903D01*
X100640226Y-99912506D01*
X100616386Y-99907764D01*
X100510971Y-99875787D01*
X100488514Y-99866484D01*
X100391376Y-99814563D01*
X100371164Y-99801058D01*
X100286012Y-99731175D01*
X100268824Y-99713987D01*
X100198941Y-99628835D01*
X100185436Y-99608623D01*
X100133515Y-99511485D01*
X100124214Y-99489034D01*
X100092233Y-99383606D01*
X100087494Y-99359781D01*
X100076174Y-99244856D01*
X100075587Y-99231207D01*
X100098480Y-97354030D01*
X100118981Y-97287238D01*
X100172339Y-97242131D01*
X100222997Y-97231546D01*
X111872027Y-97281436D01*
X111872182Y-97281500D01*
X111886951Y-97281500D01*
X111901895Y-97281564D01*
X111901899Y-97281562D01*
X111902215Y-97281500D01*
X111902218Y-97281500D01*
X111915822Y-97275864D01*
X111929693Y-97270189D01*
X111929696Y-97270185D01*
X111929812Y-97270109D01*
X111929879Y-97270041D01*
X111929967Y-97270006D01*
X111940416Y-97259556D01*
X111951022Y-97249041D01*
X111951024Y-97249035D01*
X111951201Y-97248770D01*
X111951206Y-97248767D01*
X111956899Y-97235020D01*
X111962635Y-97221341D01*
X111962635Y-97221173D01*
X111962700Y-97221018D01*
X111962700Y-97206206D01*
X111962764Y-97191305D01*
X111962763Y-97191304D01*
X111962811Y-97180232D01*
X111962700Y-97179072D01*
X111962700Y-96561345D01*
X126581500Y-96561345D01*
X126581500Y-98358654D01*
X126588011Y-98419202D01*
X126588011Y-98419204D01*
X126629906Y-98531524D01*
X126639111Y-98556204D01*
X126726739Y-98673261D01*
X126843796Y-98760889D01*
X126980799Y-98811989D01*
X127008050Y-98814918D01*
X127041345Y-98818499D01*
X127041362Y-98818500D01*
X128838638Y-98818500D01*
X128838654Y-98818499D01*
X128865692Y-98815591D01*
X128899201Y-98811989D01*
X129036204Y-98760889D01*
X129153261Y-98673261D01*
X129240889Y-98556204D01*
X129285957Y-98435371D01*
X129327827Y-98379442D01*
X129393291Y-98355025D01*
X129461564Y-98369877D01*
X129489818Y-98391028D01*
X129594996Y-98496206D01*
X129767991Y-98621894D01*
X129832227Y-98654624D01*
X129958516Y-98718972D01*
X129958519Y-98718973D01*
X130057383Y-98751095D01*
X130161884Y-98785049D01*
X130373084Y-98818500D01*
X130373085Y-98818500D01*
X130586915Y-98818500D01*
X130586916Y-98818500D01*
X130798116Y-98785049D01*
X131001483Y-98718972D01*
X131192009Y-98621894D01*
X131365004Y-98496206D01*
X131516206Y-98345004D01*
X131641894Y-98172009D01*
X131641896Y-98172004D01*
X131644270Y-98168132D01*
X131696080Y-98121254D01*
X131765009Y-98109829D01*
X131829173Y-98137483D01*
X131855730Y-98168132D01*
X131858103Y-98172005D01*
X131858105Y-98172008D01*
X131858106Y-98172009D01*
X131983794Y-98345004D01*
X132134996Y-98496206D01*
X132307991Y-98621894D01*
X132372227Y-98654624D01*
X132498516Y-98718972D01*
X132498519Y-98718973D01*
X132597383Y-98751095D01*
X132701884Y-98785049D01*
X132913084Y-98818500D01*
X132913085Y-98818500D01*
X133126915Y-98818500D01*
X133126916Y-98818500D01*
X133338116Y-98785049D01*
X133541483Y-98718972D01*
X133732009Y-98621894D01*
X133905004Y-98496206D01*
X134056206Y-98345004D01*
X134181894Y-98172009D01*
X134181896Y-98172004D01*
X134184270Y-98168132D01*
X134236080Y-98121254D01*
X134305009Y-98109829D01*
X134369173Y-98137483D01*
X134395730Y-98168132D01*
X134398103Y-98172005D01*
X134398105Y-98172008D01*
X134398106Y-98172009D01*
X134523794Y-98345004D01*
X134674996Y-98496206D01*
X134847991Y-98621894D01*
X134912227Y-98654624D01*
X135038516Y-98718972D01*
X135038519Y-98718973D01*
X135137383Y-98751095D01*
X135241884Y-98785049D01*
X135453084Y-98818500D01*
X135453085Y-98818500D01*
X135666915Y-98818500D01*
X135666916Y-98818500D01*
X135878116Y-98785049D01*
X136081483Y-98718972D01*
X136272009Y-98621894D01*
X136445004Y-98496206D01*
X136596206Y-98345004D01*
X136721894Y-98172009D01*
X136721896Y-98172004D01*
X136724270Y-98168132D01*
X136776080Y-98121254D01*
X136845009Y-98109829D01*
X136909173Y-98137483D01*
X136935730Y-98168132D01*
X136938103Y-98172005D01*
X136938105Y-98172008D01*
X136938106Y-98172009D01*
X137063794Y-98345004D01*
X137214996Y-98496206D01*
X137387991Y-98621894D01*
X137452227Y-98654624D01*
X137578516Y-98718972D01*
X137578519Y-98718973D01*
X137677383Y-98751095D01*
X137781884Y-98785049D01*
X137993084Y-98818500D01*
X137993085Y-98818500D01*
X138206915Y-98818500D01*
X138206916Y-98818500D01*
X138418116Y-98785049D01*
X138621483Y-98718972D01*
X138812009Y-98621894D01*
X138985004Y-98496206D01*
X139136206Y-98345004D01*
X139261894Y-98172009D01*
X139264283Y-98167319D01*
X139312254Y-98116522D01*
X139380074Y-98099724D01*
X139446210Y-98122258D01*
X139482196Y-98163783D01*
X139482829Y-98163396D01*
X139485167Y-98167211D01*
X139485251Y-98167308D01*
X139485371Y-98167545D01*
X139485373Y-98167547D01*
X139524728Y-98221716D01*
X140157037Y-97589408D01*
X140174075Y-97652993D01*
X140239901Y-97767007D01*
X140332993Y-97860099D01*
X140447007Y-97925925D01*
X140510590Y-97942962D01*
X139878282Y-98575269D01*
X139878282Y-98575270D01*
X139932449Y-98614624D01*
X140121782Y-98711095D01*
X140323870Y-98776757D01*
X140533754Y-98810000D01*
X140746246Y-98810000D01*
X140956127Y-98776757D01*
X140956130Y-98776757D01*
X141158217Y-98711095D01*
X141347554Y-98614622D01*
X141401716Y-98575270D01*
X141401717Y-98575270D01*
X140769408Y-97942962D01*
X140832993Y-97925925D01*
X140947007Y-97860099D01*
X141040099Y-97767007D01*
X141105925Y-97652993D01*
X141122962Y-97589409D01*
X141755270Y-98221717D01*
X141755270Y-98221716D01*
X141794622Y-98167554D01*
X141799514Y-98157954D01*
X141847488Y-98107157D01*
X141915308Y-98090361D01*
X141981444Y-98112897D01*
X142020486Y-98157954D01*
X142025375Y-98167550D01*
X142064728Y-98221716D01*
X142697037Y-97589408D01*
X142714075Y-97652993D01*
X142779901Y-97767007D01*
X142872993Y-97860099D01*
X142987007Y-97925925D01*
X143050590Y-97942962D01*
X142418282Y-98575269D01*
X142418282Y-98575270D01*
X142472449Y-98614624D01*
X142661782Y-98711095D01*
X142863870Y-98776757D01*
X143073754Y-98810000D01*
X143286246Y-98810000D01*
X143496127Y-98776757D01*
X143496130Y-98776757D01*
X143698217Y-98711095D01*
X143887554Y-98614622D01*
X143941716Y-98575270D01*
X143941717Y-98575270D01*
X143309408Y-97942962D01*
X143372993Y-97925925D01*
X143487007Y-97860099D01*
X143580099Y-97767007D01*
X143645925Y-97652993D01*
X143662962Y-97589409D01*
X144295270Y-98221717D01*
X144295270Y-98221716D01*
X144334621Y-98167556D01*
X144334738Y-98167327D01*
X144334808Y-98167252D01*
X144337168Y-98163402D01*
X144337976Y-98163897D01*
X144382707Y-98116526D01*
X144450526Y-98099723D01*
X144516663Y-98122254D01*
X144555712Y-98167311D01*
X144558105Y-98172008D01*
X144562083Y-98177483D01*
X144683794Y-98345004D01*
X144834996Y-98496206D01*
X145007991Y-98621894D01*
X145072227Y-98654624D01*
X145198516Y-98718972D01*
X145198519Y-98718973D01*
X145297383Y-98751095D01*
X145401884Y-98785049D01*
X145613084Y-98818500D01*
X145613085Y-98818500D01*
X145826915Y-98818500D01*
X145826916Y-98818500D01*
X146038116Y-98785049D01*
X146241483Y-98718972D01*
X146432009Y-98621894D01*
X146605004Y-98496206D01*
X146756206Y-98345004D01*
X146881894Y-98172009D01*
X146978972Y-97981483D01*
X147045049Y-97778116D01*
X147078500Y-97566916D01*
X147078500Y-97353084D01*
X147045049Y-97141884D01*
X146996727Y-96993162D01*
X146978973Y-96938519D01*
X146978972Y-96938516D01*
X146939106Y-96860275D01*
X146881894Y-96747991D01*
X146831434Y-96678539D01*
X146796844Y-96630929D01*
X146796842Y-96630927D01*
X146756206Y-96574996D01*
X146742555Y-96561345D01*
X149441500Y-96561345D01*
X149441500Y-98358654D01*
X149448011Y-98419202D01*
X149448011Y-98419204D01*
X149489906Y-98531524D01*
X149499111Y-98556204D01*
X149586739Y-98673261D01*
X149703796Y-98760889D01*
X149840799Y-98811989D01*
X149868050Y-98814918D01*
X149901345Y-98818499D01*
X149901362Y-98818500D01*
X151698638Y-98818500D01*
X151698654Y-98818499D01*
X151725692Y-98815591D01*
X151759201Y-98811989D01*
X151896204Y-98760889D01*
X152013261Y-98673261D01*
X152100889Y-98556204D01*
X152145957Y-98435371D01*
X152187827Y-98379442D01*
X152253291Y-98355025D01*
X152321564Y-98369877D01*
X152349818Y-98391028D01*
X152454996Y-98496206D01*
X152627991Y-98621894D01*
X152692227Y-98654624D01*
X152818516Y-98718972D01*
X152818519Y-98718973D01*
X152917383Y-98751095D01*
X153021884Y-98785049D01*
X153233084Y-98818500D01*
X153233085Y-98818500D01*
X153446915Y-98818500D01*
X153446916Y-98818500D01*
X153658116Y-98785049D01*
X153861483Y-98718972D01*
X154052009Y-98621894D01*
X154225004Y-98496206D01*
X154376206Y-98345004D01*
X154501894Y-98172009D01*
X154501896Y-98172004D01*
X154504270Y-98168132D01*
X154556080Y-98121254D01*
X154625009Y-98109829D01*
X154689173Y-98137483D01*
X154715730Y-98168132D01*
X154718103Y-98172005D01*
X154718105Y-98172008D01*
X154718106Y-98172009D01*
X154843794Y-98345004D01*
X154994996Y-98496206D01*
X155167991Y-98621894D01*
X155232227Y-98654624D01*
X155358516Y-98718972D01*
X155358519Y-98718973D01*
X155457383Y-98751095D01*
X155561884Y-98785049D01*
X155773084Y-98818500D01*
X155773085Y-98818500D01*
X155986915Y-98818500D01*
X155986916Y-98818500D01*
X156198116Y-98785049D01*
X156401483Y-98718972D01*
X156592009Y-98621894D01*
X156765004Y-98496206D01*
X156916206Y-98345004D01*
X157041894Y-98172009D01*
X157041896Y-98172004D01*
X157044270Y-98168132D01*
X157096080Y-98121254D01*
X157165009Y-98109829D01*
X157229173Y-98137483D01*
X157255730Y-98168132D01*
X157258103Y-98172005D01*
X157258105Y-98172008D01*
X157258106Y-98172009D01*
X157383794Y-98345004D01*
X157534996Y-98496206D01*
X157707991Y-98621894D01*
X157772227Y-98654624D01*
X157898516Y-98718972D01*
X157898519Y-98718973D01*
X157997383Y-98751095D01*
X158101884Y-98785049D01*
X158313084Y-98818500D01*
X158313085Y-98818500D01*
X158526915Y-98818500D01*
X158526916Y-98818500D01*
X158738116Y-98785049D01*
X158941483Y-98718972D01*
X159132009Y-98621894D01*
X159305004Y-98496206D01*
X159456206Y-98345004D01*
X159581894Y-98172009D01*
X159581896Y-98172004D01*
X159584270Y-98168132D01*
X159636080Y-98121254D01*
X159705009Y-98109829D01*
X159769173Y-98137483D01*
X159795730Y-98168132D01*
X159798103Y-98172005D01*
X159798105Y-98172008D01*
X159798106Y-98172009D01*
X159923794Y-98345004D01*
X160074996Y-98496206D01*
X160247991Y-98621894D01*
X160312227Y-98654624D01*
X160438516Y-98718972D01*
X160438519Y-98718973D01*
X160537383Y-98751095D01*
X160641884Y-98785049D01*
X160853084Y-98818500D01*
X160853085Y-98818500D01*
X161066915Y-98818500D01*
X161066916Y-98818500D01*
X161278116Y-98785049D01*
X161481483Y-98718972D01*
X161672009Y-98621894D01*
X161845004Y-98496206D01*
X161996206Y-98345004D01*
X162121894Y-98172009D01*
X162121896Y-98172004D01*
X162124270Y-98168132D01*
X162176080Y-98121254D01*
X162245009Y-98109829D01*
X162309173Y-98137483D01*
X162335730Y-98168132D01*
X162338103Y-98172005D01*
X162338105Y-98172008D01*
X162338106Y-98172009D01*
X162463794Y-98345004D01*
X162614996Y-98496206D01*
X162787991Y-98621894D01*
X162852227Y-98654624D01*
X162978516Y-98718972D01*
X162978519Y-98718973D01*
X163077383Y-98751095D01*
X163181884Y-98785049D01*
X163393084Y-98818500D01*
X163393085Y-98818500D01*
X163606915Y-98818500D01*
X163606916Y-98818500D01*
X163818116Y-98785049D01*
X164021483Y-98718972D01*
X164212009Y-98621894D01*
X164385004Y-98496206D01*
X164536206Y-98345004D01*
X164661894Y-98172009D01*
X164661896Y-98172004D01*
X164664270Y-98168132D01*
X164716080Y-98121254D01*
X164785009Y-98109829D01*
X164849173Y-98137483D01*
X164875730Y-98168132D01*
X164878103Y-98172005D01*
X164878105Y-98172008D01*
X164878106Y-98172009D01*
X165003794Y-98345004D01*
X165154996Y-98496206D01*
X165327991Y-98621894D01*
X165392227Y-98654624D01*
X165518516Y-98718972D01*
X165518519Y-98718973D01*
X165617383Y-98751095D01*
X165721884Y-98785049D01*
X165933084Y-98818500D01*
X165933085Y-98818500D01*
X166146915Y-98818500D01*
X166146916Y-98818500D01*
X166358116Y-98785049D01*
X166561483Y-98718972D01*
X166752009Y-98621894D01*
X166925004Y-98496206D01*
X167076206Y-98345004D01*
X167201894Y-98172009D01*
X167201896Y-98172004D01*
X167204270Y-98168132D01*
X167256080Y-98121254D01*
X167325009Y-98109829D01*
X167389173Y-98137483D01*
X167415730Y-98168132D01*
X167418103Y-98172005D01*
X167418105Y-98172008D01*
X167418106Y-98172009D01*
X167543794Y-98345004D01*
X167694996Y-98496206D01*
X167867991Y-98621894D01*
X167932227Y-98654624D01*
X168058516Y-98718972D01*
X168058519Y-98718973D01*
X168157383Y-98751095D01*
X168261884Y-98785049D01*
X168473084Y-98818500D01*
X168473085Y-98818500D01*
X168686915Y-98818500D01*
X168686916Y-98818500D01*
X168898116Y-98785049D01*
X169101483Y-98718972D01*
X169292009Y-98621894D01*
X169465004Y-98496206D01*
X169616206Y-98345004D01*
X169741894Y-98172009D01*
X169838972Y-97981483D01*
X169905049Y-97778116D01*
X169938500Y-97566916D01*
X169938500Y-97353084D01*
X169905049Y-97141884D01*
X169856727Y-96993162D01*
X169838973Y-96938519D01*
X169838972Y-96938516D01*
X169799106Y-96860275D01*
X169741894Y-96747991D01*
X169691434Y-96678539D01*
X169656844Y-96630929D01*
X169656842Y-96630927D01*
X169616206Y-96574996D01*
X169602555Y-96561345D01*
X172301500Y-96561345D01*
X172301500Y-98358654D01*
X172308011Y-98419202D01*
X172308011Y-98419204D01*
X172349906Y-98531524D01*
X172359111Y-98556204D01*
X172446739Y-98673261D01*
X172563796Y-98760889D01*
X172700799Y-98811989D01*
X172728050Y-98814918D01*
X172761345Y-98818499D01*
X172761362Y-98818500D01*
X174558638Y-98818500D01*
X174558654Y-98818499D01*
X174585692Y-98815591D01*
X174619201Y-98811989D01*
X174756204Y-98760889D01*
X174873261Y-98673261D01*
X174960889Y-98556204D01*
X175005957Y-98435371D01*
X175047827Y-98379442D01*
X175113291Y-98355025D01*
X175181564Y-98369877D01*
X175209818Y-98391028D01*
X175314996Y-98496206D01*
X175487991Y-98621894D01*
X175552227Y-98654624D01*
X175678516Y-98718972D01*
X175678519Y-98718973D01*
X175777383Y-98751095D01*
X175881884Y-98785049D01*
X176093084Y-98818500D01*
X176093085Y-98818500D01*
X176306915Y-98818500D01*
X176306916Y-98818500D01*
X176518116Y-98785049D01*
X176721483Y-98718972D01*
X176912009Y-98621894D01*
X177085004Y-98496206D01*
X177236206Y-98345004D01*
X177361894Y-98172009D01*
X177361896Y-98172004D01*
X177364270Y-98168132D01*
X177416080Y-98121254D01*
X177485009Y-98109829D01*
X177549173Y-98137483D01*
X177575730Y-98168132D01*
X177578103Y-98172005D01*
X177578105Y-98172008D01*
X177578106Y-98172009D01*
X177703794Y-98345004D01*
X177854996Y-98496206D01*
X178027991Y-98621894D01*
X178092227Y-98654624D01*
X178218516Y-98718972D01*
X178218519Y-98718973D01*
X178317383Y-98751095D01*
X178421884Y-98785049D01*
X178633084Y-98818500D01*
X178633085Y-98818500D01*
X178846915Y-98818500D01*
X178846916Y-98818500D01*
X179058116Y-98785049D01*
X179261483Y-98718972D01*
X179452009Y-98621894D01*
X179625004Y-98496206D01*
X179776206Y-98345004D01*
X179901894Y-98172009D01*
X179901896Y-98172004D01*
X179904270Y-98168132D01*
X179956080Y-98121254D01*
X180025009Y-98109829D01*
X180089173Y-98137483D01*
X180115730Y-98168132D01*
X180118103Y-98172005D01*
X180118105Y-98172008D01*
X180118106Y-98172009D01*
X180243794Y-98345004D01*
X180394996Y-98496206D01*
X180567991Y-98621894D01*
X180632227Y-98654624D01*
X180758516Y-98718972D01*
X180758519Y-98718973D01*
X180857383Y-98751095D01*
X180961884Y-98785049D01*
X181173084Y-98818500D01*
X181173085Y-98818500D01*
X181386915Y-98818500D01*
X181386916Y-98818500D01*
X181598116Y-98785049D01*
X181801483Y-98718972D01*
X181992009Y-98621894D01*
X182165004Y-98496206D01*
X182316206Y-98345004D01*
X182441894Y-98172009D01*
X182441896Y-98172004D01*
X182444270Y-98168132D01*
X182496080Y-98121254D01*
X182565009Y-98109829D01*
X182629173Y-98137483D01*
X182655730Y-98168132D01*
X182658103Y-98172005D01*
X182658105Y-98172008D01*
X182658106Y-98172009D01*
X182783794Y-98345004D01*
X182934996Y-98496206D01*
X183107991Y-98621894D01*
X183172227Y-98654624D01*
X183298516Y-98718972D01*
X183298519Y-98718973D01*
X183397383Y-98751095D01*
X183501884Y-98785049D01*
X183713084Y-98818500D01*
X183713085Y-98818500D01*
X183926915Y-98818500D01*
X183926916Y-98818500D01*
X184138116Y-98785049D01*
X184341483Y-98718972D01*
X184532009Y-98621894D01*
X184705004Y-98496206D01*
X184856206Y-98345004D01*
X184981894Y-98172009D01*
X184981896Y-98172004D01*
X184984270Y-98168132D01*
X185036080Y-98121254D01*
X185105009Y-98109829D01*
X185169173Y-98137483D01*
X185195730Y-98168132D01*
X185198103Y-98172005D01*
X185198105Y-98172008D01*
X185198106Y-98172009D01*
X185323794Y-98345004D01*
X185474996Y-98496206D01*
X185647991Y-98621894D01*
X185712227Y-98654624D01*
X185838516Y-98718972D01*
X185838519Y-98718973D01*
X185937383Y-98751095D01*
X186041884Y-98785049D01*
X186253084Y-98818500D01*
X186253085Y-98818500D01*
X186466915Y-98818500D01*
X186466916Y-98818500D01*
X186678116Y-98785049D01*
X186881483Y-98718972D01*
X187072009Y-98621894D01*
X187245004Y-98496206D01*
X187396206Y-98345004D01*
X187521894Y-98172009D01*
X187521896Y-98172004D01*
X187524270Y-98168132D01*
X187576080Y-98121254D01*
X187645009Y-98109829D01*
X187709173Y-98137483D01*
X187735730Y-98168132D01*
X187738103Y-98172005D01*
X187738105Y-98172008D01*
X187738106Y-98172009D01*
X187863794Y-98345004D01*
X188014996Y-98496206D01*
X188187991Y-98621894D01*
X188252227Y-98654624D01*
X188378516Y-98718972D01*
X188378519Y-98718973D01*
X188477383Y-98751095D01*
X188581884Y-98785049D01*
X188793084Y-98818500D01*
X188793085Y-98818500D01*
X189006915Y-98818500D01*
X189006916Y-98818500D01*
X189218116Y-98785049D01*
X189421483Y-98718972D01*
X189612009Y-98621894D01*
X189785004Y-98496206D01*
X189936206Y-98345004D01*
X190061894Y-98172009D01*
X190061896Y-98172004D01*
X190064270Y-98168132D01*
X190116080Y-98121254D01*
X190185009Y-98109829D01*
X190249173Y-98137483D01*
X190275730Y-98168132D01*
X190278103Y-98172005D01*
X190278105Y-98172008D01*
X190278106Y-98172009D01*
X190403794Y-98345004D01*
X190554996Y-98496206D01*
X190727991Y-98621894D01*
X190792227Y-98654624D01*
X190918516Y-98718972D01*
X190918519Y-98718973D01*
X191017383Y-98751095D01*
X191121884Y-98785049D01*
X191333084Y-98818500D01*
X191333085Y-98818500D01*
X191546915Y-98818500D01*
X191546916Y-98818500D01*
X191758116Y-98785049D01*
X191961483Y-98718972D01*
X192152009Y-98621894D01*
X192325004Y-98496206D01*
X192476206Y-98345004D01*
X192601894Y-98172009D01*
X192698972Y-97981483D01*
X192706724Y-97957626D01*
X192762850Y-97784884D01*
X198615900Y-97784884D01*
X198615900Y-97998716D01*
X198619506Y-98021483D01*
X198649351Y-98209917D01*
X198715426Y-98413280D01*
X198715427Y-98413283D01*
X198808117Y-98595196D01*
X198812506Y-98603809D01*
X198938194Y-98776804D01*
X199089396Y-98928006D01*
X199262391Y-99053694D01*
X199355838Y-99101307D01*
X199452916Y-99150772D01*
X199452919Y-99150773D01*
X199554600Y-99183810D01*
X199656284Y-99216849D01*
X199867484Y-99250300D01*
X199867485Y-99250300D01*
X200081315Y-99250300D01*
X200081316Y-99250300D01*
X200292516Y-99216849D01*
X200495883Y-99150772D01*
X200686409Y-99053694D01*
X200859404Y-98928006D01*
X201010606Y-98776804D01*
X201136294Y-98603809D01*
X201136296Y-98603804D01*
X201138670Y-98599932D01*
X201190480Y-98553054D01*
X201259409Y-98541629D01*
X201323573Y-98569283D01*
X201350130Y-98599932D01*
X201352503Y-98603805D01*
X201360832Y-98615269D01*
X201478194Y-98776804D01*
X201629396Y-98928006D01*
X201802391Y-99053694D01*
X201895838Y-99101307D01*
X201992916Y-99150772D01*
X201992919Y-99150773D01*
X202094600Y-99183810D01*
X202196284Y-99216849D01*
X202407484Y-99250300D01*
X202407485Y-99250300D01*
X202621315Y-99250300D01*
X202621316Y-99250300D01*
X202832516Y-99216849D01*
X203035883Y-99150772D01*
X203226409Y-99053694D01*
X203399404Y-98928006D01*
X203550606Y-98776804D01*
X203676294Y-98603809D01*
X203678683Y-98599119D01*
X203726654Y-98548322D01*
X203794474Y-98531524D01*
X203860610Y-98554058D01*
X203896596Y-98595583D01*
X203897229Y-98595196D01*
X203899567Y-98599011D01*
X203899651Y-98599108D01*
X203899771Y-98599345D01*
X203899773Y-98599347D01*
X203939128Y-98653516D01*
X204571437Y-98021208D01*
X204588475Y-98084793D01*
X204654301Y-98198807D01*
X204747393Y-98291899D01*
X204861407Y-98357725D01*
X204924990Y-98374762D01*
X204292682Y-99007069D01*
X204292682Y-99007070D01*
X204346849Y-99046424D01*
X204536182Y-99142895D01*
X204738270Y-99208557D01*
X204948154Y-99241800D01*
X205160646Y-99241800D01*
X205370527Y-99208557D01*
X205370530Y-99208557D01*
X205572617Y-99142895D01*
X205761954Y-99046422D01*
X205816116Y-99007070D01*
X205816117Y-99007070D01*
X205183808Y-98374762D01*
X205247393Y-98357725D01*
X205361407Y-98291899D01*
X205454499Y-98198807D01*
X205520325Y-98084793D01*
X205537362Y-98021208D01*
X206199581Y-98683427D01*
X206233066Y-98744750D01*
X206235900Y-98771108D01*
X206235900Y-98790454D01*
X206242411Y-98851002D01*
X206242411Y-98851004D01*
X206293511Y-98988004D01*
X206381139Y-99105061D01*
X206498196Y-99192689D01*
X206635199Y-99243789D01*
X206662450Y-99246718D01*
X206695745Y-99250299D01*
X206695762Y-99250300D01*
X208493038Y-99250300D01*
X208493054Y-99250299D01*
X208520092Y-99247391D01*
X208553601Y-99243789D01*
X208690604Y-99192689D01*
X208807661Y-99105061D01*
X208895289Y-98988004D01*
X208943592Y-98858499D01*
X208946388Y-98851004D01*
X208946388Y-98851003D01*
X208946389Y-98851001D01*
X208949991Y-98817492D01*
X208952899Y-98790454D01*
X208952900Y-98790437D01*
X208952900Y-96993162D01*
X208952899Y-96993145D01*
X208947025Y-96938517D01*
X208946389Y-96932599D01*
X208895289Y-96795596D01*
X208807661Y-96678539D01*
X208704542Y-96601345D01*
X219561500Y-96601345D01*
X219561500Y-98398654D01*
X219568011Y-98459202D01*
X219568011Y-98459204D01*
X219611303Y-98575270D01*
X219619111Y-98596204D01*
X219706739Y-98713261D01*
X219823796Y-98800889D01*
X219938949Y-98843839D01*
X219958152Y-98851002D01*
X219960799Y-98851989D01*
X219988050Y-98854918D01*
X220021345Y-98858499D01*
X220021362Y-98858500D01*
X221818638Y-98858500D01*
X221818654Y-98858499D01*
X221845692Y-98855591D01*
X221879201Y-98851989D01*
X222016204Y-98800889D01*
X222133261Y-98713261D01*
X222220889Y-98596204D01*
X222271989Y-98459201D01*
X222278500Y-98398638D01*
X222278500Y-98366708D01*
X222281035Y-98354364D01*
X222291749Y-98334186D01*
X222298185Y-98312268D01*
X222313437Y-98293340D01*
X222313802Y-98292654D01*
X222314146Y-98292460D01*
X222314819Y-98291626D01*
X222977037Y-97629408D01*
X222994075Y-97692993D01*
X223059901Y-97807007D01*
X223152993Y-97900099D01*
X223267007Y-97965925D01*
X223330590Y-97982962D01*
X222698282Y-98615269D01*
X222698282Y-98615270D01*
X222752449Y-98654624D01*
X222941782Y-98751095D01*
X223143870Y-98816757D01*
X223353754Y-98850000D01*
X223566246Y-98850000D01*
X223776127Y-98816757D01*
X223776130Y-98816757D01*
X223978217Y-98751095D01*
X224167554Y-98654622D01*
X224221716Y-98615270D01*
X224221717Y-98615270D01*
X223589408Y-97982962D01*
X223652993Y-97965925D01*
X223767007Y-97900099D01*
X223860099Y-97807007D01*
X223925925Y-97692993D01*
X223942962Y-97629408D01*
X224575270Y-98261717D01*
X224575270Y-98261716D01*
X224614621Y-98207556D01*
X224614738Y-98207327D01*
X224614808Y-98207252D01*
X224617168Y-98203402D01*
X224617976Y-98203897D01*
X224662707Y-98156526D01*
X224730526Y-98139723D01*
X224796663Y-98162254D01*
X224835712Y-98207311D01*
X224838105Y-98212008D01*
X224874220Y-98261716D01*
X224963794Y-98385004D01*
X225114996Y-98536206D01*
X225287991Y-98661894D01*
X225330252Y-98683427D01*
X225478516Y-98758972D01*
X225478519Y-98758973D01*
X225515868Y-98771108D01*
X225681884Y-98825049D01*
X225893084Y-98858500D01*
X225893085Y-98858500D01*
X226106915Y-98858500D01*
X226106916Y-98858500D01*
X226318116Y-98825049D01*
X226521483Y-98758972D01*
X226712009Y-98661894D01*
X226885004Y-98536206D01*
X227036206Y-98385004D01*
X227161894Y-98212009D01*
X227161896Y-98212004D01*
X227164270Y-98208132D01*
X227216080Y-98161254D01*
X227285009Y-98149829D01*
X227349173Y-98177483D01*
X227375730Y-98208132D01*
X227378103Y-98212005D01*
X227385159Y-98221717D01*
X227503794Y-98385004D01*
X227654996Y-98536206D01*
X227827991Y-98661894D01*
X227870252Y-98683427D01*
X228018516Y-98758972D01*
X228018519Y-98758973D01*
X228055868Y-98771108D01*
X228221884Y-98825049D01*
X228433084Y-98858500D01*
X228433085Y-98858500D01*
X228646915Y-98858500D01*
X228646916Y-98858500D01*
X228858116Y-98825049D01*
X229061483Y-98758972D01*
X229252009Y-98661894D01*
X229425004Y-98536206D01*
X229576206Y-98385004D01*
X229701894Y-98212009D01*
X229798972Y-98021483D01*
X229865049Y-97818116D01*
X229898500Y-97606916D01*
X229898500Y-97393084D01*
X229865049Y-97181884D01*
X229817024Y-97034075D01*
X229798973Y-96978519D01*
X229798972Y-96978516D01*
X229749507Y-96881438D01*
X229701894Y-96787991D01*
X229576206Y-96614996D01*
X229425004Y-96463794D01*
X229252009Y-96338106D01*
X229061483Y-96241027D01*
X229061480Y-96241026D01*
X228858117Y-96174951D01*
X228752516Y-96158225D01*
X228646916Y-96141500D01*
X228433084Y-96141500D01*
X228362684Y-96152650D01*
X228221882Y-96174951D01*
X228018519Y-96241026D01*
X228018516Y-96241027D01*
X227827990Y-96338106D01*
X227654993Y-96463796D01*
X227503796Y-96614993D01*
X227378105Y-96787991D01*
X227375727Y-96791873D01*
X227323914Y-96838748D01*
X227254984Y-96850169D01*
X227190822Y-96822512D01*
X227164273Y-96791873D01*
X227161894Y-96787991D01*
X227153565Y-96776527D01*
X227036206Y-96614996D01*
X226885004Y-96463794D01*
X226712009Y-96338106D01*
X226521483Y-96241027D01*
X226521480Y-96241026D01*
X226318117Y-96174951D01*
X226212516Y-96158225D01*
X226106916Y-96141500D01*
X225893084Y-96141500D01*
X225822684Y-96152650D01*
X225681882Y-96174951D01*
X225478519Y-96241026D01*
X225478516Y-96241027D01*
X225287990Y-96338106D01*
X225114993Y-96463796D01*
X224963796Y-96614993D01*
X224838103Y-96787994D01*
X224835709Y-96792693D01*
X224787731Y-96843485D01*
X224719908Y-96860275D01*
X224653775Y-96837732D01*
X224617804Y-96796215D01*
X224617171Y-96796604D01*
X224614826Y-96792778D01*
X224614743Y-96792682D01*
X224614624Y-96792449D01*
X224575270Y-96738282D01*
X224575269Y-96738282D01*
X223942962Y-97370590D01*
X223925925Y-97307007D01*
X223860099Y-97192993D01*
X223767007Y-97099901D01*
X223652993Y-97034075D01*
X223589409Y-97017037D01*
X224221716Y-96384728D01*
X224167550Y-96345375D01*
X223978217Y-96248904D01*
X223776129Y-96183242D01*
X223566246Y-96150000D01*
X223353754Y-96150000D01*
X223143872Y-96183242D01*
X223143869Y-96183242D01*
X222941782Y-96248904D01*
X222752439Y-96345380D01*
X222698282Y-96384727D01*
X222698282Y-96384728D01*
X223330591Y-97017037D01*
X223267007Y-97034075D01*
X223152993Y-97099901D01*
X223059901Y-97192993D01*
X222994075Y-97307007D01*
X222977037Y-97370590D01*
X222314819Y-96708372D01*
X222281334Y-96647049D01*
X222281035Y-96645635D01*
X222278500Y-96633290D01*
X222278500Y-96601362D01*
X222271989Y-96540799D01*
X222220889Y-96403796D01*
X222133261Y-96286739D01*
X222016204Y-96199111D01*
X221999801Y-96192993D01*
X221879203Y-96148011D01*
X221818654Y-96141500D01*
X221818638Y-96141500D01*
X220021362Y-96141500D01*
X220021345Y-96141500D01*
X219960797Y-96148011D01*
X219960795Y-96148011D01*
X219823795Y-96199111D01*
X219706739Y-96286739D01*
X219619111Y-96403795D01*
X219568011Y-96540795D01*
X219568011Y-96540797D01*
X219561500Y-96601345D01*
X208704542Y-96601345D01*
X208690604Y-96590911D01*
X208553603Y-96539811D01*
X208493054Y-96533300D01*
X208493038Y-96533300D01*
X206695762Y-96533300D01*
X206695745Y-96533300D01*
X206635197Y-96539811D01*
X206635195Y-96539811D01*
X206498195Y-96590911D01*
X206381139Y-96678539D01*
X206293511Y-96795595D01*
X206242411Y-96932595D01*
X206242411Y-96932597D01*
X206235900Y-96993145D01*
X206235900Y-97012490D01*
X206216215Y-97079529D01*
X206199581Y-97100171D01*
X205537362Y-97762390D01*
X205520325Y-97698807D01*
X205454499Y-97584793D01*
X205361407Y-97491701D01*
X205247393Y-97425875D01*
X205183809Y-97408837D01*
X205816116Y-96776528D01*
X205761950Y-96737175D01*
X205572617Y-96640704D01*
X205370529Y-96575042D01*
X205160646Y-96541800D01*
X204948154Y-96541800D01*
X204738272Y-96575042D01*
X204738269Y-96575042D01*
X204536182Y-96640704D01*
X204346839Y-96737180D01*
X204292682Y-96776527D01*
X204292682Y-96776528D01*
X204924991Y-97408837D01*
X204861407Y-97425875D01*
X204747393Y-97491701D01*
X204654301Y-97584793D01*
X204588475Y-97698807D01*
X204571437Y-97762391D01*
X203939128Y-97130082D01*
X203939127Y-97130082D01*
X203899780Y-97184240D01*
X203899774Y-97184249D01*
X203899646Y-97184502D01*
X203899572Y-97184580D01*
X203897238Y-97188390D01*
X203896436Y-97187899D01*
X203851664Y-97235290D01*
X203783841Y-97252075D01*
X203717709Y-97229528D01*
X203678683Y-97184480D01*
X203676294Y-97179791D01*
X203550606Y-97006796D01*
X203399404Y-96855594D01*
X203226409Y-96729906D01*
X203035883Y-96632827D01*
X203035880Y-96632826D01*
X202832517Y-96566751D01*
X202726916Y-96550025D01*
X202621316Y-96533300D01*
X202407484Y-96533300D01*
X202337084Y-96544450D01*
X202196282Y-96566751D01*
X201992919Y-96632826D01*
X201992916Y-96632827D01*
X201802390Y-96729906D01*
X201629393Y-96855596D01*
X201478196Y-97006793D01*
X201352505Y-97179791D01*
X201350127Y-97183673D01*
X201298314Y-97230548D01*
X201229384Y-97241969D01*
X201165222Y-97214312D01*
X201138673Y-97183673D01*
X201136294Y-97179791D01*
X201108753Y-97141884D01*
X201010606Y-97006796D01*
X200859404Y-96855594D01*
X200686409Y-96729906D01*
X200495883Y-96632827D01*
X200495880Y-96632826D01*
X200292517Y-96566751D01*
X200186916Y-96550025D01*
X200081316Y-96533300D01*
X199867484Y-96533300D01*
X199797084Y-96544450D01*
X199656282Y-96566751D01*
X199452919Y-96632826D01*
X199452916Y-96632827D01*
X199262390Y-96729906D01*
X199089393Y-96855596D01*
X198938196Y-97006793D01*
X198812506Y-97179790D01*
X198715427Y-97370316D01*
X198715426Y-97370319D01*
X198649351Y-97573682D01*
X198636531Y-97654624D01*
X198615900Y-97784884D01*
X192762850Y-97784884D01*
X192765047Y-97778122D01*
X192765046Y-97778122D01*
X192765049Y-97778116D01*
X192798500Y-97566916D01*
X192798500Y-97353084D01*
X192765049Y-97141884D01*
X192716727Y-96993162D01*
X192698973Y-96938519D01*
X192698972Y-96938516D01*
X192639864Y-96822512D01*
X192601894Y-96747991D01*
X192476206Y-96574996D01*
X192325004Y-96423794D01*
X192152009Y-96298106D01*
X192129700Y-96286739D01*
X191961483Y-96201027D01*
X191961480Y-96201026D01*
X191758117Y-96134951D01*
X191652516Y-96118225D01*
X191546916Y-96101500D01*
X191333084Y-96101500D01*
X191262684Y-96112650D01*
X191121882Y-96134951D01*
X190918519Y-96201026D01*
X190918516Y-96201027D01*
X190727990Y-96298106D01*
X190554993Y-96423796D01*
X190403796Y-96574993D01*
X190278105Y-96747991D01*
X190275727Y-96751873D01*
X190223914Y-96798748D01*
X190154984Y-96810169D01*
X190090822Y-96782512D01*
X190064273Y-96751873D01*
X190061894Y-96747991D01*
X190054036Y-96737175D01*
X189936206Y-96574996D01*
X189785004Y-96423794D01*
X189612009Y-96298106D01*
X189589700Y-96286739D01*
X189421483Y-96201027D01*
X189421480Y-96201026D01*
X189218117Y-96134951D01*
X189112516Y-96118225D01*
X189006916Y-96101500D01*
X188793084Y-96101500D01*
X188722684Y-96112650D01*
X188581882Y-96134951D01*
X188378519Y-96201026D01*
X188378516Y-96201027D01*
X188187990Y-96298106D01*
X188014993Y-96423796D01*
X187863796Y-96574993D01*
X187738105Y-96747991D01*
X187735727Y-96751873D01*
X187683914Y-96798748D01*
X187614984Y-96810169D01*
X187550822Y-96782512D01*
X187524273Y-96751873D01*
X187521894Y-96747991D01*
X187514036Y-96737175D01*
X187396206Y-96574996D01*
X187245004Y-96423794D01*
X187072009Y-96298106D01*
X187049700Y-96286739D01*
X186881483Y-96201027D01*
X186881480Y-96201026D01*
X186678117Y-96134951D01*
X186572516Y-96118225D01*
X186466916Y-96101500D01*
X186253084Y-96101500D01*
X186182684Y-96112650D01*
X186041882Y-96134951D01*
X185838519Y-96201026D01*
X185838516Y-96201027D01*
X185647990Y-96298106D01*
X185474993Y-96423796D01*
X185323796Y-96574993D01*
X185198105Y-96747991D01*
X185195727Y-96751873D01*
X185143914Y-96798748D01*
X185074984Y-96810169D01*
X185010822Y-96782512D01*
X184984273Y-96751873D01*
X184981894Y-96747991D01*
X184974036Y-96737175D01*
X184856206Y-96574996D01*
X184705004Y-96423794D01*
X184532009Y-96298106D01*
X184509700Y-96286739D01*
X184341483Y-96201027D01*
X184341480Y-96201026D01*
X184138117Y-96134951D01*
X184032516Y-96118225D01*
X183926916Y-96101500D01*
X183713084Y-96101500D01*
X183642684Y-96112650D01*
X183501882Y-96134951D01*
X183298519Y-96201026D01*
X183298516Y-96201027D01*
X183107990Y-96298106D01*
X182934993Y-96423796D01*
X182783796Y-96574993D01*
X182658105Y-96747991D01*
X182655727Y-96751873D01*
X182603914Y-96798748D01*
X182534984Y-96810169D01*
X182470822Y-96782512D01*
X182444273Y-96751873D01*
X182441894Y-96747991D01*
X182434036Y-96737175D01*
X182316206Y-96574996D01*
X182165004Y-96423794D01*
X181992009Y-96298106D01*
X181969700Y-96286739D01*
X181801483Y-96201027D01*
X181801480Y-96201026D01*
X181598117Y-96134951D01*
X181492516Y-96118225D01*
X181386916Y-96101500D01*
X181173084Y-96101500D01*
X181102684Y-96112650D01*
X180961882Y-96134951D01*
X180758519Y-96201026D01*
X180758516Y-96201027D01*
X180567990Y-96298106D01*
X180394993Y-96423796D01*
X180243796Y-96574993D01*
X180118105Y-96747991D01*
X180115727Y-96751873D01*
X180063914Y-96798748D01*
X179994984Y-96810169D01*
X179930822Y-96782512D01*
X179904273Y-96751873D01*
X179901894Y-96747991D01*
X179894036Y-96737175D01*
X179776206Y-96574996D01*
X179625004Y-96423794D01*
X179452009Y-96298106D01*
X179429700Y-96286739D01*
X179261483Y-96201027D01*
X179261480Y-96201026D01*
X179058117Y-96134951D01*
X178952516Y-96118225D01*
X178846916Y-96101500D01*
X178633084Y-96101500D01*
X178562684Y-96112650D01*
X178421882Y-96134951D01*
X178218519Y-96201026D01*
X178218516Y-96201027D01*
X178027990Y-96298106D01*
X177854993Y-96423796D01*
X177703796Y-96574993D01*
X177578105Y-96747991D01*
X177575727Y-96751873D01*
X177523914Y-96798748D01*
X177454984Y-96810169D01*
X177390822Y-96782512D01*
X177364273Y-96751873D01*
X177361894Y-96747991D01*
X177354036Y-96737175D01*
X177236206Y-96574996D01*
X177085004Y-96423794D01*
X176912009Y-96298106D01*
X176889700Y-96286739D01*
X176721483Y-96201027D01*
X176721480Y-96201026D01*
X176518117Y-96134951D01*
X176412516Y-96118225D01*
X176306916Y-96101500D01*
X176093084Y-96101500D01*
X176022684Y-96112650D01*
X175881882Y-96134951D01*
X175678519Y-96201026D01*
X175678516Y-96201027D01*
X175487990Y-96298106D01*
X175314997Y-96423793D01*
X175209818Y-96528972D01*
X175148495Y-96562456D01*
X175078803Y-96557472D01*
X175022870Y-96515600D01*
X175005958Y-96484629D01*
X174960889Y-96363796D01*
X174873261Y-96246739D01*
X174756204Y-96159111D01*
X174726444Y-96148011D01*
X174619203Y-96108011D01*
X174558654Y-96101500D01*
X174558638Y-96101500D01*
X172761362Y-96101500D01*
X172761345Y-96101500D01*
X172700797Y-96108011D01*
X172700795Y-96108011D01*
X172563795Y-96159111D01*
X172446739Y-96246739D01*
X172359111Y-96363795D01*
X172308011Y-96500795D01*
X172308011Y-96500797D01*
X172301500Y-96561345D01*
X169602555Y-96561345D01*
X169465004Y-96423794D01*
X169292009Y-96298106D01*
X169269700Y-96286739D01*
X169101483Y-96201027D01*
X169101480Y-96201026D01*
X168898117Y-96134951D01*
X168792516Y-96118225D01*
X168686916Y-96101500D01*
X168473084Y-96101500D01*
X168402684Y-96112650D01*
X168261882Y-96134951D01*
X168058519Y-96201026D01*
X168058516Y-96201027D01*
X167867990Y-96298106D01*
X167694993Y-96423796D01*
X167543796Y-96574993D01*
X167418105Y-96747991D01*
X167415727Y-96751873D01*
X167363914Y-96798748D01*
X167294984Y-96810169D01*
X167230822Y-96782512D01*
X167204273Y-96751873D01*
X167201894Y-96747991D01*
X167194036Y-96737175D01*
X167076206Y-96574996D01*
X166925004Y-96423794D01*
X166752009Y-96298106D01*
X166729700Y-96286739D01*
X166561483Y-96201027D01*
X166561480Y-96201026D01*
X166358117Y-96134951D01*
X166252516Y-96118225D01*
X166146916Y-96101500D01*
X165933084Y-96101500D01*
X165862684Y-96112650D01*
X165721882Y-96134951D01*
X165518519Y-96201026D01*
X165518516Y-96201027D01*
X165327990Y-96298106D01*
X165154993Y-96423796D01*
X165003796Y-96574993D01*
X164878105Y-96747991D01*
X164875727Y-96751873D01*
X164823914Y-96798748D01*
X164754984Y-96810169D01*
X164690822Y-96782512D01*
X164664273Y-96751873D01*
X164661894Y-96747991D01*
X164654036Y-96737175D01*
X164536206Y-96574996D01*
X164385004Y-96423794D01*
X164212009Y-96298106D01*
X164189700Y-96286739D01*
X164021483Y-96201027D01*
X164021480Y-96201026D01*
X163818117Y-96134951D01*
X163712516Y-96118225D01*
X163606916Y-96101500D01*
X163393084Y-96101500D01*
X163322684Y-96112650D01*
X163181882Y-96134951D01*
X162978519Y-96201026D01*
X162978516Y-96201027D01*
X162787990Y-96298106D01*
X162614993Y-96423796D01*
X162463796Y-96574993D01*
X162338105Y-96747991D01*
X162335727Y-96751873D01*
X162283914Y-96798748D01*
X162214984Y-96810169D01*
X162150822Y-96782512D01*
X162124273Y-96751873D01*
X162121894Y-96747991D01*
X162114036Y-96737175D01*
X161996206Y-96574996D01*
X161845004Y-96423794D01*
X161672009Y-96298106D01*
X161649700Y-96286739D01*
X161481483Y-96201027D01*
X161481480Y-96201026D01*
X161278117Y-96134951D01*
X161172516Y-96118225D01*
X161066916Y-96101500D01*
X160853084Y-96101500D01*
X160782684Y-96112650D01*
X160641882Y-96134951D01*
X160438519Y-96201026D01*
X160438516Y-96201027D01*
X160247990Y-96298106D01*
X160074993Y-96423796D01*
X159923796Y-96574993D01*
X159798105Y-96747991D01*
X159795727Y-96751873D01*
X159743914Y-96798748D01*
X159674984Y-96810169D01*
X159610822Y-96782512D01*
X159584273Y-96751873D01*
X159581894Y-96747991D01*
X159574036Y-96737175D01*
X159456206Y-96574996D01*
X159305004Y-96423794D01*
X159132009Y-96298106D01*
X159109700Y-96286739D01*
X158941483Y-96201027D01*
X158941480Y-96201026D01*
X158738117Y-96134951D01*
X158632516Y-96118225D01*
X158526916Y-96101500D01*
X158313084Y-96101500D01*
X158242684Y-96112650D01*
X158101882Y-96134951D01*
X157898519Y-96201026D01*
X157898516Y-96201027D01*
X157707990Y-96298106D01*
X157534993Y-96423796D01*
X157383796Y-96574993D01*
X157258105Y-96747991D01*
X157255727Y-96751873D01*
X157203914Y-96798748D01*
X157134984Y-96810169D01*
X157070822Y-96782512D01*
X157044273Y-96751873D01*
X157041894Y-96747991D01*
X157034036Y-96737175D01*
X156916206Y-96574996D01*
X156765004Y-96423794D01*
X156592009Y-96298106D01*
X156569700Y-96286739D01*
X156401483Y-96201027D01*
X156401480Y-96201026D01*
X156198117Y-96134951D01*
X156092516Y-96118225D01*
X155986916Y-96101500D01*
X155773084Y-96101500D01*
X155702684Y-96112650D01*
X155561882Y-96134951D01*
X155358519Y-96201026D01*
X155358516Y-96201027D01*
X155167990Y-96298106D01*
X154994993Y-96423796D01*
X154843796Y-96574993D01*
X154718105Y-96747991D01*
X154715727Y-96751873D01*
X154663914Y-96798748D01*
X154594984Y-96810169D01*
X154530822Y-96782512D01*
X154504273Y-96751873D01*
X154501894Y-96747991D01*
X154494036Y-96737175D01*
X154376206Y-96574996D01*
X154225004Y-96423794D01*
X154052009Y-96298106D01*
X154029700Y-96286739D01*
X153861483Y-96201027D01*
X153861480Y-96201026D01*
X153658117Y-96134951D01*
X153552516Y-96118225D01*
X153446916Y-96101500D01*
X153233084Y-96101500D01*
X153162684Y-96112650D01*
X153021882Y-96134951D01*
X152818519Y-96201026D01*
X152818516Y-96201027D01*
X152627990Y-96298106D01*
X152454997Y-96423793D01*
X152349818Y-96528972D01*
X152288495Y-96562456D01*
X152218803Y-96557472D01*
X152162870Y-96515600D01*
X152145958Y-96484629D01*
X152100889Y-96363796D01*
X152013261Y-96246739D01*
X151896204Y-96159111D01*
X151866444Y-96148011D01*
X151759203Y-96108011D01*
X151698654Y-96101500D01*
X151698638Y-96101500D01*
X149901362Y-96101500D01*
X149901345Y-96101500D01*
X149840797Y-96108011D01*
X149840795Y-96108011D01*
X149703795Y-96159111D01*
X149586739Y-96246739D01*
X149499111Y-96363795D01*
X149448011Y-96500795D01*
X149448011Y-96500797D01*
X149441500Y-96561345D01*
X146742555Y-96561345D01*
X146605004Y-96423794D01*
X146432009Y-96298106D01*
X146409700Y-96286739D01*
X146241483Y-96201027D01*
X146241480Y-96201026D01*
X146038117Y-96134951D01*
X145932516Y-96118225D01*
X145826916Y-96101500D01*
X145613084Y-96101500D01*
X145542684Y-96112650D01*
X145401882Y-96134951D01*
X145198519Y-96201026D01*
X145198516Y-96201027D01*
X145007990Y-96298106D01*
X144834993Y-96423796D01*
X144683796Y-96574993D01*
X144558103Y-96747994D01*
X144555709Y-96752693D01*
X144507731Y-96803485D01*
X144439908Y-96820275D01*
X144373775Y-96797732D01*
X144337804Y-96756215D01*
X144337171Y-96756604D01*
X144334826Y-96752778D01*
X144334743Y-96752682D01*
X144334624Y-96752449D01*
X144295270Y-96698282D01*
X144295269Y-96698282D01*
X143662962Y-97330590D01*
X143645925Y-97267007D01*
X143580099Y-97152993D01*
X143487007Y-97059901D01*
X143372993Y-96994075D01*
X143309409Y-96977037D01*
X143941716Y-96344728D01*
X143887550Y-96305375D01*
X143698217Y-96208904D01*
X143496129Y-96143242D01*
X143286246Y-96110000D01*
X143073754Y-96110000D01*
X142863872Y-96143242D01*
X142863869Y-96143242D01*
X142661782Y-96208904D01*
X142472439Y-96305380D01*
X142418282Y-96344727D01*
X142418282Y-96344728D01*
X143050591Y-96977037D01*
X142987007Y-96994075D01*
X142872993Y-97059901D01*
X142779901Y-97152993D01*
X142714075Y-97267007D01*
X142697037Y-97330591D01*
X142064728Y-96698282D01*
X142064727Y-96698282D01*
X142025380Y-96752440D01*
X142020483Y-96762051D01*
X141972506Y-96812845D01*
X141904684Y-96829638D01*
X141838550Y-96807098D01*
X141799516Y-96762048D01*
X141794626Y-96752452D01*
X141755270Y-96698282D01*
X141755269Y-96698282D01*
X141122962Y-97330590D01*
X141105925Y-97267007D01*
X141040099Y-97152993D01*
X140947007Y-97059901D01*
X140832993Y-96994075D01*
X140769409Y-96977037D01*
X141401716Y-96344728D01*
X141347550Y-96305375D01*
X141158217Y-96208904D01*
X140956129Y-96143242D01*
X140746246Y-96110000D01*
X140533754Y-96110000D01*
X140323872Y-96143242D01*
X140323869Y-96143242D01*
X140121782Y-96208904D01*
X139932439Y-96305380D01*
X139878282Y-96344727D01*
X139878282Y-96344728D01*
X140510591Y-96977037D01*
X140447007Y-96994075D01*
X140332993Y-97059901D01*
X140239901Y-97152993D01*
X140174075Y-97267007D01*
X140157037Y-97330591D01*
X139524728Y-96698282D01*
X139524727Y-96698282D01*
X139485380Y-96752440D01*
X139485374Y-96752449D01*
X139485246Y-96752702D01*
X139485172Y-96752780D01*
X139482838Y-96756590D01*
X139482036Y-96756099D01*
X139437264Y-96803490D01*
X139369441Y-96820275D01*
X139303309Y-96797728D01*
X139264283Y-96752680D01*
X139261894Y-96747991D01*
X139136206Y-96574996D01*
X138985004Y-96423794D01*
X138812009Y-96298106D01*
X138789700Y-96286739D01*
X138621483Y-96201027D01*
X138621480Y-96201026D01*
X138418117Y-96134951D01*
X138312516Y-96118225D01*
X138206916Y-96101500D01*
X137993084Y-96101500D01*
X137922684Y-96112650D01*
X137781882Y-96134951D01*
X137578519Y-96201026D01*
X137578516Y-96201027D01*
X137387990Y-96298106D01*
X137214993Y-96423796D01*
X137063796Y-96574993D01*
X136938105Y-96747991D01*
X136935727Y-96751873D01*
X136883914Y-96798748D01*
X136814984Y-96810169D01*
X136750822Y-96782512D01*
X136724273Y-96751873D01*
X136721894Y-96747991D01*
X136714036Y-96737175D01*
X136596206Y-96574996D01*
X136445004Y-96423794D01*
X136272009Y-96298106D01*
X136249700Y-96286739D01*
X136081483Y-96201027D01*
X136081480Y-96201026D01*
X135878117Y-96134951D01*
X135772516Y-96118225D01*
X135666916Y-96101500D01*
X135453084Y-96101500D01*
X135382684Y-96112650D01*
X135241882Y-96134951D01*
X135038519Y-96201026D01*
X135038516Y-96201027D01*
X134847990Y-96298106D01*
X134674993Y-96423796D01*
X134523796Y-96574993D01*
X134398105Y-96747991D01*
X134395727Y-96751873D01*
X134343914Y-96798748D01*
X134274984Y-96810169D01*
X134210822Y-96782512D01*
X134184273Y-96751873D01*
X134181894Y-96747991D01*
X134174036Y-96737175D01*
X134056206Y-96574996D01*
X133905004Y-96423794D01*
X133732009Y-96298106D01*
X133709700Y-96286739D01*
X133541483Y-96201027D01*
X133541480Y-96201026D01*
X133338117Y-96134951D01*
X133232516Y-96118225D01*
X133126916Y-96101500D01*
X132913084Y-96101500D01*
X132842684Y-96112650D01*
X132701882Y-96134951D01*
X132498519Y-96201026D01*
X132498516Y-96201027D01*
X132307990Y-96298106D01*
X132134993Y-96423796D01*
X131983796Y-96574993D01*
X131858105Y-96747991D01*
X131855727Y-96751873D01*
X131803914Y-96798748D01*
X131734984Y-96810169D01*
X131670822Y-96782512D01*
X131644273Y-96751873D01*
X131641894Y-96747991D01*
X131634036Y-96737175D01*
X131516206Y-96574996D01*
X131365004Y-96423794D01*
X131192009Y-96298106D01*
X131169700Y-96286739D01*
X131001483Y-96201027D01*
X131001480Y-96201026D01*
X130798117Y-96134951D01*
X130692516Y-96118225D01*
X130586916Y-96101500D01*
X130373084Y-96101500D01*
X130302684Y-96112650D01*
X130161882Y-96134951D01*
X129958519Y-96201026D01*
X129958516Y-96201027D01*
X129767990Y-96298106D01*
X129594997Y-96423793D01*
X129489818Y-96528972D01*
X129428495Y-96562456D01*
X129358803Y-96557472D01*
X129302870Y-96515600D01*
X129285958Y-96484629D01*
X129240889Y-96363796D01*
X129153261Y-96246739D01*
X129036204Y-96159111D01*
X129006444Y-96148011D01*
X128899203Y-96108011D01*
X128838654Y-96101500D01*
X128838638Y-96101500D01*
X127041362Y-96101500D01*
X127041345Y-96101500D01*
X126980797Y-96108011D01*
X126980795Y-96108011D01*
X126843795Y-96159111D01*
X126726739Y-96246739D01*
X126639111Y-96363795D01*
X126588011Y-96500795D01*
X126588011Y-96500797D01*
X126581500Y-96561345D01*
X111962700Y-96561345D01*
X111962700Y-95601345D01*
X253331500Y-95601345D01*
X253331500Y-97398654D01*
X253338011Y-97459202D01*
X253338011Y-97459204D01*
X253380711Y-97573684D01*
X253389111Y-97596204D01*
X253476739Y-97713261D01*
X253593796Y-97800889D01*
X253730799Y-97851989D01*
X253758050Y-97854918D01*
X253791345Y-97858499D01*
X253791362Y-97858500D01*
X255588638Y-97858500D01*
X255588654Y-97858499D01*
X255615692Y-97855591D01*
X255649201Y-97851989D01*
X255786204Y-97800889D01*
X255903261Y-97713261D01*
X255990889Y-97596204D01*
X256041989Y-97459201D01*
X256048500Y-97398638D01*
X256048500Y-97366708D01*
X256051035Y-97354364D01*
X256061749Y-97334186D01*
X256068185Y-97312268D01*
X256083437Y-97293340D01*
X256083802Y-97292654D01*
X256084146Y-97292460D01*
X256084819Y-97291626D01*
X256747037Y-96629408D01*
X256764075Y-96692993D01*
X256829901Y-96807007D01*
X256922993Y-96900099D01*
X257037007Y-96965925D01*
X257100590Y-96982962D01*
X256468282Y-97615269D01*
X256468282Y-97615270D01*
X256522449Y-97654624D01*
X256711782Y-97751095D01*
X256913870Y-97816757D01*
X257123754Y-97850000D01*
X257336246Y-97850000D01*
X257546127Y-97816757D01*
X257546130Y-97816757D01*
X257748217Y-97751095D01*
X257937554Y-97654622D01*
X257991716Y-97615270D01*
X257991717Y-97615270D01*
X257359408Y-96982962D01*
X257422993Y-96965925D01*
X257537007Y-96900099D01*
X257630099Y-96807007D01*
X257695925Y-96692993D01*
X257712962Y-96629408D01*
X258345270Y-97261717D01*
X258345270Y-97261716D01*
X258384621Y-97207556D01*
X258384738Y-97207327D01*
X258384808Y-97207252D01*
X258387168Y-97203402D01*
X258387976Y-97203897D01*
X258432707Y-97156526D01*
X258500526Y-97139723D01*
X258566663Y-97162254D01*
X258605712Y-97207311D01*
X258608105Y-97212008D01*
X258629873Y-97241969D01*
X258733794Y-97385004D01*
X258884996Y-97536206D01*
X259057991Y-97661894D01*
X259119026Y-97692993D01*
X259248516Y-97758972D01*
X259248519Y-97758973D01*
X259307437Y-97778116D01*
X259451884Y-97825049D01*
X259663084Y-97858500D01*
X259663085Y-97858500D01*
X259876915Y-97858500D01*
X259876916Y-97858500D01*
X260088116Y-97825049D01*
X260291483Y-97758972D01*
X260482009Y-97661894D01*
X260655004Y-97536206D01*
X260806206Y-97385004D01*
X260931894Y-97212009D01*
X260931896Y-97212004D01*
X260934270Y-97208132D01*
X260986080Y-97161254D01*
X261055009Y-97149829D01*
X261119173Y-97177483D01*
X261145730Y-97208132D01*
X261148103Y-97212005D01*
X261148105Y-97212008D01*
X261148106Y-97212009D01*
X261273794Y-97385004D01*
X261424996Y-97536206D01*
X261597991Y-97661894D01*
X261659026Y-97692993D01*
X261788516Y-97758972D01*
X261788519Y-97758973D01*
X261847437Y-97778116D01*
X261991884Y-97825049D01*
X262203084Y-97858500D01*
X262203085Y-97858500D01*
X262416915Y-97858500D01*
X262416916Y-97858500D01*
X262628116Y-97825049D01*
X262831483Y-97758972D01*
X263022009Y-97661894D01*
X263195004Y-97536206D01*
X263346206Y-97385004D01*
X263471894Y-97212009D01*
X263568972Y-97021483D01*
X263635049Y-96818116D01*
X263668500Y-96606916D01*
X263668500Y-96393084D01*
X263635049Y-96181884D01*
X263568972Y-95978517D01*
X263568972Y-95978516D01*
X263519507Y-95881438D01*
X263471894Y-95787991D01*
X263346206Y-95614996D01*
X263195004Y-95463794D01*
X263022009Y-95338106D01*
X262831483Y-95241027D01*
X262831480Y-95241026D01*
X262628117Y-95174951D01*
X262522516Y-95158225D01*
X262416916Y-95141500D01*
X262203084Y-95141500D01*
X262132684Y-95152650D01*
X261991882Y-95174951D01*
X261788519Y-95241026D01*
X261788516Y-95241027D01*
X261597990Y-95338106D01*
X261424993Y-95463796D01*
X261273796Y-95614993D01*
X261148105Y-95787991D01*
X261145727Y-95791873D01*
X261093914Y-95838748D01*
X261024984Y-95850169D01*
X260960822Y-95822512D01*
X260934273Y-95791873D01*
X260931894Y-95787991D01*
X260874048Y-95708373D01*
X260806206Y-95614996D01*
X260655004Y-95463794D01*
X260482009Y-95338106D01*
X260291483Y-95241027D01*
X260291480Y-95241026D01*
X260088117Y-95174951D01*
X259982516Y-95158225D01*
X259876916Y-95141500D01*
X259663084Y-95141500D01*
X259592684Y-95152650D01*
X259451882Y-95174951D01*
X259248519Y-95241026D01*
X259248516Y-95241027D01*
X259057990Y-95338106D01*
X258884993Y-95463796D01*
X258733796Y-95614993D01*
X258608103Y-95787994D01*
X258605709Y-95792693D01*
X258557731Y-95843485D01*
X258489908Y-95860275D01*
X258423775Y-95837732D01*
X258387804Y-95796215D01*
X258387171Y-95796604D01*
X258384826Y-95792778D01*
X258384743Y-95792682D01*
X258384624Y-95792449D01*
X258345270Y-95738282D01*
X258345269Y-95738282D01*
X257712962Y-96370590D01*
X257695925Y-96307007D01*
X257630099Y-96192993D01*
X257537007Y-96099901D01*
X257422993Y-96034075D01*
X257359409Y-96017037D01*
X257991716Y-95384728D01*
X257937550Y-95345375D01*
X257748217Y-95248904D01*
X257546129Y-95183242D01*
X257336246Y-95150000D01*
X257123754Y-95150000D01*
X256913872Y-95183242D01*
X256913869Y-95183242D01*
X256711782Y-95248904D01*
X256522439Y-95345380D01*
X256468282Y-95384727D01*
X256468282Y-95384728D01*
X257100591Y-96017037D01*
X257037007Y-96034075D01*
X256922993Y-96099901D01*
X256829901Y-96192993D01*
X256764075Y-96307007D01*
X256747037Y-96370591D01*
X256084819Y-95708373D01*
X256051334Y-95647050D01*
X256051035Y-95645636D01*
X256048500Y-95633292D01*
X256048500Y-95601362D01*
X256041989Y-95540799D01*
X255990889Y-95403796D01*
X255981070Y-95390680D01*
X255941714Y-95338106D01*
X255903261Y-95286739D01*
X255786204Y-95199111D01*
X255649203Y-95148011D01*
X255588654Y-95141500D01*
X255588638Y-95141500D01*
X253791362Y-95141500D01*
X253791345Y-95141500D01*
X253730797Y-95148011D01*
X253730795Y-95148011D01*
X253593795Y-95199111D01*
X253476739Y-95286739D01*
X253389111Y-95403795D01*
X253338011Y-95540795D01*
X253338011Y-95540797D01*
X253331500Y-95601345D01*
X111962700Y-95601345D01*
X111962700Y-87462783D01*
X111962700Y-87462782D01*
X111951206Y-87435033D01*
X111929967Y-87413794D01*
X111902218Y-87402300D01*
X111902217Y-87402300D01*
X100224638Y-87402300D01*
X100157599Y-87382615D01*
X100111844Y-87329811D01*
X100100638Y-87278463D01*
X100100575Y-87230827D01*
X100090737Y-79744020D01*
X133808900Y-79744020D01*
X133808900Y-81541329D01*
X133815411Y-81601877D01*
X133815411Y-81601879D01*
X133856956Y-81713261D01*
X133866511Y-81738879D01*
X133954139Y-81855936D01*
X134071196Y-81943564D01*
X134208199Y-81994664D01*
X134235450Y-81997593D01*
X134268745Y-82001174D01*
X134268762Y-82001175D01*
X134288092Y-82001175D01*
X134355131Y-82020860D01*
X134375773Y-82037494D01*
X135037991Y-82699712D01*
X134974407Y-82716750D01*
X134860393Y-82782576D01*
X134767301Y-82875668D01*
X134701475Y-82989682D01*
X134684437Y-83053266D01*
X134052128Y-82420957D01*
X134052127Y-82420957D01*
X134012780Y-82475114D01*
X133916304Y-82664457D01*
X133850642Y-82866544D01*
X133850642Y-82866547D01*
X133817400Y-83076428D01*
X133817400Y-83288921D01*
X133850642Y-83498802D01*
X133850642Y-83498805D01*
X133916304Y-83700892D01*
X134012775Y-83890225D01*
X134052128Y-83944391D01*
X134684437Y-83312083D01*
X134701475Y-83375668D01*
X134767301Y-83489682D01*
X134860393Y-83582774D01*
X134974407Y-83648600D01*
X135037990Y-83665637D01*
X134405682Y-84297944D01*
X134405682Y-84297945D01*
X134459849Y-84337299D01*
X134460082Y-84337418D01*
X134460155Y-84337487D01*
X134464004Y-84339846D01*
X134463508Y-84340654D01*
X134510879Y-84385391D01*
X134527675Y-84453212D01*
X134505139Y-84519347D01*
X134460093Y-84558384D01*
X134455394Y-84560778D01*
X134282393Y-84686471D01*
X134131196Y-84837668D01*
X134005506Y-85010665D01*
X133908427Y-85201191D01*
X133908426Y-85201194D01*
X133842351Y-85404557D01*
X133808900Y-85615759D01*
X133808900Y-85829590D01*
X133842351Y-86040792D01*
X133908426Y-86244155D01*
X133908427Y-86244158D01*
X133966493Y-86358117D01*
X134005506Y-86434684D01*
X134131194Y-86607679D01*
X134282396Y-86758881D01*
X134387153Y-86834991D01*
X134455391Y-86884569D01*
X134459273Y-86886948D01*
X134506148Y-86938761D01*
X134517569Y-87007691D01*
X134489912Y-87071853D01*
X134459273Y-87098402D01*
X134455391Y-87100780D01*
X134282393Y-87226471D01*
X134131196Y-87377668D01*
X134005506Y-87550665D01*
X133908427Y-87741191D01*
X133908426Y-87741194D01*
X133842351Y-87944557D01*
X133808900Y-88155759D01*
X133808900Y-88369590D01*
X133842351Y-88580792D01*
X133908426Y-88784155D01*
X133908427Y-88784158D01*
X133966493Y-88898117D01*
X134005506Y-88974684D01*
X134131194Y-89147679D01*
X134282396Y-89298881D01*
X134455391Y-89424569D01*
X134534749Y-89465004D01*
X134645916Y-89521647D01*
X134645919Y-89521648D01*
X134747600Y-89554685D01*
X134849284Y-89587724D01*
X135060484Y-89621175D01*
X135060485Y-89621175D01*
X135274315Y-89621175D01*
X135274316Y-89621175D01*
X135485516Y-89587724D01*
X135688883Y-89521647D01*
X135879409Y-89424569D01*
X136052404Y-89298881D01*
X136203606Y-89147679D01*
X136329294Y-88974684D01*
X136426372Y-88784158D01*
X136492449Y-88580791D01*
X136525900Y-88369591D01*
X136525900Y-88155759D01*
X136492449Y-87944559D01*
X136426372Y-87741192D01*
X136426372Y-87741191D01*
X136329293Y-87550665D01*
X136203606Y-87377671D01*
X136052404Y-87226469D01*
X135879409Y-87100781D01*
X135879405Y-87100778D01*
X135875532Y-87098405D01*
X135828654Y-87046595D01*
X135817229Y-86977666D01*
X135844883Y-86913502D01*
X135875532Y-86886945D01*
X135879405Y-86884571D01*
X135879404Y-86884571D01*
X135879409Y-86884569D01*
X136052404Y-86758881D01*
X136203606Y-86607679D01*
X136329294Y-86434684D01*
X136426372Y-86244158D01*
X136492449Y-86040791D01*
X136525900Y-85829591D01*
X136525900Y-85615759D01*
X136492449Y-85404559D01*
X136426372Y-85201192D01*
X136426372Y-85201191D01*
X136329293Y-85010665D01*
X136203606Y-84837671D01*
X136052404Y-84686469D01*
X135879409Y-84560781D01*
X135879410Y-84560781D01*
X135879408Y-84560780D01*
X135874711Y-84558387D01*
X135823917Y-84510410D01*
X135807124Y-84442589D01*
X135829664Y-84376455D01*
X135871190Y-84340476D01*
X135870802Y-84339843D01*
X135874629Y-84337497D01*
X135874727Y-84337413D01*
X135874956Y-84337296D01*
X135929116Y-84297945D01*
X135929117Y-84297945D01*
X135296808Y-83665637D01*
X135360393Y-83648600D01*
X135474407Y-83582774D01*
X135567499Y-83489682D01*
X135633325Y-83375668D01*
X135650362Y-83312084D01*
X136282670Y-83944392D01*
X136282670Y-83944391D01*
X136322022Y-83890229D01*
X136418495Y-83700892D01*
X136484157Y-83498805D01*
X136484157Y-83498802D01*
X136504640Y-83369483D01*
X136517400Y-83288920D01*
X136517400Y-83076428D01*
X136484157Y-82866547D01*
X136484157Y-82866544D01*
X136418495Y-82664457D01*
X136322024Y-82475124D01*
X136282670Y-82420957D01*
X136282669Y-82420957D01*
X135650362Y-83053265D01*
X135633325Y-82989682D01*
X135567499Y-82875668D01*
X135474407Y-82782576D01*
X135360393Y-82716750D01*
X135296809Y-82699712D01*
X135959026Y-82037494D01*
X136020349Y-82004009D01*
X136046707Y-82001175D01*
X136066038Y-82001175D01*
X136066054Y-82001174D01*
X136093092Y-81998266D01*
X136126601Y-81994664D01*
X136263604Y-81943564D01*
X136380661Y-81855936D01*
X136468289Y-81738879D01*
X136519389Y-81601876D01*
X136522991Y-81568367D01*
X136525899Y-81541329D01*
X136525900Y-81541312D01*
X136525900Y-80061345D01*
X162141500Y-80061345D01*
X162141500Y-81858654D01*
X162148011Y-81919202D01*
X162148011Y-81919204D01*
X162178586Y-82001175D01*
X162199111Y-82056204D01*
X162286739Y-82173261D01*
X162403796Y-82260889D01*
X162540799Y-82311989D01*
X162568050Y-82314918D01*
X162601345Y-82318499D01*
X162601362Y-82318500D01*
X162620692Y-82318500D01*
X162687731Y-82338185D01*
X162708373Y-82354819D01*
X163370591Y-83017037D01*
X163307007Y-83034075D01*
X163192993Y-83099901D01*
X163099901Y-83192993D01*
X163034075Y-83307007D01*
X163017037Y-83370591D01*
X162384728Y-82738282D01*
X162384727Y-82738282D01*
X162345380Y-82792439D01*
X162248904Y-82981782D01*
X162183242Y-83183869D01*
X162183242Y-83183872D01*
X162150000Y-83393753D01*
X162150000Y-83606246D01*
X162183242Y-83816127D01*
X162183242Y-83816130D01*
X162248904Y-84018217D01*
X162345375Y-84207550D01*
X162384728Y-84261716D01*
X163017037Y-83629408D01*
X163034075Y-83692993D01*
X163099901Y-83807007D01*
X163192993Y-83900099D01*
X163307007Y-83965925D01*
X163370590Y-83982962D01*
X162738282Y-84615269D01*
X162738282Y-84615270D01*
X162792449Y-84654624D01*
X162792682Y-84654743D01*
X162792755Y-84654812D01*
X162796604Y-84657171D01*
X162796108Y-84657979D01*
X162843479Y-84702716D01*
X162860275Y-84770537D01*
X162837739Y-84836672D01*
X162792693Y-84875709D01*
X162787994Y-84878103D01*
X162614993Y-85003796D01*
X162463796Y-85154993D01*
X162338106Y-85327990D01*
X162241027Y-85518516D01*
X162241026Y-85518519D01*
X162174951Y-85721882D01*
X162141500Y-85933084D01*
X162141500Y-86146915D01*
X162174951Y-86358117D01*
X162241026Y-86561480D01*
X162241027Y-86561483D01*
X162332952Y-86741894D01*
X162338106Y-86752009D01*
X162463794Y-86925004D01*
X162614996Y-87076206D01*
X162787991Y-87201894D01*
X162791873Y-87204273D01*
X162838748Y-87256086D01*
X162850169Y-87325016D01*
X162822512Y-87389178D01*
X162791873Y-87415727D01*
X162787991Y-87418105D01*
X162614993Y-87543796D01*
X162463796Y-87694993D01*
X162338106Y-87867990D01*
X162241027Y-88058516D01*
X162241026Y-88058519D01*
X162174951Y-88261882D01*
X162141500Y-88473084D01*
X162141500Y-88686915D01*
X162174951Y-88898117D01*
X162241026Y-89101480D01*
X162241027Y-89101483D01*
X162327392Y-89270982D01*
X162338106Y-89292009D01*
X162463794Y-89465004D01*
X162614996Y-89616206D01*
X162787991Y-89741894D01*
X162880832Y-89789199D01*
X162978516Y-89838972D01*
X162978519Y-89838973D01*
X163080200Y-89872010D01*
X163181884Y-89905049D01*
X163393084Y-89938500D01*
X163393085Y-89938500D01*
X163606915Y-89938500D01*
X163606916Y-89938500D01*
X163818116Y-89905049D01*
X164021483Y-89838972D01*
X164212009Y-89741894D01*
X164385004Y-89616206D01*
X164536206Y-89465004D01*
X164661894Y-89292009D01*
X164758972Y-89101483D01*
X164825049Y-88898116D01*
X164858500Y-88686916D01*
X164858500Y-88473084D01*
X164825049Y-88261884D01*
X164758972Y-88058517D01*
X164758972Y-88058516D01*
X164661893Y-87867990D01*
X164536206Y-87694996D01*
X164385004Y-87543794D01*
X164212009Y-87418106D01*
X164212005Y-87418103D01*
X164208132Y-87415730D01*
X164161254Y-87363920D01*
X164149829Y-87294991D01*
X164177483Y-87230827D01*
X164208132Y-87204270D01*
X164212005Y-87201896D01*
X164212004Y-87201896D01*
X164212009Y-87201894D01*
X164385004Y-87076206D01*
X164536206Y-86925004D01*
X164661894Y-86752009D01*
X164758972Y-86561483D01*
X164825049Y-86358116D01*
X164858500Y-86146916D01*
X164858500Y-85933084D01*
X164825049Y-85721884D01*
X164758972Y-85518517D01*
X164758972Y-85518516D01*
X164661893Y-85327990D01*
X164536206Y-85154996D01*
X164385004Y-85003794D01*
X164212009Y-84878106D01*
X164212010Y-84878106D01*
X164212008Y-84878105D01*
X164207311Y-84875712D01*
X164156517Y-84827735D01*
X164139724Y-84759914D01*
X164162264Y-84693780D01*
X164203790Y-84657801D01*
X164203402Y-84657168D01*
X164207229Y-84654822D01*
X164207327Y-84654738D01*
X164207556Y-84654621D01*
X164261716Y-84615270D01*
X164261717Y-84615270D01*
X163629408Y-83982962D01*
X163692993Y-83965925D01*
X163807007Y-83900099D01*
X163900099Y-83807007D01*
X163965925Y-83692993D01*
X163982962Y-83629408D01*
X164615270Y-84261717D01*
X164615270Y-84261716D01*
X164654622Y-84207554D01*
X164751095Y-84018217D01*
X164816757Y-83816130D01*
X164816757Y-83816127D01*
X164850000Y-83606246D01*
X164850000Y-83393753D01*
X164816757Y-83183872D01*
X164816757Y-83183869D01*
X164751096Y-82981785D01*
X164654624Y-82792449D01*
X164615270Y-82738282D01*
X164615269Y-82738282D01*
X163982962Y-83370590D01*
X163965925Y-83307007D01*
X163900099Y-83192993D01*
X163807007Y-83099901D01*
X163692993Y-83034075D01*
X163629409Y-83017037D01*
X164291626Y-82354819D01*
X164352949Y-82321334D01*
X164379307Y-82318500D01*
X164398638Y-82318500D01*
X164398654Y-82318499D01*
X164425692Y-82315591D01*
X164459201Y-82311989D01*
X164596204Y-82260889D01*
X164713261Y-82173261D01*
X164800889Y-82056204D01*
X164851989Y-81919201D01*
X164856399Y-81878185D01*
X164858499Y-81858654D01*
X164858500Y-81858637D01*
X164858500Y-80061362D01*
X164858499Y-80061345D01*
X164855157Y-80030270D01*
X164851989Y-80000799D01*
X164800889Y-79863796D01*
X164713261Y-79746739D01*
X164596204Y-79659111D01*
X164459203Y-79608011D01*
X164398654Y-79601500D01*
X164398638Y-79601500D01*
X162601362Y-79601500D01*
X162601345Y-79601500D01*
X162540797Y-79608011D01*
X162540795Y-79608011D01*
X162403795Y-79659111D01*
X162286739Y-79746739D01*
X162199111Y-79863795D01*
X162148011Y-80000795D01*
X162148011Y-80000797D01*
X162141500Y-80061345D01*
X136525900Y-80061345D01*
X136525900Y-79744037D01*
X136525899Y-79744020D01*
X136520876Y-79697308D01*
X136519389Y-79683474D01*
X136488756Y-79601345D01*
X199141500Y-79601345D01*
X199141500Y-81398654D01*
X199148011Y-81459202D01*
X199148011Y-81459204D01*
X199178643Y-81541329D01*
X199199111Y-81596204D01*
X199286739Y-81713261D01*
X199403796Y-81800889D01*
X199540799Y-81851989D01*
X199568050Y-81854918D01*
X199601345Y-81858499D01*
X199601362Y-81858500D01*
X199620692Y-81858500D01*
X199687731Y-81878185D01*
X199708373Y-81894819D01*
X200370591Y-82557037D01*
X200307007Y-82574075D01*
X200192993Y-82639901D01*
X200099901Y-82732993D01*
X200034075Y-82847007D01*
X200017037Y-82910591D01*
X199384728Y-82278282D01*
X199384727Y-82278282D01*
X199345380Y-82332439D01*
X199248904Y-82521782D01*
X199183242Y-82723869D01*
X199183242Y-82723872D01*
X199150000Y-82933753D01*
X199150000Y-83146246D01*
X199183242Y-83356127D01*
X199183242Y-83356130D01*
X199248904Y-83558217D01*
X199345375Y-83747550D01*
X199384728Y-83801716D01*
X200017037Y-83169408D01*
X200034075Y-83232993D01*
X200099901Y-83347007D01*
X200192993Y-83440099D01*
X200307007Y-83505925D01*
X200370590Y-83522962D01*
X199738282Y-84155269D01*
X199738282Y-84155270D01*
X199792449Y-84194624D01*
X199792682Y-84194743D01*
X199792755Y-84194812D01*
X199796604Y-84197171D01*
X199796108Y-84197979D01*
X199843479Y-84242716D01*
X199860275Y-84310537D01*
X199837739Y-84376672D01*
X199792693Y-84415709D01*
X199787994Y-84418103D01*
X199614993Y-84543796D01*
X199463796Y-84694993D01*
X199338106Y-84867990D01*
X199241027Y-85058516D01*
X199241026Y-85058519D01*
X199174951Y-85261882D01*
X199152354Y-85404557D01*
X199141500Y-85473084D01*
X199141500Y-85686916D01*
X199158225Y-85792516D01*
X199174951Y-85898117D01*
X199241026Y-86101480D01*
X199241027Y-86101483D01*
X199337080Y-86289995D01*
X199338106Y-86292009D01*
X199463794Y-86465004D01*
X199614996Y-86616206D01*
X199787991Y-86741894D01*
X199791873Y-86744273D01*
X199838748Y-86796086D01*
X199850169Y-86865016D01*
X199822512Y-86929178D01*
X199791873Y-86955727D01*
X199787991Y-86958105D01*
X199614993Y-87083796D01*
X199463796Y-87234993D01*
X199338106Y-87407990D01*
X199241027Y-87598516D01*
X199241026Y-87598519D01*
X199174951Y-87801882D01*
X199152354Y-87944557D01*
X199141500Y-88013084D01*
X199141500Y-88226916D01*
X199158225Y-88332516D01*
X199174951Y-88438117D01*
X199241026Y-88641480D01*
X199241027Y-88641483D01*
X199338106Y-88832009D01*
X199463794Y-89005004D01*
X199614996Y-89156206D01*
X199787991Y-89281894D01*
X199821330Y-89298881D01*
X199978516Y-89378972D01*
X199978519Y-89378973D01*
X200009691Y-89389101D01*
X200181884Y-89445049D01*
X200393084Y-89478500D01*
X200393085Y-89478500D01*
X200606915Y-89478500D01*
X200606916Y-89478500D01*
X200818116Y-89445049D01*
X201021483Y-89378972D01*
X201212009Y-89281894D01*
X201385004Y-89156206D01*
X201536206Y-89005004D01*
X201661894Y-88832009D01*
X201758972Y-88641483D01*
X201825049Y-88438116D01*
X201858500Y-88226916D01*
X201858500Y-88013084D01*
X201825049Y-87801884D01*
X201758972Y-87598517D01*
X201758972Y-87598516D01*
X201709507Y-87501438D01*
X201661894Y-87407991D01*
X201536206Y-87234996D01*
X201385004Y-87083794D01*
X201212009Y-86958106D01*
X201212005Y-86958103D01*
X201208132Y-86955730D01*
X201161254Y-86903920D01*
X201149829Y-86834991D01*
X201177483Y-86770827D01*
X201208132Y-86744270D01*
X201212005Y-86741896D01*
X201212004Y-86741896D01*
X201212009Y-86741894D01*
X201385004Y-86616206D01*
X201536206Y-86465004D01*
X201619365Y-86350545D01*
X271463100Y-86350545D01*
X271463100Y-88147854D01*
X271469611Y-88208402D01*
X271469611Y-88208404D01*
X271489559Y-88261884D01*
X271520711Y-88345404D01*
X271608339Y-88462461D01*
X271725396Y-88550089D01*
X271862399Y-88601189D01*
X271889650Y-88604118D01*
X271922945Y-88607699D01*
X271922962Y-88607700D01*
X271942292Y-88607700D01*
X272009331Y-88627385D01*
X272029973Y-88644019D01*
X272692191Y-89306237D01*
X272628607Y-89323275D01*
X272514593Y-89389101D01*
X272421501Y-89482193D01*
X272355675Y-89596207D01*
X272338637Y-89659791D01*
X271706328Y-89027482D01*
X271706327Y-89027482D01*
X271666980Y-89081639D01*
X271570504Y-89270982D01*
X271504842Y-89473069D01*
X271504842Y-89473072D01*
X271471600Y-89682953D01*
X271471600Y-89895446D01*
X271504842Y-90105327D01*
X271504842Y-90105330D01*
X271570504Y-90307417D01*
X271666975Y-90496750D01*
X271706328Y-90550916D01*
X272338636Y-89918607D01*
X272355675Y-89982193D01*
X272421501Y-90096207D01*
X272514593Y-90189299D01*
X272628607Y-90255125D01*
X272692190Y-90272162D01*
X272059882Y-90904469D01*
X272059882Y-90904470D01*
X272114049Y-90943824D01*
X272114282Y-90943943D01*
X272114355Y-90944012D01*
X272118204Y-90946371D01*
X272117708Y-90947179D01*
X272165079Y-90991916D01*
X272181875Y-91059737D01*
X272159339Y-91125872D01*
X272114293Y-91164909D01*
X272109594Y-91167303D01*
X271936593Y-91292996D01*
X271785396Y-91444193D01*
X271659706Y-91617190D01*
X271562627Y-91807716D01*
X271562626Y-91807719D01*
X271496551Y-92011082D01*
X271463100Y-92222284D01*
X271463100Y-92436115D01*
X271496551Y-92647317D01*
X271562626Y-92850680D01*
X271562627Y-92850683D01*
X271659706Y-93041209D01*
X271785394Y-93214204D01*
X271936596Y-93365406D01*
X272109591Y-93491094D01*
X272113473Y-93493473D01*
X272160348Y-93545286D01*
X272171769Y-93614216D01*
X272144112Y-93678378D01*
X272113473Y-93704927D01*
X272109591Y-93707305D01*
X271936593Y-93832996D01*
X271785396Y-93984193D01*
X271659706Y-94157190D01*
X271562627Y-94347716D01*
X271562626Y-94347719D01*
X271496551Y-94551082D01*
X271463100Y-94762284D01*
X271463100Y-94976115D01*
X271496551Y-95187317D01*
X271562626Y-95390680D01*
X271562627Y-95390683D01*
X271601174Y-95466334D01*
X271659706Y-95581209D01*
X271785394Y-95754204D01*
X271936596Y-95905406D01*
X272109591Y-96031094D01*
X272115442Y-96034075D01*
X272300116Y-96128172D01*
X272300119Y-96128173D01*
X272395339Y-96159111D01*
X272503484Y-96194249D01*
X272714684Y-96227700D01*
X272714685Y-96227700D01*
X272928515Y-96227700D01*
X272928516Y-96227700D01*
X273139716Y-96194249D01*
X273343083Y-96128172D01*
X273533609Y-96031094D01*
X273706604Y-95905406D01*
X273857806Y-95754204D01*
X273983494Y-95581209D01*
X274080572Y-95390683D01*
X274146649Y-95187316D01*
X274180100Y-94976116D01*
X274180100Y-94762284D01*
X274146649Y-94551084D01*
X274080572Y-94347717D01*
X274080572Y-94347716D01*
X273983493Y-94157190D01*
X273857806Y-93984196D01*
X273706604Y-93832994D01*
X273533609Y-93707306D01*
X273533605Y-93707303D01*
X273529732Y-93704930D01*
X273482854Y-93653120D01*
X273471429Y-93584191D01*
X273499083Y-93520027D01*
X273529732Y-93493470D01*
X273533605Y-93491096D01*
X273533604Y-93491096D01*
X273533609Y-93491094D01*
X273706604Y-93365406D01*
X273857806Y-93214204D01*
X273983494Y-93041209D01*
X274080572Y-92850683D01*
X274146649Y-92647316D01*
X274180100Y-92436116D01*
X274180100Y-92222284D01*
X274146649Y-92011084D01*
X274080572Y-91807717D01*
X274080572Y-91807716D01*
X273983493Y-91617190D01*
X273857806Y-91444196D01*
X273706604Y-91292994D01*
X273533609Y-91167306D01*
X273533610Y-91167306D01*
X273533608Y-91167305D01*
X273528911Y-91164912D01*
X273478117Y-91116935D01*
X273461324Y-91049114D01*
X273483864Y-90982980D01*
X273525390Y-90947001D01*
X273525002Y-90946368D01*
X273528829Y-90944022D01*
X273528927Y-90943938D01*
X273529156Y-90943821D01*
X273583316Y-90904470D01*
X273583317Y-90904470D01*
X272951008Y-90272162D01*
X273014593Y-90255125D01*
X273128607Y-90189299D01*
X273221699Y-90096207D01*
X273287525Y-89982193D01*
X273304562Y-89918609D01*
X273936870Y-90550917D01*
X273936870Y-90550916D01*
X273976222Y-90496754D01*
X274072695Y-90307417D01*
X274138357Y-90105330D01*
X274138357Y-90105327D01*
X274171600Y-89895446D01*
X274171600Y-89682953D01*
X274138357Y-89473072D01*
X274138357Y-89473069D01*
X274072695Y-89270982D01*
X273976224Y-89081649D01*
X273936870Y-89027482D01*
X273936869Y-89027482D01*
X273304562Y-89659790D01*
X273287525Y-89596207D01*
X273221699Y-89482193D01*
X273128607Y-89389101D01*
X273014593Y-89323275D01*
X272951009Y-89306237D01*
X273613226Y-88644019D01*
X273674549Y-88610534D01*
X273700907Y-88607700D01*
X273720238Y-88607700D01*
X273720254Y-88607699D01*
X273747292Y-88604791D01*
X273780801Y-88601189D01*
X273917804Y-88550089D01*
X274034861Y-88462461D01*
X274122489Y-88345404D01*
X274173589Y-88208401D01*
X274177191Y-88174892D01*
X274180099Y-88147854D01*
X274180100Y-88147837D01*
X274180100Y-86350562D01*
X274180099Y-86350545D01*
X274176757Y-86319470D01*
X274173589Y-86289999D01*
X274122489Y-86152996D01*
X274034861Y-86035939D01*
X273917804Y-85948311D01*
X273780803Y-85897211D01*
X273720254Y-85890700D01*
X273720238Y-85890700D01*
X271922962Y-85890700D01*
X271922945Y-85890700D01*
X271862397Y-85897211D01*
X271862395Y-85897211D01*
X271725395Y-85948311D01*
X271608339Y-86035939D01*
X271520711Y-86152995D01*
X271469611Y-86289995D01*
X271469611Y-86289997D01*
X271463100Y-86350545D01*
X201619365Y-86350545D01*
X201661894Y-86292009D01*
X201758972Y-86101483D01*
X201825049Y-85898116D01*
X201858500Y-85686916D01*
X201858500Y-85473084D01*
X201825049Y-85261884D01*
X201758972Y-85058517D01*
X201758972Y-85058516D01*
X201709507Y-84961438D01*
X201661894Y-84867991D01*
X201536206Y-84694996D01*
X201385004Y-84543794D01*
X201212009Y-84418106D01*
X201212010Y-84418106D01*
X201212008Y-84418105D01*
X201207311Y-84415712D01*
X201156517Y-84367735D01*
X201139724Y-84299914D01*
X201162264Y-84233780D01*
X201203790Y-84197801D01*
X201203402Y-84197168D01*
X201207229Y-84194822D01*
X201207327Y-84194738D01*
X201207556Y-84194621D01*
X201261716Y-84155270D01*
X201261717Y-84155270D01*
X200629408Y-83522962D01*
X200692993Y-83505925D01*
X200807007Y-83440099D01*
X200900099Y-83347007D01*
X200965925Y-83232993D01*
X200982962Y-83169408D01*
X201615270Y-83801717D01*
X201615270Y-83801716D01*
X201654622Y-83747554D01*
X201751095Y-83558217D01*
X201816757Y-83356130D01*
X201816757Y-83356127D01*
X201850000Y-83146246D01*
X201850000Y-82933753D01*
X201816757Y-82723872D01*
X201816757Y-82723869D01*
X201751095Y-82521782D01*
X201654624Y-82332449D01*
X201615270Y-82278282D01*
X201615269Y-82278282D01*
X200982962Y-82910590D01*
X200965925Y-82847007D01*
X200900099Y-82732993D01*
X200807007Y-82639901D01*
X200692993Y-82574075D01*
X200629409Y-82557037D01*
X201291626Y-81894819D01*
X201352949Y-81861334D01*
X201379307Y-81858500D01*
X201398638Y-81858500D01*
X201398654Y-81858499D01*
X201425692Y-81855591D01*
X201459201Y-81851989D01*
X201596204Y-81800889D01*
X201713261Y-81713261D01*
X201800889Y-81596204D01*
X201851989Y-81459201D01*
X201855591Y-81425692D01*
X201858499Y-81398654D01*
X201858500Y-81398637D01*
X201858500Y-79601362D01*
X201858499Y-79601345D01*
X201855157Y-79570270D01*
X201851989Y-79540799D01*
X201800889Y-79403796D01*
X201713261Y-79286739D01*
X201596204Y-79199111D01*
X201459203Y-79148011D01*
X201398654Y-79141500D01*
X201398638Y-79141500D01*
X199601362Y-79141500D01*
X199601345Y-79141500D01*
X199540797Y-79148011D01*
X199540795Y-79148011D01*
X199403795Y-79199111D01*
X199286739Y-79286739D01*
X199199111Y-79403795D01*
X199148011Y-79540795D01*
X199148011Y-79540797D01*
X199141500Y-79601345D01*
X136488756Y-79601345D01*
X136468289Y-79546471D01*
X136380661Y-79429414D01*
X136263604Y-79341786D01*
X136126603Y-79290686D01*
X136066054Y-79284175D01*
X136066038Y-79284175D01*
X134268762Y-79284175D01*
X134268745Y-79284175D01*
X134208197Y-79290686D01*
X134208195Y-79290686D01*
X134071195Y-79341786D01*
X133954139Y-79429414D01*
X133866511Y-79546470D01*
X133815411Y-79683470D01*
X133815411Y-79683472D01*
X133808900Y-79744020D01*
X100090737Y-79744020D01*
X100078474Y-70412220D01*
X231886900Y-70412220D01*
X231886900Y-72209529D01*
X231893411Y-72270077D01*
X231893411Y-72270079D01*
X231944511Y-72407079D01*
X232032139Y-72524136D01*
X232149196Y-72611764D01*
X232286199Y-72662864D01*
X232313450Y-72665793D01*
X232346745Y-72669374D01*
X232346762Y-72669375D01*
X232366092Y-72669375D01*
X232433131Y-72689060D01*
X232453773Y-72705694D01*
X233115991Y-73367912D01*
X233052407Y-73384950D01*
X232938393Y-73450776D01*
X232845301Y-73543868D01*
X232779475Y-73657882D01*
X232762437Y-73721466D01*
X232130128Y-73089157D01*
X232130127Y-73089157D01*
X232090780Y-73143314D01*
X231994304Y-73332657D01*
X231928642Y-73534744D01*
X231928642Y-73534747D01*
X231895400Y-73744628D01*
X231895400Y-73957121D01*
X231928642Y-74167002D01*
X231928642Y-74167005D01*
X231994304Y-74369092D01*
X232090775Y-74558425D01*
X232130128Y-74612591D01*
X232762437Y-73980283D01*
X232779475Y-74043868D01*
X232845301Y-74157882D01*
X232938393Y-74250974D01*
X233052407Y-74316800D01*
X233115990Y-74333837D01*
X232483682Y-74966144D01*
X232483682Y-74966145D01*
X232537849Y-75005499D01*
X232538082Y-75005618D01*
X232538155Y-75005687D01*
X232542004Y-75008046D01*
X232541508Y-75008854D01*
X232588879Y-75053591D01*
X232605675Y-75121412D01*
X232583139Y-75187547D01*
X232538093Y-75226584D01*
X232533394Y-75228978D01*
X232360393Y-75354671D01*
X232209196Y-75505868D01*
X232083506Y-75678865D01*
X231986427Y-75869391D01*
X231986426Y-75869394D01*
X231920351Y-76072757D01*
X231886900Y-76283959D01*
X231886900Y-76497790D01*
X231920351Y-76708992D01*
X231986426Y-76912355D01*
X231986427Y-76912358D01*
X232083506Y-77102884D01*
X232209194Y-77275879D01*
X232360396Y-77427081D01*
X232486414Y-77518638D01*
X232533391Y-77552769D01*
X232537273Y-77555148D01*
X232584148Y-77606961D01*
X232595569Y-77675891D01*
X232567912Y-77740053D01*
X232537273Y-77766602D01*
X232533391Y-77768980D01*
X232360393Y-77894671D01*
X232209196Y-78045868D01*
X232083506Y-78218865D01*
X231986427Y-78409391D01*
X231986426Y-78409394D01*
X231920351Y-78612757D01*
X231886900Y-78823959D01*
X231886900Y-79037790D01*
X231920351Y-79248992D01*
X231986426Y-79452355D01*
X231986427Y-79452358D01*
X232034381Y-79546471D01*
X232083506Y-79642884D01*
X232209194Y-79815879D01*
X232360396Y-79967081D01*
X232533391Y-80092769D01*
X232626838Y-80140382D01*
X232723916Y-80189847D01*
X232723919Y-80189848D01*
X232825600Y-80222885D01*
X232927284Y-80255924D01*
X233138484Y-80289375D01*
X233138485Y-80289375D01*
X233352315Y-80289375D01*
X233352316Y-80289375D01*
X233563516Y-80255924D01*
X233766883Y-80189847D01*
X233957409Y-80092769D01*
X234130404Y-79967081D01*
X234281606Y-79815879D01*
X234407294Y-79642884D01*
X234504372Y-79452358D01*
X234570449Y-79248991D01*
X234603900Y-79037791D01*
X234603900Y-78823959D01*
X234570449Y-78612759D01*
X234504372Y-78409392D01*
X234504372Y-78409391D01*
X234407293Y-78218865D01*
X234281606Y-78045871D01*
X234130404Y-77894669D01*
X233957409Y-77768981D01*
X233957405Y-77768978D01*
X233953532Y-77766605D01*
X233906654Y-77714795D01*
X233895229Y-77645866D01*
X233922883Y-77581702D01*
X233953532Y-77555145D01*
X233957405Y-77552771D01*
X233957404Y-77552771D01*
X233957409Y-77552769D01*
X234130404Y-77427081D01*
X234281606Y-77275879D01*
X234407294Y-77102884D01*
X234504372Y-76912358D01*
X234570449Y-76708991D01*
X234603900Y-76497791D01*
X234603900Y-76283959D01*
X234570449Y-76072759D01*
X234504372Y-75869392D01*
X234504367Y-75869381D01*
X234455940Y-75774338D01*
X234455938Y-75774336D01*
X234407294Y-75678866D01*
X234281606Y-75505871D01*
X234130404Y-75354669D01*
X233957409Y-75228981D01*
X233957410Y-75228981D01*
X233957408Y-75228980D01*
X233952711Y-75226587D01*
X233901917Y-75178610D01*
X233885124Y-75110789D01*
X233907664Y-75044655D01*
X233949190Y-75008676D01*
X233948802Y-75008043D01*
X233952629Y-75005697D01*
X233952727Y-75005613D01*
X233952956Y-75005496D01*
X234007116Y-74966145D01*
X234007117Y-74966145D01*
X233374808Y-74333837D01*
X233438393Y-74316800D01*
X233552407Y-74250974D01*
X233645499Y-74157882D01*
X233711325Y-74043868D01*
X233728362Y-73980283D01*
X234360670Y-74612592D01*
X234360670Y-74612591D01*
X234400022Y-74558429D01*
X234496495Y-74369092D01*
X234562157Y-74167005D01*
X234562157Y-74167002D01*
X234595399Y-73957123D01*
X234595400Y-73957118D01*
X234595400Y-73744628D01*
X234562157Y-73534747D01*
X234562157Y-73534744D01*
X234496495Y-73332657D01*
X234400024Y-73143324D01*
X234360670Y-73089157D01*
X234360669Y-73089157D01*
X233728362Y-73721465D01*
X233711325Y-73657882D01*
X233645499Y-73543868D01*
X233552407Y-73450776D01*
X233438393Y-73384950D01*
X233374809Y-73367912D01*
X234037026Y-72705694D01*
X234098349Y-72672209D01*
X234124707Y-72669375D01*
X234144038Y-72669375D01*
X234144054Y-72669374D01*
X234171092Y-72666466D01*
X234204601Y-72662864D01*
X234341604Y-72611764D01*
X234458661Y-72524136D01*
X234546289Y-72407079D01*
X234597389Y-72270076D01*
X234600991Y-72236567D01*
X234603899Y-72209529D01*
X234603900Y-72209512D01*
X234603900Y-70412237D01*
X234603899Y-70412220D01*
X234600231Y-70378106D01*
X234597389Y-70351674D01*
X234596458Y-70349178D01*
X234566926Y-70270000D01*
X234546289Y-70214671D01*
X234458661Y-70097614D01*
X234341604Y-70009986D01*
X234204603Y-69958886D01*
X234144054Y-69952375D01*
X234144038Y-69952375D01*
X232346762Y-69952375D01*
X232346745Y-69952375D01*
X232286197Y-69958886D01*
X232286195Y-69958886D01*
X232149195Y-70009986D01*
X232032139Y-70097614D01*
X231944511Y-70214670D01*
X231893411Y-70351670D01*
X231893411Y-70351672D01*
X231886900Y-70412220D01*
X100078474Y-70412220D01*
X100076478Y-68893084D01*
X269141500Y-68893084D01*
X269141500Y-69106915D01*
X269174951Y-69318117D01*
X269241026Y-69521480D01*
X269241027Y-69521483D01*
X269338106Y-69712009D01*
X269463794Y-69885004D01*
X269614996Y-70036206D01*
X269787991Y-70161894D01*
X269791873Y-70164273D01*
X269838748Y-70216086D01*
X269850169Y-70285016D01*
X269822512Y-70349178D01*
X269791873Y-70375727D01*
X269787991Y-70378105D01*
X269614993Y-70503796D01*
X269463796Y-70654993D01*
X269338106Y-70827990D01*
X269241027Y-71018516D01*
X269241026Y-71018519D01*
X269174951Y-71221882D01*
X269141500Y-71433084D01*
X269141500Y-71646915D01*
X269174951Y-71858117D01*
X269241026Y-72061480D01*
X269241027Y-72061483D01*
X269316453Y-72209513D01*
X269338106Y-72252009D01*
X269463794Y-72425004D01*
X269614996Y-72576206D01*
X269787991Y-72701894D01*
X269792680Y-72704283D01*
X269843478Y-72752254D01*
X269860276Y-72820074D01*
X269837742Y-72886210D01*
X269796205Y-72922209D01*
X269796590Y-72922838D01*
X269792804Y-72925157D01*
X269792702Y-72925246D01*
X269792449Y-72925374D01*
X269792440Y-72925380D01*
X269738282Y-72964727D01*
X269738282Y-72964728D01*
X270370591Y-73597037D01*
X270307007Y-73614075D01*
X270192993Y-73679901D01*
X270099901Y-73772993D01*
X270034075Y-73887007D01*
X270017037Y-73950590D01*
X269384728Y-73318282D01*
X269384727Y-73318282D01*
X269345380Y-73372439D01*
X269248904Y-73561782D01*
X269183242Y-73763869D01*
X269183242Y-73763872D01*
X269150000Y-73973753D01*
X269150000Y-74186246D01*
X269183242Y-74396127D01*
X269183242Y-74396130D01*
X269248904Y-74598217D01*
X269345375Y-74787550D01*
X269384728Y-74841716D01*
X270017037Y-74209408D01*
X270034075Y-74272993D01*
X270099901Y-74387007D01*
X270192993Y-74480099D01*
X270307007Y-74545925D01*
X270370591Y-74562962D01*
X269708371Y-75225181D01*
X269647048Y-75258666D01*
X269620690Y-75261500D01*
X269601345Y-75261500D01*
X269540797Y-75268011D01*
X269540795Y-75268011D01*
X269403795Y-75319111D01*
X269286739Y-75406739D01*
X269199111Y-75523795D01*
X269148011Y-75660795D01*
X269148011Y-75660797D01*
X269141500Y-75721345D01*
X269141500Y-77518654D01*
X269148011Y-77579202D01*
X269148011Y-77579204D01*
X269178474Y-77660875D01*
X269199111Y-77716204D01*
X269286739Y-77833261D01*
X269403796Y-77920889D01*
X269540799Y-77971989D01*
X269568050Y-77974918D01*
X269601345Y-77978499D01*
X269601362Y-77978500D01*
X271398638Y-77978500D01*
X271398654Y-77978499D01*
X271425692Y-77975591D01*
X271459201Y-77971989D01*
X271596204Y-77920889D01*
X271713261Y-77833261D01*
X271800889Y-77716204D01*
X271851989Y-77579201D01*
X271855591Y-77545692D01*
X271858499Y-77518654D01*
X271858500Y-77518637D01*
X271858500Y-75721362D01*
X271858499Y-75721345D01*
X271853931Y-75678865D01*
X271851989Y-75660799D01*
X271800889Y-75523796D01*
X271713261Y-75406739D01*
X271596204Y-75319111D01*
X271459203Y-75268011D01*
X271398654Y-75261500D01*
X271398638Y-75261500D01*
X271379309Y-75261500D01*
X271312270Y-75241815D01*
X271291628Y-75225181D01*
X270629408Y-74562962D01*
X270692993Y-74545925D01*
X270807007Y-74480099D01*
X270900099Y-74387007D01*
X270965925Y-74272993D01*
X270982962Y-74209408D01*
X271615270Y-74841717D01*
X271615270Y-74841716D01*
X271654622Y-74787554D01*
X271751095Y-74598217D01*
X271816757Y-74396130D01*
X271816757Y-74396127D01*
X271850000Y-74186246D01*
X271850000Y-73973753D01*
X271816757Y-73763872D01*
X271816757Y-73763869D01*
X271751095Y-73561782D01*
X271654624Y-73372449D01*
X271615270Y-73318282D01*
X271615269Y-73318282D01*
X270982962Y-73950590D01*
X270965925Y-73887007D01*
X270900099Y-73772993D01*
X270807007Y-73679901D01*
X270692993Y-73614075D01*
X270629409Y-73597037D01*
X271261716Y-72964728D01*
X271207547Y-72925373D01*
X271207545Y-72925371D01*
X271207308Y-72925251D01*
X271207234Y-72925181D01*
X271203396Y-72922829D01*
X271203890Y-72922022D01*
X271156515Y-72877274D01*
X271139724Y-72809451D01*
X271162266Y-72743318D01*
X271207319Y-72704283D01*
X271212009Y-72701894D01*
X271385004Y-72576206D01*
X271536206Y-72425004D01*
X271661894Y-72252009D01*
X271758972Y-72061483D01*
X271825049Y-71858116D01*
X271858500Y-71646916D01*
X271858500Y-71433084D01*
X271825049Y-71221884D01*
X271758972Y-71018517D01*
X271758972Y-71018516D01*
X271661893Y-70827990D01*
X271536206Y-70654996D01*
X271385004Y-70503794D01*
X271212009Y-70378106D01*
X271212005Y-70378103D01*
X271208132Y-70375730D01*
X271161254Y-70323920D01*
X271149829Y-70254991D01*
X271177483Y-70190827D01*
X271208132Y-70164270D01*
X271212005Y-70161896D01*
X271212004Y-70161896D01*
X271212009Y-70161894D01*
X271385004Y-70036206D01*
X271536206Y-69885004D01*
X271661894Y-69712009D01*
X271758972Y-69521483D01*
X271825049Y-69318116D01*
X271858500Y-69106916D01*
X271858500Y-68893084D01*
X271825049Y-68681884D01*
X271758972Y-68478517D01*
X271758972Y-68478516D01*
X271661893Y-68287990D01*
X271656813Y-68280998D01*
X271536206Y-68114996D01*
X271385004Y-67963794D01*
X271212009Y-67838106D01*
X271021483Y-67741027D01*
X271021480Y-67741026D01*
X270818117Y-67674951D01*
X270712516Y-67658225D01*
X270606916Y-67641500D01*
X270393084Y-67641500D01*
X270322684Y-67652650D01*
X270181882Y-67674951D01*
X269978519Y-67741026D01*
X269978516Y-67741027D01*
X269787990Y-67838106D01*
X269614993Y-67963796D01*
X269463796Y-68114993D01*
X269338106Y-68287990D01*
X269241027Y-68478516D01*
X269241026Y-68478519D01*
X269174951Y-68681882D01*
X269141500Y-68893084D01*
X100076478Y-68893084D01*
X100075762Y-68348062D01*
X100095359Y-68280998D01*
X100148102Y-68235173D01*
X100199762Y-68223900D01*
X109971816Y-68223900D01*
X109971818Y-68223900D01*
X109999567Y-68212406D01*
X110020806Y-68191167D01*
X110032300Y-68163418D01*
X110032300Y-57788420D01*
X150962500Y-57788420D01*
X150962500Y-59585729D01*
X150969011Y-59646277D01*
X150969011Y-59646279D01*
X151020111Y-59783279D01*
X151107739Y-59900336D01*
X151224796Y-59987964D01*
X151361799Y-60039064D01*
X151389050Y-60041993D01*
X151422345Y-60045574D01*
X151422362Y-60045575D01*
X151441692Y-60045575D01*
X151508731Y-60065260D01*
X151529373Y-60081894D01*
X152191591Y-60744112D01*
X152128007Y-60761150D01*
X152013993Y-60826976D01*
X151920901Y-60920068D01*
X151855075Y-61034082D01*
X151838037Y-61097666D01*
X151205728Y-60465357D01*
X151205727Y-60465357D01*
X151166380Y-60519514D01*
X151069904Y-60708857D01*
X151004242Y-60910944D01*
X151004242Y-60910947D01*
X150971000Y-61120828D01*
X150971000Y-61333321D01*
X151004242Y-61543202D01*
X151004242Y-61543205D01*
X151069904Y-61745292D01*
X151166375Y-61934625D01*
X151205728Y-61988791D01*
X151838037Y-61356483D01*
X151855075Y-61420068D01*
X151920901Y-61534082D01*
X152013993Y-61627174D01*
X152128007Y-61693000D01*
X152191590Y-61710037D01*
X151559282Y-62342344D01*
X151559282Y-62342345D01*
X151613449Y-62381699D01*
X151613682Y-62381818D01*
X151613755Y-62381887D01*
X151617604Y-62384246D01*
X151617108Y-62385054D01*
X151664479Y-62429791D01*
X151681275Y-62497612D01*
X151658739Y-62563747D01*
X151613693Y-62602784D01*
X151608994Y-62605178D01*
X151435993Y-62730871D01*
X151284796Y-62882068D01*
X151159106Y-63055065D01*
X151062027Y-63245591D01*
X151062026Y-63245594D01*
X150995951Y-63448957D01*
X150962500Y-63660159D01*
X150962500Y-63873990D01*
X150995951Y-64085192D01*
X151062026Y-64288555D01*
X151062027Y-64288558D01*
X151152537Y-64466191D01*
X151159106Y-64479084D01*
X151284794Y-64652079D01*
X151435996Y-64803281D01*
X151514179Y-64860084D01*
X151608991Y-64928969D01*
X151612873Y-64931348D01*
X151659748Y-64983161D01*
X151671169Y-65052091D01*
X151643512Y-65116253D01*
X151612873Y-65142802D01*
X151608991Y-65145180D01*
X151435993Y-65270871D01*
X151284796Y-65422068D01*
X151159106Y-65595065D01*
X151062027Y-65785591D01*
X151062026Y-65785594D01*
X150995951Y-65988957D01*
X150962500Y-66200159D01*
X150962500Y-66413990D01*
X150995951Y-66625192D01*
X151062026Y-66828555D01*
X151062027Y-66828558D01*
X151152537Y-67006191D01*
X151159106Y-67019084D01*
X151284794Y-67192079D01*
X151435996Y-67343281D01*
X151608991Y-67468969D01*
X151702438Y-67516582D01*
X151799516Y-67566047D01*
X151799519Y-67566048D01*
X151901200Y-67599085D01*
X152002884Y-67632124D01*
X152214084Y-67665575D01*
X152214085Y-67665575D01*
X152427915Y-67665575D01*
X152427916Y-67665575D01*
X152639116Y-67632124D01*
X152842483Y-67566047D01*
X153033009Y-67468969D01*
X153206004Y-67343281D01*
X153357206Y-67192079D01*
X153482894Y-67019084D01*
X153579972Y-66828558D01*
X153646049Y-66625191D01*
X153679500Y-66413991D01*
X153679500Y-66200159D01*
X153646049Y-65988959D01*
X153585651Y-65803071D01*
X153579973Y-65785594D01*
X153579972Y-65785591D01*
X153530507Y-65688513D01*
X153482894Y-65595066D01*
X153357206Y-65422071D01*
X153206004Y-65270869D01*
X153033009Y-65145181D01*
X153033005Y-65145178D01*
X153029132Y-65142805D01*
X152982254Y-65090995D01*
X152970829Y-65022066D01*
X152998483Y-64957902D01*
X153029132Y-64931345D01*
X153033005Y-64928971D01*
X153033004Y-64928971D01*
X153033009Y-64928969D01*
X153206004Y-64803281D01*
X153357206Y-64652079D01*
X153482894Y-64479084D01*
X153579972Y-64288558D01*
X153646049Y-64085191D01*
X153679500Y-63873991D01*
X153679500Y-63660159D01*
X153646049Y-63448959D01*
X153585651Y-63263071D01*
X153579973Y-63245594D01*
X153579972Y-63245591D01*
X153530507Y-63148513D01*
X153482894Y-63055066D01*
X153357206Y-62882071D01*
X153206004Y-62730869D01*
X153033009Y-62605181D01*
X153033010Y-62605181D01*
X153033008Y-62605180D01*
X153028311Y-62602787D01*
X152977517Y-62554810D01*
X152960724Y-62486989D01*
X152983264Y-62420855D01*
X153024790Y-62384876D01*
X153024402Y-62384243D01*
X153028229Y-62381897D01*
X153028327Y-62381813D01*
X153028556Y-62381696D01*
X153082716Y-62342345D01*
X153082717Y-62342345D01*
X152450408Y-61710037D01*
X152513993Y-61693000D01*
X152628007Y-61627174D01*
X152721099Y-61534082D01*
X152786925Y-61420068D01*
X152803962Y-61356484D01*
X153436270Y-61988792D01*
X153436270Y-61988791D01*
X153475622Y-61934629D01*
X153572095Y-61745292D01*
X153637757Y-61543205D01*
X153637757Y-61543202D01*
X153648155Y-61477558D01*
X153671000Y-61333321D01*
X153671000Y-61120828D01*
X153637757Y-60910947D01*
X153637757Y-60910944D01*
X153572095Y-60708857D01*
X153475624Y-60519524D01*
X153436270Y-60465357D01*
X153436269Y-60465357D01*
X152803962Y-61097665D01*
X152786925Y-61034082D01*
X152721099Y-60920068D01*
X152628007Y-60826976D01*
X152513993Y-60761150D01*
X152450409Y-60744112D01*
X153112626Y-60081894D01*
X153173949Y-60048409D01*
X153200307Y-60045575D01*
X153219638Y-60045575D01*
X153219654Y-60045574D01*
X153246692Y-60042666D01*
X153280201Y-60039064D01*
X153417204Y-59987964D01*
X153534261Y-59900336D01*
X153621889Y-59783279D01*
X153672989Y-59646276D01*
X153676591Y-59612767D01*
X153679499Y-59585729D01*
X153679500Y-59585712D01*
X153679500Y-58169420D01*
X187182900Y-58169420D01*
X187182900Y-59966729D01*
X187189411Y-60027277D01*
X187189411Y-60027279D01*
X187240511Y-60164279D01*
X187328139Y-60281336D01*
X187445196Y-60368964D01*
X187582199Y-60420064D01*
X187609450Y-60422993D01*
X187642745Y-60426574D01*
X187642762Y-60426575D01*
X187662092Y-60426575D01*
X187729131Y-60446260D01*
X187749773Y-60462894D01*
X188411991Y-61125112D01*
X188348407Y-61142150D01*
X188234393Y-61207976D01*
X188141301Y-61301068D01*
X188075475Y-61415082D01*
X188058437Y-61478666D01*
X187426128Y-60846357D01*
X187426127Y-60846357D01*
X187386780Y-60900514D01*
X187290304Y-61089857D01*
X187224642Y-61291944D01*
X187224642Y-61291947D01*
X187191400Y-61501828D01*
X187191400Y-61714321D01*
X187224642Y-61924202D01*
X187224642Y-61924205D01*
X187290304Y-62126292D01*
X187386775Y-62315625D01*
X187426128Y-62369791D01*
X188058437Y-61737483D01*
X188075475Y-61801068D01*
X188141301Y-61915082D01*
X188234393Y-62008174D01*
X188348407Y-62074000D01*
X188411990Y-62091037D01*
X187779682Y-62723344D01*
X187779682Y-62723345D01*
X187833849Y-62762699D01*
X187834082Y-62762818D01*
X187834155Y-62762887D01*
X187838004Y-62765246D01*
X187837508Y-62766054D01*
X187884879Y-62810791D01*
X187901675Y-62878612D01*
X187879139Y-62944747D01*
X187834093Y-62983784D01*
X187829394Y-62986178D01*
X187656393Y-63111871D01*
X187505196Y-63263068D01*
X187379506Y-63436065D01*
X187282427Y-63626591D01*
X187282426Y-63626594D01*
X187216351Y-63829957D01*
X187182900Y-64041159D01*
X187182900Y-64254990D01*
X187216351Y-64466192D01*
X187282426Y-64669555D01*
X187282427Y-64669558D01*
X187350562Y-64803278D01*
X187379506Y-64860084D01*
X187505194Y-65033079D01*
X187656396Y-65184281D01*
X187775577Y-65270871D01*
X187829391Y-65309969D01*
X187833273Y-65312348D01*
X187880148Y-65364161D01*
X187891569Y-65433091D01*
X187863912Y-65497253D01*
X187833273Y-65523802D01*
X187829391Y-65526180D01*
X187656393Y-65651871D01*
X187505196Y-65803068D01*
X187379506Y-65976065D01*
X187282427Y-66166591D01*
X187282426Y-66166594D01*
X187216351Y-66369957D01*
X187182900Y-66581159D01*
X187182900Y-66794990D01*
X187216351Y-67006192D01*
X187282426Y-67209555D01*
X187282427Y-67209558D01*
X187350562Y-67343278D01*
X187379506Y-67400084D01*
X187505194Y-67573079D01*
X187656396Y-67724281D01*
X187829391Y-67849969D01*
X187922838Y-67897582D01*
X188019916Y-67947047D01*
X188019919Y-67947048D01*
X188121600Y-67980085D01*
X188223284Y-68013124D01*
X188434484Y-68046575D01*
X188434485Y-68046575D01*
X188648315Y-68046575D01*
X188648316Y-68046575D01*
X188859516Y-68013124D01*
X189062883Y-67947047D01*
X189253409Y-67849969D01*
X189426404Y-67724281D01*
X189577606Y-67573079D01*
X189703294Y-67400084D01*
X189800372Y-67209558D01*
X189866449Y-67006191D01*
X189899900Y-66794991D01*
X189899900Y-66581159D01*
X189866449Y-66369959D01*
X189833410Y-66268275D01*
X189800373Y-66166594D01*
X189800372Y-66166591D01*
X189703293Y-65976065D01*
X189577606Y-65803071D01*
X189426404Y-65651869D01*
X189253409Y-65526181D01*
X189253405Y-65526178D01*
X189249532Y-65523805D01*
X189202654Y-65471995D01*
X189191229Y-65403066D01*
X189218883Y-65338902D01*
X189249532Y-65312345D01*
X189253405Y-65309971D01*
X189253404Y-65309971D01*
X189253409Y-65309969D01*
X189426404Y-65184281D01*
X189577606Y-65033079D01*
X189703294Y-64860084D01*
X189800372Y-64669558D01*
X189866449Y-64466191D01*
X189899900Y-64254991D01*
X189899900Y-64041159D01*
X189866449Y-63829959D01*
X189833410Y-63728275D01*
X189800373Y-63626594D01*
X189800372Y-63626591D01*
X189703293Y-63436065D01*
X189577606Y-63263071D01*
X189426404Y-63111869D01*
X189253409Y-62986181D01*
X189253410Y-62986181D01*
X189253408Y-62986180D01*
X189248711Y-62983787D01*
X189197917Y-62935810D01*
X189181124Y-62867989D01*
X189203664Y-62801855D01*
X189245190Y-62765876D01*
X189244802Y-62765243D01*
X189248629Y-62762897D01*
X189248727Y-62762813D01*
X189248956Y-62762696D01*
X189303116Y-62723345D01*
X189303117Y-62723345D01*
X188670808Y-62091037D01*
X188734393Y-62074000D01*
X188848407Y-62008174D01*
X188941499Y-61915082D01*
X189007325Y-61801068D01*
X189024362Y-61737483D01*
X189656670Y-62369792D01*
X189656670Y-62369791D01*
X189696022Y-62315629D01*
X189792495Y-62126292D01*
X189858157Y-61924205D01*
X189858157Y-61924202D01*
X189891400Y-61714321D01*
X189891400Y-61501828D01*
X189858157Y-61291947D01*
X189858157Y-61291944D01*
X189792495Y-61089857D01*
X189696024Y-60900524D01*
X189656670Y-60846357D01*
X189656669Y-60846357D01*
X189024362Y-61478665D01*
X189007325Y-61415082D01*
X188941499Y-61301068D01*
X188848407Y-61207976D01*
X188734393Y-61142150D01*
X188670809Y-61125112D01*
X189333026Y-60462894D01*
X189394349Y-60429409D01*
X189420707Y-60426575D01*
X189440038Y-60426575D01*
X189440054Y-60426574D01*
X189467092Y-60423666D01*
X189500601Y-60420064D01*
X189637604Y-60368964D01*
X189754661Y-60281336D01*
X189842289Y-60164279D01*
X189893389Y-60027276D01*
X189896991Y-59993767D01*
X189899899Y-59966729D01*
X189899900Y-59966712D01*
X189899900Y-58169437D01*
X189899899Y-58169420D01*
X189896557Y-58138345D01*
X189893389Y-58108874D01*
X189842289Y-57971871D01*
X189754661Y-57854814D01*
X189637604Y-57767186D01*
X189500603Y-57716086D01*
X189440054Y-57709575D01*
X189440038Y-57709575D01*
X187642762Y-57709575D01*
X187642745Y-57709575D01*
X187582197Y-57716086D01*
X187582195Y-57716086D01*
X187445195Y-57767186D01*
X187328139Y-57854814D01*
X187240511Y-57971870D01*
X187189411Y-58108870D01*
X187189411Y-58108872D01*
X187182900Y-58169420D01*
X153679500Y-58169420D01*
X153679500Y-57788437D01*
X153679499Y-57788420D01*
X153676157Y-57757345D01*
X153672989Y-57727874D01*
X153668592Y-57716086D01*
X153650522Y-57667639D01*
X153621889Y-57590871D01*
X153534261Y-57473814D01*
X153417204Y-57386186D01*
X153280203Y-57335086D01*
X153219654Y-57328575D01*
X153219638Y-57328575D01*
X151422362Y-57328575D01*
X151422345Y-57328575D01*
X151361797Y-57335086D01*
X151361795Y-57335086D01*
X151224795Y-57386186D01*
X151107739Y-57473814D01*
X151020111Y-57590870D01*
X150969011Y-57727870D01*
X150969011Y-57727872D01*
X150962500Y-57788420D01*
X110032300Y-57788420D01*
X110032300Y-55585782D01*
X110020806Y-55558033D01*
X109999567Y-55536794D01*
X109971818Y-55525300D01*
X109971817Y-55525300D01*
X100199500Y-55525300D01*
X100132461Y-55505615D01*
X100086706Y-55452811D01*
X100075500Y-55401300D01*
X100075500Y-52942747D01*
X254608400Y-52942747D01*
X254608400Y-53178852D01*
X254645334Y-53412047D01*
X254718297Y-53636602D01*
X254825487Y-53846974D01*
X254885738Y-53929904D01*
X254885740Y-53929905D01*
X255584612Y-53231033D01*
X255595882Y-53273092D01*
X255668290Y-53398508D01*
X255770692Y-53500910D01*
X255896108Y-53573318D01*
X255938165Y-53584587D01*
X255239293Y-54283458D01*
X255322228Y-54343714D01*
X255532597Y-54450902D01*
X255757152Y-54523865D01*
X255757151Y-54523865D01*
X255990348Y-54560800D01*
X256226452Y-54560800D01*
X256459647Y-54523865D01*
X256684202Y-54450902D01*
X256894563Y-54343718D01*
X256894569Y-54343714D01*
X256977504Y-54283458D01*
X256977505Y-54283458D01*
X256278633Y-53584587D01*
X256320692Y-53573318D01*
X256446108Y-53500910D01*
X256548510Y-53398508D01*
X256620918Y-53273092D01*
X256632187Y-53231033D01*
X257331058Y-53929905D01*
X257331058Y-53929904D01*
X257391314Y-53846969D01*
X257391318Y-53846963D01*
X257498502Y-53636602D01*
X257571465Y-53412047D01*
X257608400Y-53178852D01*
X257608400Y-52942747D01*
X257571465Y-52709552D01*
X257498502Y-52484997D01*
X257411066Y-52313393D01*
X257391314Y-52274628D01*
X257380865Y-52260247D01*
X258409900Y-52260247D01*
X258409900Y-53861337D01*
X258409901Y-53861353D01*
X258420513Y-53965226D01*
X258476285Y-54133538D01*
X258569370Y-54284452D01*
X258694748Y-54409830D01*
X258845662Y-54502915D01*
X259013974Y-54558687D01*
X259117855Y-54569300D01*
X260718944Y-54569299D01*
X260822826Y-54558687D01*
X260991138Y-54502915D01*
X261142052Y-54409830D01*
X261267430Y-54284452D01*
X261360515Y-54133538D01*
X261416287Y-53965226D01*
X261426900Y-53861345D01*
X261426899Y-52260256D01*
X261416287Y-52156374D01*
X261360515Y-51988062D01*
X261267430Y-51837148D01*
X261142052Y-51711770D01*
X261037924Y-51647543D01*
X260991140Y-51618686D01*
X260991135Y-51618684D01*
X260822827Y-51562913D01*
X260718945Y-51552300D01*
X259117862Y-51552300D01*
X259117846Y-51552301D01*
X259013972Y-51562913D01*
X258845664Y-51618684D01*
X258845659Y-51618686D01*
X258694746Y-51711771D01*
X258569371Y-51837146D01*
X258476286Y-51988059D01*
X258476284Y-51988064D01*
X258420513Y-52156372D01*
X258409900Y-52260247D01*
X257380865Y-52260247D01*
X257331058Y-52191694D01*
X257331058Y-52191693D01*
X256632187Y-52890565D01*
X256620918Y-52848508D01*
X256548510Y-52723092D01*
X256446108Y-52620690D01*
X256320692Y-52548282D01*
X256278634Y-52537012D01*
X256977505Y-51838140D01*
X256977504Y-51838138D01*
X256894574Y-51777887D01*
X256684202Y-51670697D01*
X256459647Y-51597734D01*
X256459648Y-51597734D01*
X256226452Y-51560800D01*
X255990348Y-51560800D01*
X255757152Y-51597734D01*
X255532597Y-51670697D01*
X255322230Y-51777884D01*
X255239294Y-51838140D01*
X255938166Y-52537012D01*
X255896108Y-52548282D01*
X255770692Y-52620690D01*
X255668290Y-52723092D01*
X255595882Y-52848508D01*
X255584612Y-52890565D01*
X254885740Y-52191694D01*
X254825484Y-52274630D01*
X254718297Y-52484997D01*
X254645334Y-52709552D01*
X254608400Y-52942747D01*
X100075500Y-52942747D01*
X100075500Y-50643753D01*
X102383800Y-50643753D01*
X102383800Y-50856246D01*
X102417042Y-51066127D01*
X102417042Y-51066130D01*
X102482704Y-51268217D01*
X102579175Y-51457550D01*
X102618528Y-51511716D01*
X103250837Y-50879408D01*
X103267875Y-50942993D01*
X103333701Y-51057007D01*
X103426793Y-51150099D01*
X103540807Y-51215925D01*
X103604390Y-51232962D01*
X102972082Y-51865269D01*
X102972082Y-51865270D01*
X103026249Y-51904624D01*
X103215582Y-52001095D01*
X103417670Y-52066757D01*
X103627554Y-52100000D01*
X103840046Y-52100000D01*
X104049927Y-52066757D01*
X104049930Y-52066757D01*
X104252017Y-52001095D01*
X104441354Y-51904622D01*
X104495516Y-51865270D01*
X104495517Y-51865270D01*
X103863208Y-51232962D01*
X103926793Y-51215925D01*
X104040807Y-51150099D01*
X104133899Y-51057007D01*
X104199725Y-50942993D01*
X104216762Y-50879409D01*
X104849070Y-51511717D01*
X104849070Y-51511716D01*
X104888421Y-51457556D01*
X104888538Y-51457327D01*
X104888608Y-51457252D01*
X104890968Y-51453402D01*
X104891776Y-51453897D01*
X104936507Y-51406526D01*
X105004326Y-51389723D01*
X105070463Y-51412254D01*
X105109512Y-51457311D01*
X105111906Y-51462009D01*
X105237594Y-51635004D01*
X105388796Y-51786206D01*
X105561791Y-51911894D01*
X105655238Y-51959507D01*
X105752316Y-52008972D01*
X105752319Y-52008973D01*
X105854000Y-52042010D01*
X105955684Y-52075049D01*
X106166884Y-52108500D01*
X106166885Y-52108500D01*
X106380715Y-52108500D01*
X106380716Y-52108500D01*
X106591916Y-52075049D01*
X106795283Y-52008972D01*
X106985809Y-51911894D01*
X107158804Y-51786206D01*
X107263984Y-51681025D01*
X107325303Y-51647543D01*
X107394995Y-51652527D01*
X107450929Y-51694398D01*
X107467843Y-51725375D01*
X107512910Y-51846203D01*
X107512911Y-51846204D01*
X107600539Y-51963261D01*
X107717596Y-52050889D01*
X107854599Y-52101989D01*
X107881850Y-52104918D01*
X107915145Y-52108499D01*
X107915162Y-52108500D01*
X109712438Y-52108500D01*
X109712454Y-52108499D01*
X109739492Y-52105591D01*
X109773001Y-52101989D01*
X109910004Y-52050889D01*
X110027061Y-51963261D01*
X110114689Y-51846204D01*
X110159756Y-51725375D01*
X110165788Y-51709204D01*
X110165788Y-51709203D01*
X110165789Y-51709201D01*
X110169391Y-51675692D01*
X110172299Y-51648654D01*
X110172300Y-51648637D01*
X110172300Y-49851362D01*
X110172299Y-49851345D01*
X110168818Y-49818971D01*
X110165789Y-49790799D01*
X110159756Y-49774625D01*
X110124609Y-49680393D01*
X110114689Y-49653796D01*
X110027061Y-49536739D01*
X109910004Y-49449111D01*
X109773003Y-49398011D01*
X109712454Y-49391500D01*
X109712438Y-49391500D01*
X107915162Y-49391500D01*
X107915145Y-49391500D01*
X107854597Y-49398011D01*
X107854595Y-49398011D01*
X107717595Y-49449111D01*
X107600539Y-49536739D01*
X107512911Y-49653795D01*
X107467843Y-49774625D01*
X107425971Y-49830558D01*
X107360507Y-49854974D01*
X107292234Y-49840122D01*
X107263981Y-49818971D01*
X107158806Y-49713796D01*
X107158804Y-49713794D01*
X106985809Y-49588106D01*
X106984229Y-49587301D01*
X106795283Y-49491027D01*
X106795280Y-49491026D01*
X106591917Y-49424951D01*
X106442767Y-49401328D01*
X106380716Y-49391500D01*
X106166884Y-49391500D01*
X106104833Y-49401328D01*
X105955682Y-49424951D01*
X105752319Y-49491026D01*
X105752316Y-49491027D01*
X105561790Y-49588106D01*
X105388793Y-49713796D01*
X105237596Y-49864993D01*
X105111903Y-50037994D01*
X105109509Y-50042693D01*
X105061531Y-50093485D01*
X104993708Y-50110275D01*
X104927575Y-50087732D01*
X104891604Y-50046215D01*
X104890971Y-50046604D01*
X104888626Y-50042778D01*
X104888543Y-50042682D01*
X104888424Y-50042449D01*
X104849070Y-49988282D01*
X104849069Y-49988282D01*
X104216762Y-50620590D01*
X104199725Y-50557007D01*
X104133899Y-50442993D01*
X104040807Y-50349901D01*
X103926793Y-50284075D01*
X103863209Y-50267037D01*
X104495516Y-49634728D01*
X104441350Y-49595375D01*
X104252017Y-49498904D01*
X104049929Y-49433242D01*
X103840046Y-49400000D01*
X103627554Y-49400000D01*
X103417672Y-49433242D01*
X103417669Y-49433242D01*
X103215582Y-49498904D01*
X103026239Y-49595380D01*
X102972082Y-49634727D01*
X102972082Y-49634728D01*
X103604391Y-50267037D01*
X103540807Y-50284075D01*
X103426793Y-50349901D01*
X103333701Y-50442993D01*
X103267875Y-50557007D01*
X103250837Y-50620591D01*
X102618528Y-49988282D01*
X102618527Y-49988282D01*
X102579180Y-50042439D01*
X102482704Y-50231782D01*
X102417042Y-50433869D01*
X102417042Y-50433872D01*
X102383800Y-50643753D01*
X100075500Y-50643753D01*
X100075500Y-48301345D01*
X117437500Y-48301345D01*
X117437500Y-50098654D01*
X117444011Y-50159202D01*
X117444011Y-50159204D01*
X117490587Y-50284075D01*
X117495111Y-50296204D01*
X117582739Y-50413261D01*
X117699796Y-50500889D01*
X117836799Y-50551989D01*
X117864050Y-50554918D01*
X117897345Y-50558499D01*
X117897362Y-50558500D01*
X119694638Y-50558500D01*
X119694654Y-50558499D01*
X119721692Y-50555591D01*
X119755201Y-50551989D01*
X119892204Y-50500889D01*
X120009261Y-50413261D01*
X120096889Y-50296204D01*
X120141957Y-50175371D01*
X120183827Y-50119442D01*
X120249291Y-50095025D01*
X120317564Y-50109877D01*
X120345818Y-50131028D01*
X120450996Y-50236206D01*
X120623991Y-50361894D01*
X120662894Y-50381716D01*
X120814516Y-50458972D01*
X120814519Y-50458973D01*
X120916200Y-50492010D01*
X121017884Y-50525049D01*
X121229084Y-50558500D01*
X121229085Y-50558500D01*
X121442915Y-50558500D01*
X121442916Y-50558500D01*
X121654116Y-50525049D01*
X121857483Y-50458972D01*
X122048009Y-50361894D01*
X122221004Y-50236206D01*
X122372206Y-50085004D01*
X122497894Y-49912009D01*
X122497896Y-49912004D01*
X122500270Y-49908132D01*
X122552080Y-49861254D01*
X122621009Y-49849829D01*
X122685173Y-49877483D01*
X122711730Y-49908132D01*
X122714103Y-49912005D01*
X122714106Y-49912009D01*
X122839794Y-50085004D01*
X122990996Y-50236206D01*
X123163991Y-50361894D01*
X123202894Y-50381716D01*
X123354516Y-50458972D01*
X123354519Y-50458973D01*
X123456200Y-50492010D01*
X123557884Y-50525049D01*
X123769084Y-50558500D01*
X123769085Y-50558500D01*
X123982915Y-50558500D01*
X123982916Y-50558500D01*
X124194116Y-50525049D01*
X124397483Y-50458972D01*
X124588009Y-50361894D01*
X124761004Y-50236206D01*
X124912206Y-50085004D01*
X125037894Y-49912009D01*
X125037896Y-49912004D01*
X125040270Y-49908132D01*
X125092080Y-49861254D01*
X125161009Y-49849829D01*
X125225173Y-49877483D01*
X125251730Y-49908132D01*
X125254103Y-49912005D01*
X125254106Y-49912009D01*
X125379794Y-50085004D01*
X125530996Y-50236206D01*
X125703991Y-50361894D01*
X125742894Y-50381716D01*
X125894516Y-50458972D01*
X125894519Y-50458973D01*
X125996200Y-50492010D01*
X126097884Y-50525049D01*
X126309084Y-50558500D01*
X126309085Y-50558500D01*
X126522915Y-50558500D01*
X126522916Y-50558500D01*
X126734116Y-50525049D01*
X126937483Y-50458972D01*
X127128009Y-50361894D01*
X127301004Y-50236206D01*
X127452206Y-50085004D01*
X127577894Y-49912009D01*
X127577896Y-49912004D01*
X127580270Y-49908132D01*
X127632080Y-49861254D01*
X127701009Y-49849829D01*
X127765173Y-49877483D01*
X127791730Y-49908132D01*
X127794103Y-49912005D01*
X127794106Y-49912009D01*
X127919794Y-50085004D01*
X128070996Y-50236206D01*
X128243991Y-50361894D01*
X128282894Y-50381716D01*
X128434516Y-50458972D01*
X128434519Y-50458973D01*
X128536200Y-50492010D01*
X128637884Y-50525049D01*
X128849084Y-50558500D01*
X128849085Y-50558500D01*
X129062915Y-50558500D01*
X129062916Y-50558500D01*
X129274116Y-50525049D01*
X129477483Y-50458972D01*
X129668009Y-50361894D01*
X129841004Y-50236206D01*
X129992206Y-50085004D01*
X130117894Y-49912009D01*
X130117896Y-49912004D01*
X130120270Y-49908132D01*
X130172080Y-49861254D01*
X130241009Y-49849829D01*
X130305173Y-49877483D01*
X130331730Y-49908132D01*
X130334103Y-49912005D01*
X130334106Y-49912009D01*
X130459794Y-50085004D01*
X130610996Y-50236206D01*
X130783991Y-50361894D01*
X130822894Y-50381716D01*
X130974516Y-50458972D01*
X130974519Y-50458973D01*
X131076200Y-50492010D01*
X131177884Y-50525049D01*
X131389084Y-50558500D01*
X131389085Y-50558500D01*
X131602915Y-50558500D01*
X131602916Y-50558500D01*
X131814116Y-50525049D01*
X132017483Y-50458972D01*
X132208009Y-50361894D01*
X132381004Y-50236206D01*
X132532206Y-50085004D01*
X132657894Y-49912009D01*
X132657896Y-49912004D01*
X132660270Y-49908132D01*
X132712080Y-49861254D01*
X132781009Y-49849829D01*
X132845173Y-49877483D01*
X132871730Y-49908132D01*
X132874103Y-49912005D01*
X132874106Y-49912009D01*
X132999794Y-50085004D01*
X133150996Y-50236206D01*
X133323991Y-50361894D01*
X133362894Y-50381716D01*
X133514516Y-50458972D01*
X133514519Y-50458973D01*
X133616200Y-50492010D01*
X133717884Y-50525049D01*
X133929084Y-50558500D01*
X133929085Y-50558500D01*
X134142915Y-50558500D01*
X134142916Y-50558500D01*
X134354116Y-50525049D01*
X134557483Y-50458972D01*
X134748009Y-50361894D01*
X134921004Y-50236206D01*
X135072206Y-50085004D01*
X135197894Y-49912009D01*
X135197896Y-49912004D01*
X135200270Y-49908132D01*
X135252080Y-49861254D01*
X135321009Y-49849829D01*
X135385173Y-49877483D01*
X135411730Y-49908132D01*
X135414103Y-49912005D01*
X135414106Y-49912009D01*
X135539794Y-50085004D01*
X135690996Y-50236206D01*
X135863991Y-50361894D01*
X135902894Y-50381716D01*
X136054516Y-50458972D01*
X136054519Y-50458973D01*
X136156200Y-50492010D01*
X136257884Y-50525049D01*
X136469084Y-50558500D01*
X136469085Y-50558500D01*
X136682915Y-50558500D01*
X136682916Y-50558500D01*
X136894116Y-50525049D01*
X137097483Y-50458972D01*
X137288009Y-50361894D01*
X137461004Y-50236206D01*
X137612206Y-50085004D01*
X137737894Y-49912009D01*
X137737896Y-49912004D01*
X137740270Y-49908132D01*
X137792080Y-49861254D01*
X137861009Y-49849829D01*
X137925173Y-49877483D01*
X137951730Y-49908132D01*
X137954103Y-49912005D01*
X137954106Y-49912009D01*
X138079794Y-50085004D01*
X138230996Y-50236206D01*
X138403991Y-50361894D01*
X138442894Y-50381716D01*
X138594516Y-50458972D01*
X138594519Y-50458973D01*
X138696200Y-50492010D01*
X138797884Y-50525049D01*
X139009084Y-50558500D01*
X139009085Y-50558500D01*
X139222915Y-50558500D01*
X139222916Y-50558500D01*
X139434116Y-50525049D01*
X139637483Y-50458972D01*
X139828009Y-50361894D01*
X140001004Y-50236206D01*
X140152206Y-50085004D01*
X140277894Y-49912009D01*
X140277896Y-49912004D01*
X140280270Y-49908132D01*
X140332080Y-49861254D01*
X140401009Y-49849829D01*
X140465173Y-49877483D01*
X140491730Y-49908132D01*
X140494103Y-49912005D01*
X140494106Y-49912009D01*
X140619794Y-50085004D01*
X140770996Y-50236206D01*
X140943991Y-50361894D01*
X140982894Y-50381716D01*
X141134516Y-50458972D01*
X141134519Y-50458973D01*
X141236200Y-50492010D01*
X141337884Y-50525049D01*
X141549084Y-50558500D01*
X141549085Y-50558500D01*
X141762915Y-50558500D01*
X141762916Y-50558500D01*
X141974116Y-50525049D01*
X142177483Y-50458972D01*
X142368009Y-50361894D01*
X142541004Y-50236206D01*
X142692206Y-50085004D01*
X142817894Y-49912009D01*
X142914972Y-49721483D01*
X142981049Y-49518116D01*
X143014500Y-49306916D01*
X143014500Y-49093084D01*
X142981049Y-48881884D01*
X142923609Y-48705100D01*
X142914973Y-48678519D01*
X142914972Y-48678516D01*
X142849575Y-48550169D01*
X142817894Y-48487991D01*
X142692206Y-48314996D01*
X142678555Y-48301345D01*
X144361500Y-48301345D01*
X144361500Y-50098654D01*
X144368011Y-50159202D01*
X144368011Y-50159204D01*
X144414587Y-50284075D01*
X144419111Y-50296204D01*
X144506739Y-50413261D01*
X144623796Y-50500889D01*
X144760799Y-50551989D01*
X144788050Y-50554918D01*
X144821345Y-50558499D01*
X144821362Y-50558500D01*
X146618638Y-50558500D01*
X146618654Y-50558499D01*
X146645692Y-50555591D01*
X146679201Y-50551989D01*
X146816204Y-50500889D01*
X146933261Y-50413261D01*
X147020889Y-50296204D01*
X147065957Y-50175371D01*
X147107827Y-50119442D01*
X147173291Y-50095025D01*
X147241564Y-50109877D01*
X147269818Y-50131028D01*
X147374996Y-50236206D01*
X147547991Y-50361894D01*
X147586894Y-50381716D01*
X147738516Y-50458972D01*
X147738519Y-50458973D01*
X147840200Y-50492010D01*
X147941884Y-50525049D01*
X148153084Y-50558500D01*
X148153085Y-50558500D01*
X148366915Y-50558500D01*
X148366916Y-50558500D01*
X148578116Y-50525049D01*
X148781483Y-50458972D01*
X148972009Y-50361894D01*
X149145004Y-50236206D01*
X149296206Y-50085004D01*
X149421894Y-49912009D01*
X149421896Y-49912004D01*
X149424270Y-49908132D01*
X149476080Y-49861254D01*
X149545009Y-49849829D01*
X149609173Y-49877483D01*
X149635730Y-49908132D01*
X149638103Y-49912005D01*
X149638106Y-49912009D01*
X149763794Y-50085004D01*
X149914996Y-50236206D01*
X150087991Y-50361894D01*
X150126894Y-50381716D01*
X150278516Y-50458972D01*
X150278519Y-50458973D01*
X150380200Y-50492010D01*
X150481884Y-50525049D01*
X150693084Y-50558500D01*
X150693085Y-50558500D01*
X150906915Y-50558500D01*
X150906916Y-50558500D01*
X151118116Y-50525049D01*
X151321483Y-50458972D01*
X151512009Y-50361894D01*
X151685004Y-50236206D01*
X151836206Y-50085004D01*
X151961894Y-49912009D01*
X151961896Y-49912004D01*
X151964270Y-49908132D01*
X152016080Y-49861254D01*
X152085009Y-49849829D01*
X152149173Y-49877483D01*
X152175730Y-49908132D01*
X152178103Y-49912005D01*
X152178106Y-49912009D01*
X152303794Y-50085004D01*
X152454996Y-50236206D01*
X152627991Y-50361894D01*
X152666894Y-50381716D01*
X152818516Y-50458972D01*
X152818519Y-50458973D01*
X152920200Y-50492010D01*
X153021884Y-50525049D01*
X153233084Y-50558500D01*
X153233085Y-50558500D01*
X153446915Y-50558500D01*
X153446916Y-50558500D01*
X153658116Y-50525049D01*
X153861483Y-50458972D01*
X154052009Y-50361894D01*
X154225004Y-50236206D01*
X154376206Y-50085004D01*
X154501894Y-49912009D01*
X154501896Y-49912004D01*
X154504270Y-49908132D01*
X154556080Y-49861254D01*
X154625009Y-49849829D01*
X154689173Y-49877483D01*
X154715730Y-49908132D01*
X154718103Y-49912005D01*
X154718106Y-49912009D01*
X154843794Y-50085004D01*
X154994996Y-50236206D01*
X155167991Y-50361894D01*
X155206894Y-50381716D01*
X155358516Y-50458972D01*
X155358519Y-50458973D01*
X155460200Y-50492010D01*
X155561884Y-50525049D01*
X155773084Y-50558500D01*
X155773085Y-50558500D01*
X155986915Y-50558500D01*
X155986916Y-50558500D01*
X156198116Y-50525049D01*
X156401483Y-50458972D01*
X156592009Y-50361894D01*
X156765004Y-50236206D01*
X156916206Y-50085004D01*
X157041894Y-49912009D01*
X157041896Y-49912004D01*
X157044270Y-49908132D01*
X157096080Y-49861254D01*
X157165009Y-49849829D01*
X157229173Y-49877483D01*
X157255730Y-49908132D01*
X157258103Y-49912005D01*
X157258106Y-49912009D01*
X157383794Y-50085004D01*
X157534996Y-50236206D01*
X157707991Y-50361894D01*
X157746894Y-50381716D01*
X157898516Y-50458972D01*
X157898519Y-50458973D01*
X158000200Y-50492010D01*
X158101884Y-50525049D01*
X158313084Y-50558500D01*
X158313085Y-50558500D01*
X158526915Y-50558500D01*
X158526916Y-50558500D01*
X158738116Y-50525049D01*
X158941483Y-50458972D01*
X159132009Y-50361894D01*
X159305004Y-50236206D01*
X159456206Y-50085004D01*
X159581894Y-49912009D01*
X159581896Y-49912004D01*
X159584270Y-49908132D01*
X159636080Y-49861254D01*
X159705009Y-49849829D01*
X159769173Y-49877483D01*
X159795730Y-49908132D01*
X159798103Y-49912005D01*
X159798106Y-49912009D01*
X159923794Y-50085004D01*
X160074996Y-50236206D01*
X160247991Y-50361894D01*
X160286894Y-50381716D01*
X160438516Y-50458972D01*
X160438519Y-50458973D01*
X160540200Y-50492010D01*
X160641884Y-50525049D01*
X160853084Y-50558500D01*
X160853085Y-50558500D01*
X161066915Y-50558500D01*
X161066916Y-50558500D01*
X161278116Y-50525049D01*
X161481483Y-50458972D01*
X161672009Y-50361894D01*
X161845004Y-50236206D01*
X161996206Y-50085004D01*
X162121894Y-49912009D01*
X162121896Y-49912004D01*
X162124270Y-49908132D01*
X162176080Y-49861254D01*
X162245009Y-49849829D01*
X162309173Y-49877483D01*
X162335730Y-49908132D01*
X162338103Y-49912005D01*
X162338106Y-49912009D01*
X162463794Y-50085004D01*
X162614996Y-50236206D01*
X162787991Y-50361894D01*
X162826894Y-50381716D01*
X162978516Y-50458972D01*
X162978519Y-50458973D01*
X163080200Y-50492010D01*
X163181884Y-50525049D01*
X163393084Y-50558500D01*
X163393085Y-50558500D01*
X163606915Y-50558500D01*
X163606916Y-50558500D01*
X163818116Y-50525049D01*
X164021483Y-50458972D01*
X164212009Y-50361894D01*
X164385004Y-50236206D01*
X164536206Y-50085004D01*
X164661894Y-49912009D01*
X164758972Y-49721483D01*
X164825049Y-49518116D01*
X164858500Y-49306916D01*
X164858500Y-49093084D01*
X164825049Y-48881884D01*
X164767609Y-48705100D01*
X164758973Y-48678519D01*
X164758972Y-48678516D01*
X164693575Y-48550169D01*
X164661894Y-48487991D01*
X164536206Y-48314996D01*
X164522555Y-48301345D01*
X167221500Y-48301345D01*
X167221500Y-50098654D01*
X167228011Y-50159202D01*
X167228011Y-50159204D01*
X167274587Y-50284075D01*
X167279111Y-50296204D01*
X167366739Y-50413261D01*
X167483796Y-50500889D01*
X167620799Y-50551989D01*
X167648050Y-50554918D01*
X167681345Y-50558499D01*
X167681362Y-50558500D01*
X169478638Y-50558500D01*
X169478654Y-50558499D01*
X169505692Y-50555591D01*
X169539201Y-50551989D01*
X169676204Y-50500889D01*
X169793261Y-50413261D01*
X169880889Y-50296204D01*
X169925957Y-50175371D01*
X169967827Y-50119442D01*
X170033291Y-50095025D01*
X170101564Y-50109877D01*
X170129818Y-50131028D01*
X170234996Y-50236206D01*
X170407991Y-50361894D01*
X170446894Y-50381716D01*
X170598516Y-50458972D01*
X170598519Y-50458973D01*
X170700200Y-50492010D01*
X170801884Y-50525049D01*
X171013084Y-50558500D01*
X171013085Y-50558500D01*
X171226915Y-50558500D01*
X171226916Y-50558500D01*
X171438116Y-50525049D01*
X171641483Y-50458972D01*
X171832009Y-50361894D01*
X172005004Y-50236206D01*
X172156206Y-50085004D01*
X172281894Y-49912009D01*
X172281896Y-49912004D01*
X172284270Y-49908132D01*
X172336080Y-49861254D01*
X172405009Y-49849829D01*
X172469173Y-49877483D01*
X172495730Y-49908132D01*
X172498103Y-49912005D01*
X172498106Y-49912009D01*
X172623794Y-50085004D01*
X172774996Y-50236206D01*
X172947991Y-50361894D01*
X172986894Y-50381716D01*
X173138516Y-50458972D01*
X173138519Y-50458973D01*
X173240200Y-50492010D01*
X173341884Y-50525049D01*
X173553084Y-50558500D01*
X173553085Y-50558500D01*
X173766915Y-50558500D01*
X173766916Y-50558500D01*
X173978116Y-50525049D01*
X174181483Y-50458972D01*
X174372009Y-50361894D01*
X174545004Y-50236206D01*
X174696206Y-50085004D01*
X174821894Y-49912009D01*
X174821896Y-49912004D01*
X174824270Y-49908132D01*
X174876080Y-49861254D01*
X174945009Y-49849829D01*
X175009173Y-49877483D01*
X175035730Y-49908132D01*
X175038103Y-49912005D01*
X175038106Y-49912009D01*
X175163794Y-50085004D01*
X175314996Y-50236206D01*
X175487991Y-50361894D01*
X175526894Y-50381716D01*
X175678516Y-50458972D01*
X175678519Y-50458973D01*
X175780200Y-50492010D01*
X175881884Y-50525049D01*
X176093084Y-50558500D01*
X176093085Y-50558500D01*
X176306915Y-50558500D01*
X176306916Y-50558500D01*
X176518116Y-50525049D01*
X176721483Y-50458972D01*
X176912009Y-50361894D01*
X177085004Y-50236206D01*
X177236206Y-50085004D01*
X177361894Y-49912009D01*
X177361896Y-49912004D01*
X177364270Y-49908132D01*
X177416080Y-49861254D01*
X177485009Y-49849829D01*
X177549173Y-49877483D01*
X177575730Y-49908132D01*
X177578103Y-49912005D01*
X177578106Y-49912009D01*
X177703794Y-50085004D01*
X177854996Y-50236206D01*
X178027991Y-50361894D01*
X178066894Y-50381716D01*
X178218516Y-50458972D01*
X178218519Y-50458973D01*
X178320200Y-50492010D01*
X178421884Y-50525049D01*
X178633084Y-50558500D01*
X178633085Y-50558500D01*
X178846915Y-50558500D01*
X178846916Y-50558500D01*
X179058116Y-50525049D01*
X179261483Y-50458972D01*
X179452009Y-50361894D01*
X179625004Y-50236206D01*
X179776206Y-50085004D01*
X179901894Y-49912009D01*
X179901896Y-49912004D01*
X179904270Y-49908132D01*
X179956080Y-49861254D01*
X180025009Y-49849829D01*
X180089173Y-49877483D01*
X180115730Y-49908132D01*
X180118103Y-49912005D01*
X180118106Y-49912009D01*
X180243794Y-50085004D01*
X180394996Y-50236206D01*
X180567991Y-50361894D01*
X180606894Y-50381716D01*
X180758516Y-50458972D01*
X180758519Y-50458973D01*
X180860200Y-50492010D01*
X180961884Y-50525049D01*
X181173084Y-50558500D01*
X181173085Y-50558500D01*
X181386915Y-50558500D01*
X181386916Y-50558500D01*
X181598116Y-50525049D01*
X181801483Y-50458972D01*
X181992009Y-50361894D01*
X182165004Y-50236206D01*
X182316206Y-50085004D01*
X182441894Y-49912009D01*
X182441896Y-49912004D01*
X182444270Y-49908132D01*
X182496080Y-49861254D01*
X182565009Y-49849829D01*
X182629173Y-49877483D01*
X182655730Y-49908132D01*
X182658103Y-49912005D01*
X182658106Y-49912009D01*
X182783794Y-50085004D01*
X182934996Y-50236206D01*
X183107991Y-50361894D01*
X183146894Y-50381716D01*
X183298516Y-50458972D01*
X183298519Y-50458973D01*
X183400200Y-50492010D01*
X183501884Y-50525049D01*
X183713084Y-50558500D01*
X183713085Y-50558500D01*
X183926915Y-50558500D01*
X183926916Y-50558500D01*
X184138116Y-50525049D01*
X184341483Y-50458972D01*
X184532009Y-50361894D01*
X184705004Y-50236206D01*
X184856206Y-50085004D01*
X184981894Y-49912009D01*
X184981896Y-49912004D01*
X184984270Y-49908132D01*
X185036080Y-49861254D01*
X185105009Y-49849829D01*
X185169173Y-49877483D01*
X185195730Y-49908132D01*
X185198103Y-49912005D01*
X185198106Y-49912009D01*
X185323794Y-50085004D01*
X185474996Y-50236206D01*
X185647991Y-50361894D01*
X185686894Y-50381716D01*
X185838516Y-50458972D01*
X185838519Y-50458973D01*
X185940200Y-50492010D01*
X186041884Y-50525049D01*
X186253084Y-50558500D01*
X186253085Y-50558500D01*
X186466915Y-50558500D01*
X186466916Y-50558500D01*
X186678116Y-50525049D01*
X186881483Y-50458972D01*
X187072009Y-50361894D01*
X187245004Y-50236206D01*
X187396206Y-50085004D01*
X187521894Y-49912009D01*
X187618972Y-49721483D01*
X187685049Y-49518116D01*
X187718500Y-49306916D01*
X187718500Y-49164945D01*
X203518100Y-49164945D01*
X203518100Y-50962254D01*
X203524611Y-51022802D01*
X203524611Y-51022804D01*
X203571791Y-51149294D01*
X203575711Y-51159804D01*
X203663339Y-51276861D01*
X203780396Y-51364489D01*
X203893100Y-51406526D01*
X203908457Y-51412254D01*
X203917399Y-51415589D01*
X203944650Y-51418518D01*
X203977945Y-51422099D01*
X203977962Y-51422100D01*
X205775238Y-51422100D01*
X205775254Y-51422099D01*
X205802292Y-51419191D01*
X205835801Y-51415589D01*
X205844743Y-51412254D01*
X205850368Y-51410155D01*
X205972804Y-51364489D01*
X206089861Y-51276861D01*
X206177489Y-51159804D01*
X206222557Y-51038971D01*
X206264427Y-50983042D01*
X206329891Y-50958625D01*
X206398164Y-50973477D01*
X206426418Y-50994628D01*
X206531596Y-51099806D01*
X206704591Y-51225494D01*
X206794849Y-51271483D01*
X206895116Y-51322572D01*
X206895119Y-51322573D01*
X206946872Y-51339388D01*
X207098484Y-51388649D01*
X207309684Y-51422100D01*
X207309685Y-51422100D01*
X207523515Y-51422100D01*
X207523516Y-51422100D01*
X207734716Y-51388649D01*
X207938083Y-51322572D01*
X208128609Y-51225494D01*
X208301604Y-51099806D01*
X208452806Y-50948604D01*
X208578494Y-50775609D01*
X208580883Y-50770919D01*
X208628854Y-50720122D01*
X208696674Y-50703324D01*
X208762810Y-50725858D01*
X208798796Y-50767383D01*
X208799429Y-50766996D01*
X208801767Y-50770811D01*
X208801851Y-50770908D01*
X208801971Y-50771145D01*
X208801973Y-50771147D01*
X208841328Y-50825316D01*
X209473637Y-50193008D01*
X209490675Y-50256593D01*
X209556501Y-50370607D01*
X209649593Y-50463699D01*
X209763607Y-50529525D01*
X209827190Y-50546562D01*
X209194882Y-51178869D01*
X209194882Y-51178870D01*
X209249049Y-51218224D01*
X209438382Y-51314695D01*
X209640470Y-51380357D01*
X209850354Y-51413600D01*
X210062846Y-51413600D01*
X210272727Y-51380357D01*
X210272730Y-51380357D01*
X210474817Y-51314695D01*
X210664154Y-51218222D01*
X210718316Y-51178870D01*
X210718317Y-51178870D01*
X210086008Y-50546562D01*
X210149593Y-50529525D01*
X210263607Y-50463699D01*
X210356699Y-50370607D01*
X210422525Y-50256593D01*
X210439562Y-50193008D01*
X211071870Y-50825317D01*
X211071870Y-50825316D01*
X211111222Y-50771154D01*
X211207695Y-50581817D01*
X211273357Y-50379730D01*
X211273357Y-50379727D01*
X211306600Y-50169846D01*
X211306600Y-49957352D01*
X211296726Y-49895009D01*
X211294425Y-49880484D01*
X220993300Y-49880484D01*
X220993300Y-50094315D01*
X221026751Y-50305517D01*
X221092826Y-50508880D01*
X221092827Y-50508883D01*
X221185715Y-50691183D01*
X221189906Y-50699409D01*
X221315594Y-50872404D01*
X221466796Y-51023606D01*
X221639791Y-51149294D01*
X221697835Y-51178869D01*
X221830316Y-51246372D01*
X221830319Y-51246373D01*
X221897550Y-51268217D01*
X222033684Y-51312449D01*
X222244884Y-51345900D01*
X222244885Y-51345900D01*
X222458715Y-51345900D01*
X222458716Y-51345900D01*
X222669916Y-51312449D01*
X222873283Y-51246372D01*
X223063809Y-51149294D01*
X223236804Y-51023606D01*
X223388006Y-50872404D01*
X223513694Y-50699409D01*
X223516083Y-50694719D01*
X223564054Y-50643922D01*
X223631874Y-50627124D01*
X223698010Y-50649658D01*
X223733996Y-50691183D01*
X223734629Y-50690796D01*
X223736967Y-50694611D01*
X223737051Y-50694708D01*
X223737171Y-50694945D01*
X223737173Y-50694947D01*
X223776528Y-50749116D01*
X224408837Y-50116808D01*
X224425875Y-50180393D01*
X224491701Y-50294407D01*
X224584793Y-50387499D01*
X224698807Y-50453325D01*
X224762390Y-50470362D01*
X224130082Y-51102669D01*
X224130082Y-51102670D01*
X224184249Y-51142024D01*
X224373582Y-51238495D01*
X224575670Y-51304157D01*
X224785554Y-51337400D01*
X224998046Y-51337400D01*
X225207927Y-51304157D01*
X225207930Y-51304157D01*
X225410017Y-51238495D01*
X225599354Y-51142022D01*
X225653516Y-51102670D01*
X225653517Y-51102670D01*
X225021208Y-50470362D01*
X225084793Y-50453325D01*
X225198807Y-50387499D01*
X225291899Y-50294407D01*
X225357725Y-50180393D01*
X225374762Y-50116808D01*
X226007070Y-50749117D01*
X226007070Y-50749116D01*
X226046421Y-50694956D01*
X226046538Y-50694727D01*
X226046608Y-50694652D01*
X226048968Y-50690802D01*
X226049776Y-50691297D01*
X226094507Y-50643926D01*
X226162326Y-50627123D01*
X226228463Y-50649654D01*
X226267512Y-50694711D01*
X226269905Y-50699408D01*
X226272750Y-50703324D01*
X226395594Y-50872404D01*
X226546796Y-51023606D01*
X226719791Y-51149294D01*
X226777835Y-51178869D01*
X226910316Y-51246372D01*
X226910319Y-51246373D01*
X226977550Y-51268217D01*
X227113684Y-51312449D01*
X227324884Y-51345900D01*
X227324885Y-51345900D01*
X227538715Y-51345900D01*
X227538716Y-51345900D01*
X227749916Y-51312449D01*
X227953283Y-51246372D01*
X228143809Y-51149294D01*
X228316804Y-51023606D01*
X228421984Y-50918425D01*
X228483303Y-50884943D01*
X228552995Y-50889927D01*
X228608929Y-50931798D01*
X228625843Y-50962775D01*
X228670910Y-51083603D01*
X228670911Y-51083604D01*
X228758539Y-51200661D01*
X228875596Y-51288289D01*
X229012599Y-51339389D01*
X229039850Y-51342318D01*
X229073145Y-51345899D01*
X229073162Y-51345900D01*
X230870438Y-51345900D01*
X230870454Y-51345899D01*
X230897492Y-51342991D01*
X230931001Y-51339389D01*
X231068004Y-51288289D01*
X231185061Y-51200661D01*
X231272689Y-51083604D01*
X231323789Y-50946601D01*
X231327391Y-50913092D01*
X231330299Y-50886054D01*
X231330300Y-50886037D01*
X231330300Y-49088762D01*
X231330299Y-49088745D01*
X231326818Y-49056371D01*
X231323789Y-49028199D01*
X231323489Y-49027396D01*
X231276609Y-48901706D01*
X231272689Y-48891196D01*
X231185061Y-48774139D01*
X231068004Y-48686511D01*
X231046577Y-48678519D01*
X230931003Y-48635411D01*
X230870454Y-48628900D01*
X230870438Y-48628900D01*
X229073162Y-48628900D01*
X229073145Y-48628900D01*
X229012597Y-48635411D01*
X229012595Y-48635411D01*
X228875595Y-48686511D01*
X228758539Y-48774139D01*
X228670911Y-48891195D01*
X228625843Y-49012025D01*
X228583971Y-49067958D01*
X228518507Y-49092374D01*
X228450234Y-49077522D01*
X228421981Y-49056371D01*
X228316806Y-48951196D01*
X228316804Y-48951194D01*
X228143809Y-48825506D01*
X228102830Y-48804626D01*
X227953283Y-48728427D01*
X227953280Y-48728426D01*
X227749917Y-48662351D01*
X227644316Y-48645625D01*
X227538716Y-48628900D01*
X227324884Y-48628900D01*
X227254484Y-48640050D01*
X227113682Y-48662351D01*
X226910319Y-48728426D01*
X226910316Y-48728427D01*
X226719790Y-48825506D01*
X226546793Y-48951196D01*
X226395596Y-49102393D01*
X226269903Y-49275394D01*
X226267509Y-49280093D01*
X226219531Y-49330885D01*
X226151708Y-49347675D01*
X226085575Y-49325132D01*
X226049604Y-49283615D01*
X226048971Y-49284004D01*
X226046626Y-49280178D01*
X226046543Y-49280082D01*
X226046424Y-49279849D01*
X226007070Y-49225682D01*
X226007069Y-49225682D01*
X225374762Y-49857990D01*
X225357725Y-49794407D01*
X225291899Y-49680393D01*
X225198807Y-49587301D01*
X225084793Y-49521475D01*
X225021209Y-49504437D01*
X225653516Y-48872128D01*
X225599350Y-48832775D01*
X225410017Y-48736304D01*
X225207929Y-48670642D01*
X224998046Y-48637400D01*
X224785554Y-48637400D01*
X224575672Y-48670642D01*
X224575669Y-48670642D01*
X224373582Y-48736304D01*
X224184239Y-48832780D01*
X224130082Y-48872127D01*
X224130082Y-48872128D01*
X224762391Y-49504437D01*
X224698807Y-49521475D01*
X224584793Y-49587301D01*
X224491701Y-49680393D01*
X224425875Y-49794407D01*
X224408837Y-49857991D01*
X223776528Y-49225682D01*
X223776527Y-49225682D01*
X223737180Y-49279840D01*
X223737174Y-49279849D01*
X223737046Y-49280102D01*
X223736972Y-49280180D01*
X223734638Y-49283990D01*
X223733836Y-49283499D01*
X223689064Y-49330890D01*
X223621241Y-49347675D01*
X223555109Y-49325128D01*
X223516083Y-49280080D01*
X223513694Y-49275391D01*
X223388006Y-49102396D01*
X223236804Y-48951194D01*
X223063809Y-48825506D01*
X223022830Y-48804626D01*
X222873283Y-48728427D01*
X222873280Y-48728426D01*
X222669917Y-48662351D01*
X222564316Y-48645625D01*
X222458716Y-48628900D01*
X222244884Y-48628900D01*
X222174484Y-48640050D01*
X222033682Y-48662351D01*
X221830319Y-48728426D01*
X221830316Y-48728427D01*
X221639790Y-48825506D01*
X221466793Y-48951196D01*
X221315596Y-49102393D01*
X221189906Y-49275390D01*
X221092827Y-49465916D01*
X221092826Y-49465919D01*
X221026751Y-49669282D01*
X220993300Y-49880484D01*
X211294425Y-49880484D01*
X211273357Y-49747472D01*
X211273357Y-49747469D01*
X211207695Y-49545382D01*
X211111224Y-49356049D01*
X211071870Y-49301882D01*
X211071869Y-49301882D01*
X210439562Y-49934190D01*
X210422525Y-49870607D01*
X210356699Y-49756593D01*
X210263607Y-49663501D01*
X210149593Y-49597675D01*
X210086009Y-49580637D01*
X210718316Y-48948328D01*
X210664150Y-48908975D01*
X210474817Y-48812504D01*
X210272729Y-48746842D01*
X210062846Y-48713600D01*
X209850354Y-48713600D01*
X209640472Y-48746842D01*
X209640469Y-48746842D01*
X209438382Y-48812504D01*
X209249039Y-48908980D01*
X209194882Y-48948327D01*
X209194882Y-48948328D01*
X209827191Y-49580637D01*
X209763607Y-49597675D01*
X209649593Y-49663501D01*
X209556501Y-49756593D01*
X209490675Y-49870607D01*
X209473637Y-49934191D01*
X208841328Y-49301882D01*
X208841327Y-49301882D01*
X208801980Y-49356040D01*
X208801974Y-49356049D01*
X208801846Y-49356302D01*
X208801772Y-49356380D01*
X208799438Y-49360190D01*
X208798636Y-49359699D01*
X208753864Y-49407090D01*
X208686041Y-49423875D01*
X208619909Y-49401328D01*
X208580883Y-49356280D01*
X208578494Y-49351591D01*
X208452806Y-49178596D01*
X208301604Y-49027394D01*
X208128609Y-48901706D01*
X208107980Y-48891195D01*
X207938083Y-48804627D01*
X207938080Y-48804626D01*
X207734717Y-48738551D01*
X207629116Y-48721825D01*
X207523516Y-48705100D01*
X207309684Y-48705100D01*
X207239284Y-48716250D01*
X207098482Y-48738551D01*
X206895119Y-48804626D01*
X206895116Y-48804627D01*
X206704590Y-48901706D01*
X206531597Y-49027393D01*
X206426418Y-49132572D01*
X206365095Y-49166056D01*
X206295403Y-49161072D01*
X206239470Y-49119200D01*
X206222558Y-49088229D01*
X206177489Y-48967396D01*
X206089861Y-48850339D01*
X205972804Y-48762711D01*
X205835803Y-48711611D01*
X205775254Y-48705100D01*
X205775238Y-48705100D01*
X203977962Y-48705100D01*
X203977945Y-48705100D01*
X203917397Y-48711611D01*
X203917395Y-48711611D01*
X203780395Y-48762711D01*
X203663339Y-48850339D01*
X203575711Y-48967395D01*
X203524611Y-49104395D01*
X203524611Y-49104397D01*
X203518100Y-49164945D01*
X187718500Y-49164945D01*
X187718500Y-49093084D01*
X187685049Y-48881884D01*
X187627609Y-48705100D01*
X187618973Y-48678519D01*
X187618972Y-48678516D01*
X187547756Y-48538748D01*
X187521894Y-48487991D01*
X187396206Y-48314996D01*
X187245004Y-48163794D01*
X187072009Y-48038106D01*
X186881483Y-47941027D01*
X186881480Y-47941026D01*
X186678117Y-47874951D01*
X186572516Y-47858225D01*
X186466916Y-47841500D01*
X186253084Y-47841500D01*
X186182684Y-47852650D01*
X186041882Y-47874951D01*
X185838519Y-47941026D01*
X185838516Y-47941027D01*
X185647990Y-48038106D01*
X185474993Y-48163796D01*
X185323796Y-48314993D01*
X185198105Y-48487991D01*
X185195727Y-48491873D01*
X185143914Y-48538748D01*
X185074984Y-48550169D01*
X185010822Y-48522512D01*
X184984273Y-48491873D01*
X184981894Y-48487991D01*
X184981891Y-48487987D01*
X184856206Y-48314996D01*
X184705004Y-48163794D01*
X184532009Y-48038106D01*
X184341483Y-47941027D01*
X184341480Y-47941026D01*
X184138117Y-47874951D01*
X184032516Y-47858225D01*
X183926916Y-47841500D01*
X183713084Y-47841500D01*
X183642684Y-47852650D01*
X183501882Y-47874951D01*
X183298519Y-47941026D01*
X183298516Y-47941027D01*
X183107990Y-48038106D01*
X182934993Y-48163796D01*
X182783796Y-48314993D01*
X182658105Y-48487991D01*
X182655727Y-48491873D01*
X182603914Y-48538748D01*
X182534984Y-48550169D01*
X182470822Y-48522512D01*
X182444273Y-48491873D01*
X182441894Y-48487991D01*
X182441891Y-48487987D01*
X182316206Y-48314996D01*
X182165004Y-48163794D01*
X181992009Y-48038106D01*
X181801483Y-47941027D01*
X181801480Y-47941026D01*
X181598117Y-47874951D01*
X181492516Y-47858225D01*
X181386916Y-47841500D01*
X181173084Y-47841500D01*
X181102684Y-47852650D01*
X180961882Y-47874951D01*
X180758519Y-47941026D01*
X180758516Y-47941027D01*
X180567990Y-48038106D01*
X180394993Y-48163796D01*
X180243796Y-48314993D01*
X180118105Y-48487991D01*
X180115727Y-48491873D01*
X180063914Y-48538748D01*
X179994984Y-48550169D01*
X179930822Y-48522512D01*
X179904273Y-48491873D01*
X179901894Y-48487991D01*
X179901891Y-48487987D01*
X179776206Y-48314996D01*
X179625004Y-48163794D01*
X179452009Y-48038106D01*
X179261483Y-47941027D01*
X179261480Y-47941026D01*
X179058117Y-47874951D01*
X178952516Y-47858225D01*
X178846916Y-47841500D01*
X178633084Y-47841500D01*
X178562684Y-47852650D01*
X178421882Y-47874951D01*
X178218519Y-47941026D01*
X178218516Y-47941027D01*
X178027990Y-48038106D01*
X177854993Y-48163796D01*
X177703796Y-48314993D01*
X177578105Y-48487991D01*
X177575727Y-48491873D01*
X177523914Y-48538748D01*
X177454984Y-48550169D01*
X177390822Y-48522512D01*
X177364273Y-48491873D01*
X177361894Y-48487991D01*
X177361891Y-48487987D01*
X177236206Y-48314996D01*
X177085004Y-48163794D01*
X176912009Y-48038106D01*
X176721483Y-47941027D01*
X176721480Y-47941026D01*
X176518117Y-47874951D01*
X176412516Y-47858225D01*
X176306916Y-47841500D01*
X176093084Y-47841500D01*
X176022684Y-47852650D01*
X175881882Y-47874951D01*
X175678519Y-47941026D01*
X175678516Y-47941027D01*
X175487990Y-48038106D01*
X175314993Y-48163796D01*
X175163796Y-48314993D01*
X175038105Y-48487991D01*
X175035727Y-48491873D01*
X174983914Y-48538748D01*
X174914984Y-48550169D01*
X174850822Y-48522512D01*
X174824273Y-48491873D01*
X174821894Y-48487991D01*
X174821891Y-48487987D01*
X174696206Y-48314996D01*
X174545004Y-48163794D01*
X174372009Y-48038106D01*
X174181483Y-47941027D01*
X174181480Y-47941026D01*
X173978117Y-47874951D01*
X173872516Y-47858225D01*
X173766916Y-47841500D01*
X173553084Y-47841500D01*
X173482684Y-47852650D01*
X173341882Y-47874951D01*
X173138519Y-47941026D01*
X173138516Y-47941027D01*
X172947990Y-48038106D01*
X172774993Y-48163796D01*
X172623796Y-48314993D01*
X172498105Y-48487991D01*
X172495727Y-48491873D01*
X172443914Y-48538748D01*
X172374984Y-48550169D01*
X172310822Y-48522512D01*
X172284273Y-48491873D01*
X172281894Y-48487991D01*
X172281891Y-48487987D01*
X172156206Y-48314996D01*
X172005004Y-48163794D01*
X171832009Y-48038106D01*
X171641483Y-47941027D01*
X171641480Y-47941026D01*
X171438117Y-47874951D01*
X171332516Y-47858225D01*
X171226916Y-47841500D01*
X171013084Y-47841500D01*
X170942684Y-47852650D01*
X170801882Y-47874951D01*
X170598519Y-47941026D01*
X170598516Y-47941027D01*
X170407990Y-48038106D01*
X170234997Y-48163793D01*
X170129818Y-48268972D01*
X170068495Y-48302456D01*
X169998803Y-48297472D01*
X169942870Y-48255600D01*
X169925958Y-48224629D01*
X169880889Y-48103796D01*
X169793261Y-47986739D01*
X169676204Y-47899111D01*
X169539203Y-47848011D01*
X169478654Y-47841500D01*
X169478638Y-47841500D01*
X167681362Y-47841500D01*
X167681345Y-47841500D01*
X167620797Y-47848011D01*
X167620795Y-47848011D01*
X167483795Y-47899111D01*
X167366739Y-47986739D01*
X167279111Y-48103795D01*
X167228011Y-48240795D01*
X167228011Y-48240797D01*
X167221500Y-48301345D01*
X164522555Y-48301345D01*
X164385004Y-48163794D01*
X164212009Y-48038106D01*
X164021483Y-47941027D01*
X164021480Y-47941026D01*
X163818117Y-47874951D01*
X163712516Y-47858225D01*
X163606916Y-47841500D01*
X163393084Y-47841500D01*
X163322684Y-47852650D01*
X163181882Y-47874951D01*
X162978519Y-47941026D01*
X162978516Y-47941027D01*
X162787990Y-48038106D01*
X162614993Y-48163796D01*
X162463796Y-48314993D01*
X162338105Y-48487991D01*
X162335727Y-48491873D01*
X162283914Y-48538748D01*
X162214984Y-48550169D01*
X162150822Y-48522512D01*
X162124273Y-48491873D01*
X162121894Y-48487991D01*
X162121891Y-48487987D01*
X161996206Y-48314996D01*
X161845004Y-48163794D01*
X161672009Y-48038106D01*
X161481483Y-47941027D01*
X161481480Y-47941026D01*
X161278117Y-47874951D01*
X161172516Y-47858225D01*
X161066916Y-47841500D01*
X160853084Y-47841500D01*
X160782684Y-47852650D01*
X160641882Y-47874951D01*
X160438519Y-47941026D01*
X160438516Y-47941027D01*
X160247990Y-48038106D01*
X160074993Y-48163796D01*
X159923796Y-48314993D01*
X159798105Y-48487991D01*
X159795727Y-48491873D01*
X159743914Y-48538748D01*
X159674984Y-48550169D01*
X159610822Y-48522512D01*
X159584273Y-48491873D01*
X159581894Y-48487991D01*
X159581891Y-48487987D01*
X159456206Y-48314996D01*
X159305004Y-48163794D01*
X159132009Y-48038106D01*
X158941483Y-47941027D01*
X158941480Y-47941026D01*
X158738117Y-47874951D01*
X158632516Y-47858225D01*
X158526916Y-47841500D01*
X158313084Y-47841500D01*
X158242684Y-47852650D01*
X158101882Y-47874951D01*
X157898519Y-47941026D01*
X157898516Y-47941027D01*
X157707990Y-48038106D01*
X157534993Y-48163796D01*
X157383796Y-48314993D01*
X157258105Y-48487991D01*
X157255727Y-48491873D01*
X157203914Y-48538748D01*
X157134984Y-48550169D01*
X157070822Y-48522512D01*
X157044273Y-48491873D01*
X157041894Y-48487991D01*
X157041891Y-48487987D01*
X156916206Y-48314996D01*
X156765004Y-48163794D01*
X156592009Y-48038106D01*
X156401483Y-47941027D01*
X156401480Y-47941026D01*
X156198117Y-47874951D01*
X156092516Y-47858225D01*
X155986916Y-47841500D01*
X155773084Y-47841500D01*
X155702684Y-47852650D01*
X155561882Y-47874951D01*
X155358519Y-47941026D01*
X155358516Y-47941027D01*
X155167990Y-48038106D01*
X154994993Y-48163796D01*
X154843796Y-48314993D01*
X154718105Y-48487991D01*
X154715727Y-48491873D01*
X154663914Y-48538748D01*
X154594984Y-48550169D01*
X154530822Y-48522512D01*
X154504273Y-48491873D01*
X154501894Y-48487991D01*
X154501891Y-48487987D01*
X154376206Y-48314996D01*
X154225004Y-48163794D01*
X154052009Y-48038106D01*
X153861483Y-47941027D01*
X153861480Y-47941026D01*
X153658117Y-47874951D01*
X153552516Y-47858225D01*
X153446916Y-47841500D01*
X153233084Y-47841500D01*
X153162684Y-47852650D01*
X153021882Y-47874951D01*
X152818519Y-47941026D01*
X152818516Y-47941027D01*
X152627990Y-48038106D01*
X152454993Y-48163796D01*
X152303796Y-48314993D01*
X152178105Y-48487991D01*
X152175727Y-48491873D01*
X152123914Y-48538748D01*
X152054984Y-48550169D01*
X151990822Y-48522512D01*
X151964273Y-48491873D01*
X151961894Y-48487991D01*
X151961891Y-48487987D01*
X151836206Y-48314996D01*
X151685004Y-48163794D01*
X151512009Y-48038106D01*
X151321483Y-47941027D01*
X151321480Y-47941026D01*
X151118117Y-47874951D01*
X151012516Y-47858225D01*
X150906916Y-47841500D01*
X150693084Y-47841500D01*
X150622684Y-47852650D01*
X150481882Y-47874951D01*
X150278519Y-47941026D01*
X150278516Y-47941027D01*
X150087990Y-48038106D01*
X149914993Y-48163796D01*
X149763796Y-48314993D01*
X149638105Y-48487991D01*
X149635727Y-48491873D01*
X149583914Y-48538748D01*
X149514984Y-48550169D01*
X149450822Y-48522512D01*
X149424273Y-48491873D01*
X149421894Y-48487991D01*
X149421891Y-48487987D01*
X149296206Y-48314996D01*
X149145004Y-48163794D01*
X148972009Y-48038106D01*
X148781483Y-47941027D01*
X148781480Y-47941026D01*
X148578117Y-47874951D01*
X148472516Y-47858225D01*
X148366916Y-47841500D01*
X148153084Y-47841500D01*
X148082684Y-47852650D01*
X147941882Y-47874951D01*
X147738519Y-47941026D01*
X147738516Y-47941027D01*
X147547990Y-48038106D01*
X147374997Y-48163793D01*
X147269818Y-48268972D01*
X147208495Y-48302456D01*
X147138803Y-48297472D01*
X147082870Y-48255600D01*
X147065958Y-48224629D01*
X147020889Y-48103796D01*
X146933261Y-47986739D01*
X146816204Y-47899111D01*
X146679203Y-47848011D01*
X146618654Y-47841500D01*
X146618638Y-47841500D01*
X144821362Y-47841500D01*
X144821345Y-47841500D01*
X144760797Y-47848011D01*
X144760795Y-47848011D01*
X144623795Y-47899111D01*
X144506739Y-47986739D01*
X144419111Y-48103795D01*
X144368011Y-48240795D01*
X144368011Y-48240797D01*
X144361500Y-48301345D01*
X142678555Y-48301345D01*
X142541004Y-48163794D01*
X142368009Y-48038106D01*
X142177483Y-47941027D01*
X142177480Y-47941026D01*
X141974117Y-47874951D01*
X141868516Y-47858225D01*
X141762916Y-47841500D01*
X141549084Y-47841500D01*
X141478684Y-47852650D01*
X141337882Y-47874951D01*
X141134519Y-47941026D01*
X141134516Y-47941027D01*
X140943990Y-48038106D01*
X140770993Y-48163796D01*
X140619796Y-48314993D01*
X140494105Y-48487991D01*
X140491727Y-48491873D01*
X140439914Y-48538748D01*
X140370984Y-48550169D01*
X140306822Y-48522512D01*
X140280273Y-48491873D01*
X140277894Y-48487991D01*
X140277891Y-48487987D01*
X140152206Y-48314996D01*
X140001004Y-48163794D01*
X139828009Y-48038106D01*
X139637483Y-47941027D01*
X139637480Y-47941026D01*
X139434117Y-47874951D01*
X139328516Y-47858225D01*
X139222916Y-47841500D01*
X139009084Y-47841500D01*
X138938684Y-47852650D01*
X138797882Y-47874951D01*
X138594519Y-47941026D01*
X138594516Y-47941027D01*
X138403990Y-48038106D01*
X138230993Y-48163796D01*
X138079796Y-48314993D01*
X137954105Y-48487991D01*
X137951727Y-48491873D01*
X137899914Y-48538748D01*
X137830984Y-48550169D01*
X137766822Y-48522512D01*
X137740273Y-48491873D01*
X137737894Y-48487991D01*
X137737891Y-48487987D01*
X137612206Y-48314996D01*
X137461004Y-48163794D01*
X137288009Y-48038106D01*
X137097483Y-47941027D01*
X137097480Y-47941026D01*
X136894117Y-47874951D01*
X136788516Y-47858225D01*
X136682916Y-47841500D01*
X136469084Y-47841500D01*
X136398684Y-47852650D01*
X136257882Y-47874951D01*
X136054519Y-47941026D01*
X136054516Y-47941027D01*
X135863990Y-48038106D01*
X135690993Y-48163796D01*
X135539796Y-48314993D01*
X135414105Y-48487991D01*
X135411727Y-48491873D01*
X135359914Y-48538748D01*
X135290984Y-48550169D01*
X135226822Y-48522512D01*
X135200273Y-48491873D01*
X135197894Y-48487991D01*
X135197891Y-48487987D01*
X135072206Y-48314996D01*
X134921004Y-48163794D01*
X134748009Y-48038106D01*
X134557483Y-47941027D01*
X134557480Y-47941026D01*
X134354117Y-47874951D01*
X134248516Y-47858225D01*
X134142916Y-47841500D01*
X133929084Y-47841500D01*
X133858684Y-47852650D01*
X133717882Y-47874951D01*
X133514519Y-47941026D01*
X133514516Y-47941027D01*
X133323990Y-48038106D01*
X133150993Y-48163796D01*
X132999796Y-48314993D01*
X132874105Y-48487991D01*
X132871727Y-48491873D01*
X132819914Y-48538748D01*
X132750984Y-48550169D01*
X132686822Y-48522512D01*
X132660273Y-48491873D01*
X132657894Y-48487991D01*
X132657891Y-48487987D01*
X132532206Y-48314996D01*
X132381004Y-48163794D01*
X132208009Y-48038106D01*
X132017483Y-47941027D01*
X132017480Y-47941026D01*
X131814117Y-47874951D01*
X131708516Y-47858225D01*
X131602916Y-47841500D01*
X131389084Y-47841500D01*
X131318684Y-47852650D01*
X131177882Y-47874951D01*
X130974519Y-47941026D01*
X130974516Y-47941027D01*
X130783990Y-48038106D01*
X130610993Y-48163796D01*
X130459796Y-48314993D01*
X130334105Y-48487991D01*
X130331727Y-48491873D01*
X130279914Y-48538748D01*
X130210984Y-48550169D01*
X130146822Y-48522512D01*
X130120273Y-48491873D01*
X130117894Y-48487991D01*
X130117891Y-48487987D01*
X129992206Y-48314996D01*
X129841004Y-48163794D01*
X129668009Y-48038106D01*
X129477483Y-47941027D01*
X129477480Y-47941026D01*
X129274117Y-47874951D01*
X129168516Y-47858225D01*
X129062916Y-47841500D01*
X128849084Y-47841500D01*
X128778684Y-47852650D01*
X128637882Y-47874951D01*
X128434519Y-47941026D01*
X128434516Y-47941027D01*
X128243990Y-48038106D01*
X128070993Y-48163796D01*
X127919796Y-48314993D01*
X127794105Y-48487991D01*
X127791727Y-48491873D01*
X127739914Y-48538748D01*
X127670984Y-48550169D01*
X127606822Y-48522512D01*
X127580273Y-48491873D01*
X127577894Y-48487991D01*
X127577891Y-48487987D01*
X127452206Y-48314996D01*
X127301004Y-48163794D01*
X127128009Y-48038106D01*
X126937483Y-47941027D01*
X126937480Y-47941026D01*
X126734117Y-47874951D01*
X126628516Y-47858225D01*
X126522916Y-47841500D01*
X126309084Y-47841500D01*
X126238684Y-47852650D01*
X126097882Y-47874951D01*
X125894519Y-47941026D01*
X125894516Y-47941027D01*
X125703990Y-48038106D01*
X125530993Y-48163796D01*
X125379796Y-48314993D01*
X125254105Y-48487991D01*
X125251727Y-48491873D01*
X125199914Y-48538748D01*
X125130984Y-48550169D01*
X125066822Y-48522512D01*
X125040273Y-48491873D01*
X125037894Y-48487991D01*
X125037891Y-48487987D01*
X124912206Y-48314996D01*
X124761004Y-48163794D01*
X124588009Y-48038106D01*
X124397483Y-47941027D01*
X124397480Y-47941026D01*
X124194117Y-47874951D01*
X124088516Y-47858225D01*
X123982916Y-47841500D01*
X123769084Y-47841500D01*
X123698684Y-47852650D01*
X123557882Y-47874951D01*
X123354519Y-47941026D01*
X123354516Y-47941027D01*
X123163990Y-48038106D01*
X122990993Y-48163796D01*
X122839796Y-48314993D01*
X122714105Y-48487991D01*
X122711727Y-48491873D01*
X122659914Y-48538748D01*
X122590984Y-48550169D01*
X122526822Y-48522512D01*
X122500273Y-48491873D01*
X122497894Y-48487991D01*
X122497891Y-48487987D01*
X122372206Y-48314996D01*
X122221004Y-48163794D01*
X122048009Y-48038106D01*
X121857483Y-47941027D01*
X121857480Y-47941026D01*
X121654117Y-47874951D01*
X121548516Y-47858225D01*
X121442916Y-47841500D01*
X121229084Y-47841500D01*
X121158684Y-47852650D01*
X121017882Y-47874951D01*
X120814519Y-47941026D01*
X120814516Y-47941027D01*
X120623990Y-48038106D01*
X120450997Y-48163793D01*
X120345818Y-48268972D01*
X120284495Y-48302456D01*
X120214803Y-48297472D01*
X120158870Y-48255600D01*
X120141958Y-48224629D01*
X120096889Y-48103796D01*
X120009261Y-47986739D01*
X119892204Y-47899111D01*
X119755203Y-47848011D01*
X119694654Y-47841500D01*
X119694638Y-47841500D01*
X117897362Y-47841500D01*
X117897345Y-47841500D01*
X117836797Y-47848011D01*
X117836795Y-47848011D01*
X117699795Y-47899111D01*
X117582739Y-47986739D01*
X117495111Y-48103795D01*
X117444011Y-48240795D01*
X117444011Y-48240797D01*
X117437500Y-48301345D01*
X100075500Y-48301345D01*
X100075500Y-47428092D01*
X100076097Y-47415939D01*
X100083624Y-47339513D01*
X100087494Y-47300219D01*
X100092232Y-47276395D01*
X100124215Y-47170962D01*
X100133512Y-47148520D01*
X100185439Y-47051370D01*
X100198941Y-47031164D01*
X100208988Y-47018921D01*
X100268827Y-46946008D01*
X100286008Y-46928827D01*
X100371164Y-46858941D01*
X100391370Y-46845439D01*
X100488520Y-46793512D01*
X100510962Y-46784215D01*
X100616395Y-46752232D01*
X100640219Y-46747494D01*
X100737721Y-46737891D01*
X100755940Y-46736097D01*
X100768093Y-46735500D01*
X100786531Y-46735500D01*
X196504982Y-46735500D01*
X277752900Y-46735500D01*
X277819939Y-46755185D01*
G37*
%TD.AperFunction*%
%TD*%
M02*
