%TF.GenerationSoftware,KiCad,Pcbnew,10.0.3*%
%TF.CreationDate,2026-06-08T14:40:56+01:00*%
%TF.ProjectId,1 LED,31204c45-442e-46b6-9963-61645f706362,rev?*%
%TF.SameCoordinates,Original*%
%TF.FileFunction,Copper,L2,Bot*%
%TF.FilePolarity,Positive*%
%FSLAX46Y46*%
G04 Gerber Fmt 4.6, Leading zero omitted, Abs format (unit mm)*
G04 Created by KiCad (PCBNEW 10.0.3) date 2026-06-08 14:40:56*
%MOMM*%
%LPD*%
G01*
G04 APERTURE LIST*
G04 Aperture macros list*
%AMRoundRect*
0 Rectangle with rounded corners*
0 $1 Rounding radius*
0 $2 $3 $4 $5 $6 $7 $8 $9 X,Y pos of 4 corners*
0 Add a 4 corners polygon primitive as box body*
4,1,4,$2,$3,$4,$5,$6,$7,$8,$9,$2,$3,0*
0 Add four circle primitives for the rounded corners*
1,1,$1+$1,$2,$3*
1,1,$1+$1,$4,$5*
1,1,$1+$1,$6,$7*
1,1,$1+$1,$8,$9*
0 Add four rect primitives between the rounded corners*
20,1,$1+$1,$2,$3,$4,$5,0*
20,1,$1+$1,$4,$5,$6,$7,0*
20,1,$1+$1,$6,$7,$8,$9,0*
20,1,$1+$1,$8,$9,$2,$3,0*%
G04 Aperture macros list end*
%TA.AperFunction,ComponentPad*%
%ADD10RoundRect,0.250000X-0.750000X-0.750000X0.750000X-0.750000X0.750000X0.750000X-0.750000X0.750000X0*%
%TD*%
%TA.AperFunction,ComponentPad*%
%ADD11C,2.000000*%
%TD*%
%TA.AperFunction,ComponentPad*%
%ADD12R,1.800000X1.800000*%
%TD*%
%TA.AperFunction,ComponentPad*%
%ADD13C,1.800000*%
%TD*%
G04 APERTURE END LIST*
D10*
%TO.P,J1,1,Pin_1_1*%
%TO.N,+5V*%
X143190000Y-80000000D03*
D11*
%TO.P,J1,2,Pin_2_2*%
%TO.N,GND*%
X147000000Y-80000000D03*
%TD*%
D12*
%TO.P,D1,1,K_1*%
%TO.N,GND*%
X155000000Y-77985000D03*
D13*
%TO.P,D1,2,A_2*%
%TO.N,Net-(D1-A)*%
X157540000Y-77985000D03*
%TD*%
%TA.AperFunction,Conductor*%
%TO.N,GND*%
G36*
X159442539Y-73520185D02*
G01*
X159488294Y-73572989D01*
X159499500Y-73624500D01*
X159499500Y-86375500D01*
X159479815Y-86442539D01*
X159427011Y-86488294D01*
X159375500Y-86499500D01*
X140624500Y-86499500D01*
X140557461Y-86479815D01*
X140511706Y-86427011D01*
X140500500Y-86375500D01*
X140500500Y-79199983D01*
X141689500Y-79199983D01*
X141689500Y-80800001D01*
X141689501Y-80800018D01*
X141700000Y-80902796D01*
X141700001Y-80902799D01*
X141755185Y-81069331D01*
X141755186Y-81069334D01*
X141847288Y-81218656D01*
X141971344Y-81342712D01*
X142120666Y-81434814D01*
X142287203Y-81489999D01*
X142389991Y-81500500D01*
X143990008Y-81500499D01*
X144092797Y-81489999D01*
X144259334Y-81434814D01*
X144408656Y-81342712D01*
X144532712Y-81218656D01*
X144624814Y-81069334D01*
X144679999Y-80902797D01*
X144690500Y-80800009D01*
X144690499Y-79881947D01*
X145500000Y-79881947D01*
X145500000Y-80118052D01*
X145536934Y-80351247D01*
X145609897Y-80575802D01*
X145717087Y-80786174D01*
X145777338Y-80869104D01*
X145777340Y-80869105D01*
X146476212Y-80170233D01*
X146487482Y-80212292D01*
X146559890Y-80337708D01*
X146662292Y-80440110D01*
X146787708Y-80512518D01*
X146829765Y-80523787D01*
X146130893Y-81222658D01*
X146213828Y-81282914D01*
X146424197Y-81390102D01*
X146648752Y-81463065D01*
X146648751Y-81463065D01*
X146881948Y-81500000D01*
X147118052Y-81500000D01*
X147351247Y-81463065D01*
X147575802Y-81390102D01*
X147786163Y-81282918D01*
X147786169Y-81282914D01*
X147869104Y-81222658D01*
X147869105Y-81222658D01*
X147170233Y-80523787D01*
X147212292Y-80512518D01*
X147337708Y-80440110D01*
X147440110Y-80337708D01*
X147512518Y-80212292D01*
X147523787Y-80170234D01*
X148222658Y-80869105D01*
X148222658Y-80869104D01*
X148282914Y-80786169D01*
X148282918Y-80786163D01*
X148390102Y-80575802D01*
X148463065Y-80351247D01*
X148500000Y-80118052D01*
X148500000Y-79881947D01*
X148463065Y-79648752D01*
X148390102Y-79424197D01*
X148282914Y-79213828D01*
X148222658Y-79130894D01*
X148222658Y-79130893D01*
X147523787Y-79829765D01*
X147512518Y-79787708D01*
X147440110Y-79662292D01*
X147337708Y-79559890D01*
X147212292Y-79487482D01*
X147170234Y-79476212D01*
X147869105Y-78777340D01*
X147869104Y-78777338D01*
X147786174Y-78717087D01*
X147575802Y-78609897D01*
X147351247Y-78536934D01*
X147351248Y-78536934D01*
X147118052Y-78500000D01*
X146881948Y-78500000D01*
X146648752Y-78536934D01*
X146424197Y-78609897D01*
X146213830Y-78717084D01*
X146130894Y-78777340D01*
X146829766Y-79476212D01*
X146787708Y-79487482D01*
X146662292Y-79559890D01*
X146559890Y-79662292D01*
X146487482Y-79787708D01*
X146476212Y-79829766D01*
X145777340Y-79130894D01*
X145717084Y-79213830D01*
X145609897Y-79424197D01*
X145536934Y-79648752D01*
X145500000Y-79881947D01*
X144690499Y-79881947D01*
X144690499Y-79199992D01*
X144683440Y-79130893D01*
X144679999Y-79097203D01*
X144679998Y-79097200D01*
X144665432Y-79053242D01*
X144624814Y-78930666D01*
X144532712Y-78781344D01*
X144408656Y-78657288D01*
X144259334Y-78565186D01*
X144092797Y-78510001D01*
X144092795Y-78510000D01*
X143990010Y-78499500D01*
X142389998Y-78499500D01*
X142389981Y-78499501D01*
X142287203Y-78510000D01*
X142287200Y-78510001D01*
X142120668Y-78565185D01*
X142120663Y-78565187D01*
X141971342Y-78657289D01*
X141847289Y-78781342D01*
X141755187Y-78930663D01*
X141755186Y-78930666D01*
X141700001Y-79097203D01*
X141700001Y-79097204D01*
X141700000Y-79097204D01*
X141689500Y-79199983D01*
X140500500Y-79199983D01*
X140500500Y-77037155D01*
X153600000Y-77037155D01*
X153600000Y-77735000D01*
X154624722Y-77735000D01*
X154580667Y-77811306D01*
X154550000Y-77925756D01*
X154550000Y-78044244D01*
X154580667Y-78158694D01*
X154624722Y-78235000D01*
X153600000Y-78235000D01*
X153600000Y-78932844D01*
X153606401Y-78992372D01*
X153606403Y-78992379D01*
X153656645Y-79127086D01*
X153656649Y-79127093D01*
X153742809Y-79242187D01*
X153742812Y-79242190D01*
X153857906Y-79328350D01*
X153857913Y-79328354D01*
X153992620Y-79378596D01*
X153992627Y-79378598D01*
X154052155Y-79384999D01*
X154052172Y-79385000D01*
X154750000Y-79385000D01*
X154750000Y-78360277D01*
X154826306Y-78404333D01*
X154940756Y-78435000D01*
X155059244Y-78435000D01*
X155173694Y-78404333D01*
X155250000Y-78360277D01*
X155250000Y-79385000D01*
X155947828Y-79385000D01*
X155947844Y-79384999D01*
X156007372Y-79378598D01*
X156007379Y-79378596D01*
X156142086Y-79328354D01*
X156142093Y-79328350D01*
X156257187Y-79242190D01*
X156257190Y-79242187D01*
X156343350Y-79127093D01*
X156343354Y-79127086D01*
X156373213Y-79047031D01*
X156415084Y-78991097D01*
X156480548Y-78966680D01*
X156548821Y-78981531D01*
X156577076Y-79002683D01*
X156627636Y-79053243D01*
X156627641Y-79053247D01*
X156734513Y-79130893D01*
X156805978Y-79182815D01*
X156922501Y-79242187D01*
X157002393Y-79282895D01*
X157002396Y-79282896D01*
X157107221Y-79316955D01*
X157212049Y-79351015D01*
X157429778Y-79385500D01*
X157429779Y-79385500D01*
X157650221Y-79385500D01*
X157650222Y-79385500D01*
X157867951Y-79351015D01*
X158077606Y-79282895D01*
X158274022Y-79182815D01*
X158452365Y-79053242D01*
X158608242Y-78897365D01*
X158737815Y-78719022D01*
X158837895Y-78522606D01*
X158906015Y-78312951D01*
X158940500Y-78095222D01*
X158940500Y-77874778D01*
X158906015Y-77657049D01*
X158871955Y-77552221D01*
X158837896Y-77447396D01*
X158837895Y-77447393D01*
X158803237Y-77379375D01*
X158737815Y-77250978D01*
X158721260Y-77228192D01*
X158608247Y-77072641D01*
X158608243Y-77072636D01*
X158452363Y-76916756D01*
X158452358Y-76916752D01*
X158274025Y-76787187D01*
X158274024Y-76787186D01*
X158274022Y-76787185D01*
X158211096Y-76755122D01*
X158077606Y-76687104D01*
X158077603Y-76687103D01*
X157867952Y-76618985D01*
X157759086Y-76601742D01*
X157650222Y-76584500D01*
X157429778Y-76584500D01*
X157357201Y-76595995D01*
X157212047Y-76618985D01*
X157002396Y-76687103D01*
X157002393Y-76687104D01*
X156805974Y-76787187D01*
X156627641Y-76916752D01*
X156627636Y-76916756D01*
X156577075Y-76967317D01*
X156515752Y-77000801D01*
X156446060Y-76995816D01*
X156390127Y-76953945D01*
X156373213Y-76922968D01*
X156343354Y-76842913D01*
X156343350Y-76842906D01*
X156257190Y-76727812D01*
X156257187Y-76727809D01*
X156142093Y-76641649D01*
X156142086Y-76641645D01*
X156007379Y-76591403D01*
X156007372Y-76591401D01*
X155947844Y-76585000D01*
X155250000Y-76585000D01*
X155250000Y-77609722D01*
X155173694Y-77565667D01*
X155059244Y-77535000D01*
X154940756Y-77535000D01*
X154826306Y-77565667D01*
X154750000Y-77609722D01*
X154750000Y-76585000D01*
X154052155Y-76585000D01*
X153992627Y-76591401D01*
X153992620Y-76591403D01*
X153857913Y-76641645D01*
X153857906Y-76641649D01*
X153742812Y-76727809D01*
X153742809Y-76727812D01*
X153656649Y-76842906D01*
X153656645Y-76842913D01*
X153606403Y-76977620D01*
X153606401Y-76977627D01*
X153600000Y-77037155D01*
X140500500Y-77037155D01*
X140500500Y-73624500D01*
X140520185Y-73557461D01*
X140572989Y-73511706D01*
X140624500Y-73500500D01*
X159375500Y-73500500D01*
X159442539Y-73520185D01*
G37*
%TD.AperFunction*%
%TD*%
M02*
