%TF.GenerationSoftware,KiCad,Pcbnew,10.0.3*%
%TF.CreationDate,2026-06-08T14:40:56+01:00*%
%TF.ProjectId,1 LED,31204c45-442e-46b6-9963-61645f706362,rev?*%
%TF.SameCoordinates,Original*%
%TF.FileFunction,Legend,Top*%
%TF.FilePolarity,Positive*%
%FSLAX46Y46*%
G04 Gerber Fmt 4.6, Leading zero omitted, Abs format (unit mm)*
G04 Created by KiCad (PCBNEW 10.0.3) date 2026-06-08 14:40:56*
%MOMM*%
%LPD*%
G01*
G04 APERTURE LIST*
%ADD10C,0.100000*%
%ADD11C,0.150000*%
%ADD12C,0.120000*%
G04 APERTURE END LIST*
D10*
X145180074Y-85363561D02*
X145370550Y-85896895D01*
X145370550Y-85896895D02*
X145561027Y-85363561D01*
X146094360Y-85096895D02*
X146094360Y-85668323D01*
X146094360Y-85668323D02*
X146056265Y-85782609D01*
X146056265Y-85782609D02*
X145980074Y-85858800D01*
X145980074Y-85858800D02*
X145865789Y-85896895D01*
X145865789Y-85896895D02*
X145789598Y-85896895D01*
X146475313Y-85096895D02*
X146475313Y-85744514D01*
X146475313Y-85744514D02*
X146513408Y-85820704D01*
X146513408Y-85820704D02*
X146551503Y-85858800D01*
X146551503Y-85858800D02*
X146627694Y-85896895D01*
X146627694Y-85896895D02*
X146780075Y-85896895D01*
X146780075Y-85896895D02*
X146856265Y-85858800D01*
X146856265Y-85858800D02*
X146894360Y-85820704D01*
X146894360Y-85820704D02*
X146932456Y-85744514D01*
X146932456Y-85744514D02*
X146932456Y-85096895D01*
X147313408Y-85896895D02*
X147313408Y-85096895D01*
X147313408Y-85096895D02*
X147770551Y-85896895D01*
X147770551Y-85896895D02*
X147770551Y-85096895D01*
X148151503Y-85477847D02*
X148418169Y-85477847D01*
X148532455Y-85896895D02*
X148151503Y-85896895D01*
X148151503Y-85896895D02*
X148151503Y-85096895D01*
X148151503Y-85096895D02*
X148532455Y-85096895D01*
X148837217Y-85173085D02*
X148875313Y-85134990D01*
X148875313Y-85134990D02*
X148951503Y-85096895D01*
X148951503Y-85096895D02*
X149141979Y-85096895D01*
X149141979Y-85096895D02*
X149218170Y-85134990D01*
X149218170Y-85134990D02*
X149256265Y-85173085D01*
X149256265Y-85173085D02*
X149294360Y-85249276D01*
X149294360Y-85249276D02*
X149294360Y-85325466D01*
X149294360Y-85325466D02*
X149256265Y-85439752D01*
X149256265Y-85439752D02*
X148799122Y-85896895D01*
X148799122Y-85896895D02*
X149294360Y-85896895D01*
X149789599Y-85096895D02*
X149865789Y-85096895D01*
X149865789Y-85096895D02*
X149941980Y-85134990D01*
X149941980Y-85134990D02*
X149980075Y-85173085D01*
X149980075Y-85173085D02*
X150018170Y-85249276D01*
X150018170Y-85249276D02*
X150056265Y-85401657D01*
X150056265Y-85401657D02*
X150056265Y-85592133D01*
X150056265Y-85592133D02*
X150018170Y-85744514D01*
X150018170Y-85744514D02*
X149980075Y-85820704D01*
X149980075Y-85820704D02*
X149941980Y-85858800D01*
X149941980Y-85858800D02*
X149865789Y-85896895D01*
X149865789Y-85896895D02*
X149789599Y-85896895D01*
X149789599Y-85896895D02*
X149713408Y-85858800D01*
X149713408Y-85858800D02*
X149675313Y-85820704D01*
X149675313Y-85820704D02*
X149637218Y-85744514D01*
X149637218Y-85744514D02*
X149599122Y-85592133D01*
X149599122Y-85592133D02*
X149599122Y-85401657D01*
X149599122Y-85401657D02*
X149637218Y-85249276D01*
X149637218Y-85249276D02*
X149675313Y-85173085D01*
X149675313Y-85173085D02*
X149713408Y-85134990D01*
X149713408Y-85134990D02*
X149789599Y-85096895D01*
X150361027Y-85173085D02*
X150399123Y-85134990D01*
X150399123Y-85134990D02*
X150475313Y-85096895D01*
X150475313Y-85096895D02*
X150665789Y-85096895D01*
X150665789Y-85096895D02*
X150741980Y-85134990D01*
X150741980Y-85134990D02*
X150780075Y-85173085D01*
X150780075Y-85173085D02*
X150818170Y-85249276D01*
X150818170Y-85249276D02*
X150818170Y-85325466D01*
X150818170Y-85325466D02*
X150780075Y-85439752D01*
X150780075Y-85439752D02*
X150322932Y-85896895D01*
X150322932Y-85896895D02*
X150818170Y-85896895D01*
X151503885Y-85096895D02*
X151351504Y-85096895D01*
X151351504Y-85096895D02*
X151275313Y-85134990D01*
X151275313Y-85134990D02*
X151237218Y-85173085D01*
X151237218Y-85173085D02*
X151161028Y-85287371D01*
X151161028Y-85287371D02*
X151122932Y-85439752D01*
X151122932Y-85439752D02*
X151122932Y-85744514D01*
X151122932Y-85744514D02*
X151161028Y-85820704D01*
X151161028Y-85820704D02*
X151199123Y-85858800D01*
X151199123Y-85858800D02*
X151275313Y-85896895D01*
X151275313Y-85896895D02*
X151427694Y-85896895D01*
X151427694Y-85896895D02*
X151503885Y-85858800D01*
X151503885Y-85858800D02*
X151541980Y-85820704D01*
X151541980Y-85820704D02*
X151580075Y-85744514D01*
X151580075Y-85744514D02*
X151580075Y-85554038D01*
X151580075Y-85554038D02*
X151541980Y-85477847D01*
X151541980Y-85477847D02*
X151503885Y-85439752D01*
X151503885Y-85439752D02*
X151427694Y-85401657D01*
X151427694Y-85401657D02*
X151275313Y-85401657D01*
X151275313Y-85401657D02*
X151199123Y-85439752D01*
X151199123Y-85439752D02*
X151161028Y-85477847D01*
X151161028Y-85477847D02*
X151122932Y-85554038D01*
X142780074Y-84872419D02*
X142303884Y-84872419D01*
X142303884Y-84872419D02*
X142256265Y-85348609D01*
X142256265Y-85348609D02*
X142303884Y-85300990D01*
X142303884Y-85300990D02*
X142399122Y-85253371D01*
X142399122Y-85253371D02*
X142637217Y-85253371D01*
X142637217Y-85253371D02*
X142732455Y-85300990D01*
X142732455Y-85300990D02*
X142780074Y-85348609D01*
X142780074Y-85348609D02*
X142827693Y-85443847D01*
X142827693Y-85443847D02*
X142827693Y-85681942D01*
X142827693Y-85681942D02*
X142780074Y-85777180D01*
X142780074Y-85777180D02*
X142732455Y-85824800D01*
X142732455Y-85824800D02*
X142637217Y-85872419D01*
X142637217Y-85872419D02*
X142399122Y-85872419D01*
X142399122Y-85872419D02*
X142303884Y-85824800D01*
X142303884Y-85824800D02*
X142256265Y-85777180D01*
X143113408Y-84872419D02*
X143446741Y-85872419D01*
X143446741Y-85872419D02*
X143780074Y-84872419D01*
X154303884Y-81872419D02*
X154303884Y-80872419D01*
X154399122Y-81491466D02*
X154684836Y-81872419D01*
X154684836Y-81205752D02*
X154303884Y-81586704D01*
X157732455Y-81872419D02*
X157732455Y-81348609D01*
X157732455Y-81348609D02*
X157684836Y-81253371D01*
X157684836Y-81253371D02*
X157589598Y-81205752D01*
X157589598Y-81205752D02*
X157399122Y-81205752D01*
X157399122Y-81205752D02*
X157303884Y-81253371D01*
X157732455Y-81824800D02*
X157637217Y-81872419D01*
X157637217Y-81872419D02*
X157399122Y-81872419D01*
X157399122Y-81872419D02*
X157303884Y-81824800D01*
X157303884Y-81824800D02*
X157256265Y-81729561D01*
X157256265Y-81729561D02*
X157256265Y-81634323D01*
X157256265Y-81634323D02*
X157303884Y-81539085D01*
X157303884Y-81539085D02*
X157399122Y-81491466D01*
X157399122Y-81491466D02*
X157637217Y-81491466D01*
X157637217Y-81491466D02*
X157732455Y-81443847D01*
D11*
X144761666Y-74634819D02*
X144761666Y-75349104D01*
X144761666Y-75349104D02*
X144714047Y-75491961D01*
X144714047Y-75491961D02*
X144618809Y-75587200D01*
X144618809Y-75587200D02*
X144475952Y-75634819D01*
X144475952Y-75634819D02*
X144380714Y-75634819D01*
X145761666Y-75634819D02*
X145190238Y-75634819D01*
X145475952Y-75634819D02*
X145475952Y-74634819D01*
X145475952Y-74634819D02*
X145380714Y-74777676D01*
X145380714Y-74777676D02*
X145285476Y-74872914D01*
X145285476Y-74872914D02*
X145190238Y-74920533D01*
X155531905Y-74479819D02*
X155531905Y-73479819D01*
X155531905Y-73479819D02*
X155770000Y-73479819D01*
X155770000Y-73479819D02*
X155912857Y-73527438D01*
X155912857Y-73527438D02*
X156008095Y-73622676D01*
X156008095Y-73622676D02*
X156055714Y-73717914D01*
X156055714Y-73717914D02*
X156103333Y-73908390D01*
X156103333Y-73908390D02*
X156103333Y-74051247D01*
X156103333Y-74051247D02*
X156055714Y-74241723D01*
X156055714Y-74241723D02*
X156008095Y-74336961D01*
X156008095Y-74336961D02*
X155912857Y-74432200D01*
X155912857Y-74432200D02*
X155770000Y-74479819D01*
X155770000Y-74479819D02*
X155531905Y-74479819D01*
X157055714Y-74479819D02*
X156484286Y-74479819D01*
X156770000Y-74479819D02*
X156770000Y-73479819D01*
X156770000Y-73479819D02*
X156674762Y-73622676D01*
X156674762Y-73622676D02*
X156579524Y-73717914D01*
X156579524Y-73717914D02*
X156484286Y-73765533D01*
X153833333Y-83454819D02*
X153500000Y-82978628D01*
X153261905Y-83454819D02*
X153261905Y-82454819D01*
X153261905Y-82454819D02*
X153642857Y-82454819D01*
X153642857Y-82454819D02*
X153738095Y-82502438D01*
X153738095Y-82502438D02*
X153785714Y-82550057D01*
X153785714Y-82550057D02*
X153833333Y-82645295D01*
X153833333Y-82645295D02*
X153833333Y-82788152D01*
X153833333Y-82788152D02*
X153785714Y-82883390D01*
X153785714Y-82883390D02*
X153738095Y-82931009D01*
X153738095Y-82931009D02*
X153642857Y-82978628D01*
X153642857Y-82978628D02*
X153261905Y-82978628D01*
X154785714Y-83454819D02*
X154214286Y-83454819D01*
X154500000Y-83454819D02*
X154500000Y-82454819D01*
X154500000Y-82454819D02*
X154404762Y-82597676D01*
X154404762Y-82597676D02*
X154309524Y-82692914D01*
X154309524Y-82692914D02*
X154214286Y-82740533D01*
%TO.C,J1*%
D12*
X141170000Y-76180000D02*
X149020000Y-76180000D01*
X141170000Y-83720000D02*
X141170000Y-76180000D01*
X142890000Y-83720000D02*
X141170000Y-83720000D01*
X149020000Y-76180000D02*
X149020000Y-83720000D01*
X149020000Y-83720000D02*
X143490000Y-83720000D01*
X143190000Y-83720000D02*
X143630000Y-84330000D01*
X142750000Y-84330000D01*
X143190000Y-83720000D01*
G36*
X143630000Y-84330000D02*
G01*
X142750000Y-84330000D01*
X143190000Y-83720000D01*
X143630000Y-84330000D01*
G37*
%TO.C,D1*%
X153710000Y-76440000D02*
X153710000Y-79530000D01*
X153710000Y-76440170D02*
G75*
G02*
X159260000Y-77985000I2560000J-1544830D01*
G01*
X159260000Y-77985000D02*
G75*
G02*
X153710000Y-79529830I-2990000J0D01*
G01*
X158770000Y-77985000D02*
G75*
G02*
X153770000Y-77985000I-2500000J0D01*
G01*
X153770000Y-77985000D02*
G75*
G02*
X158770000Y-77985000I2500000J0D01*
G01*
%TO.C,R1*%
X154227064Y-84265000D02*
X153772936Y-84265000D01*
X154227064Y-85735000D02*
X153772936Y-85735000D01*
%TD*%
M02*
