%TF.GenerationSoftware,KiCad,Pcbnew,10.0.3*%
%TF.CreationDate,2026-06-08T16:29:49+01:00*%
%TF.ProjectId,2 Button Serial Monitor,32204275-7474-46f6-9e20-53657269616c,rev?*%
%TF.SameCoordinates,Original*%
%TF.FileFunction,Copper,L2,Bot*%
%TF.FilePolarity,Positive*%
%FSLAX46Y46*%
G04 Gerber Fmt 4.6, Leading zero omitted, Abs format (unit mm)*
G04 Created by KiCad (PCBNEW 10.0.3) date 2026-06-08 16:29:49*
%MOMM*%
%LPD*%
G01*
G04 APERTURE LIST*
G04 Aperture macros list*
%AMRoundRect*
0 Rectangle with rounded corners*
0 $1 Rounding radius*
0 $2 $3 $4 $5 $6 $7 $8 $9 X,Y pos of 4 corners*
0 Add a 4 corners polygon primitive as box body*
4,1,4,$2,$3,$4,$5,$6,$7,$8,$9,$2,$3,0*
0 Add four circle primitives for the rounded corners*
1,1,$1+$1,$2,$3*
1,1,$1+$1,$4,$5*
1,1,$1+$1,$6,$7*
1,1,$1+$1,$8,$9*
0 Add four rect primitives between the rounded corners*
20,1,$1+$1,$2,$3,$4,$5,0*
20,1,$1+$1,$4,$5,$6,$7,0*
20,1,$1+$1,$6,$7,$8,$9,0*
20,1,$1+$1,$8,$9,$2,$3,0*%
G04 Aperture macros list end*
%TA.AperFunction,ComponentPad*%
%ADD10R,1.700000X1.700000*%
%TD*%
%TA.AperFunction,ComponentPad*%
%ADD11C,2.000000*%
%TD*%
%TA.AperFunction,ComponentPad*%
%ADD12RoundRect,0.250000X-0.750000X-0.750000X0.750000X-0.750000X0.750000X0.750000X-0.750000X0.750000X0*%
%TD*%
%TA.AperFunction,ViaPad*%
%ADD13C,0.600000*%
%TD*%
G04 APERTURE END LIST*
D10*
%TO.P,J1,1,Pin_1_1*%
%TO.N,Net-(J1-Pin_1)*%
X130500000Y-77500000D03*
%TD*%
D11*
%TO.P,SW1,1,1_1*%
%TO.N,+5V*%
X122000000Y-65750000D03*
X122000000Y-59250000D03*
%TO.P,SW1,2,2_2*%
%TO.N,Net-(J1-Pin_1)*%
X126500000Y-65750000D03*
X126500000Y-59250000D03*
%TD*%
D12*
%TO.P,J2,1,Pin_1_1*%
%TO.N,+5V*%
X120690000Y-75500000D03*
D11*
%TO.P,J2,2,Pin_2_2*%
%TO.N,GND*%
X124500000Y-75500000D03*
%TD*%
D13*
%TO.N,GND*%
X126500000Y-70500000D03*
%TD*%
%TA.AperFunction,Conductor*%
%TO.N,GND*%
G36*
X131942539Y-56520185D02*
G01*
X131988294Y-56572989D01*
X131999500Y-56624500D01*
X131999500Y-76309897D01*
X131979815Y-76376936D01*
X131927011Y-76422691D01*
X131857853Y-76432635D01*
X131794297Y-76403610D01*
X131776234Y-76384208D01*
X131707547Y-76292455D01*
X131707544Y-76292452D01*
X131592335Y-76206206D01*
X131592328Y-76206202D01*
X131457482Y-76155908D01*
X131457483Y-76155908D01*
X131397883Y-76149501D01*
X131397881Y-76149500D01*
X131397873Y-76149500D01*
X131397864Y-76149500D01*
X129602129Y-76149500D01*
X129602123Y-76149501D01*
X129542516Y-76155908D01*
X129407671Y-76206202D01*
X129407664Y-76206206D01*
X129292455Y-76292452D01*
X129292452Y-76292455D01*
X129206206Y-76407664D01*
X129206202Y-76407671D01*
X129155908Y-76542517D01*
X129149501Y-76602116D01*
X129149500Y-76602135D01*
X129149500Y-78397870D01*
X129149501Y-78397876D01*
X129155908Y-78457483D01*
X129206202Y-78592328D01*
X129206206Y-78592335D01*
X129292452Y-78707544D01*
X129292455Y-78707547D01*
X129407664Y-78793793D01*
X129407671Y-78793797D01*
X129542517Y-78844091D01*
X129542516Y-78844091D01*
X129549444Y-78844835D01*
X129602127Y-78850500D01*
X131397872Y-78850499D01*
X131457483Y-78844091D01*
X131592331Y-78793796D01*
X131707546Y-78707546D01*
X131776234Y-78615789D01*
X131832167Y-78573920D01*
X131901859Y-78568936D01*
X131963182Y-78602421D01*
X131996666Y-78663745D01*
X131999500Y-78690102D01*
X131999500Y-81375500D01*
X131979815Y-81442539D01*
X131927011Y-81488294D01*
X131875500Y-81499500D01*
X117124500Y-81499500D01*
X117057461Y-81479815D01*
X117011706Y-81427011D01*
X117000500Y-81375500D01*
X117000500Y-74699983D01*
X119189500Y-74699983D01*
X119189500Y-76300001D01*
X119189501Y-76300018D01*
X119200000Y-76402796D01*
X119200001Y-76402799D01*
X119206593Y-76422691D01*
X119255186Y-76569334D01*
X119347288Y-76718656D01*
X119471344Y-76842712D01*
X119620666Y-76934814D01*
X119787203Y-76989999D01*
X119889991Y-77000500D01*
X121490008Y-77000499D01*
X121592797Y-76989999D01*
X121759334Y-76934814D01*
X121908656Y-76842712D01*
X122032712Y-76718656D01*
X122124814Y-76569334D01*
X122179999Y-76402797D01*
X122190500Y-76300009D01*
X122190499Y-75381947D01*
X123000000Y-75381947D01*
X123000000Y-75618052D01*
X123036934Y-75851247D01*
X123109897Y-76075802D01*
X123217087Y-76286174D01*
X123277338Y-76369104D01*
X123277340Y-76369105D01*
X123976212Y-75670233D01*
X123987482Y-75712292D01*
X124059890Y-75837708D01*
X124162292Y-75940110D01*
X124287708Y-76012518D01*
X124329765Y-76023787D01*
X123630893Y-76722658D01*
X123713828Y-76782914D01*
X123924197Y-76890102D01*
X124148752Y-76963065D01*
X124148751Y-76963065D01*
X124381948Y-77000000D01*
X124618052Y-77000000D01*
X124851247Y-76963065D01*
X125075802Y-76890102D01*
X125286163Y-76782918D01*
X125286169Y-76782914D01*
X125369104Y-76722658D01*
X125369105Y-76722658D01*
X124670233Y-76023787D01*
X124712292Y-76012518D01*
X124837708Y-75940110D01*
X124940110Y-75837708D01*
X125012518Y-75712292D01*
X125023787Y-75670234D01*
X125722658Y-76369105D01*
X125722658Y-76369104D01*
X125782914Y-76286169D01*
X125782918Y-76286163D01*
X125890102Y-76075802D01*
X125963065Y-75851247D01*
X126000000Y-75618052D01*
X126000000Y-75381947D01*
X125963065Y-75148752D01*
X125890102Y-74924197D01*
X125782914Y-74713828D01*
X125722658Y-74630894D01*
X125722658Y-74630893D01*
X125023787Y-75329765D01*
X125012518Y-75287708D01*
X124940110Y-75162292D01*
X124837708Y-75059890D01*
X124712292Y-74987482D01*
X124670234Y-74976212D01*
X125369105Y-74277340D01*
X125369104Y-74277338D01*
X125286174Y-74217087D01*
X125075802Y-74109897D01*
X124851247Y-74036934D01*
X124851248Y-74036934D01*
X124618052Y-74000000D01*
X124381948Y-74000000D01*
X124148752Y-74036934D01*
X123924197Y-74109897D01*
X123713830Y-74217084D01*
X123630894Y-74277340D01*
X124329766Y-74976212D01*
X124287708Y-74987482D01*
X124162292Y-75059890D01*
X124059890Y-75162292D01*
X123987482Y-75287708D01*
X123976212Y-75329766D01*
X123277340Y-74630894D01*
X123217084Y-74713830D01*
X123109897Y-74924197D01*
X123036934Y-75148752D01*
X123000000Y-75381947D01*
X122190499Y-75381947D01*
X122190499Y-74699992D01*
X122183440Y-74630893D01*
X122179999Y-74597203D01*
X122179998Y-74597200D01*
X122124814Y-74430666D01*
X122032712Y-74281344D01*
X121908656Y-74157288D01*
X121759334Y-74065186D01*
X121592797Y-74010001D01*
X121592795Y-74010000D01*
X121490010Y-73999500D01*
X119889998Y-73999500D01*
X119889981Y-73999501D01*
X119787203Y-74010000D01*
X119787200Y-74010001D01*
X119620668Y-74065185D01*
X119620663Y-74065187D01*
X119471342Y-74157289D01*
X119347289Y-74281342D01*
X119255187Y-74430663D01*
X119255186Y-74430666D01*
X119200001Y-74597203D01*
X119200001Y-74597204D01*
X119200000Y-74597204D01*
X119189500Y-74699983D01*
X117000500Y-74699983D01*
X117000500Y-65631902D01*
X120499500Y-65631902D01*
X120499500Y-65868097D01*
X120536446Y-66101368D01*
X120609433Y-66325996D01*
X120716657Y-66536433D01*
X120855483Y-66727510D01*
X121022490Y-66894517D01*
X121213567Y-67033343D01*
X121312991Y-67084002D01*
X121424003Y-67140566D01*
X121424005Y-67140566D01*
X121424008Y-67140568D01*
X121544412Y-67179689D01*
X121648631Y-67213553D01*
X121881903Y-67250500D01*
X121881908Y-67250500D01*
X122118097Y-67250500D01*
X122351368Y-67213553D01*
X122575992Y-67140568D01*
X122786433Y-67033343D01*
X122977510Y-66894517D01*
X123144517Y-66727510D01*
X123283343Y-66536433D01*
X123390568Y-66325992D01*
X123463553Y-66101368D01*
X123500500Y-65868097D01*
X123500500Y-65631902D01*
X124999500Y-65631902D01*
X124999500Y-65868097D01*
X125036446Y-66101368D01*
X125109433Y-66325996D01*
X125216657Y-66536433D01*
X125355483Y-66727510D01*
X125522490Y-66894517D01*
X125713567Y-67033343D01*
X125812991Y-67084002D01*
X125924003Y-67140566D01*
X125924005Y-67140566D01*
X125924008Y-67140568D01*
X126044412Y-67179689D01*
X126148631Y-67213553D01*
X126381903Y-67250500D01*
X126381908Y-67250500D01*
X126618097Y-67250500D01*
X126851368Y-67213553D01*
X127075992Y-67140568D01*
X127286433Y-67033343D01*
X127477510Y-66894517D01*
X127644517Y-66727510D01*
X127783343Y-66536433D01*
X127890568Y-66325992D01*
X127963553Y-66101368D01*
X128000500Y-65868097D01*
X128000500Y-65631902D01*
X127963553Y-65398631D01*
X127890566Y-65174003D01*
X127783342Y-64963566D01*
X127644517Y-64772490D01*
X127477510Y-64605483D01*
X127286433Y-64466657D01*
X127075996Y-64359433D01*
X126851368Y-64286446D01*
X126618097Y-64249500D01*
X126618092Y-64249500D01*
X126381908Y-64249500D01*
X126381903Y-64249500D01*
X126148631Y-64286446D01*
X125924003Y-64359433D01*
X125713566Y-64466657D01*
X125604550Y-64545862D01*
X125522490Y-64605483D01*
X125522488Y-64605485D01*
X125522487Y-64605485D01*
X125355485Y-64772487D01*
X125355485Y-64772488D01*
X125355483Y-64772490D01*
X125295862Y-64854550D01*
X125216657Y-64963566D01*
X125109433Y-65174003D01*
X125036446Y-65398631D01*
X124999500Y-65631902D01*
X123500500Y-65631902D01*
X123463553Y-65398631D01*
X123390566Y-65174003D01*
X123283342Y-64963566D01*
X123144517Y-64772490D01*
X122977510Y-64605483D01*
X122786433Y-64466657D01*
X122575996Y-64359433D01*
X122351368Y-64286446D01*
X122118097Y-64249500D01*
X122118092Y-64249500D01*
X121881908Y-64249500D01*
X121881903Y-64249500D01*
X121648631Y-64286446D01*
X121424003Y-64359433D01*
X121213566Y-64466657D01*
X121104550Y-64545862D01*
X121022490Y-64605483D01*
X121022488Y-64605485D01*
X121022487Y-64605485D01*
X120855485Y-64772487D01*
X120855485Y-64772488D01*
X120855483Y-64772490D01*
X120795862Y-64854550D01*
X120716657Y-64963566D01*
X120609433Y-65174003D01*
X120536446Y-65398631D01*
X120499500Y-65631902D01*
X117000500Y-65631902D01*
X117000500Y-59131902D01*
X120499500Y-59131902D01*
X120499500Y-59368097D01*
X120536446Y-59601368D01*
X120609433Y-59825996D01*
X120716657Y-60036433D01*
X120855483Y-60227510D01*
X121022490Y-60394517D01*
X121213567Y-60533343D01*
X121312991Y-60584002D01*
X121424003Y-60640566D01*
X121424005Y-60640566D01*
X121424008Y-60640568D01*
X121544412Y-60679689D01*
X121648631Y-60713553D01*
X121881903Y-60750500D01*
X121881908Y-60750500D01*
X122118097Y-60750500D01*
X122351368Y-60713553D01*
X122575992Y-60640568D01*
X122786433Y-60533343D01*
X122977510Y-60394517D01*
X123144517Y-60227510D01*
X123283343Y-60036433D01*
X123390568Y-59825992D01*
X123463553Y-59601368D01*
X123500500Y-59368097D01*
X123500500Y-59131902D01*
X124999500Y-59131902D01*
X124999500Y-59368097D01*
X125036446Y-59601368D01*
X125109433Y-59825996D01*
X125216657Y-60036433D01*
X125355483Y-60227510D01*
X125522490Y-60394517D01*
X125713567Y-60533343D01*
X125812991Y-60584002D01*
X125924003Y-60640566D01*
X125924005Y-60640566D01*
X125924008Y-60640568D01*
X126044412Y-60679689D01*
X126148631Y-60713553D01*
X126381903Y-60750500D01*
X126381908Y-60750500D01*
X126618097Y-60750500D01*
X126851368Y-60713553D01*
X127075992Y-60640568D01*
X127286433Y-60533343D01*
X127477510Y-60394517D01*
X127644517Y-60227510D01*
X127783343Y-60036433D01*
X127890568Y-59825992D01*
X127963553Y-59601368D01*
X128000500Y-59368097D01*
X128000500Y-59131902D01*
X127963553Y-58898631D01*
X127890566Y-58674003D01*
X127783342Y-58463566D01*
X127644517Y-58272490D01*
X127477510Y-58105483D01*
X127286433Y-57966657D01*
X127075996Y-57859433D01*
X126851368Y-57786446D01*
X126618097Y-57749500D01*
X126618092Y-57749500D01*
X126381908Y-57749500D01*
X126381903Y-57749500D01*
X126148631Y-57786446D01*
X125924003Y-57859433D01*
X125713566Y-57966657D01*
X125604550Y-58045862D01*
X125522490Y-58105483D01*
X125522488Y-58105485D01*
X125522487Y-58105485D01*
X125355485Y-58272487D01*
X125355485Y-58272488D01*
X125355483Y-58272490D01*
X125295862Y-58354550D01*
X125216657Y-58463566D01*
X125109433Y-58674003D01*
X125036446Y-58898631D01*
X124999500Y-59131902D01*
X123500500Y-59131902D01*
X123463553Y-58898631D01*
X123390566Y-58674003D01*
X123283342Y-58463566D01*
X123144517Y-58272490D01*
X122977510Y-58105483D01*
X122786433Y-57966657D01*
X122575996Y-57859433D01*
X122351368Y-57786446D01*
X122118097Y-57749500D01*
X122118092Y-57749500D01*
X121881908Y-57749500D01*
X121881903Y-57749500D01*
X121648631Y-57786446D01*
X121424003Y-57859433D01*
X121213566Y-57966657D01*
X121104550Y-58045862D01*
X121022490Y-58105483D01*
X121022488Y-58105485D01*
X121022487Y-58105485D01*
X120855485Y-58272487D01*
X120855485Y-58272488D01*
X120855483Y-58272490D01*
X120795862Y-58354550D01*
X120716657Y-58463566D01*
X120609433Y-58674003D01*
X120536446Y-58898631D01*
X120499500Y-59131902D01*
X117000500Y-59131902D01*
X117000500Y-56624500D01*
X117020185Y-56557461D01*
X117072989Y-56511706D01*
X117124500Y-56500500D01*
X131875500Y-56500500D01*
X131942539Y-56520185D01*
G37*
%TD.AperFunction*%
%TD*%
M02*
