%TF.GenerationSoftware,KiCad,Pcbnew,10.0.3*%
%TF.CreationDate,2026-06-09T13:44:48+01:00*%
%TF.ProjectId,5 LED MQ4 - Methane and CNG Gas,35204c45-4420-44d5-9134-202d204d6574,rev?*%
%TF.SameCoordinates,Original*%
%TF.FileFunction,Legend,Top*%
%TF.FilePolarity,Positive*%
%FSLAX46Y46*%
G04 Gerber Fmt 4.6, Leading zero omitted, Abs format (unit mm)*
G04 Created by KiCad (PCBNEW 10.0.3) date 2026-06-09 13:44:48*
%MOMM*%
%LPD*%
G01*
G04 APERTURE LIST*
%ADD10C,0.100000*%
%ADD11C,0.150000*%
%ADD12C,0.120000*%
G04 APERTURE END LIST*
D10*
X144415931Y-88881830D02*
X144377836Y-88843734D01*
X144377836Y-88843734D02*
X144339741Y-88767544D01*
X144339741Y-88767544D02*
X144339741Y-88577068D01*
X144339741Y-88577068D02*
X144377836Y-88500877D01*
X144377836Y-88500877D02*
X144415931Y-88462782D01*
X144415931Y-88462782D02*
X144492122Y-88424687D01*
X144492122Y-88424687D02*
X144568312Y-88424687D01*
X144568312Y-88424687D02*
X144682598Y-88462782D01*
X144682598Y-88462782D02*
X145139741Y-88919925D01*
X145139741Y-88919925D02*
X145139741Y-88424687D01*
X144415931Y-88119925D02*
X144377836Y-88081829D01*
X144377836Y-88081829D02*
X144339741Y-88005639D01*
X144339741Y-88005639D02*
X144339741Y-87815163D01*
X144339741Y-87815163D02*
X144377836Y-87738972D01*
X144377836Y-87738972D02*
X144415931Y-87700877D01*
X144415931Y-87700877D02*
X144492122Y-87662782D01*
X144492122Y-87662782D02*
X144568312Y-87662782D01*
X144568312Y-87662782D02*
X144682598Y-87700877D01*
X144682598Y-87700877D02*
X145139741Y-88158020D01*
X145139741Y-88158020D02*
X145139741Y-87662782D01*
X144339741Y-87167543D02*
X144339741Y-87091353D01*
X144339741Y-87091353D02*
X144377836Y-87015162D01*
X144377836Y-87015162D02*
X144415931Y-86977067D01*
X144415931Y-86977067D02*
X144492122Y-86938972D01*
X144492122Y-86938972D02*
X144644503Y-86900877D01*
X144644503Y-86900877D02*
X144834979Y-86900877D01*
X144834979Y-86900877D02*
X144987360Y-86938972D01*
X144987360Y-86938972D02*
X145063550Y-86977067D01*
X145063550Y-86977067D02*
X145101646Y-87015162D01*
X145101646Y-87015162D02*
X145139741Y-87091353D01*
X145139741Y-87091353D02*
X145139741Y-87167543D01*
X145139741Y-87167543D02*
X145101646Y-87243734D01*
X145101646Y-87243734D02*
X145063550Y-87281829D01*
X145063550Y-87281829D02*
X144987360Y-87319924D01*
X144987360Y-87319924D02*
X144834979Y-87358020D01*
X144834979Y-87358020D02*
X144644503Y-87358020D01*
X144644503Y-87358020D02*
X144492122Y-87319924D01*
X144492122Y-87319924D02*
X144415931Y-87281829D01*
X144415931Y-87281829D02*
X144377836Y-87243734D01*
X144377836Y-87243734D02*
X144339741Y-87167543D01*
X143256265Y-98896895D02*
X143256265Y-98096895D01*
X143256265Y-98096895D02*
X143561027Y-98096895D01*
X143561027Y-98096895D02*
X143637217Y-98134990D01*
X143637217Y-98134990D02*
X143675312Y-98173085D01*
X143675312Y-98173085D02*
X143713408Y-98249276D01*
X143713408Y-98249276D02*
X143713408Y-98363561D01*
X143713408Y-98363561D02*
X143675312Y-98439752D01*
X143675312Y-98439752D02*
X143637217Y-98477847D01*
X143637217Y-98477847D02*
X143561027Y-98515942D01*
X143561027Y-98515942D02*
X143256265Y-98515942D01*
X143980074Y-98096895D02*
X144170550Y-98896895D01*
X144170550Y-98896895D02*
X144322931Y-98325466D01*
X144322931Y-98325466D02*
X144475312Y-98896895D01*
X144475312Y-98896895D02*
X144665789Y-98096895D01*
X145427694Y-98896895D02*
X145161027Y-98515942D01*
X144970551Y-98896895D02*
X144970551Y-98096895D01*
X144970551Y-98096895D02*
X145275313Y-98096895D01*
X145275313Y-98096895D02*
X145351503Y-98134990D01*
X145351503Y-98134990D02*
X145389598Y-98173085D01*
X145389598Y-98173085D02*
X145427694Y-98249276D01*
X145427694Y-98249276D02*
X145427694Y-98363561D01*
X145427694Y-98363561D02*
X145389598Y-98439752D01*
X145389598Y-98439752D02*
X145351503Y-98477847D01*
X145351503Y-98477847D02*
X145275313Y-98515942D01*
X145275313Y-98515942D02*
X144970551Y-98515942D01*
X146380075Y-98896895D02*
X146380075Y-98096895D01*
X146380075Y-98096895D02*
X146570551Y-98096895D01*
X146570551Y-98096895D02*
X146684837Y-98134990D01*
X146684837Y-98134990D02*
X146761027Y-98211180D01*
X146761027Y-98211180D02*
X146799122Y-98287371D01*
X146799122Y-98287371D02*
X146837218Y-98439752D01*
X146837218Y-98439752D02*
X146837218Y-98554038D01*
X146837218Y-98554038D02*
X146799122Y-98706419D01*
X146799122Y-98706419D02*
X146761027Y-98782609D01*
X146761027Y-98782609D02*
X146684837Y-98858800D01*
X146684837Y-98858800D02*
X146570551Y-98896895D01*
X146570551Y-98896895D02*
X146380075Y-98896895D01*
X147180075Y-98896895D02*
X147180075Y-98363561D01*
X147180075Y-98096895D02*
X147141979Y-98134990D01*
X147141979Y-98134990D02*
X147180075Y-98173085D01*
X147180075Y-98173085D02*
X147218170Y-98134990D01*
X147218170Y-98134990D02*
X147180075Y-98096895D01*
X147180075Y-98096895D02*
X147180075Y-98173085D01*
X147903884Y-98363561D02*
X147903884Y-99011180D01*
X147903884Y-99011180D02*
X147865789Y-99087371D01*
X147865789Y-99087371D02*
X147827693Y-99125466D01*
X147827693Y-99125466D02*
X147751503Y-99163561D01*
X147751503Y-99163561D02*
X147637217Y-99163561D01*
X147637217Y-99163561D02*
X147561027Y-99125466D01*
X147903884Y-98858800D02*
X147827693Y-98896895D01*
X147827693Y-98896895D02*
X147675312Y-98896895D01*
X147675312Y-98896895D02*
X147599122Y-98858800D01*
X147599122Y-98858800D02*
X147561027Y-98820704D01*
X147561027Y-98820704D02*
X147522931Y-98744514D01*
X147522931Y-98744514D02*
X147522931Y-98515942D01*
X147522931Y-98515942D02*
X147561027Y-98439752D01*
X147561027Y-98439752D02*
X147599122Y-98401657D01*
X147599122Y-98401657D02*
X147675312Y-98363561D01*
X147675312Y-98363561D02*
X147827693Y-98363561D01*
X147827693Y-98363561D02*
X147903884Y-98401657D01*
X148284837Y-98896895D02*
X148284837Y-98363561D01*
X148284837Y-98096895D02*
X148246741Y-98134990D01*
X148246741Y-98134990D02*
X148284837Y-98173085D01*
X148284837Y-98173085D02*
X148322932Y-98134990D01*
X148322932Y-98134990D02*
X148284837Y-98096895D01*
X148284837Y-98096895D02*
X148284837Y-98173085D01*
X148551503Y-98363561D02*
X148856265Y-98363561D01*
X148665789Y-98096895D02*
X148665789Y-98782609D01*
X148665789Y-98782609D02*
X148703884Y-98858800D01*
X148703884Y-98858800D02*
X148780074Y-98896895D01*
X148780074Y-98896895D02*
X148856265Y-98896895D01*
X149465789Y-98896895D02*
X149465789Y-98477847D01*
X149465789Y-98477847D02*
X149427694Y-98401657D01*
X149427694Y-98401657D02*
X149351503Y-98363561D01*
X149351503Y-98363561D02*
X149199122Y-98363561D01*
X149199122Y-98363561D02*
X149122932Y-98401657D01*
X149465789Y-98858800D02*
X149389598Y-98896895D01*
X149389598Y-98896895D02*
X149199122Y-98896895D01*
X149199122Y-98896895D02*
X149122932Y-98858800D01*
X149122932Y-98858800D02*
X149084836Y-98782609D01*
X149084836Y-98782609D02*
X149084836Y-98706419D01*
X149084836Y-98706419D02*
X149122932Y-98630228D01*
X149122932Y-98630228D02*
X149199122Y-98592133D01*
X149199122Y-98592133D02*
X149389598Y-98592133D01*
X149389598Y-98592133D02*
X149465789Y-98554038D01*
X149961027Y-98896895D02*
X149884837Y-98858800D01*
X149884837Y-98858800D02*
X149846742Y-98782609D01*
X149846742Y-98782609D02*
X149846742Y-98096895D01*
X133370426Y-84280074D02*
X133370426Y-83803884D01*
X133370426Y-83803884D02*
X132894236Y-83756265D01*
X132894236Y-83756265D02*
X132941855Y-83803884D01*
X132941855Y-83803884D02*
X132989474Y-83899122D01*
X132989474Y-83899122D02*
X132989474Y-84137217D01*
X132989474Y-84137217D02*
X132941855Y-84232455D01*
X132941855Y-84232455D02*
X132894236Y-84280074D01*
X132894236Y-84280074D02*
X132798998Y-84327693D01*
X132798998Y-84327693D02*
X132560903Y-84327693D01*
X132560903Y-84327693D02*
X132465665Y-84280074D01*
X132465665Y-84280074D02*
X132418046Y-84232455D01*
X132418046Y-84232455D02*
X132370426Y-84137217D01*
X132370426Y-84137217D02*
X132370426Y-83899122D01*
X132370426Y-83899122D02*
X132418046Y-83803884D01*
X132418046Y-83803884D02*
X132465665Y-83756265D01*
X133370426Y-84613408D02*
X132370426Y-84946741D01*
X132370426Y-84946741D02*
X133370426Y-85280074D01*
X153339741Y-93362782D02*
X153339741Y-93743734D01*
X153339741Y-93743734D02*
X153720693Y-93781830D01*
X153720693Y-93781830D02*
X153682598Y-93743734D01*
X153682598Y-93743734D02*
X153644503Y-93667544D01*
X153644503Y-93667544D02*
X153644503Y-93477068D01*
X153644503Y-93477068D02*
X153682598Y-93400877D01*
X153682598Y-93400877D02*
X153720693Y-93362782D01*
X153720693Y-93362782D02*
X153796884Y-93324687D01*
X153796884Y-93324687D02*
X153987360Y-93324687D01*
X153987360Y-93324687D02*
X154063550Y-93362782D01*
X154063550Y-93362782D02*
X154101646Y-93400877D01*
X154101646Y-93400877D02*
X154139741Y-93477068D01*
X154139741Y-93477068D02*
X154139741Y-93667544D01*
X154139741Y-93667544D02*
X154101646Y-93743734D01*
X154101646Y-93743734D02*
X154063550Y-93781830D01*
X153339741Y-93096115D02*
X154139741Y-92829448D01*
X154139741Y-92829448D02*
X153339741Y-92562782D01*
X153377836Y-90824687D02*
X153339741Y-90900877D01*
X153339741Y-90900877D02*
X153339741Y-91015163D01*
X153339741Y-91015163D02*
X153377836Y-91129449D01*
X153377836Y-91129449D02*
X153454026Y-91205639D01*
X153454026Y-91205639D02*
X153530217Y-91243734D01*
X153530217Y-91243734D02*
X153682598Y-91281830D01*
X153682598Y-91281830D02*
X153796884Y-91281830D01*
X153796884Y-91281830D02*
X153949265Y-91243734D01*
X153949265Y-91243734D02*
X154025455Y-91205639D01*
X154025455Y-91205639D02*
X154101646Y-91129449D01*
X154101646Y-91129449D02*
X154139741Y-91015163D01*
X154139741Y-91015163D02*
X154139741Y-90938972D01*
X154139741Y-90938972D02*
X154101646Y-90824687D01*
X154101646Y-90824687D02*
X154063550Y-90786591D01*
X154063550Y-90786591D02*
X153796884Y-90786591D01*
X153796884Y-90786591D02*
X153796884Y-90938972D01*
X154139741Y-90443734D02*
X153339741Y-90443734D01*
X153339741Y-90443734D02*
X154139741Y-89986591D01*
X154139741Y-89986591D02*
X153339741Y-89986591D01*
X154139741Y-89605639D02*
X153339741Y-89605639D01*
X153339741Y-89605639D02*
X153339741Y-89415163D01*
X153339741Y-89415163D02*
X153377836Y-89300877D01*
X153377836Y-89300877D02*
X153454026Y-89224687D01*
X153454026Y-89224687D02*
X153530217Y-89186592D01*
X153530217Y-89186592D02*
X153682598Y-89148496D01*
X153682598Y-89148496D02*
X153796884Y-89148496D01*
X153796884Y-89148496D02*
X153949265Y-89186592D01*
X153949265Y-89186592D02*
X154025455Y-89224687D01*
X154025455Y-89224687D02*
X154101646Y-89300877D01*
X154101646Y-89300877D02*
X154139741Y-89415163D01*
X154139741Y-89415163D02*
X154139741Y-89605639D01*
X178712895Y-91691734D02*
X177912895Y-91691734D01*
X177912895Y-91691734D02*
X177912895Y-91501258D01*
X177912895Y-91501258D02*
X177950990Y-91386972D01*
X177950990Y-91386972D02*
X178027180Y-91310782D01*
X178027180Y-91310782D02*
X178103371Y-91272687D01*
X178103371Y-91272687D02*
X178255752Y-91234591D01*
X178255752Y-91234591D02*
X178370038Y-91234591D01*
X178370038Y-91234591D02*
X178522419Y-91272687D01*
X178522419Y-91272687D02*
X178598609Y-91310782D01*
X178598609Y-91310782D02*
X178674800Y-91386972D01*
X178674800Y-91386972D02*
X178712895Y-91501258D01*
X178712895Y-91501258D02*
X178712895Y-91691734D01*
X178484323Y-85633830D02*
X178484323Y-85252877D01*
X178712895Y-85710020D02*
X177912895Y-85443353D01*
X177912895Y-85443353D02*
X178712895Y-85176687D01*
X172180074Y-98363561D02*
X172370550Y-98896895D01*
X172370550Y-98896895D02*
X172561027Y-98363561D01*
X173094360Y-98096895D02*
X173094360Y-98668323D01*
X173094360Y-98668323D02*
X173056265Y-98782609D01*
X173056265Y-98782609D02*
X172980074Y-98858800D01*
X172980074Y-98858800D02*
X172865789Y-98896895D01*
X172865789Y-98896895D02*
X172789598Y-98896895D01*
X173475313Y-98096895D02*
X173475313Y-98744514D01*
X173475313Y-98744514D02*
X173513408Y-98820704D01*
X173513408Y-98820704D02*
X173551503Y-98858800D01*
X173551503Y-98858800D02*
X173627694Y-98896895D01*
X173627694Y-98896895D02*
X173780075Y-98896895D01*
X173780075Y-98896895D02*
X173856265Y-98858800D01*
X173856265Y-98858800D02*
X173894360Y-98820704D01*
X173894360Y-98820704D02*
X173932456Y-98744514D01*
X173932456Y-98744514D02*
X173932456Y-98096895D01*
X174313408Y-98896895D02*
X174313408Y-98096895D01*
X174313408Y-98096895D02*
X174770551Y-98896895D01*
X174770551Y-98896895D02*
X174770551Y-98096895D01*
X175151503Y-98477847D02*
X175418169Y-98477847D01*
X175532455Y-98896895D02*
X175151503Y-98896895D01*
X175151503Y-98896895D02*
X175151503Y-98096895D01*
X175151503Y-98096895D02*
X175532455Y-98096895D01*
X175837217Y-98173085D02*
X175875313Y-98134990D01*
X175875313Y-98134990D02*
X175951503Y-98096895D01*
X175951503Y-98096895D02*
X176141979Y-98096895D01*
X176141979Y-98096895D02*
X176218170Y-98134990D01*
X176218170Y-98134990D02*
X176256265Y-98173085D01*
X176256265Y-98173085D02*
X176294360Y-98249276D01*
X176294360Y-98249276D02*
X176294360Y-98325466D01*
X176294360Y-98325466D02*
X176256265Y-98439752D01*
X176256265Y-98439752D02*
X175799122Y-98896895D01*
X175799122Y-98896895D02*
X176294360Y-98896895D01*
X176789599Y-98096895D02*
X176865789Y-98096895D01*
X176865789Y-98096895D02*
X176941980Y-98134990D01*
X176941980Y-98134990D02*
X176980075Y-98173085D01*
X176980075Y-98173085D02*
X177018170Y-98249276D01*
X177018170Y-98249276D02*
X177056265Y-98401657D01*
X177056265Y-98401657D02*
X177056265Y-98592133D01*
X177056265Y-98592133D02*
X177018170Y-98744514D01*
X177018170Y-98744514D02*
X176980075Y-98820704D01*
X176980075Y-98820704D02*
X176941980Y-98858800D01*
X176941980Y-98858800D02*
X176865789Y-98896895D01*
X176865789Y-98896895D02*
X176789599Y-98896895D01*
X176789599Y-98896895D02*
X176713408Y-98858800D01*
X176713408Y-98858800D02*
X176675313Y-98820704D01*
X176675313Y-98820704D02*
X176637218Y-98744514D01*
X176637218Y-98744514D02*
X176599122Y-98592133D01*
X176599122Y-98592133D02*
X176599122Y-98401657D01*
X176599122Y-98401657D02*
X176637218Y-98249276D01*
X176637218Y-98249276D02*
X176675313Y-98173085D01*
X176675313Y-98173085D02*
X176713408Y-98134990D01*
X176713408Y-98134990D02*
X176789599Y-98096895D01*
X177361027Y-98173085D02*
X177399123Y-98134990D01*
X177399123Y-98134990D02*
X177475313Y-98096895D01*
X177475313Y-98096895D02*
X177665789Y-98096895D01*
X177665789Y-98096895D02*
X177741980Y-98134990D01*
X177741980Y-98134990D02*
X177780075Y-98173085D01*
X177780075Y-98173085D02*
X177818170Y-98249276D01*
X177818170Y-98249276D02*
X177818170Y-98325466D01*
X177818170Y-98325466D02*
X177780075Y-98439752D01*
X177780075Y-98439752D02*
X177322932Y-98896895D01*
X177322932Y-98896895D02*
X177818170Y-98896895D01*
X178503885Y-98096895D02*
X178351504Y-98096895D01*
X178351504Y-98096895D02*
X178275313Y-98134990D01*
X178275313Y-98134990D02*
X178237218Y-98173085D01*
X178237218Y-98173085D02*
X178161028Y-98287371D01*
X178161028Y-98287371D02*
X178122932Y-98439752D01*
X178122932Y-98439752D02*
X178122932Y-98744514D01*
X178122932Y-98744514D02*
X178161028Y-98820704D01*
X178161028Y-98820704D02*
X178199123Y-98858800D01*
X178199123Y-98858800D02*
X178275313Y-98896895D01*
X178275313Y-98896895D02*
X178427694Y-98896895D01*
X178427694Y-98896895D02*
X178503885Y-98858800D01*
X178503885Y-98858800D02*
X178541980Y-98820704D01*
X178541980Y-98820704D02*
X178580075Y-98744514D01*
X178580075Y-98744514D02*
X178580075Y-98554038D01*
X178580075Y-98554038D02*
X178541980Y-98477847D01*
X178541980Y-98477847D02*
X178503885Y-98439752D01*
X178503885Y-98439752D02*
X178427694Y-98401657D01*
X178427694Y-98401657D02*
X178275313Y-98401657D01*
X178275313Y-98401657D02*
X178199123Y-98439752D01*
X178199123Y-98439752D02*
X178161028Y-98477847D01*
X178161028Y-98477847D02*
X178122932Y-98554038D01*
D11*
X145666666Y-92684819D02*
X145666666Y-93399104D01*
X145666666Y-93399104D02*
X145619047Y-93541961D01*
X145619047Y-93541961D02*
X145523809Y-93637200D01*
X145523809Y-93637200D02*
X145380952Y-93684819D01*
X145380952Y-93684819D02*
X145285714Y-93684819D01*
X146666666Y-93684819D02*
X146095238Y-93684819D01*
X146380952Y-93684819D02*
X146380952Y-92684819D01*
X146380952Y-92684819D02*
X146285714Y-92827676D01*
X146285714Y-92827676D02*
X146190476Y-92922914D01*
X146190476Y-92922914D02*
X146095238Y-92970533D01*
X148947665Y-88016666D02*
X148471474Y-88349999D01*
X148947665Y-88588094D02*
X147947665Y-88588094D01*
X147947665Y-88588094D02*
X147947665Y-88207142D01*
X147947665Y-88207142D02*
X147995284Y-88111904D01*
X147995284Y-88111904D02*
X148042903Y-88064285D01*
X148042903Y-88064285D02*
X148138141Y-88016666D01*
X148138141Y-88016666D02*
X148280998Y-88016666D01*
X148280998Y-88016666D02*
X148376236Y-88064285D01*
X148376236Y-88064285D02*
X148423855Y-88111904D01*
X148423855Y-88111904D02*
X148471474Y-88207142D01*
X148471474Y-88207142D02*
X148471474Y-88588094D01*
X148947665Y-87064285D02*
X148947665Y-87635713D01*
X148947665Y-87349999D02*
X147947665Y-87349999D01*
X147947665Y-87349999D02*
X148090522Y-87445237D01*
X148090522Y-87445237D02*
X148185760Y-87540475D01*
X148185760Y-87540475D02*
X148233379Y-87635713D01*
X175434666Y-82418819D02*
X175434666Y-83133104D01*
X175434666Y-83133104D02*
X175387047Y-83275961D01*
X175387047Y-83275961D02*
X175291809Y-83371200D01*
X175291809Y-83371200D02*
X175148952Y-83418819D01*
X175148952Y-83418819D02*
X175053714Y-83418819D01*
X176387047Y-82418819D02*
X175910857Y-82418819D01*
X175910857Y-82418819D02*
X175863238Y-82895009D01*
X175863238Y-82895009D02*
X175910857Y-82847390D01*
X175910857Y-82847390D02*
X176006095Y-82799771D01*
X176006095Y-82799771D02*
X176244190Y-82799771D01*
X176244190Y-82799771D02*
X176339428Y-82847390D01*
X176339428Y-82847390D02*
X176387047Y-82895009D01*
X176387047Y-82895009D02*
X176434666Y-82990247D01*
X176434666Y-82990247D02*
X176434666Y-83228342D01*
X176434666Y-83228342D02*
X176387047Y-83323580D01*
X176387047Y-83323580D02*
X176339428Y-83371200D01*
X176339428Y-83371200D02*
X176244190Y-83418819D01*
X176244190Y-83418819D02*
X176006095Y-83418819D01*
X176006095Y-83418819D02*
X175910857Y-83371200D01*
X175910857Y-83371200D02*
X175863238Y-83323580D01*
X175434666Y-88514819D02*
X175434666Y-89229104D01*
X175434666Y-89229104D02*
X175387047Y-89371961D01*
X175387047Y-89371961D02*
X175291809Y-89467200D01*
X175291809Y-89467200D02*
X175148952Y-89514819D01*
X175148952Y-89514819D02*
X175053714Y-89514819D01*
X176339428Y-88848152D02*
X176339428Y-89514819D01*
X176101333Y-88467200D02*
X175863238Y-89181485D01*
X175863238Y-89181485D02*
X176482285Y-89181485D01*
X151159512Y-95344819D02*
X151159512Y-96059104D01*
X151159512Y-96059104D02*
X151111893Y-96201961D01*
X151111893Y-96201961D02*
X151016655Y-96297200D01*
X151016655Y-96297200D02*
X150873798Y-96344819D01*
X150873798Y-96344819D02*
X150778560Y-96344819D01*
X151540465Y-95344819D02*
X152159512Y-95344819D01*
X152159512Y-95344819D02*
X151826179Y-95725771D01*
X151826179Y-95725771D02*
X151969036Y-95725771D01*
X151969036Y-95725771D02*
X152064274Y-95773390D01*
X152064274Y-95773390D02*
X152111893Y-95821009D01*
X152111893Y-95821009D02*
X152159512Y-95916247D01*
X152159512Y-95916247D02*
X152159512Y-96154342D01*
X152159512Y-96154342D02*
X152111893Y-96249580D01*
X152111893Y-96249580D02*
X152064274Y-96297200D01*
X152064274Y-96297200D02*
X151969036Y-96344819D01*
X151969036Y-96344819D02*
X151683322Y-96344819D01*
X151683322Y-96344819D02*
X151588084Y-96297200D01*
X151588084Y-96297200D02*
X151540465Y-96249580D01*
X142350165Y-86833333D02*
X143064450Y-86833333D01*
X143064450Y-86833333D02*
X143207307Y-86880952D01*
X143207307Y-86880952D02*
X143302546Y-86976190D01*
X143302546Y-86976190D02*
X143350165Y-87119047D01*
X143350165Y-87119047D02*
X143350165Y-87214285D01*
X142445403Y-86404761D02*
X142397784Y-86357142D01*
X142397784Y-86357142D02*
X142350165Y-86261904D01*
X142350165Y-86261904D02*
X142350165Y-86023809D01*
X142350165Y-86023809D02*
X142397784Y-85928571D01*
X142397784Y-85928571D02*
X142445403Y-85880952D01*
X142445403Y-85880952D02*
X142540641Y-85833333D01*
X142540641Y-85833333D02*
X142635879Y-85833333D01*
X142635879Y-85833333D02*
X142778736Y-85880952D01*
X142778736Y-85880952D02*
X143350165Y-86452380D01*
X143350165Y-86452380D02*
X143350165Y-85833333D01*
X136484751Y-92494819D02*
X136484751Y-91494819D01*
X136484751Y-91494819D02*
X136722846Y-91494819D01*
X136722846Y-91494819D02*
X136865703Y-91542438D01*
X136865703Y-91542438D02*
X136960941Y-91637676D01*
X136960941Y-91637676D02*
X137008560Y-91732914D01*
X137008560Y-91732914D02*
X137056179Y-91923390D01*
X137056179Y-91923390D02*
X137056179Y-92066247D01*
X137056179Y-92066247D02*
X137008560Y-92256723D01*
X137008560Y-92256723D02*
X136960941Y-92351961D01*
X136960941Y-92351961D02*
X136865703Y-92447200D01*
X136865703Y-92447200D02*
X136722846Y-92494819D01*
X136722846Y-92494819D02*
X136484751Y-92494819D01*
X138008560Y-92494819D02*
X137437132Y-92494819D01*
X137722846Y-92494819D02*
X137722846Y-91494819D01*
X137722846Y-91494819D02*
X137627608Y-91637676D01*
X137627608Y-91637676D02*
X137532370Y-91732914D01*
X137532370Y-91732914D02*
X137437132Y-91780533D01*
%TO.C,J1*%
D12*
X147330000Y-97210000D02*
X147330000Y-97330000D01*
X147330000Y-94670000D02*
X147330000Y-96000000D01*
X146000000Y-94670000D02*
X147330000Y-94670000D01*
X144670000Y-97330000D02*
X147330000Y-97330000D01*
X144670000Y-97210000D02*
X144670000Y-97330000D01*
%TO.C,R1*%
X145832846Y-86822936D02*
X145832846Y-88277064D01*
X147652846Y-86822936D02*
X147652846Y-88277064D01*
%TO.C,J5*%
X174388000Y-83964000D02*
X175768000Y-83964000D01*
X174388000Y-85344000D02*
X174388000Y-83964000D01*
X174388000Y-86614000D02*
X174388000Y-86724000D01*
X174388000Y-86614000D02*
X177148000Y-86614000D01*
X174388000Y-86724000D02*
X177148000Y-86724000D01*
X177148000Y-86614000D02*
X177148000Y-86724000D01*
%TO.C,J4*%
X177148000Y-92710000D02*
X177148000Y-92820000D01*
X174388000Y-92820000D02*
X177148000Y-92820000D01*
X174388000Y-92710000D02*
X177148000Y-92710000D01*
X174388000Y-92710000D02*
X174388000Y-92820000D01*
X174388000Y-91440000D02*
X174388000Y-90060000D01*
X174388000Y-90060000D02*
X175768000Y-90060000D01*
%TO.C,J3*%
X152822846Y-91850000D02*
X152822846Y-84170000D01*
X152822846Y-91850000D02*
X150162846Y-91850000D01*
X152822846Y-84170000D02*
X150162846Y-84170000D01*
X151492846Y-94450000D02*
X150162846Y-94450000D01*
X150162846Y-94450000D02*
X150162846Y-93120000D01*
X150162846Y-91850000D02*
X150162846Y-84170000D01*
%TO.C,J2*%
X141895346Y-82575000D02*
X141895346Y-90425000D01*
X134355346Y-82575000D02*
X141895346Y-82575000D01*
X134355346Y-84295000D02*
X134355346Y-82575000D01*
X141895346Y-90425000D02*
X134355346Y-90425000D01*
X134355346Y-90425000D02*
X134355346Y-84895000D01*
X134355346Y-84595000D02*
X133745346Y-85035000D01*
X133745346Y-84155000D01*
X134355346Y-84595000D01*
G36*
X134355346Y-84595000D02*
G01*
X133745346Y-85035000D01*
X133745346Y-84155000D01*
X134355346Y-84595000D01*
G37*
%TO.C,D1*%
X134662846Y-94455000D02*
X134662846Y-97545000D01*
X134662846Y-94455170D02*
G75*
G02*
X140212846Y-96000000I2560000J-1544830D01*
G01*
X140212846Y-96000000D02*
G75*
G02*
X134662846Y-97544830I-2990000J0D01*
G01*
X139722846Y-96000000D02*
G75*
G02*
X134722846Y-96000000I-2500000J0D01*
G01*
X134722846Y-96000000D02*
G75*
G02*
X139722846Y-96000000I2500000J0D01*
G01*
%TD*%
M02*
