%TF.GenerationSoftware,KiCad,Pcbnew,10.0.3*%
%TF.CreationDate,2026-06-09T13:44:48+01:00*%
%TF.ProjectId,5 LED MQ4 - Methane and CNG Gas,35204c45-4420-44d5-9134-202d204d6574,rev?*%
%TF.SameCoordinates,Original*%
%TF.FileFunction,Copper,L1,Top*%
%TF.FilePolarity,Positive*%
%FSLAX46Y46*%
G04 Gerber Fmt 4.6, Leading zero omitted, Abs format (unit mm)*
G04 Created by KiCad (PCBNEW 10.0.3) date 2026-06-09 13:44:48*
%MOMM*%
%LPD*%
G01*
G04 APERTURE LIST*
G04 Aperture macros list*
%AMRoundRect*
0 Rectangle with rounded corners*
0 $1 Rounding radius*
0 $2 $3 $4 $5 $6 $7 $8 $9 X,Y pos of 4 corners*
0 Add a 4 corners polygon primitive as box body*
4,1,4,$2,$3,$4,$5,$6,$7,$8,$9,$2,$3,0*
0 Add four circle primitives for the rounded corners*
1,1,$1+$1,$2,$3*
1,1,$1+$1,$4,$5*
1,1,$1+$1,$6,$7*
1,1,$1+$1,$8,$9*
0 Add four rect primitives between the rounded corners*
20,1,$1+$1,$2,$3,$4,$5,0*
20,1,$1+$1,$4,$5,$6,$7,0*
20,1,$1+$1,$6,$7,$8,$9,0*
20,1,$1+$1,$8,$9,$2,$3,0*%
G04 Aperture macros list end*
%TA.AperFunction,ComponentPad*%
%ADD10R,1.700000X1.700000*%
%TD*%
%TA.AperFunction,SMDPad,CuDef*%
%ADD11RoundRect,0.250000X-0.625000X0.400000X-0.625000X-0.400000X0.625000X-0.400000X0.625000X0.400000X0*%
%TD*%
%TA.AperFunction,ComponentPad*%
%ADD12C,1.700000*%
%TD*%
%TA.AperFunction,ComponentPad*%
%ADD13RoundRect,0.250000X-0.750000X0.750000X-0.750000X-0.750000X0.750000X-0.750000X0.750000X0.750000X0*%
%TD*%
%TA.AperFunction,ComponentPad*%
%ADD14C,2.000000*%
%TD*%
%TA.AperFunction,ComponentPad*%
%ADD15R,1.800000X1.800000*%
%TD*%
%TA.AperFunction,ComponentPad*%
%ADD16C,1.800000*%
%TD*%
%TA.AperFunction,ViaPad*%
%ADD17C,0.600000*%
%TD*%
%TA.AperFunction,Conductor*%
%ADD18C,0.200000*%
%TD*%
G04 APERTURE END LIST*
D10*
%TO.P,J1,1,Pin_1_1*%
%TO.N,Net-(D1-A)*%
X146000000Y-96000000D03*
%TD*%
D11*
%TO.P,R1,2*%
%TO.N,Net-(D1-K)*%
X146742846Y-89100000D03*
%TO.P,R1,1*%
%TO.N,GND*%
X146742846Y-86000000D03*
%TD*%
D10*
%TO.P,J5,1,Pin_1_1*%
%TO.N,/Analog*%
X175768000Y-85344000D03*
%TD*%
%TO.P,J4,1,Pin_1_1*%
%TO.N,/Digital*%
X175768000Y-91440000D03*
%TD*%
%TO.P,J3,1,Pin_1_1*%
%TO.N,+5V*%
X151492846Y-93120000D03*
D12*
%TO.P,J3,2,Pin_2_2*%
%TO.N,GND*%
X151492846Y-90580000D03*
%TO.P,J3,3,Pin_3_3*%
%TO.N,/Digital*%
X151492846Y-88040000D03*
%TO.P,J3,4,Pin_4_4*%
%TO.N,/Analog*%
X151492846Y-85500000D03*
%TD*%
D13*
%TO.P,J2,1,Pin_1_1*%
%TO.N,+5V*%
X138075346Y-84595000D03*
D14*
%TO.P,J2,2,Pin_2_2*%
%TO.N,GND*%
X138075346Y-88405000D03*
%TD*%
D15*
%TO.P,D1,1,K_1*%
%TO.N,Net-(D1-K)*%
X135952846Y-96000000D03*
D16*
%TO.P,D1,2,A_2*%
%TO.N,Net-(D1-A)*%
X138492846Y-96000000D03*
%TD*%
D17*
%TO.N,GND*%
X146742846Y-84350000D03*
%TD*%
%TO.N,Net-(D1-A)*%
D18*
X138492846Y-96000000D02*
X146000000Y-96000000D01*
%TO.N,/Digital*%
X166040000Y-88040000D02*
X169500000Y-91500000D01*
X151492846Y-88040000D02*
X166040000Y-88040000D01*
X169500000Y-91500000D02*
X169560000Y-91440000D01*
X169560000Y-91440000D02*
X175768000Y-91440000D01*
%TO.N,/Analog*%
X151492846Y-85500000D02*
X175612000Y-85500000D01*
X175612000Y-85500000D02*
X175768000Y-85344000D01*
%TO.N,+5V*%
X151492846Y-93120000D02*
X148742846Y-90370000D01*
X148742846Y-84000000D02*
X147992846Y-83250000D01*
X148742846Y-90370000D02*
X148742846Y-84000000D01*
X142147846Y-84595000D02*
X138075346Y-84595000D01*
X147992846Y-83250000D02*
X143492846Y-83250000D01*
X143492846Y-83250000D02*
X142147846Y-84595000D01*
%TO.N,Net-(D1-K)*%
X135952846Y-96000000D02*
X140202846Y-91750000D01*
X140202846Y-91750000D02*
X144092846Y-91750000D01*
X144092846Y-91750000D02*
X146742846Y-89100000D01*
%TO.N,GND*%
X146742846Y-84350000D02*
X146742846Y-86000000D01*
%TD*%
M02*
