%TF.GenerationSoftware,KiCad,Pcbnew,10.0.3*%
%TF.CreationDate,2026-06-09T11:45:49+01:00*%
%TF.ProjectId,4 LED with Button as Control Output,34204c45-4420-4776-9974-682042757474,rev?*%
%TF.SameCoordinates,Original*%
%TF.FileFunction,Copper,L2,Bot*%
%TF.FilePolarity,Positive*%
%FSLAX46Y46*%
G04 Gerber Fmt 4.6, Leading zero omitted, Abs format (unit mm)*
G04 Created by KiCad (PCBNEW 10.0.3) date 2026-06-09 11:45:49*
%MOMM*%
%LPD*%
G01*
G04 APERTURE LIST*
G04 Aperture macros list*
%AMRoundRect*
0 Rectangle with rounded corners*
0 $1 Rounding radius*
0 $2 $3 $4 $5 $6 $7 $8 $9 X,Y pos of 4 corners*
0 Add a 4 corners polygon primitive as box body*
4,1,4,$2,$3,$4,$5,$6,$7,$8,$9,$2,$3,0*
0 Add four circle primitives for the rounded corners*
1,1,$1+$1,$2,$3*
1,1,$1+$1,$4,$5*
1,1,$1+$1,$6,$7*
1,1,$1+$1,$8,$9*
0 Add four rect primitives between the rounded corners*
20,1,$1+$1,$2,$3,$4,$5,0*
20,1,$1+$1,$4,$5,$6,$7,0*
20,1,$1+$1,$6,$7,$8,$9,0*
20,1,$1+$1,$8,$9,$2,$3,0*%
G04 Aperture macros list end*
%TA.AperFunction,ComponentPad*%
%ADD10RoundRect,0.250000X-0.750000X0.750000X-0.750000X-0.750000X0.750000X-0.750000X0.750000X0.750000X0*%
%TD*%
%TA.AperFunction,ComponentPad*%
%ADD11C,2.000000*%
%TD*%
%TA.AperFunction,ComponentPad*%
%ADD12R,1.700000X1.700000*%
%TD*%
%TA.AperFunction,ComponentPad*%
%ADD13R,1.800000X1.800000*%
%TD*%
%TA.AperFunction,ComponentPad*%
%ADD14C,1.800000*%
%TD*%
%TA.AperFunction,ViaPad*%
%ADD15C,0.600000*%
%TD*%
G04 APERTURE END LIST*
D10*
%TO.P,J3,1,Pin_1_1*%
%TO.N,+5V*%
X114000000Y-76000000D03*
D11*
%TO.P,J3,2,Pin_2_2*%
%TO.N,GND*%
X114000000Y-79810000D03*
%TD*%
D12*
%TO.P,J1,1,Pin_1_1*%
%TO.N,Net-(J1-Pin_1)*%
X136235000Y-77500000D03*
%TD*%
D13*
%TO.P,D1,1,K_1*%
%TO.N,GND*%
X122460000Y-77500000D03*
D14*
%TO.P,D1,2,A_2*%
%TO.N,Net-(D1-A)*%
X125000000Y-77500000D03*
%TD*%
D11*
%TO.P,SW1,1,1_1*%
%TO.N,+5V*%
X111450000Y-61550000D03*
X117950000Y-61550000D03*
%TO.P,SW1,2,2_2*%
%TO.N,Net-(J2-Pin_1)*%
X111450000Y-66050000D03*
X117950000Y-66050000D03*
%TD*%
D12*
%TO.P,J2,1,Pin_1_1*%
%TO.N,Net-(J2-Pin_1)*%
X129000000Y-64000000D03*
%TD*%
D15*
%TO.N,GND*%
X123500000Y-68500000D03*
%TD*%
%TA.AperFunction,Conductor*%
%TO.N,GND*%
G36*
X138942539Y-59020185D02*
G01*
X138988294Y-59072989D01*
X138999500Y-59124500D01*
X138999500Y-82875500D01*
X138979815Y-82942539D01*
X138927011Y-82988294D01*
X138875500Y-82999500D01*
X108624500Y-82999500D01*
X108557461Y-82979815D01*
X108511706Y-82927011D01*
X108500500Y-82875500D01*
X108500500Y-79691947D01*
X112500000Y-79691947D01*
X112500000Y-79928052D01*
X112536934Y-80161247D01*
X112609897Y-80385802D01*
X112717087Y-80596174D01*
X112777338Y-80679104D01*
X112777340Y-80679105D01*
X113476212Y-79980233D01*
X113487482Y-80022292D01*
X113559890Y-80147708D01*
X113662292Y-80250110D01*
X113787708Y-80322518D01*
X113829765Y-80333787D01*
X113130893Y-81032658D01*
X113213828Y-81092914D01*
X113424197Y-81200102D01*
X113648752Y-81273065D01*
X113648751Y-81273065D01*
X113881948Y-81310000D01*
X114118052Y-81310000D01*
X114351247Y-81273065D01*
X114575802Y-81200102D01*
X114786163Y-81092918D01*
X114786169Y-81092914D01*
X114869104Y-81032658D01*
X114869105Y-81032658D01*
X114170233Y-80333787D01*
X114212292Y-80322518D01*
X114337708Y-80250110D01*
X114440110Y-80147708D01*
X114512518Y-80022292D01*
X114523787Y-79980234D01*
X115222658Y-80679105D01*
X115222658Y-80679104D01*
X115282914Y-80596169D01*
X115282918Y-80596163D01*
X115390102Y-80385802D01*
X115463065Y-80161247D01*
X115500000Y-79928052D01*
X115500000Y-79691947D01*
X115463065Y-79458752D01*
X115390102Y-79234197D01*
X115282914Y-79023828D01*
X115222658Y-78940894D01*
X115222658Y-78940893D01*
X114523787Y-79639765D01*
X114512518Y-79597708D01*
X114440110Y-79472292D01*
X114337708Y-79369890D01*
X114212292Y-79297482D01*
X114170234Y-79286212D01*
X114869105Y-78587340D01*
X114869104Y-78587338D01*
X114786174Y-78527087D01*
X114575802Y-78419897D01*
X114351247Y-78346934D01*
X114351248Y-78346934D01*
X114118052Y-78310000D01*
X113881948Y-78310000D01*
X113648752Y-78346934D01*
X113424197Y-78419897D01*
X113213830Y-78527084D01*
X113130894Y-78587340D01*
X113829766Y-79286212D01*
X113787708Y-79297482D01*
X113662292Y-79369890D01*
X113559890Y-79472292D01*
X113487482Y-79597708D01*
X113476212Y-79639766D01*
X112777340Y-78940894D01*
X112717084Y-79023830D01*
X112609897Y-79234197D01*
X112536934Y-79458752D01*
X112500000Y-79691947D01*
X108500500Y-79691947D01*
X108500500Y-75199983D01*
X112499500Y-75199983D01*
X112499500Y-76800001D01*
X112499501Y-76800018D01*
X112510000Y-76902796D01*
X112510001Y-76902799D01*
X112529750Y-76962396D01*
X112565186Y-77069334D01*
X112657288Y-77218656D01*
X112781344Y-77342712D01*
X112930666Y-77434814D01*
X113097203Y-77489999D01*
X113199991Y-77500500D01*
X114800008Y-77500499D01*
X114902797Y-77489999D01*
X115069334Y-77434814D01*
X115218656Y-77342712D01*
X115342712Y-77218656D01*
X115434814Y-77069334D01*
X115489999Y-76902797D01*
X115500500Y-76800009D01*
X115500500Y-76552155D01*
X121060000Y-76552155D01*
X121060000Y-77250000D01*
X122084722Y-77250000D01*
X122040667Y-77326306D01*
X122010000Y-77440756D01*
X122010000Y-77559244D01*
X122040667Y-77673694D01*
X122084722Y-77750000D01*
X121060000Y-77750000D01*
X121060000Y-78447844D01*
X121066401Y-78507372D01*
X121066403Y-78507379D01*
X121116645Y-78642086D01*
X121116649Y-78642093D01*
X121202809Y-78757187D01*
X121202812Y-78757190D01*
X121317906Y-78843350D01*
X121317913Y-78843354D01*
X121452620Y-78893596D01*
X121452627Y-78893598D01*
X121512155Y-78899999D01*
X121512172Y-78900000D01*
X122210000Y-78900000D01*
X122210000Y-77875277D01*
X122286306Y-77919333D01*
X122400756Y-77950000D01*
X122519244Y-77950000D01*
X122633694Y-77919333D01*
X122710000Y-77875277D01*
X122710000Y-78900000D01*
X123407828Y-78900000D01*
X123407844Y-78899999D01*
X123467372Y-78893598D01*
X123467379Y-78893596D01*
X123602086Y-78843354D01*
X123602093Y-78843350D01*
X123717187Y-78757190D01*
X123717190Y-78757187D01*
X123803350Y-78642093D01*
X123803354Y-78642086D01*
X123833213Y-78562031D01*
X123875084Y-78506097D01*
X123940548Y-78481680D01*
X124008821Y-78496531D01*
X124037076Y-78517683D01*
X124087636Y-78568243D01*
X124087641Y-78568247D01*
X124243192Y-78681260D01*
X124265978Y-78697815D01*
X124382501Y-78757187D01*
X124462393Y-78797895D01*
X124462396Y-78797896D01*
X124567221Y-78831955D01*
X124672049Y-78866015D01*
X124889778Y-78900500D01*
X124889779Y-78900500D01*
X125110221Y-78900500D01*
X125110222Y-78900500D01*
X125327951Y-78866015D01*
X125537606Y-78797895D01*
X125734022Y-78697815D01*
X125912365Y-78568242D01*
X126068242Y-78412365D01*
X126197815Y-78234022D01*
X126297895Y-78037606D01*
X126366015Y-77827951D01*
X126400500Y-77610222D01*
X126400500Y-77389778D01*
X126366015Y-77172049D01*
X126331955Y-77067221D01*
X126297896Y-76962396D01*
X126297895Y-76962393D01*
X126197815Y-76765978D01*
X126129312Y-76671691D01*
X126129311Y-76671688D01*
X126078778Y-76602135D01*
X134884500Y-76602135D01*
X134884500Y-78397870D01*
X134884501Y-78397876D01*
X134890908Y-78457483D01*
X134941202Y-78592328D01*
X134941206Y-78592335D01*
X135027452Y-78707544D01*
X135027455Y-78707547D01*
X135142664Y-78793793D01*
X135142671Y-78793797D01*
X135277517Y-78844091D01*
X135277516Y-78844091D01*
X135284444Y-78844835D01*
X135337127Y-78850500D01*
X137132872Y-78850499D01*
X137192483Y-78844091D01*
X137327331Y-78793796D01*
X137442546Y-78707546D01*
X137528796Y-78592331D01*
X137579091Y-78457483D01*
X137585500Y-78397873D01*
X137585499Y-76602128D01*
X137579091Y-76542517D01*
X137567267Y-76510816D01*
X137528797Y-76407671D01*
X137528793Y-76407664D01*
X137442547Y-76292455D01*
X137442544Y-76292452D01*
X137327335Y-76206206D01*
X137327328Y-76206202D01*
X137192482Y-76155908D01*
X137192483Y-76155908D01*
X137132883Y-76149501D01*
X137132881Y-76149500D01*
X137132873Y-76149500D01*
X137132864Y-76149500D01*
X135337129Y-76149500D01*
X135337123Y-76149501D01*
X135277516Y-76155908D01*
X135142671Y-76206202D01*
X135142664Y-76206206D01*
X135027455Y-76292452D01*
X135027452Y-76292455D01*
X134941206Y-76407664D01*
X134941202Y-76407671D01*
X134890908Y-76542517D01*
X134886058Y-76587635D01*
X134884501Y-76602123D01*
X134884500Y-76602135D01*
X126078778Y-76602135D01*
X126068247Y-76587641D01*
X126068243Y-76587636D01*
X125912363Y-76431756D01*
X125912358Y-76431752D01*
X125734025Y-76302187D01*
X125734024Y-76302186D01*
X125734022Y-76302185D01*
X125671096Y-76270122D01*
X125537606Y-76202104D01*
X125537603Y-76202103D01*
X125327952Y-76133985D01*
X125219086Y-76116742D01*
X125110222Y-76099500D01*
X124889778Y-76099500D01*
X124817201Y-76110995D01*
X124672047Y-76133985D01*
X124462396Y-76202103D01*
X124462393Y-76202104D01*
X124265974Y-76302187D01*
X124087641Y-76431752D01*
X124087636Y-76431756D01*
X124037075Y-76482317D01*
X123975752Y-76515801D01*
X123906060Y-76510816D01*
X123850127Y-76468945D01*
X123833213Y-76437968D01*
X123803354Y-76357913D01*
X123803350Y-76357906D01*
X123717190Y-76242812D01*
X123717187Y-76242809D01*
X123602093Y-76156649D01*
X123602086Y-76156645D01*
X123467379Y-76106403D01*
X123467372Y-76106401D01*
X123407844Y-76100000D01*
X122710000Y-76100000D01*
X122710000Y-77124722D01*
X122633694Y-77080667D01*
X122519244Y-77050000D01*
X122400756Y-77050000D01*
X122286306Y-77080667D01*
X122210000Y-77124722D01*
X122210000Y-76100000D01*
X121512155Y-76100000D01*
X121452627Y-76106401D01*
X121452620Y-76106403D01*
X121317913Y-76156645D01*
X121317906Y-76156649D01*
X121202812Y-76242809D01*
X121202809Y-76242812D01*
X121116649Y-76357906D01*
X121116645Y-76357913D01*
X121066403Y-76492620D01*
X121066401Y-76492627D01*
X121060000Y-76552155D01*
X115500500Y-76552155D01*
X115500499Y-75199992D01*
X115489999Y-75097203D01*
X115434814Y-74930666D01*
X115342712Y-74781344D01*
X115218656Y-74657288D01*
X115069334Y-74565186D01*
X114902797Y-74510001D01*
X114902795Y-74510000D01*
X114800010Y-74499500D01*
X113199998Y-74499500D01*
X113199981Y-74499501D01*
X113097203Y-74510000D01*
X113097200Y-74510001D01*
X112930668Y-74565185D01*
X112930663Y-74565187D01*
X112781342Y-74657289D01*
X112657289Y-74781342D01*
X112565187Y-74930663D01*
X112565186Y-74930666D01*
X112510001Y-75097203D01*
X112510001Y-75097204D01*
X112510000Y-75097204D01*
X112499500Y-75199983D01*
X108500500Y-75199983D01*
X108500500Y-65931902D01*
X109949500Y-65931902D01*
X109949500Y-66168097D01*
X109986446Y-66401368D01*
X110059433Y-66625996D01*
X110166657Y-66836433D01*
X110305483Y-67027510D01*
X110472490Y-67194517D01*
X110663567Y-67333343D01*
X110762991Y-67384002D01*
X110874003Y-67440566D01*
X110874005Y-67440566D01*
X110874008Y-67440568D01*
X110994412Y-67479689D01*
X111098631Y-67513553D01*
X111331903Y-67550500D01*
X111331908Y-67550500D01*
X111568097Y-67550500D01*
X111801368Y-67513553D01*
X112025992Y-67440568D01*
X112236433Y-67333343D01*
X112427510Y-67194517D01*
X112594517Y-67027510D01*
X112733343Y-66836433D01*
X112840568Y-66625992D01*
X112913553Y-66401368D01*
X112950500Y-66168097D01*
X112950500Y-65931902D01*
X116449500Y-65931902D01*
X116449500Y-66168097D01*
X116486446Y-66401368D01*
X116559433Y-66625996D01*
X116666657Y-66836433D01*
X116805483Y-67027510D01*
X116972490Y-67194517D01*
X117163567Y-67333343D01*
X117262991Y-67384002D01*
X117374003Y-67440566D01*
X117374005Y-67440566D01*
X117374008Y-67440568D01*
X117494412Y-67479689D01*
X117598631Y-67513553D01*
X117831903Y-67550500D01*
X117831908Y-67550500D01*
X118068097Y-67550500D01*
X118301368Y-67513553D01*
X118525992Y-67440568D01*
X118736433Y-67333343D01*
X118927510Y-67194517D01*
X119094517Y-67027510D01*
X119233343Y-66836433D01*
X119340568Y-66625992D01*
X119413553Y-66401368D01*
X119450500Y-66168097D01*
X119450500Y-65931902D01*
X119413553Y-65698631D01*
X119340566Y-65474003D01*
X119284002Y-65362991D01*
X119233343Y-65263567D01*
X119094517Y-65072490D01*
X118927510Y-64905483D01*
X118736433Y-64766657D01*
X118525996Y-64659433D01*
X118301368Y-64586446D01*
X118068097Y-64549500D01*
X118068092Y-64549500D01*
X117831908Y-64549500D01*
X117831903Y-64549500D01*
X117598631Y-64586446D01*
X117374003Y-64659433D01*
X117163566Y-64766657D01*
X117054550Y-64845862D01*
X116972490Y-64905483D01*
X116972488Y-64905485D01*
X116972487Y-64905485D01*
X116805485Y-65072487D01*
X116805485Y-65072488D01*
X116805483Y-65072490D01*
X116791070Y-65092328D01*
X116666657Y-65263566D01*
X116559433Y-65474003D01*
X116486446Y-65698631D01*
X116449500Y-65931902D01*
X112950500Y-65931902D01*
X112913553Y-65698631D01*
X112840566Y-65474003D01*
X112784002Y-65362991D01*
X112733343Y-65263567D01*
X112594517Y-65072490D01*
X112427510Y-64905483D01*
X112236433Y-64766657D01*
X112025996Y-64659433D01*
X111801368Y-64586446D01*
X111568097Y-64549500D01*
X111568092Y-64549500D01*
X111331908Y-64549500D01*
X111331903Y-64549500D01*
X111098631Y-64586446D01*
X110874003Y-64659433D01*
X110663566Y-64766657D01*
X110554550Y-64845862D01*
X110472490Y-64905483D01*
X110472488Y-64905485D01*
X110472487Y-64905485D01*
X110305485Y-65072487D01*
X110305485Y-65072488D01*
X110305483Y-65072490D01*
X110291070Y-65092328D01*
X110166657Y-65263566D01*
X110059433Y-65474003D01*
X109986446Y-65698631D01*
X109949500Y-65931902D01*
X108500500Y-65931902D01*
X108500500Y-63102135D01*
X127649500Y-63102135D01*
X127649500Y-64897870D01*
X127649501Y-64897876D01*
X127655908Y-64957483D01*
X127706202Y-65092328D01*
X127706206Y-65092335D01*
X127792452Y-65207544D01*
X127792455Y-65207547D01*
X127907664Y-65293793D01*
X127907671Y-65293797D01*
X128042517Y-65344091D01*
X128042516Y-65344091D01*
X128049444Y-65344835D01*
X128102127Y-65350500D01*
X129897872Y-65350499D01*
X129957483Y-65344091D01*
X130092331Y-65293796D01*
X130207546Y-65207546D01*
X130293796Y-65092331D01*
X130344091Y-64957483D01*
X130350500Y-64897873D01*
X130350499Y-63102128D01*
X130344091Y-63042517D01*
X130293796Y-62907669D01*
X130293795Y-62907668D01*
X130293793Y-62907664D01*
X130207547Y-62792455D01*
X130207544Y-62792452D01*
X130092335Y-62706206D01*
X130092328Y-62706202D01*
X129957482Y-62655908D01*
X129957483Y-62655908D01*
X129897883Y-62649501D01*
X129897881Y-62649500D01*
X129897873Y-62649500D01*
X129897864Y-62649500D01*
X128102129Y-62649500D01*
X128102123Y-62649501D01*
X128042516Y-62655908D01*
X127907671Y-62706202D01*
X127907664Y-62706206D01*
X127792455Y-62792452D01*
X127792452Y-62792455D01*
X127706206Y-62907664D01*
X127706202Y-62907671D01*
X127655908Y-63042517D01*
X127649501Y-63102116D01*
X127649501Y-63102123D01*
X127649500Y-63102135D01*
X108500500Y-63102135D01*
X108500500Y-61431902D01*
X109949500Y-61431902D01*
X109949500Y-61668097D01*
X109986446Y-61901368D01*
X110059433Y-62125996D01*
X110166657Y-62336433D01*
X110305483Y-62527510D01*
X110472490Y-62694517D01*
X110663567Y-62833343D01*
X110762991Y-62884002D01*
X110874003Y-62940566D01*
X110874005Y-62940566D01*
X110874008Y-62940568D01*
X110994412Y-62979689D01*
X111098631Y-63013553D01*
X111331903Y-63050500D01*
X111331908Y-63050500D01*
X111568097Y-63050500D01*
X111801368Y-63013553D01*
X112025992Y-62940568D01*
X112236433Y-62833343D01*
X112427510Y-62694517D01*
X112594517Y-62527510D01*
X112733343Y-62336433D01*
X112840568Y-62125992D01*
X112913553Y-61901368D01*
X112950500Y-61668097D01*
X112950500Y-61431902D01*
X116449500Y-61431902D01*
X116449500Y-61668097D01*
X116486446Y-61901368D01*
X116559433Y-62125996D01*
X116666657Y-62336433D01*
X116805483Y-62527510D01*
X116972490Y-62694517D01*
X117163567Y-62833343D01*
X117262991Y-62884002D01*
X117374003Y-62940566D01*
X117374005Y-62940566D01*
X117374008Y-62940568D01*
X117494412Y-62979689D01*
X117598631Y-63013553D01*
X117831903Y-63050500D01*
X117831908Y-63050500D01*
X118068097Y-63050500D01*
X118301368Y-63013553D01*
X118401940Y-62980875D01*
X118525992Y-62940568D01*
X118736433Y-62833343D01*
X118927510Y-62694517D01*
X119094517Y-62527510D01*
X119233343Y-62336433D01*
X119340568Y-62125992D01*
X119413553Y-61901368D01*
X119450500Y-61668097D01*
X119450500Y-61431902D01*
X119413553Y-61198631D01*
X119340566Y-60974003D01*
X119233342Y-60763566D01*
X119094517Y-60572490D01*
X118927510Y-60405483D01*
X118736433Y-60266657D01*
X118525996Y-60159433D01*
X118301368Y-60086446D01*
X118068097Y-60049500D01*
X118068092Y-60049500D01*
X117831908Y-60049500D01*
X117831903Y-60049500D01*
X117598631Y-60086446D01*
X117374003Y-60159433D01*
X117163566Y-60266657D01*
X117054550Y-60345862D01*
X116972490Y-60405483D01*
X116972488Y-60405485D01*
X116972487Y-60405485D01*
X116805485Y-60572487D01*
X116805485Y-60572488D01*
X116805483Y-60572490D01*
X116745862Y-60654550D01*
X116666657Y-60763566D01*
X116559433Y-60974003D01*
X116486446Y-61198631D01*
X116449500Y-61431902D01*
X112950500Y-61431902D01*
X112913553Y-61198631D01*
X112840566Y-60974003D01*
X112733342Y-60763566D01*
X112594517Y-60572490D01*
X112427510Y-60405483D01*
X112236433Y-60266657D01*
X112025996Y-60159433D01*
X111801368Y-60086446D01*
X111568097Y-60049500D01*
X111568092Y-60049500D01*
X111331908Y-60049500D01*
X111331903Y-60049500D01*
X111098631Y-60086446D01*
X110874003Y-60159433D01*
X110663566Y-60266657D01*
X110554550Y-60345862D01*
X110472490Y-60405483D01*
X110472488Y-60405485D01*
X110472487Y-60405485D01*
X110305485Y-60572487D01*
X110305485Y-60572488D01*
X110305483Y-60572490D01*
X110245862Y-60654550D01*
X110166657Y-60763566D01*
X110059433Y-60974003D01*
X109986446Y-61198631D01*
X109949500Y-61431902D01*
X108500500Y-61431902D01*
X108500500Y-59124500D01*
X108520185Y-59057461D01*
X108572989Y-59011706D01*
X108624500Y-59000500D01*
X138875500Y-59000500D01*
X138942539Y-59020185D01*
G37*
%TD.AperFunction*%
%TD*%
M02*
