%TF.GenerationSoftware,KiCad,Pcbnew,10.0.3*%
%TF.CreationDate,2026-06-09T11:45:49+01:00*%
%TF.ProjectId,4 LED with Button as Control Output,34204c45-4420-4776-9974-682042757474,rev?*%
%TF.SameCoordinates,Original*%
%TF.FileFunction,Legend,Top*%
%TF.FilePolarity,Positive*%
%FSLAX46Y46*%
G04 Gerber Fmt 4.6, Leading zero omitted, Abs format (unit mm)*
G04 Created by KiCad (PCBNEW 10.0.3) date 2026-06-09 11:45:49*
%MOMM*%
%LPD*%
G01*
G04 APERTURE LIST*
%ADD10C,0.100000*%
%ADD11C,0.150000*%
%ADD12C,0.120000*%
G04 APERTURE END LIST*
D10*
X137205752Y-67791353D02*
X137872419Y-67553258D01*
X137872419Y-67553258D02*
X137205752Y-67315163D01*
X136872419Y-66648496D02*
X137586704Y-66648496D01*
X137586704Y-66648496D02*
X137729561Y-66696115D01*
X137729561Y-66696115D02*
X137824800Y-66791353D01*
X137824800Y-66791353D02*
X137872419Y-66934210D01*
X137872419Y-66934210D02*
X137872419Y-67029448D01*
X136872419Y-66172305D02*
X137681942Y-66172305D01*
X137681942Y-66172305D02*
X137777180Y-66124686D01*
X137777180Y-66124686D02*
X137824800Y-66077067D01*
X137824800Y-66077067D02*
X137872419Y-65981829D01*
X137872419Y-65981829D02*
X137872419Y-65791353D01*
X137872419Y-65791353D02*
X137824800Y-65696115D01*
X137824800Y-65696115D02*
X137777180Y-65648496D01*
X137777180Y-65648496D02*
X137681942Y-65600877D01*
X137681942Y-65600877D02*
X136872419Y-65600877D01*
X137872419Y-65124686D02*
X136872419Y-65124686D01*
X136872419Y-65124686D02*
X137872419Y-64553258D01*
X137872419Y-64553258D02*
X136872419Y-64553258D01*
X137348609Y-64077067D02*
X137348609Y-63743734D01*
X137872419Y-63600877D02*
X137872419Y-64077067D01*
X137872419Y-64077067D02*
X136872419Y-64077067D01*
X136872419Y-64077067D02*
X136872419Y-63600877D01*
X136967657Y-63219924D02*
X136920038Y-63172305D01*
X136920038Y-63172305D02*
X136872419Y-63077067D01*
X136872419Y-63077067D02*
X136872419Y-62838972D01*
X136872419Y-62838972D02*
X136920038Y-62743734D01*
X136920038Y-62743734D02*
X136967657Y-62696115D01*
X136967657Y-62696115D02*
X137062895Y-62648496D01*
X137062895Y-62648496D02*
X137158133Y-62648496D01*
X137158133Y-62648496D02*
X137300990Y-62696115D01*
X137300990Y-62696115D02*
X137872419Y-63267543D01*
X137872419Y-63267543D02*
X137872419Y-62648496D01*
X136872419Y-62029448D02*
X136872419Y-61934210D01*
X136872419Y-61934210D02*
X136920038Y-61838972D01*
X136920038Y-61838972D02*
X136967657Y-61791353D01*
X136967657Y-61791353D02*
X137062895Y-61743734D01*
X137062895Y-61743734D02*
X137253371Y-61696115D01*
X137253371Y-61696115D02*
X137491466Y-61696115D01*
X137491466Y-61696115D02*
X137681942Y-61743734D01*
X137681942Y-61743734D02*
X137777180Y-61791353D01*
X137777180Y-61791353D02*
X137824800Y-61838972D01*
X137824800Y-61838972D02*
X137872419Y-61934210D01*
X137872419Y-61934210D02*
X137872419Y-62029448D01*
X137872419Y-62029448D02*
X137824800Y-62124686D01*
X137824800Y-62124686D02*
X137777180Y-62172305D01*
X137777180Y-62172305D02*
X137681942Y-62219924D01*
X137681942Y-62219924D02*
X137491466Y-62267543D01*
X137491466Y-62267543D02*
X137253371Y-62267543D01*
X137253371Y-62267543D02*
X137062895Y-62219924D01*
X137062895Y-62219924D02*
X136967657Y-62172305D01*
X136967657Y-62172305D02*
X136920038Y-62124686D01*
X136920038Y-62124686D02*
X136872419Y-62029448D01*
X136967657Y-61315162D02*
X136920038Y-61267543D01*
X136920038Y-61267543D02*
X136872419Y-61172305D01*
X136872419Y-61172305D02*
X136872419Y-60934210D01*
X136872419Y-60934210D02*
X136920038Y-60838972D01*
X136920038Y-60838972D02*
X136967657Y-60791353D01*
X136967657Y-60791353D02*
X137062895Y-60743734D01*
X137062895Y-60743734D02*
X137158133Y-60743734D01*
X137158133Y-60743734D02*
X137300990Y-60791353D01*
X137300990Y-60791353D02*
X137872419Y-61362781D01*
X137872419Y-61362781D02*
X137872419Y-60743734D01*
X136872419Y-59886591D02*
X136872419Y-60077067D01*
X136872419Y-60077067D02*
X136920038Y-60172305D01*
X136920038Y-60172305D02*
X136967657Y-60219924D01*
X136967657Y-60219924D02*
X137110514Y-60315162D01*
X137110514Y-60315162D02*
X137300990Y-60362781D01*
X137300990Y-60362781D02*
X137681942Y-60362781D01*
X137681942Y-60362781D02*
X137777180Y-60315162D01*
X137777180Y-60315162D02*
X137824800Y-60267543D01*
X137824800Y-60267543D02*
X137872419Y-60172305D01*
X137872419Y-60172305D02*
X137872419Y-59981829D01*
X137872419Y-59981829D02*
X137824800Y-59886591D01*
X137824800Y-59886591D02*
X137777180Y-59838972D01*
X137777180Y-59838972D02*
X137681942Y-59791353D01*
X137681942Y-59791353D02*
X137443847Y-59791353D01*
X137443847Y-59791353D02*
X137348609Y-59838972D01*
X137348609Y-59838972D02*
X137300990Y-59886591D01*
X137300990Y-59886591D02*
X137253371Y-59981829D01*
X137253371Y-59981829D02*
X137253371Y-60172305D01*
X137253371Y-60172305D02*
X137300990Y-60267543D01*
X137300990Y-60267543D02*
X137348609Y-60315162D01*
X137348609Y-60315162D02*
X137443847Y-60362781D01*
X121896895Y-64324687D02*
X121896895Y-64781830D01*
X121896895Y-64553258D02*
X121096895Y-64553258D01*
X121096895Y-64553258D02*
X121211180Y-64629449D01*
X121211180Y-64629449D02*
X121287371Y-64705639D01*
X121287371Y-64705639D02*
X121325466Y-64781830D01*
X121096895Y-63829448D02*
X121096895Y-63753258D01*
X121096895Y-63753258D02*
X121134990Y-63677067D01*
X121134990Y-63677067D02*
X121173085Y-63638972D01*
X121173085Y-63638972D02*
X121249276Y-63600877D01*
X121249276Y-63600877D02*
X121401657Y-63562782D01*
X121401657Y-63562782D02*
X121592133Y-63562782D01*
X121592133Y-63562782D02*
X121744514Y-63600877D01*
X121744514Y-63600877D02*
X121820704Y-63638972D01*
X121820704Y-63638972D02*
X121858800Y-63677067D01*
X121858800Y-63677067D02*
X121896895Y-63753258D01*
X121896895Y-63753258D02*
X121896895Y-63829448D01*
X121896895Y-63829448D02*
X121858800Y-63905639D01*
X121858800Y-63905639D02*
X121820704Y-63943734D01*
X121820704Y-63943734D02*
X121744514Y-63981829D01*
X121744514Y-63981829D02*
X121592133Y-64019925D01*
X121592133Y-64019925D02*
X121401657Y-64019925D01*
X121401657Y-64019925D02*
X121249276Y-63981829D01*
X121249276Y-63981829D02*
X121173085Y-63943734D01*
X121173085Y-63943734D02*
X121134990Y-63905639D01*
X121134990Y-63905639D02*
X121096895Y-63829448D01*
X121896895Y-63219924D02*
X121096895Y-63219924D01*
X121592133Y-63143734D02*
X121896895Y-62915162D01*
X121363561Y-62915162D02*
X121668323Y-63219924D01*
X128673085Y-78281830D02*
X128634990Y-78243734D01*
X128634990Y-78243734D02*
X128596895Y-78167544D01*
X128596895Y-78167544D02*
X128596895Y-77977068D01*
X128596895Y-77977068D02*
X128634990Y-77900877D01*
X128634990Y-77900877D02*
X128673085Y-77862782D01*
X128673085Y-77862782D02*
X128749276Y-77824687D01*
X128749276Y-77824687D02*
X128825466Y-77824687D01*
X128825466Y-77824687D02*
X128939752Y-77862782D01*
X128939752Y-77862782D02*
X129396895Y-78319925D01*
X129396895Y-78319925D02*
X129396895Y-77824687D01*
X128673085Y-77519925D02*
X128634990Y-77481829D01*
X128634990Y-77481829D02*
X128596895Y-77405639D01*
X128596895Y-77405639D02*
X128596895Y-77215163D01*
X128596895Y-77215163D02*
X128634990Y-77138972D01*
X128634990Y-77138972D02*
X128673085Y-77100877D01*
X128673085Y-77100877D02*
X128749276Y-77062782D01*
X128749276Y-77062782D02*
X128825466Y-77062782D01*
X128825466Y-77062782D02*
X128939752Y-77100877D01*
X128939752Y-77100877D02*
X129396895Y-77558020D01*
X129396895Y-77558020D02*
X129396895Y-77062782D01*
X128596895Y-76567543D02*
X128596895Y-76491353D01*
X128596895Y-76491353D02*
X128634990Y-76415162D01*
X128634990Y-76415162D02*
X128673085Y-76377067D01*
X128673085Y-76377067D02*
X128749276Y-76338972D01*
X128749276Y-76338972D02*
X128901657Y-76300877D01*
X128901657Y-76300877D02*
X129092133Y-76300877D01*
X129092133Y-76300877D02*
X129244514Y-76338972D01*
X129244514Y-76338972D02*
X129320704Y-76377067D01*
X129320704Y-76377067D02*
X129358800Y-76415162D01*
X129358800Y-76415162D02*
X129396895Y-76491353D01*
X129396895Y-76491353D02*
X129396895Y-76567543D01*
X129396895Y-76567543D02*
X129358800Y-76643734D01*
X129358800Y-76643734D02*
X129320704Y-76681829D01*
X129320704Y-76681829D02*
X129244514Y-76719924D01*
X129244514Y-76719924D02*
X129092133Y-76758020D01*
X129092133Y-76758020D02*
X128901657Y-76758020D01*
X128901657Y-76758020D02*
X128749276Y-76719924D01*
X128749276Y-76719924D02*
X128673085Y-76681829D01*
X128673085Y-76681829D02*
X128634990Y-76643734D01*
X128634990Y-76643734D02*
X128596895Y-76567543D01*
X109627580Y-75280074D02*
X109627580Y-74803884D01*
X109627580Y-74803884D02*
X109151390Y-74756265D01*
X109151390Y-74756265D02*
X109199009Y-74803884D01*
X109199009Y-74803884D02*
X109246628Y-74899122D01*
X109246628Y-74899122D02*
X109246628Y-75137217D01*
X109246628Y-75137217D02*
X109199009Y-75232455D01*
X109199009Y-75232455D02*
X109151390Y-75280074D01*
X109151390Y-75280074D02*
X109056152Y-75327693D01*
X109056152Y-75327693D02*
X108818057Y-75327693D01*
X108818057Y-75327693D02*
X108722819Y-75280074D01*
X108722819Y-75280074D02*
X108675200Y-75232455D01*
X108675200Y-75232455D02*
X108627580Y-75137217D01*
X108627580Y-75137217D02*
X108627580Y-74899122D01*
X108627580Y-74899122D02*
X108675200Y-74803884D01*
X108675200Y-74803884D02*
X108722819Y-74756265D01*
X109294247Y-75661027D02*
X108627580Y-75899122D01*
X108627580Y-75899122D02*
X109294247Y-76137217D01*
D11*
X125784819Y-64116666D02*
X125308628Y-64449999D01*
X125784819Y-64688094D02*
X124784819Y-64688094D01*
X124784819Y-64688094D02*
X124784819Y-64307142D01*
X124784819Y-64307142D02*
X124832438Y-64211904D01*
X124832438Y-64211904D02*
X124880057Y-64164285D01*
X124880057Y-64164285D02*
X124975295Y-64116666D01*
X124975295Y-64116666D02*
X125118152Y-64116666D01*
X125118152Y-64116666D02*
X125213390Y-64164285D01*
X125213390Y-64164285D02*
X125261009Y-64211904D01*
X125261009Y-64211904D02*
X125308628Y-64307142D01*
X125308628Y-64307142D02*
X125308628Y-64688094D01*
X124880057Y-63735713D02*
X124832438Y-63688094D01*
X124832438Y-63688094D02*
X124784819Y-63592856D01*
X124784819Y-63592856D02*
X124784819Y-63354761D01*
X124784819Y-63354761D02*
X124832438Y-63259523D01*
X124832438Y-63259523D02*
X124880057Y-63211904D01*
X124880057Y-63211904D02*
X124975295Y-63164285D01*
X124975295Y-63164285D02*
X125070533Y-63164285D01*
X125070533Y-63164285D02*
X125213390Y-63211904D01*
X125213390Y-63211904D02*
X125784819Y-63783332D01*
X125784819Y-63783332D02*
X125784819Y-63164285D01*
X118274819Y-78238333D02*
X118989104Y-78238333D01*
X118989104Y-78238333D02*
X119131961Y-78285952D01*
X119131961Y-78285952D02*
X119227200Y-78381190D01*
X119227200Y-78381190D02*
X119274819Y-78524047D01*
X119274819Y-78524047D02*
X119274819Y-78619285D01*
X118274819Y-77857380D02*
X118274819Y-77238333D01*
X118274819Y-77238333D02*
X118655771Y-77571666D01*
X118655771Y-77571666D02*
X118655771Y-77428809D01*
X118655771Y-77428809D02*
X118703390Y-77333571D01*
X118703390Y-77333571D02*
X118751009Y-77285952D01*
X118751009Y-77285952D02*
X118846247Y-77238333D01*
X118846247Y-77238333D02*
X119084342Y-77238333D01*
X119084342Y-77238333D02*
X119179580Y-77285952D01*
X119179580Y-77285952D02*
X119227200Y-77333571D01*
X119227200Y-77333571D02*
X119274819Y-77428809D01*
X119274819Y-77428809D02*
X119274819Y-77714523D01*
X119274819Y-77714523D02*
X119227200Y-77809761D01*
X119227200Y-77809761D02*
X119179580Y-77857380D01*
X132954819Y-77666666D02*
X132478628Y-77999999D01*
X132954819Y-78238094D02*
X131954819Y-78238094D01*
X131954819Y-78238094D02*
X131954819Y-77857142D01*
X131954819Y-77857142D02*
X132002438Y-77761904D01*
X132002438Y-77761904D02*
X132050057Y-77714285D01*
X132050057Y-77714285D02*
X132145295Y-77666666D01*
X132145295Y-77666666D02*
X132288152Y-77666666D01*
X132288152Y-77666666D02*
X132383390Y-77714285D01*
X132383390Y-77714285D02*
X132431009Y-77761904D01*
X132431009Y-77761904D02*
X132478628Y-77857142D01*
X132478628Y-77857142D02*
X132478628Y-78238094D01*
X132954819Y-76714285D02*
X132954819Y-77285713D01*
X132954819Y-76999999D02*
X131954819Y-76999999D01*
X131954819Y-76999999D02*
X132097676Y-77095237D01*
X132097676Y-77095237D02*
X132192914Y-77190475D01*
X132192914Y-77190475D02*
X132240533Y-77285713D01*
X135901666Y-74574819D02*
X135901666Y-75289104D01*
X135901666Y-75289104D02*
X135854047Y-75431961D01*
X135854047Y-75431961D02*
X135758809Y-75527200D01*
X135758809Y-75527200D02*
X135615952Y-75574819D01*
X135615952Y-75574819D02*
X135520714Y-75574819D01*
X136901666Y-75574819D02*
X136330238Y-75574819D01*
X136615952Y-75574819D02*
X136615952Y-74574819D01*
X136615952Y-74574819D02*
X136520714Y-74717676D01*
X136520714Y-74717676D02*
X136425476Y-74812914D01*
X136425476Y-74812914D02*
X136330238Y-74860533D01*
X122991905Y-73994819D02*
X122991905Y-72994819D01*
X122991905Y-72994819D02*
X123230000Y-72994819D01*
X123230000Y-72994819D02*
X123372857Y-73042438D01*
X123372857Y-73042438D02*
X123468095Y-73137676D01*
X123468095Y-73137676D02*
X123515714Y-73232914D01*
X123515714Y-73232914D02*
X123563333Y-73423390D01*
X123563333Y-73423390D02*
X123563333Y-73566247D01*
X123563333Y-73566247D02*
X123515714Y-73756723D01*
X123515714Y-73756723D02*
X123468095Y-73851961D01*
X123468095Y-73851961D02*
X123372857Y-73947200D01*
X123372857Y-73947200D02*
X123230000Y-73994819D01*
X123230000Y-73994819D02*
X122991905Y-73994819D01*
X124515714Y-73994819D02*
X123944286Y-73994819D01*
X124230000Y-73994819D02*
X124230000Y-72994819D01*
X124230000Y-72994819D02*
X124134762Y-73137676D01*
X124134762Y-73137676D02*
X124039524Y-73232914D01*
X124039524Y-73232914D02*
X123944286Y-73280533D01*
X113366667Y-59957200D02*
X113509524Y-60004819D01*
X113509524Y-60004819D02*
X113747619Y-60004819D01*
X113747619Y-60004819D02*
X113842857Y-59957200D01*
X113842857Y-59957200D02*
X113890476Y-59909580D01*
X113890476Y-59909580D02*
X113938095Y-59814342D01*
X113938095Y-59814342D02*
X113938095Y-59719104D01*
X113938095Y-59719104D02*
X113890476Y-59623866D01*
X113890476Y-59623866D02*
X113842857Y-59576247D01*
X113842857Y-59576247D02*
X113747619Y-59528628D01*
X113747619Y-59528628D02*
X113557143Y-59481009D01*
X113557143Y-59481009D02*
X113461905Y-59433390D01*
X113461905Y-59433390D02*
X113414286Y-59385771D01*
X113414286Y-59385771D02*
X113366667Y-59290533D01*
X113366667Y-59290533D02*
X113366667Y-59195295D01*
X113366667Y-59195295D02*
X113414286Y-59100057D01*
X113414286Y-59100057D02*
X113461905Y-59052438D01*
X113461905Y-59052438D02*
X113557143Y-59004819D01*
X113557143Y-59004819D02*
X113795238Y-59004819D01*
X113795238Y-59004819D02*
X113938095Y-59052438D01*
X114271429Y-59004819D02*
X114509524Y-60004819D01*
X114509524Y-60004819D02*
X114700000Y-59290533D01*
X114700000Y-59290533D02*
X114890476Y-60004819D01*
X114890476Y-60004819D02*
X115128572Y-59004819D01*
X116033333Y-60004819D02*
X115461905Y-60004819D01*
X115747619Y-60004819D02*
X115747619Y-59004819D01*
X115747619Y-59004819D02*
X115652381Y-59147676D01*
X115652381Y-59147676D02*
X115557143Y-59242914D01*
X115557143Y-59242914D02*
X115461905Y-59290533D01*
X128666666Y-61074819D02*
X128666666Y-61789104D01*
X128666666Y-61789104D02*
X128619047Y-61931961D01*
X128619047Y-61931961D02*
X128523809Y-62027200D01*
X128523809Y-62027200D02*
X128380952Y-62074819D01*
X128380952Y-62074819D02*
X128285714Y-62074819D01*
X129095238Y-61170057D02*
X129142857Y-61122438D01*
X129142857Y-61122438D02*
X129238095Y-61074819D01*
X129238095Y-61074819D02*
X129476190Y-61074819D01*
X129476190Y-61074819D02*
X129571428Y-61122438D01*
X129571428Y-61122438D02*
X129619047Y-61170057D01*
X129619047Y-61170057D02*
X129666666Y-61265295D01*
X129666666Y-61265295D02*
X129666666Y-61360533D01*
X129666666Y-61360533D02*
X129619047Y-61503390D01*
X129619047Y-61503390D02*
X129047619Y-62074819D01*
X129047619Y-62074819D02*
X129666666Y-62074819D01*
%TO.C,R2*%
D12*
X122590000Y-63222936D02*
X122590000Y-64677064D01*
X124410000Y-63222936D02*
X124410000Y-64677064D01*
%TO.C,J3*%
X110280000Y-73980000D02*
X117820000Y-73980000D01*
X110280000Y-75700000D02*
X110280000Y-73980000D01*
X110280000Y-81830000D02*
X110280000Y-76300000D01*
X117820000Y-73980000D02*
X117820000Y-81830000D01*
X117820000Y-81830000D02*
X110280000Y-81830000D01*
X110280000Y-76000000D02*
X109670000Y-76440000D01*
X109670000Y-75560000D01*
X110280000Y-76000000D01*
G36*
X110280000Y-76000000D02*
G01*
X109670000Y-76440000D01*
X109670000Y-75560000D01*
X110280000Y-76000000D01*
G37*
%TO.C,R1*%
X129825000Y-78177064D02*
X129825000Y-76722936D01*
X131645000Y-78177064D02*
X131645000Y-76722936D01*
%TO.C,J1*%
X134855000Y-76120000D02*
X136235000Y-76120000D01*
X134855000Y-77500000D02*
X134855000Y-76120000D01*
X134855000Y-78770000D02*
X134855000Y-78880000D01*
X134855000Y-78770000D02*
X137615000Y-78770000D01*
X134855000Y-78880000D02*
X137615000Y-78880000D01*
X137615000Y-78770000D02*
X137615000Y-78880000D01*
%TO.C,D1*%
X121170000Y-75955000D02*
X121170000Y-79045000D01*
X121170000Y-75955170D02*
G75*
G02*
X126720000Y-77500000I2560000J-1544830D01*
G01*
X126720000Y-77500000D02*
G75*
G02*
X121170000Y-79044830I-2990000J0D01*
G01*
X126230000Y-77500000D02*
G75*
G02*
X121230000Y-77500000I-2500000J0D01*
G01*
X121230000Y-77500000D02*
G75*
G02*
X126230000Y-77500000I2500000J0D01*
G01*
%TO.C,SW1*%
X111200000Y-63050000D02*
X111200000Y-64550000D01*
X112450000Y-67050000D02*
X116950000Y-67050000D01*
X116950000Y-60550000D02*
X112450000Y-60550000D01*
X118200000Y-64550000D02*
X118200000Y-63050000D01*
%TO.C,J2*%
X127620000Y-62620000D02*
X129000000Y-62620000D01*
X127620000Y-64000000D02*
X127620000Y-62620000D01*
X127620000Y-65270000D02*
X127620000Y-65380000D01*
X127620000Y-65270000D02*
X130380000Y-65270000D01*
X127620000Y-65380000D02*
X130380000Y-65380000D01*
X130380000Y-65270000D02*
X130380000Y-65380000D01*
%TD*%
M02*
